<svg width="24" height="25" viewBox="0 0 24 25" fill="none" xmlns="http://www.w3.org/2000/svg">
<g id="flat_icon_24x24">
<path id="Subtract" fill-rule="evenodd" clip-rule="evenodd" d="M22 3.08203V15.457C22 16.0672 21.7371 16.6086 21.3214 16.9841V20.4801C21.7198 20.7198 22 21.1409 22 21.6445C22 22.4038 21.3923 23.0195 20.6429 23.0195H7.07143C4.82281 23.0195 3 21.1727 3 18.8945V5.14453C3 2.86633 4.82281 1.01953 7.07143 1.01953H19.9643C21.0882 1.01953 22 1.94293 22 3.08203ZM7.07143 20.2695H19.2857V17.5195H7.07143C6.32203 17.5195 5.71429 18.1353 5.71429 18.8945C5.71429 19.6538 6.32203 20.2695 7.07143 20.2695ZM8.57839 12.0195C8.29926 12.0195 8.0643 11.7838 8.04575 11.4758C8.03073 11.2247 7.90706 8.99211 8.14291 7.95955L8.14556 7.94896C8.37699 6.8298 9.30713 6.01953 10.3618 6.01953C11.6144 6.01953 12.6337 7.13004 12.6337 8.49363C12.6337 9.23557 12.3316 9.90341 11.8555 10.3576L12.6311 10.6319C12.9111 10.731 13.0648 11.0591 12.9738 11.3652C12.8828 11.6702 12.5816 11.8377 12.3007 11.7385L10.0659 10.9475C9.82123 10.8609 9.66753 10.5963 9.70198 10.3182C9.73554 10.0401 9.94666 9.82835 10.2037 9.81392L10.3353 9.80622H10.3627C11.0261 9.80622 11.5667 9.21825 11.5667 8.49459C11.5667 7.77093 11.027 7.18393 10.3627 7.18393C9.80179 7.18393 9.30802 7.616 9.18788 8.21071L9.18571 8.21978L9.18258 8.23188L9.17905 8.24728C9.01475 8.96708 9.0757 10.7676 9.1128 11.4008C9.13223 11.7212 8.90875 11.9984 8.61461 12.0186C8.60889 12.0186 8.60295 12.0188 8.59701 12.019C8.59105 12.0193 8.58413 12.0195 8.57839 12.0195ZM16 12.0195C14.3453 12.0195 13 10.6732 13 9.01953C13 7.36585 14.3453 6.01953 16 6.01953C16.6732 6.01953 17.31 6.23821 17.8401 6.65037C18.1061 6.85695 18.1535 7.23989 17.9469 7.50492C17.7403 7.77096 17.3574 7.81832 17.0924 7.61174C16.778 7.36686 16.4001 7.23787 16 7.23787C15.0175 7.23787 14.2183 8.037 14.2183 9.01953C14.2183 10.0021 15.0175 10.8012 16 10.8012C16.7689 10.8012 17.4249 10.3124 17.6748 9.6282H16.4152C16.0786 9.6282 15.8055 9.3551 15.8055 9.01953C15.8055 8.68396 16.0786 8.41086 16.4152 8.41086H18.3913C18.7279 8.41086 19 8.68396 19 9.01953C19 10.6742 17.6547 12.0195 16 12.0195Z" fill="#3AB6FF"/>
</g>
</svg>
