<svg width="24" height="25" viewBox="0 0 24 25" fill="none" xmlns="http://www.w3.org/2000/svg">
<rect x="1" y="15.0195" width="7" height="8" rx="1" fill="#3AB6FF"/>
<rect x="9" y="11.0195" width="6" height="12" rx="1" fill="#3AB6FF"/>
<rect x="16" y="15.0195" width="7" height="8" rx="1" fill="#3AB6FF"/>
<g clip-path="url(#clip0_1147_13425)">
<path d="M12.2966 1.21264L13.2765 3.29116C13.3248 3.39347 13.4178 3.46416 13.5254 3.48054L15.7163 3.81388C15.9874 3.85527 16.0959 4.20413 15.8996 4.40471L14.3143 6.02258C14.2363 6.10219 14.2006 6.21684 14.219 6.3292L14.5934 8.61377C14.6398 8.89654 14.3563 9.11235 14.1134 8.97872L12.1536 7.89995C12.0573 7.84679 11.942 7.84679 11.8457 7.89995L9.88595 8.97872C9.64332 9.11235 9.35979 8.89654 9.4059 8.61377L9.78028 6.3292C9.79867 6.21684 9.76299 6.10219 9.68504 6.02258L8.10025 4.40471C7.904 4.20442 8.01214 3.85527 8.28359 3.81388L10.4744 3.48054C10.5823 3.46416 10.6753 3.39318 10.7234 3.29116L11.7035 1.21264C11.8248 0.955161 12.1753 0.955161 12.2966 1.21264Z" fill="#3AB6FF"/>
</g>
<defs>
<clipPath id="clip0_1147_13425">
<rect width="8" height="8" fill="white" transform="translate(8 1.01953)"/>
</clipPath>
</defs>
</svg>
