<svg width="24" height="25" viewBox="0 0 24 25" fill="none" xmlns="http://www.w3.org/2000/svg">
<rect x="1" y="15.0195" width="7" height="8" rx="1" fill="#B3B3B3"/>
<rect x="9" y="11.0195" width="6" height="12" rx="1" fill="#B3B3B3"/>
<rect x="16" y="15.0195" width="7" height="8" rx="1" fill="#B3B3B3"/>
<g clip-path="url(#clip0_1147_13422)">
<path d="M12.8244 3.50466L12.8242 3.50437L12 1.75608L11.1757 3.50415C11.1757 3.50424 11.1756 3.50433 11.1756 3.50442C11.0598 3.7502 10.8295 3.9323 10.5496 3.97485C10.5496 3.97486 10.5495 3.97486 10.5495 3.97487L8.66063 4.26227L10.0422 5.6727L10.0423 5.67276C10.2342 5.86871 10.3172 6.14431 10.2737 6.40996L10.2737 6.41006L9.95228 8.37146L11.6041 7.46218C11.6042 7.46215 11.6042 7.46211 11.6043 7.46208L12.8244 3.50466ZM12.8244 3.50466C12.9405 3.7507 13.1708 3.93231 13.4502 3.97484L13.4502 3.97485L15.3392 4.26226L13.9571 5.67264L13.957 5.67275C13.7651 5.86871 13.6821 6.14431 13.7256 6.40996L13.7256 6.41006L14.047 8.37146L12.3952 7.46218C12.3952 7.46217 12.3952 7.46215 12.3951 7.46214M12.8244 3.50466L12.3951 7.46214M12.3951 7.46214L12.3947 7.46193L12.1536 7.89995L12.3951 7.46214ZM9.64475 8.54075C9.64484 8.5407 9.64494 8.54065 9.64504 8.54059L9.64483 8.5407L9.64475 8.54075ZM11.8443 1.42575L11.8444 1.42585L11.8443 1.42575Z" fill="#B3B3B3" stroke="#B3B3B3"/>
</g>
<defs>
<clipPath id="clip0_1147_13422">
<rect width="8" height="8" fill="white" transform="translate(8 1.01953)"/>
</clipPath>
</defs>
</svg>
