<svg width="24" height="25" viewBox="0 0 24 25" fill="none" xmlns="http://www.w3.org/2000/svg">
<g id="flat_icon_24x24">
<path id="Subtract" fill-rule="evenodd" clip-rule="evenodd" d="M1 4.01953C1 2.91496 1.89543 2.01953 3 2.01953H20.4994C21.604 2.01953 22.4994 2.91496 22.4994 4.01953V16.5575C22.4994 17.6621 21.604 18.5575 20.4994 18.5575H19.4399L15.9737 22.4088C15.3606 23.0901 14.2304 22.6564 14.2304 21.7399V18.5575H3C1.89543 18.5575 1 17.6621 1 16.5575V4.01953ZM5.9614 5.32713C5.50472 5.32713 5.1345 5.69735 5.1345 6.15403C5.1345 6.61072 5.50472 6.98093 5.9614 6.98093L16.7111 6.98093C17.1678 6.98093 17.538 6.61072 17.538 6.15403C17.538 5.69735 17.1678 5.32713 16.7111 5.32713L5.9614 5.32713ZM5.1345 10.2885C5.1345 9.83185 5.50472 9.46163 5.9614 9.46163L16.7111 9.46163C17.1678 9.46163 17.538 9.83185 17.538 10.2885C17.538 10.7452 17.1678 11.1154 16.7111 11.1154L5.9614 11.1154C5.50472 11.1154 5.1345 10.7452 5.1345 10.2885ZM5.9614 13.5961C5.50472 13.5961 5.1345 13.9663 5.1345 14.423C5.1345 14.8797 5.50472 15.2499 5.9614 15.2499L12.5766 15.2499C13.0333 15.2499 13.4035 14.8797 13.4035 14.423C13.4035 13.9664 13.0333 13.5961 12.5766 13.5961L5.9614 13.5961Z" fill="#B3B3B3"/>
</g>
</svg>
