<svg width="24" height="25" viewBox="0 0 24 25" fill="none" xmlns="http://www.w3.org/2000/svg">
<g id="flat_icon_24x24">
<path id="Vector" d="M22.0681 4.41349L22.069 4.41443C22.6431 4.98546 22.6445 5.91507 22.0681 6.49145L20.1821 8.37745L15.639 3.83434L17.525 1.94835C18.0961 1.37726 19.0268 1.37576 19.6034 1.94885C19.6036 1.949 19.6037 1.94915 19.6039 1.94929L22.0681 4.41349ZM2.5078 20.9518L2.50799 20.9506L3.35038 16.1228L14.0069 5.4664C14.007 5.46648 14.0071 5.46656 14.0072 5.46664C14.0074 5.46681 14.0076 5.46701 14.0078 5.46723L18.5521 10.0115L7.89747 20.6661L3.07158 21.5121C3.0713 21.5122 3.07103 21.5122 3.07076 21.5123C2.73474 21.5691 2.44998 21.2787 2.5078 20.9518ZM8.07741 18.4078V17.9078H7.57741H6.10857V16.4389V15.9389H5.60857H4.11963H3.69962L3.62714 16.3527L3.16364 18.9983L3.11878 19.2543L3.30258 19.4381L4.57823 20.7137L4.76203 20.8975L5.01806 20.8527L7.66369 20.3892L8.07741 20.3167V19.8967V18.4078ZM6.73575 13.7925C6.31489 14.2134 6.31489 14.8909 6.73575 15.3118C7.15661 15.7326 7.83414 15.7326 8.255 15.3118L14.5717 8.99512C14.9926 8.57426 14.9926 7.89672 14.5717 7.47587C14.1508 7.05501 13.4733 7.05501 13.0525 7.47587L6.73575 13.7925Z" fill="#B3B3B3" stroke="#B3B3B3"/>
<path id="Line 70" d="M2 22.0195H21" stroke="#B3B3B3" stroke-width="2" stroke-linecap="round"/>
</g>
</svg>
