<svg width="24" height="25" viewBox="0 0 24 25" fill="none" xmlns="http://www.w3.org/2000/svg">
<g id="flat_icon_24x24">
<path id="Vector" d="M22.4217 6.84501L20.5307 8.7359C20.338 8.92868 20.0262 8.92868 19.8334 8.7359L15.2805 4.18299C15.0877 3.99021 15.0877 3.67847 15.2805 3.48569L17.1714 1.5948C17.9384 0.827776 19.1854 0.827776 19.9565 1.5948L22.4217 4.05994C23.1928 4.82696 23.1928 6.07388 22.4217 6.84501ZM13.6562 5.10998L2.88501 15.8811L2.01544 20.8647C1.89648 21.5374 2.48303 22.1198 3.15572 22.005L8.13935 21.1313L18.9106 10.3602C19.1033 10.1674 19.1033 9.85567 18.9106 9.66289L14.3576 5.10998C14.1607 4.9172 13.849 4.9172 13.6562 5.10998ZM7.0893 14.9582C6.86371 14.7326 6.86371 14.3717 7.0893 14.1461L13.406 7.82942C13.6316 7.60383 13.9926 7.60383 14.2181 7.82942C14.4437 8.05502 14.4437 8.41597 14.2181 8.64156L7.90145 14.9582C7.67585 15.1838 7.3149 15.1838 7.0893 14.9582ZM5.60857 18.4078H7.57741V19.8967L4.93178 20.3602L3.65614 19.0846L4.11963 16.4389H5.60857V18.4078Z" fill="#3AB6FF"/>
<path id="Line 70" d="M2 22.0195H21" stroke="#3AB6FF" stroke-width="2" stroke-linecap="round"/>
</g>
</svg>
