<svg width="24" height="25" viewBox="0 0 24 25" fill="none" xmlns="http://www.w3.org/2000/svg">
<g id="flat_icon_24x24">
<path id="Vector" d="M22 7.01953V18.3807C22 18.933 21.5523 19.3807 21 19.3807H13.5084V19.3807C13.0745 19.3807 12.7607 19.949 12.3297 19.9995C12.1039 20.026 11.8926 20.0262 11.669 20.0003C11.2378 19.9505 10.9248 19.3807 10.4907 19.3807V19.3807H3C2.44772 19.3807 2 18.933 2 18.3807V7.01953" stroke="#3AB6FF" stroke-width="1.5" stroke-linecap="round" stroke-linejoin="round"/>
<path id="Subtract" fill-rule="evenodd" clip-rule="evenodd" d="M11.3872 4.28368C11.2003 4.0238 10.9473 3.8291 10.6298 3.8291H4.34059C3.90817 3.8291 3.55762 4.17965 3.55762 4.61207V16.9526C3.55762 17.385 3.90817 17.7355 4.34059 17.7355H10.6298C10.8317 17.7355 10.9328 17.7864 10.9642 17.8106C10.9762 17.8199 10.9792 17.8254 10.9814 17.8299C10.9839 17.8352 10.9954 17.8612 10.9954 17.9226C10.9954 18.355 11.3459 18.7055 11.7784 18.7055C12.2108 18.7055 12.5613 18.355 12.5613 17.9226C12.5613 17.8614 12.5728 17.8355 12.5752 17.8304C12.5774 17.8259 12.5804 17.8203 12.5926 17.811C12.6244 17.7866 12.7261 17.7355 12.9287 17.7355H19.217C19.6495 17.7355 20 17.385 20 16.9526V4.61207C20 4.17965 19.6495 3.8291 19.217 3.8291H12.9287C12.6109 3.8291 12.3574 4.02375 12.1702 4.28356L12.1702 15.5737C12.1702 15.7899 11.9949 15.9652 11.7787 15.9652C11.5625 15.9652 11.3872 15.7899 11.3872 15.5737L11.3872 4.28368Z" fill="#3AB6FF"/>
</g>
</svg>
