<svg width="1718" height="526" viewBox="0 0 1718 526" fill="none" xmlns="http://www.w3.org/2000/svg">
<g clip-path="url(#clip0_4769_61430)">
<path fill-rule="evenodd" clip-rule="evenodd" d="M40.7874 149C41.45 148.503 42.3903 148.637 42.8874 149.3L56.4074 167.32C56.9046 167.982 56.7705 168.923 56.1078 169.42C55.4451 169.917 54.5049 169.783 54.0077 169.12L40.4877 151.1C39.9906 150.438 40.1247 149.497 40.7874 149Z" fill="#B0AED1"/>
<path fill-rule="evenodd" clip-rule="evenodd" d="M48.4492 146C49.2776 146 49.9492 146.672 49.9492 147.5V171.37C49.9492 172.198 49.2776 172.87 48.4492 172.87C47.6208 172.87 46.9492 172.198 46.9492 171.37V147.5C46.9492 146.672 47.6208 146 48.4492 146Z" fill="#B0AED1"/>
<path fill-rule="evenodd" clip-rule="evenodd" d="M37.0391 157.41C37.0391 156.582 37.7106 155.91 38.5391 155.91H58.3591C59.1875 155.91 59.8591 156.582 59.8591 157.41C59.8591 158.238 59.1875 158.91 58.3591 158.91H38.5391C37.7106 158.91 37.0391 158.238 37.0391 157.41Z" fill="#B0AED1"/>
<path fill-rule="evenodd" clip-rule="evenodd" d="M56.1518 149.932C56.7969 150.452 56.8985 151.396 56.3787 152.041L43.3087 168.261C42.7889 168.906 41.8446 169.008 41.1995 168.488C40.5544 167.968 40.4529 167.024 40.9727 166.379L54.0427 150.159C54.5625 149.514 55.5068 149.412 56.1518 149.932Z" fill="#B0AED1"/>
<g clip-path="url(#clip1_4769_61430)">
<path d="M228.308 322.777C223.793 323.025 220.527 323.291 219.66 323.367V328.618C221.132 328.504 224.398 328.257 228.631 328.028L228.308 322.777Z" fill="#9593B2"/>
<path d="M227.442 337.255C223.873 337.464 221.091 337.654 219.66 337.769V343.02C221.374 342.886 224.236 342.696 227.764 342.506L227.442 337.255Z" fill="#9593B2"/>
<path d="M243.931 315.51C240.988 315.548 238.085 315.624 235.344 315.738L235.646 320.494C238.226 320.399 240.968 320.323 243.73 320.304L243.931 315.51Z" fill="#9593B2"/>
<path d="M236.233 322.415C234.157 322.491 232.181 322.567 230.367 322.662L230.69 327.913C232.464 327.818 234.379 327.742 236.354 327.685L236.254 322.415H236.233Z" fill="#9593B2"/>
<path d="M232.441 329.797C226.313 330.063 221.394 330.444 219.66 330.577V335.828C221.898 335.657 226.817 335.295 232.763 335.048L232.441 329.797Z" fill="#9593B2"/>
<path d="M242.866 334.782L243.088 329.493C240.145 329.531 237.242 329.607 234.5 329.721L234.823 334.991C237.403 334.896 240.104 334.82 242.846 334.801L242.866 334.782Z" fill="#9593B2"/>
<path d="M262.298 307.443C263.568 306.473 264.516 305.122 264.879 303.562C252.219 302.211 217.102 303.942 212.324 304.19C212.909 305.883 214.159 307.291 215.792 308.128C220.388 307.652 243.349 305.464 262.298 307.443Z" fill="#9593B2"/>
<path d="M237.101 308.869L231.234 308.946L231.537 313.949C236.738 313.702 243.027 313.493 249.075 313.569L249.377 308.698L239.157 308.85L239.258 313.664L237.201 313.702L237.101 308.888V308.869Z" fill="#9593B2"/>
<path d="M265.037 301.621C264.836 298.368 262.296 295.742 258.97 295.171L258.929 295.076C246.048 294.125 229.618 294.487 218.107 294.924L218.007 295.152C214.539 295.723 211.898 298.577 211.898 302.002C211.898 302.078 211.919 302.154 211.919 302.23C215.769 302.04 251.712 300.194 264.997 301.583L265.037 301.621Z" fill="#9593B2"/>
<path d="M251.412 308.68L251.109 313.607C253.266 313.664 255.363 313.759 257.338 313.893V309.003H257.661C257.661 309.003 257.722 309.003 257.762 309.003C255.665 308.851 253.528 308.737 251.412 308.68Z" fill="#9593B2"/>
<path d="M235.508 351.334C233.452 351.391 231.456 351.486 229.602 351.581L229.985 368.019H235.871L235.488 351.353L235.508 351.334Z" fill="#9593B2"/>
<path d="M229.478 314.063L229.175 309.021C225.345 309.231 222.079 309.497 219.66 309.706V314.71C219.842 314.71 223.813 314.349 229.478 314.044V314.063Z" fill="#9593B2"/>
<path d="M242.221 343.952C239.277 343.99 236.374 344.066 233.633 344.18L233.955 349.45C236.536 349.355 239.237 349.279 241.979 349.26L242.2 343.971L242.221 343.952Z" fill="#9593B2"/>
<path d="M245.991 315.51L245.789 320.304C249.801 320.304 253.772 320.399 257.36 320.666V315.852C253.832 315.605 249.922 315.51 245.991 315.51Z" fill="#9593B2"/>
<path d="M250.604 322.283L250.281 327.572C252.741 327.629 255.119 327.743 257.357 327.914V322.587C255.22 322.435 252.942 322.321 250.604 322.264V322.283Z" fill="#9593B2"/>
<path d="M250.081 351.258L249.557 367.582L247.078 367.506L247.602 351.201C244.275 351.144 240.848 351.201 237.562 351.277L237.946 368H257.359V351.696C255.101 351.486 252.662 351.334 250.081 351.258Z" fill="#9593B2"/>
<path d="M245.144 329.474L244.922 334.763C249.256 334.763 253.55 334.877 257.36 335.201V329.874C253.61 329.569 249.397 329.455 245.144 329.455V329.474Z" fill="#9593B2"/>
<path d="M227.542 351.677C224.156 351.867 221.394 352.057 219.66 352.171V368H227.925L227.542 351.677Z" fill="#9593B2"/>
<path d="M249.737 336.76L249.414 342.049C252.196 342.106 254.877 342.259 257.357 342.468V337.141C254.978 336.931 252.398 336.817 249.737 336.741V336.76Z" fill="#9593B2"/>
<path d="M219.66 314.92V321.427C221.172 321.293 226.696 320.875 233.59 320.589L233.288 315.833C225.688 316.176 219.942 316.651 219.821 316.67L219.66 314.939V314.92Z" fill="#9593B2"/>
<path d="M231.574 344.257C226.272 344.485 221.857 344.809 219.66 344.961V350.212C222.16 350.021 226.635 349.717 231.897 349.508L231.574 344.257Z" fill="#9593B2"/>
<path d="M247.36 342.011L247.683 336.722C244.276 336.684 240.768 336.722 237.442 336.836L237.543 342.106L235.487 342.144L235.386 336.913C233.309 336.989 231.334 337.065 229.52 337.16L229.842 342.411C235.043 342.163 241.333 341.954 247.38 342.03L247.36 342.011Z" fill="#9593B2"/>
<path d="M248.227 327.552L248.549 322.263C245.142 322.225 241.635 322.263 238.309 322.377L238.409 327.647C241.615 327.552 244.961 327.514 248.227 327.552Z" fill="#9593B2"/>
<path d="M257.36 344.428C253.408 344.066 248.873 343.933 244.276 343.952L244.055 349.241C248.732 349.241 253.348 349.374 257.36 349.755V344.428Z" fill="#9593B2"/>
<path d="M249.356 272.131L240.728 250.747C240.486 250.138 240.043 249.7 239.539 249.415V229.001H236.938V229.286L222.141 236.097L236.938 242.147V249.301C236.313 249.567 235.769 250.024 235.487 250.747L226.859 272.131L217.727 294.771C229.217 294.315 245.647 293.953 258.548 294.924L249.356 272.15V272.131Z" fill="#B0AED1"/>
<path d="M73.4099 322.777C68.8943 323.025 65.6286 323.291 64.7617 323.367V328.618C66.2333 328.504 69.4991 328.257 73.7324 328.028L73.4099 322.777Z" fill="#9593B2"/>
<path d="M72.5431 337.255C68.9749 337.464 66.193 337.654 64.7617 337.769V343.02C66.4752 342.886 69.3378 342.696 72.8656 342.506L72.5431 337.255Z" fill="#9593B2"/>
<path d="M89.033 315.51C86.0898 315.548 83.1869 315.624 80.4453 315.738L80.7477 320.494C83.328 320.399 86.0697 320.323 88.8314 320.304L89.033 315.51Z" fill="#9593B2"/>
<path d="M109.454 304.227L129.613 297.568L133.645 315.642L104.414 320.399V308.984L109.454 304.227Z" fill="#B0AED1"/>
<path d="M81.3506 322.415C79.2743 322.491 77.2987 322.567 75.4844 322.662L75.8069 327.913C77.5809 327.818 79.496 327.742 81.4716 327.685L81.3708 322.415H81.3506Z" fill="#9593B2"/>
<path d="M77.5425 329.797C71.4142 330.063 66.4954 330.444 64.7617 330.577V335.828C66.9994 335.657 71.9181 335.295 77.865 335.048L77.5425 329.797Z" fill="#9593B2"/>
<path d="M87.9636 334.782L88.1854 329.493C85.2422 329.531 82.3393 329.607 79.5977 329.721L79.9202 334.991C82.5005 334.896 85.2018 334.82 87.9435 334.801L87.9636 334.782Z" fill="#9593B2"/>
<path d="M107.415 307.443C108.685 306.473 109.633 305.122 109.996 303.562C97.336 302.211 62.2191 303.942 57.4414 304.19C58.026 305.883 59.2759 307.291 60.9087 308.128C65.505 307.652 88.466 305.464 107.415 307.443Z" fill="#9593B2"/>
<path d="M82.1983 308.869L76.332 308.946L76.6344 313.949C81.8354 313.702 88.125 313.493 94.1727 313.569L94.4751 308.698L84.2545 308.85L84.3553 313.664L82.2991 313.702L82.1983 308.888V308.869Z" fill="#9593B2"/>
<path d="M110.139 301.621C109.937 298.368 107.397 295.742 104.071 295.171L104.031 295.076C91.1493 294.125 74.7197 294.487 63.209 294.924L63.1082 295.152C59.6408 295.723 57 298.577 57 302.002C57 302.078 57.0202 302.154 57.0202 302.23C60.8705 302.04 96.8139 300.194 110.099 301.583L110.139 301.621Z" fill="#9593B2"/>
<path d="M96.5289 308.68L96.2266 313.607C98.3836 313.664 100.48 313.759 102.456 313.893V309.003H102.778C102.778 309.003 102.839 309.003 102.879 309.003C100.782 308.851 98.6456 308.737 96.5289 308.68Z" fill="#9593B2"/>
<path d="M80.6058 351.334C78.5496 351.391 76.5538 351.486 74.6992 351.581L75.0822 368.019H80.9686L80.5856 351.353L80.6058 351.334Z" fill="#9593B2"/>
<path d="M74.5791 314.063L74.2767 309.021C70.4465 309.231 67.1808 309.497 64.7617 309.706V314.71C64.9431 314.71 68.9145 314.349 74.5791 314.044V314.063Z" fill="#9593B2"/>
<path d="M87.3182 343.952C84.375 343.99 81.4721 344.066 78.7305 344.18L79.053 349.45C81.6334 349.355 84.3347 349.279 87.0763 349.26L87.298 343.971L87.3182 343.952Z" fill="#9593B2"/>
<path d="M91.0883 315.51L90.8867 320.304C94.8983 320.304 98.8697 320.399 102.458 320.666V315.852C98.9301 315.605 95.0193 315.51 91.0883 315.51Z" fill="#9593B2"/>
<path d="M95.7054 322.283L95.3828 327.572C97.8422 327.629 100.221 327.743 102.459 327.914V322.587C100.322 322.435 98.0438 322.321 95.7054 322.264V322.283Z" fill="#9593B2"/>
<path d="M95.1789 351.258L94.6547 367.582L92.1752 367.506L92.6993 351.201C89.3731 351.144 85.9461 351.201 82.6602 351.277L83.0432 368H102.456V351.696C100.198 351.486 97.7592 351.334 95.1789 351.258Z" fill="#9593B2"/>
<path d="M90.2413 329.474L90.0195 334.763C94.3537 334.763 98.6476 334.877 102.458 335.201V329.874C98.708 329.569 94.4948 329.455 90.2413 329.455V329.474Z" fill="#9593B2"/>
<path d="M72.6439 351.677C69.2572 351.867 66.4954 352.057 64.7617 352.171V368H73.0269L72.6439 351.677Z" fill="#9593B2"/>
<path d="M94.8382 336.76L94.5156 342.049C97.2976 342.106 99.9787 342.259 102.458 342.468V337.141C100.079 336.931 97.4991 336.817 94.8382 336.741V336.76Z" fill="#9593B2"/>
<path d="M64.7617 314.92V321.427C66.2736 321.293 71.7972 320.875 78.6916 320.589L78.3892 315.833C70.7892 316.176 65.0439 316.651 64.923 316.67L64.7617 314.939V314.92Z" fill="#9593B2"/>
<path d="M76.6757 344.257C71.3739 344.485 66.959 344.809 64.7617 344.961V350.212C67.2614 350.021 71.7367 349.717 76.9982 349.508L76.6757 344.257Z" fill="#9593B2"/>
<path d="M92.4579 342.011L92.7804 336.722C89.3735 336.684 85.8659 336.722 82.5397 336.836L82.6404 342.106L80.5842 342.144L80.4834 336.913C78.4071 336.989 76.4315 337.065 74.6172 337.16L74.9397 342.411C80.1407 342.163 86.4303 341.954 92.478 342.03L92.4579 342.011Z" fill="#9593B2"/>
<path d="M93.3245 327.552L93.647 322.263C90.2401 322.225 86.7325 322.263 83.4062 322.377L83.507 327.647C86.7123 327.552 90.0587 327.514 93.3245 327.552Z" fill="#9593B2"/>
<path d="M102.457 344.428C98.5061 344.066 93.9703 343.933 89.3741 343.952L89.1523 349.241C93.8292 349.241 98.4456 349.374 102.457 349.755V344.428Z" fill="#9593B2"/>
<path d="M94.4731 272.131L85.8451 250.747C85.6032 250.138 85.1597 249.7 84.6557 249.415V229.001H82.0552V229.286L67.2586 236.097L82.0552 242.147V249.301C81.4303 249.567 80.886 250.024 80.6038 250.747L71.9758 272.131L62.8438 294.771C74.3343 294.315 90.7639 293.953 103.666 294.924L94.4731 272.15V272.131Z" fill="#B0AED1"/>
<path d="M104.492 317.278L142.835 313.606L145.737 326.829L131.929 328.846L128.239 353.274L104.492 356.756V317.278Z" fill="#9593B2"/>
<path d="M212.261 304.227L192.102 297.568L188.07 315.642L217.301 320.399V308.984L212.261 304.227Z" fill="#B0AED1"/>
<path d="M218.331 316.537L179.989 312.865L177.086 326.088L190.895 328.104L194.584 352.533L218.331 356.034V316.537Z" fill="#9593B2"/>
<path d="M135.296 289.616L133.602 266.976C133.602 266.976 123.765 262.961 125.599 258.072C127.434 253.182 189.929 255.94 189.929 255.94C189.929 255.94 198.232 262.372 185.753 268.136L185.128 290.757L158.729 283.139L135.316 289.597L135.296 289.616Z" fill="#9593B2"/>
<path d="M139.476 314.206L125.082 315.5V296.501C125.14 296.464 125.203 296.423 125.271 296.38C125.683 296.117 126.274 295.742 126.991 295.3C128.426 294.414 130.357 293.258 132.35 292.171C134.352 291.079 136.381 290.076 138.022 289.479C138.847 289.178 139.522 289 140.021 288.948C140.365 288.912 140.519 288.947 140.57 288.962C140.588 288.997 140.623 289.069 140.664 289.198C140.735 289.422 140.803 289.736 140.86 290.146C140.973 290.965 141.03 292.057 141.038 293.35C141.054 295.93 140.877 299.192 140.631 302.411C140.385 305.625 140.073 308.775 139.821 311.122C139.695 312.296 139.585 313.268 139.506 313.946C139.495 314.038 139.485 314.125 139.476 314.206Z" fill="#9593B2" stroke="#0C0541" stroke-width="2"/>
<path d="M173.336 291.184C173.488 291.075 173.683 290.947 173.922 290.812C174.649 290.4 175.791 289.912 177.397 289.671C180.532 289.201 185.545 289.66 192.8 293.687L194.347 315.328L179.243 315.328L173.336 291.184Z" fill="#9593B2" stroke="#0C0541" stroke-width="2"/>
<path d="M160.272 154.993C160.272 154.993 167.268 154.023 168.054 169.928C168.84 185.833 177.851 200.159 184.665 203.469C193.232 207.636 192.97 214.732 192.97 214.732C192.97 214.732 162.611 206.894 125.518 214.485C125.518 214.485 124.41 207.807 136.606 201.167C138.843 199.95 140.779 198.275 142.129 196.202C148.137 187.012 152.229 170.422 152.229 170.422C152.229 170.422 153.257 154.993 160.272 154.993Z" fill="#B0AED1"/>
<path d="M138.328 324.411L138.279 326.797L139.713 325.444L149.009 326.152L150.024 326.23L150.083 325.213L151.633 298.629C152.877 290.965 154.999 287.722 156.603 286.365C157.398 285.692 158.089 285.462 158.542 285.385C158.772 285.345 158.95 285.344 159.059 285.35C159.113 285.353 159.15 285.358 159.168 285.36C159.172 285.361 159.174 285.361 159.176 285.362C161.613 285.89 163.596 288.343 165.137 292.288C166.651 296.166 167.606 301.153 168.198 306.127C168.789 311.088 169.013 315.978 169.088 319.632C169.126 321.458 169.126 322.972 169.118 324.028C169.113 324.557 169.107 324.97 169.101 325.251C169.098 325.392 169.096 325.499 169.094 325.57L169.092 325.651L169.091 325.671L169.091 325.676L169.091 325.677C169.091 325.677 169.091 325.677 170.091 325.707L169.091 325.677L169.06 326.723L170.106 326.707L182.363 326.517L183.415 326.5L183.345 325.45L181.007 290.197L180.971 289.663L180.508 289.397L173.635 285.433L159.52 270.847L158.729 270.029L158.02 270.918L146.436 285.433L140.086 285.61L139.134 285.637L139.115 286.589L138.328 324.411Z" fill="#9593B2" stroke="#0C0541" stroke-width="2"/>
<path d="M140.827 336.47L140.827 336.472L141.411 353.898L141.442 354.825L142.369 354.864L151.118 355.225L152.143 355.267L152.159 354.241L152.361 341.019L152.361 340.98L152.359 340.943L152.359 340.942L152.359 340.942L152.359 340.942L152.359 340.941L152.358 340.929C152.358 340.916 152.357 340.895 152.356 340.866C152.354 340.809 152.352 340.72 152.352 340.604C152.353 340.372 152.363 340.035 152.399 339.627C152.473 338.807 152.653 337.731 153.071 336.664C153.487 335.599 154.126 334.577 155.1 333.811C156.063 333.054 157.418 332.496 159.366 332.452C163.381 332.363 165.359 333.727 166.357 334.953C166.874 335.586 167.163 336.225 167.322 336.702C167.401 336.941 167.447 337.136 167.473 337.265C167.486 337.33 167.493 337.377 167.497 337.406C167.499 337.417 167.5 337.425 167.501 337.429L168.87 353.569L168.948 354.484H169.867H179.2H180.247L180.199 353.439L179.615 340.578L179.613 340.533L179.607 340.49L179.607 340.49L179.607 340.489L179.607 340.489L179.605 340.477C179.604 340.471 179.604 340.464 179.603 340.455C179.601 340.444 179.6 340.432 179.598 340.418C179.593 340.364 179.584 340.282 179.576 340.175C179.56 339.96 179.543 339.649 179.543 339.273C179.543 338.516 179.612 337.531 179.873 336.565C180.135 335.597 180.574 334.71 181.267 334.07C181.94 333.449 182.932 332.985 184.462 332.985C187.646 332.985 189.184 334.25 189.966 335.394C190.375 335.992 190.602 336.594 190.726 337.048C190.788 337.274 190.823 337.46 190.842 337.583C190.851 337.645 190.857 337.691 190.86 337.718C190.861 337.732 190.862 337.741 190.863 337.745C190.863 337.745 190.863 337.745 190.863 337.745C190.863 337.745 190.863 337.746 190.863 337.746C190.863 337.747 190.863 337.747 190.863 337.747L190.865 337.775L190.869 337.808L193.006 353.599L193.117 354.42L193.944 354.464L200.758 354.825L201.792 354.88L201.811 353.844L200.811 353.826C201.811 353.844 201.811 353.844 201.811 353.844L201.811 353.843L201.811 353.841L201.811 353.834L201.811 353.808L201.812 353.706C201.813 353.617 201.815 353.486 201.816 353.317C201.818 352.978 201.819 352.484 201.815 351.863C201.806 350.62 201.776 348.864 201.691 346.808C201.522 342.702 201.131 337.37 200.242 332.528C199.263 327.197 194.859 324.676 191.013 323.491C189.069 322.892 187.192 322.608 185.808 322.472C185.114 322.404 184.539 322.373 184.134 322.359C183.932 322.352 183.772 322.349 183.661 322.348C183.605 322.348 183.562 322.348 183.532 322.348L183.496 322.348L183.488 322.348L183.487 322.348L183.486 322.348L183.482 322.348L183.481 322.348L183.464 322.348L183.392 322.349L183.108 322.35C182.858 322.351 182.49 322.353 182.016 322.355C181.069 322.36 179.702 322.366 178.017 322.372C174.649 322.384 170.016 322.396 164.958 322.396C154.836 322.396 143.027 322.348 136.229 322.158C129.206 321.962 125.737 324.095 124.122 326.602C123.336 327.822 123.045 329.05 122.949 329.967C122.901 330.426 122.901 330.813 122.913 331.09C122.92 331.229 122.929 331.342 122.938 331.423C122.94 331.439 122.941 331.453 122.943 331.466L122.365 352.71L122.056 353.583L123.029 353.902L131.979 356.832L133.306 357.266L133.29 355.87L133.089 338.423L133.088 338.385L133.085 338.349L133.085 338.348L133.085 338.348L133.085 338.347L133.085 338.347L133.084 338.34C133.084 338.332 133.083 338.318 133.082 338.298C133.079 338.259 133.076 338.198 133.073 338.118C133.068 337.959 133.065 337.727 133.076 337.449C133.098 336.885 133.176 336.162 133.386 335.469C133.598 334.771 133.921 334.174 134.384 333.774C134.821 333.396 135.464 333.119 136.493 333.192C138.731 333.352 139.76 334.257 140.264 335.002C140.529 335.395 140.673 335.781 140.749 336.067C140.787 336.209 140.807 336.322 140.817 336.395C140.823 336.431 140.825 336.457 140.827 336.47Z" fill="#9593B2" stroke="#0C0541" stroke-width="2"/>
<path d="M136.144 250.253L135.358 224.778C135.358 224.778 126.529 222.819 125.238 214.733C123.948 206.647 162.855 206.894 162.855 206.894C162.855 206.894 189.324 206.894 192.69 214.98C196.057 223.066 181.784 225.748 181.784 225.748L180.998 250.234H136.104L136.144 250.253Z" fill="#9593B2"/>
<path d="M163.965 235.268H152.409C150.868 230.917 151.272 222.213 158.725 222.213C165.66 222.213 164.735 231.642 163.965 235.268Z" fill="#0C0541"/>
<path d="M159.104 133.361L141.344 141.523L159.104 148.791V156.458H162.228V133H159.104V133.361Z" fill="#9593B2"/>
<path d="M137.958 247.056C137.958 247.056 127.314 252.193 125.5 258.319C124.636 261.249 159.88 260.291 159.88 260.291C159.88 260.291 188.769 261.379 192.235 258.319C190.421 254.4 177.147 245.819 177.147 245.819L137.978 247.037L137.958 247.056Z" fill="#B0AED1"/>
</g>
<path d="M284.797 176.091C285.562 174.734 287.516 174.734 288.281 176.091L291.009 180.931C291.295 181.437 291.786 181.795 292.356 181.91L297.802 183.008C299.329 183.317 299.933 185.175 298.879 186.322L295.119 190.413C294.726 190.841 294.538 191.418 294.604 191.996L295.242 197.515C295.421 199.063 293.84 200.211 292.423 199.563L287.371 197.251C286.843 197.009 286.235 197.009 285.707 197.251L280.655 199.563C279.238 200.211 277.657 199.063 277.836 197.515L278.474 191.996C278.54 191.418 278.353 190.841 277.959 190.413L274.199 186.322C273.145 185.175 273.749 183.317 275.276 183.008L280.722 181.91C281.292 181.795 281.783 181.437 282.069 180.931L284.797 176.091Z" fill="#9593B2"/>
<path fill-rule="evenodd" clip-rule="evenodd" d="M224.16 111.456C224.712 111.049 225.494 111.159 225.908 111.702L237.165 126.456C237.579 126.998 237.467 127.768 236.916 128.175C236.364 128.582 235.581 128.472 235.167 127.93L223.91 113.176C223.496 112.633 223.608 111.863 224.16 111.456Z" fill="#9593B2"/>
<path fill-rule="evenodd" clip-rule="evenodd" d="M230.539 109C231.229 109 231.788 109.55 231.788 110.228V129.772C231.788 130.45 231.229 131 230.539 131C229.849 131 229.29 130.45 229.29 129.772V110.228C229.29 109.55 229.849 109 230.539 109Z" fill="#9593B2"/>
<path fill-rule="evenodd" clip-rule="evenodd" d="M221.039 118.342C221.039 117.664 221.598 117.114 222.288 117.114H238.79C239.48 117.114 240.039 117.664 240.039 118.342C240.039 119.02 239.48 119.57 238.79 119.57H222.288C221.598 119.57 221.039 119.02 221.039 118.342Z" fill="#9593B2"/>
<path fill-rule="evenodd" clip-rule="evenodd" d="M236.952 112.219C237.49 112.645 237.574 113.418 237.141 113.946L226.259 127.227C225.826 127.755 225.04 127.838 224.503 127.412C223.966 126.987 223.881 126.213 224.314 125.685L235.196 112.405C235.629 111.877 236.415 111.794 236.952 112.219Z" fill="#9593B2"/>
<rect x="-32.9805" y="348" width="1768" height="178" fill="#9593B2"/>
<g clip-path="url(#clip2_4769_61430)">
<path d="M1576.84 313.389C1575.38 309.292 1572.17 306.67 1569.29 307.441C1566.41 308.212 1564.94 312.151 1565.76 316.441C1563.25 312.772 1559.36 311.049 1556.75 312.588C1554.73 313.792 1554.07 316.657 1554.83 319.749C1552.35 318.337 1549.74 318.156 1548.06 319.564C1546.43 320.947 1546.14 323.474 1547.03 326.121C1544.49 325.873 1542.28 326.637 1541.27 328.389C1539.88 330.831 1541.29 334.351 1544.47 336.81L1549.83 370.609L1604.02 368.738C1605.29 370.302 1607.21 371.362 1609.43 371.468C1613.5 371.666 1616.93 368.638 1617.12 364.71C1617.23 362.548 1616.28 360.589 1614.77 359.208C1616.89 358.245 1618.33 356.648 1618.42 354.778C1618.5 353.094 1617.48 351.554 1615.82 350.391C1617.75 348.779 1618.71 346.7 1618.2 344.77C1617.75 343.146 1616.32 341.988 1614.39 341.404C1616.12 339.041 1616.63 336.394 1615.36 334.541C1614.22 332.884 1611.96 332.263 1609.46 332.717C1610.29 330.874 1610.34 329.007 1609.39 327.606C1608.28 325.99 1606.1 325.383 1603.67 325.769C1605.19 322.53 1605.01 319.189 1602.97 317.619C1601.63 316.599 1599.79 316.548 1597.92 317.245C1598.22 314.572 1597.43 312.228 1595.58 311.225C1593.4 310.039 1590.46 311.063 1588.16 313.531C1587.76 309.749 1585.72 306.834 1583.02 306.659C1580.17 306.455 1577.6 309.378 1576.82 313.411L1576.84 313.389Z" fill="#908EB3"/>
<path d="M1520.37 334.066C1518.93 331.438 1516.34 329.889 1513.75 330.39C1511.67 330.791 1510.1 332.419 1509.34 334.566C1507 332.75 1504.02 332.369 1501.85 333.833C1500.75 334.577 1500.02 335.707 1499.68 336.995C1497.71 336.581 1495.59 336.944 1493.79 338.153C1492.28 339.176 1491.29 340.657 1490.79 342.288C1487.83 342.175 1484.95 343.794 1483.56 346.63C1483.01 347.789 1482.79 349.027 1482.84 350.225C1480.75 350.793 1478.91 352.191 1477.88 354.275C1476.36 357.432 1477.2 361.077 1479.66 363.319C1478.08 364.036 1476.7 365.256 1475.88 366.952C1474.07 370.813 1475.67 375.417 1479.51 377.268C1482.66 378.797 1486.32 377.948 1488.56 375.464L1549.5 369.577C1550.85 370.472 1552.56 371.029 1554.46 370.993C1558.72 370.929 1562.11 368.07 1562.06 364.615C1562.02 361.863 1559.79 359.584 1556.75 358.792C1558.35 356.645 1558.77 353.983 1557.57 351.898C1556.34 349.793 1553.77 348.863 1551.09 349.247C1553.13 346.032 1552.88 342.115 1550.38 340.145C1548.67 338.8 1546.32 338.683 1544.18 339.627C1544.22 336.849 1542.9 334.357 1540.6 333.428C1537.53 332.184 1533.85 334.132 1532.16 337.777C1532.62 333.704 1530.43 330.075 1527.11 329.553C1524.32 329.116 1521.64 331.053 1520.39 334.065L1520.37 334.066Z" fill="#9593B2"/>
<path d="M1496.32 362.799C1496.32 362.799 1485.1 347.635 1501.39 355.758C1501.39 355.758 1494.86 342.9 1507.47 351.583C1507.47 351.583 1506.2 334.342 1514.7 348.65C1514.7 348.65 1518.92 330.217 1525.25 347.336" stroke="#B0AED1" stroke-width="3" stroke-miterlimit="10" stroke-linecap="round" stroke-linejoin="round"/>
<path d="M1506.04 368.025C1506.04 368.025 1511.88 353.203 1514.28 367.958C1514.28 367.958 1523.84 356.859 1523.35 371.827" stroke="#B0AED1" stroke-width="3" stroke-miterlimit="10" stroke-linecap="round" stroke-linejoin="round"/>
<path d="M1573.31 344.948C1573.31 344.948 1581.51 329.951 1580.79 345.454C1580.79 345.454 1591.76 342.515 1584.81 353.153C1584.81 353.153 1595.53 350.501 1587.37 359.095" stroke="#B0AED1" stroke-width="3" stroke-miterlimit="10" stroke-linecap="round" stroke-linejoin="round"/>
<path d="M1559.43 335.74C1559.43 335.74 1555.99 321.599 1567.14 331.985C1567.14 331.985 1564.47 324.725 1569.47 323.819C1574.47 322.913 1573.76 331.498 1573.76 331.498C1573.76 331.498 1573.99 323.756 1579.09 324.438C1584.18 325.119 1582.73 334.028 1582.73 334.028C1582.73 334.028 1584.58 322.957 1591.27 330.729C1591.27 330.729 1593.22 331.911 1589.72 338.568" stroke="#B0AED1" stroke-width="3" stroke-miterlimit="10" stroke-linecap="round" stroke-linejoin="round"/>
<path d="M1591.04 347.181C1591.04 347.181 1591.68 341.542 1598.08 345.338C1598.08 345.338 1602.86 348.715 1594.31 352.014C1594.31 352.014 1607.02 351.08 1596.65 358.511C1596.65 358.511 1604.51 356.877 1600.46 363.306" stroke="#B0AED1" stroke-width="3" stroke-miterlimit="10" stroke-linecap="round" stroke-linejoin="round"/>
</g>
<path d="M432.411 334.189C437.364 340.97 442.195 349.266 444.079 357.66L438.709 358.881C434.71 341.073 415.092 322.694 414.894 322.516L418.651 318.48C419.139 318.939 425.891 325.239 432.422 334.18L432.411 334.189Z" fill="#9593B2"/>
<path d="M459.671 330.235C454.484 335.536 440.725 350.938 439.37 358.589L433.947 357.657C435.833 346.95 453.71 328.473 455.74 326.395L459.671 330.235Z" fill="#9593B2"/>
<path d="M436.181 359.456L441.684 359.379L441.244 316.404L435.741 316.481L436.181 359.456Z" fill="#9593B2"/>
<path d="M422.248 314.037C419.271 309.961 413.541 309.08 409.449 312.069C405.357 315.058 404.454 320.785 407.43 324.86C410.407 328.935 416.137 329.816 420.229 326.828C424.321 323.839 425.225 318.112 422.248 314.037Z" fill="#B0AED1"/>
<path d="M446.225 305.379C443.248 301.304 437.518 300.423 433.426 303.412C429.334 306.401 428.43 312.127 431.407 316.203C434.384 320.278 440.114 321.159 444.206 318.17C448.298 315.182 449.202 309.455 446.225 305.379Z" fill="#B0AED1"/>
<path d="M464.136 324.154C461.602 320.684 456.723 319.934 453.24 322.478C449.756 325.023 448.986 329.898 451.521 333.368C454.055 336.838 458.933 337.588 462.417 335.043C465.901 332.499 466.67 327.623 464.136 324.154Z" fill="#B0AED1"/>
<path d="M323.328 348.804C323.328 348.804 325.862 341.957 341.264 337.107C355.938 332.479 345.065 325.41 345.065 325.41C345.065 325.41 333.653 319.968 323.867 335.205C323.867 335.205 322.505 326.773 333.917 321.881C333.917 321.881 346.965 319.704 344.516 312.36C342.067 305.016 324.131 313.723 321.418 318.616C318.705 323.508 323.318 307.193 331.468 300.663C331.478 300.663 336.102 291.966 326.59 291.417C326.59 291.417 318.979 290.329 317.892 309.095C317.892 309.095 315.717 290.603 301.318 294.407C301.318 294.407 297.781 297.123 299.956 303.378C299.956 303.378 304.031 307.182 310.555 310.183C310.555 310.183 317.353 313.174 317.079 318.89C317.079 318.89 304.58 308.007 294.794 316.988C294.794 316.988 289.906 325.959 301.318 325.959C301.318 325.959 316.53 322.42 318.979 337.107C318.979 337.107 312.73 327.312 299.418 330.852C299.418 330.852 293.706 332.754 298.605 341.186C298.605 341.186 301.592 343.363 310.016 343.902C318.441 344.44 318.979 348.794 318.979 348.794L323.328 348.794L323.328 348.804Z" fill="#9593B2"/>
<path d="M1369.5 319.664C1369.5 319.664 1382.76 287.818 1420.55 286.666C1458.35 285.513 1468.49 292.596 1506.56 261.497C1544.63 230.398 1541.54 225.737 1574.07 228.049C1606.61 230.361 1640.29 250.804 1684.92 191.034C1684.92 191.034 1692.97 156.37 1654.48 159.654C1654.48 159.654 1636.64 163.101 1614.8 180.099C1592.96 197.097 1567.39 191.405 1567.39 191.405C1567.39 191.405 1544.82 183.306 1502.78 222.922C1460.75 262.538 1458.88 264.185 1431.96 264.015C1405.03 263.846 1359.54 281.847 1343.93 320.266L1369.52 319.654L1369.5 319.664Z" fill="#B0AED1"/>
<path d="M1336.22 176.391L1401.05 133.954L1388.85 169.447L1412.12 132.868L1419.59 138.421L1427.98 116.958L1421 113.874L1416.37 118.616L1412.01 116.04L1374.33 144.246L1405.31 110.622L1397.18 112.505L1412.73 103.382L1403.7 87.8385L1384.1 96.2811L1395.06 105.872L1355.04 134.212L1385.24 122.739L1336.22 176.391Z" fill="#9593B2"/>
<path d="M1385.28 118.159L1394.89 117.538L1360.41 156.465L1406.22 124.515L1405.59 133.449L1414.32 124.076L1417.54 129.295L1421.97 118.246L1421.42 117.229L1401.2 92.9459L1392.07 95.805L1402.09 106.535L1385.28 118.159Z" fill="#A19FC1"/>
<g clip-path="url(#clip3_4769_61430)">
<path d="M1426.24 47.1227C1426.24 47.1227 1461.08 70.0527 1472.55 97.9833L1448.65 99.1581L1423.95 68.63L1426.24 47.1227Z" fill="#A19FC1"/>
<path d="M1409.03 70.7587C1409.03 70.7587 1389.52 65.488 1382.14 81.4667C1382.14 81.4667 1399.51 79.4007 1407.12 89.024C1414.72 98.6473 1409.03 70.7587 1409.03 70.7587Z" fill="#A19FC1"/>
<path d="M1446.36 111.866C1446.36 111.866 1449.73 131.787 1433.11 137.601C1433.11 137.601 1436.84 120.508 1427.99 112.01C1419.14 103.512 1446.36 111.866 1446.36 111.866Z" fill="#A19FC1"/>
<path opacity="0.5" d="M1430.92 79.9087L1437.95 87.6433L1496.16 66.1176L1489.13 58.383L1430.92 79.9087Z" fill="#DBD7F8"/>
<path d="M1426.24 47.1225C1422.57 50.8512 1402.25 72.1832 1401.15 87.8566C1401.15 87.8566 1398.86 95.5844 1410.37 107.983C1410.37 107.983 1420.14 118.194 1425.57 118.906C1429.92 119.477 1450.85 117.029 1472.55 97.9832C1470.67 97.1018 1447.47 85.6768 1426.24 47.1225Z" fill="#B0AED1"/>
<path opacity="0.5" d="M1488.72 80.378C1490.1 78.5326 1491.36 76.7403 1492.49 74.9989C1465.54 58.2165 1452.06 32.6544 1450.27 29.0826C1443.33 33.0024 1435.52 38.6365 1426.8 46.552C1426.8 46.552 1426.6 46.7529 1426.24 47.1226C1447.47 85.6768 1470.66 97.1035 1472.55 97.9832C1477.98 93.2208 1483.45 87.4268 1488.72 80.38L1488.72 80.378Z" fill="#A19FC1"/>
<path d="M1502.47 48.3102C1493.4 41.5549 1481.09 25.5534 1477.77 21.1436C1470.83 20.817 1461.73 22.6159 1450.27 29.0841C1452.06 32.6559 1465.54 58.218 1492.5 75.0004C1499.6 64.1283 1502.16 55.2632 1502.47 48.3121L1502.47 48.3102Z" fill="#B0AED1"/>
<path d="M1502.46 48.31C1503.04 35.1014 1495.49 28.8058 1495.49 28.8058C1495.49 28.8058 1489.93 21.7154 1477.77 21.1434C1481.09 25.5567 1493.4 41.5547 1502.46 48.31Z" fill="#A19FC1"/>
<path d="M1430.87 101.093C1432.07 102.422 1434.06 102.584 1435.3 101.454C1436.55 100.325 1436.58 98.3322 1435.37 97.0035C1434.17 95.6748 1432.18 95.5132 1430.94 96.6426C1429.69 97.772 1429.66 99.7647 1430.87 101.093Z" fill="#A19FC1"/>
<path d="M1431.32 100.685C1432.29 101.748 1433.87 101.877 1434.87 100.974C1435.87 100.07 1435.89 98.4756 1434.92 97.4124C1433.96 96.3492 1432.37 96.2199 1431.37 97.1236C1430.38 98.0273 1430.35 99.6218 1431.32 100.685Z" fill="#B0AED1"/>
<path d="M1432.22 99.868C1432.7 100.4 1433.5 100.465 1434 100.013C1434.49 99.5602 1434.51 98.7622 1434.02 98.2301C1433.54 97.698 1432.74 97.6333 1432.25 98.0856C1431.75 98.5378 1431.74 99.3359 1432.22 99.868Z" fill="#A19FC1"/>
<mask id="mask0_4769_61430" style="mask-type:alpha" maskUnits="userSpaceOnUse" x="1400" y="47" width="73" height="72">
<path d="M1426.24 47.1225C1422.57 50.8512 1402.25 72.1832 1401.15 87.8566C1401.15 87.8566 1398.86 95.5844 1410.37 107.983C1410.37 107.983 1420.14 118.194 1425.57 118.906C1429.92 119.477 1450.85 117.029 1472.55 97.9832C1470.67 97.1018 1447.47 85.6768 1426.24 47.1225Z" fill="#E8EAFF"/>
</mask>
<g mask="url(#mask0_4769_61430)">
<path fill-rule="evenodd" clip-rule="evenodd" d="M1410.39 108.412C1410.39 108.412 1410.39 108.412 1409.31 107.372C1408.23 106.333 1408.47 106.07 1408.47 106.07L1408.48 106.065L1408.49 106.051L1408.54 106C1408.58 105.955 1408.46 106.084 1408.54 106C1408.7 105.832 1408.89 105.658 1409.2 105.354C1409.82 104.747 1410.71 103.893 1411.8 102.901C1413.97 100.921 1416.97 98.371 1420.22 96.1319C1423.44 93.9118 1427.03 91.9092 1430.4 91.1494C1433.79 90.3833 1437.22 90.8483 1439.56 93.9337C1439.59 93.9561 1439.61 93.9817 1439.64 94.0105C1439.73 94.1105 1439.85 94.2495 1439.98 94.4264C1440.25 94.7794 1440.59 95.2901 1440.9 95.9492C1441.52 97.2808 1441.98 99.2019 1441.47 101.584C1440.45 106.302 1436.91 111.638 1423.54 118.5L1420.04 117C1433.22 110.236 1437.81 104.289 1438.53 100.95C1438.89 99.3045 1438.57 98.049 1438.18 97.2109C1437.98 96.7852 1437.76 96.4628 1437.6 96.254C1437.52 96.15 1437.46 96.0759 1437.42 96.0329C1437.4 96.0117 1437.39 95.9983 1437.38 95.9928L1437.3 95.9118L1437.22 95.8073C1435.83 93.9362 1433.79 93.457 1431.06 94.0756C1428.26 94.7078 1425.04 96.4491 1421.92 98.6021C1418.82 100.736 1415.94 103.189 1413.82 105.119C1412.76 106.081 1411.9 106.908 1411.31 107.493C1411.01 107.786 1410.78 108.018 1410.62 108.175C1410.54 108.254 1410.49 108.314 1410.45 108.354L1410.4 108.399L1410.39 108.409L1410.39 108.412Z" fill="#A19FC1"/>
</g>
<path d="M1468.95 25.6003C1468.8 25.3792 1468.54 25.2345 1468.28 25.1713C1467.97 24.9606 1467.6 24.8857 1467.35 25.1133C1464.94 27.3957 1462.22 29.3089 1459.21 30.7841C1458.34 31.2146 1459.47 32.5291 1460.17 32.1818C1461.2 31.6757 1462.2 31.1205 1463.17 30.5242C1463.32 30.6815 1463.52 30.8037 1463.73 30.8388C1465.46 31.1205 1468.25 31.5194 1469.62 30.2948C1471.06 29.0073 1469.89 26.9383 1468.95 25.6001L1468.95 25.6003ZM1467.45 29.5173C1466.54 29.747 1465.51 29.7484 1464.52 29.6504C1465.81 28.7708 1467.03 27.8015 1468.2 26.7422C1468.79 27.8612 1469.01 29.1233 1467.45 29.5192L1467.45 29.5173Z" fill="#A19FC1"/>
<path d="M1473.87 32.9583C1473.83 32.9038 1473.78 32.845 1473.73 32.7858C1473.64 32.5476 1473.4 32.2482 1473.07 32.0855C1470.63 30.8817 1468.46 31.8415 1466.44 33.135C1464.66 34.2764 1462.95 36.2085 1464.87 38.3436C1465.51 39.0547 1466.45 39.5851 1467.38 39.6802C1468.72 39.8178 1469.75 38.9103 1470.78 38.2393C1472.42 37.1674 1475.7 35.4783 1473.87 32.9602L1473.87 32.9583ZM1470.18 36.6248C1469.52 37.0586 1468.86 37.5055 1468.19 37.9244C1467.92 38.09 1467.66 38.2749 1467.35 38.3792C1466.58 38.6464 1465.59 38.033 1465.55 37.1512C1465.47 35.5084 1467.27 34.5594 1468.44 33.8561C1469.62 33.1499 1471.12 32.3793 1472.58 32.8017C1473.74 34.5394 1471.29 35.8919 1470.18 36.6228L1470.18 36.6248Z" fill="#A19FC1"/>
<path d="M1477.56 37.3088C1477.67 37.2401 1477.73 37.1108 1477.71 36.9C1477.7 36.8554 1477.69 36.8106 1477.69 36.766C1477.63 36.3479 1477.13 36.0176 1476.77 35.9191C1476.43 35.8259 1476.09 35.8707 1475.75 36.0026C1475.54 35.9767 1475.4 36.0655 1475.34 36.2146C1474.46 36.7545 1473.67 37.7927 1473.12 38.3685C1471.81 39.7562 1470.59 41.2103 1469.03 42.313C1468.96 42.3255 1468.9 42.3488 1468.85 42.3888C1468.71 42.4925 1468.58 42.5965 1468.44 42.7002C1467.79 43.1984 1469.15 44.2633 1469.73 43.9076C1470.81 43.2477 1471.73 42.4198 1472.6 41.5277C1474.39 41.9082 1477.14 42.1758 1478.45 40.7791C1479.56 39.6056 1478.64 38.3139 1477.56 37.3107L1477.56 37.3088ZM1475.83 40.3041C1475.11 40.4893 1474.34 40.5385 1473.58 40.4853C1474.09 39.9295 1474.59 39.3695 1475.13 38.8407C1475.27 38.6987 1475.9 38.0108 1476.4 37.5769C1476.87 37.9666 1477.35 38.4543 1477.38 38.9266C1477.42 39.7324 1476.42 40.151 1475.83 40.3025L1475.83 40.3041Z" fill="#A19FC1"/>
<path d="M1476.51 50.4187C1476.5 50.3967 1476.49 50.3763 1476.48 50.3542C1476.43 50.2511 1476.34 50.1576 1476.24 50.0717C1476.05 49.4092 1476.31 48.1675 1476.45 47.6256C1476.67 46.7685 1477.05 45.9694 1477.59 45.289C1478.77 43.8054 1480.61 43.0463 1482.54 43.0831C1483.59 43.1033 1482.63 41.7197 1481.9 41.7041C1479.56 41.661 1477.35 42.5891 1475.98 44.4354C1474.91 45.8803 1473.93 48.8274 1475.07 50.6107C1475.29 50.9665 1475.97 51.3147 1476.34 51.0572C1476.37 51.0416 1476.39 51.0256 1476.41 51.0081C1476.6 50.8785 1476.61 50.6212 1476.51 50.4168L1476.51 50.4187Z" fill="#A19FC1"/>
<path d="M1486.01 45.754C1486.06 45.3325 1485.57 44.8914 1485.12 44.7467C1485.09 44.7287 1485.07 44.711 1485.04 44.6945C1483.02 43.4722 1481.04 44.4294 1479.6 45.8709C1478.39 47.0901 1476.12 50.2806 1477.41 52.2076C1478.82 54.2935 1481.7 52.1975 1483.04 51.3643C1484.05 50.7329 1485.41 49.981 1485.99 48.8873C1486.56 47.8378 1485.86 46.8555 1486.01 45.7556L1486.01 45.754ZM1483.54 48.8909C1482.92 49.3879 1482.25 49.8449 1481.57 50.2593C1480.94 50.6442 1479.76 51.5749 1478.99 51.5777C1478.61 51.5785 1478.67 51.6944 1478.75 51.1267C1478.8 50.7425 1478.94 50.3635 1479.07 50.0067C1479.35 49.2536 1479.73 48.5476 1480.2 47.9074C1480.91 46.9421 1482.89 44.7811 1484.4 45.6373C1484.43 46.0037 1484.51 46.3622 1484.58 46.7491C1484.75 47.7735 1484.27 48.3088 1483.54 48.8893L1483.54 48.8909Z" fill="#A19FC1"/>
<path d="M1487.3 53.7842C1488.38 54.1088 1489.5 54.1659 1490.35 53.4135C1491.8 52.1301 1490.25 49.9229 1489.55 48.5355C1489.49 48.4065 1489.4 48.2807 1489.29 48.1679C1489.15 47.6954 1488.23 47.092 1487.87 47.3596C1486.43 48.4367 1485.68 50.0369 1484.63 51.464C1484.09 52.1976 1483.51 52.9071 1482.93 53.6033C1482.59 54.0002 1481.63 54.754 1481.64 55.3289C1481.65 55.8613 1482.34 56.2398 1482.78 56.3269C1482.82 56.3333 1482.85 56.3413 1482.89 56.3477C1483.1 56.3893 1483.26 56.3071 1483.31 56.1097L1483.33 56.0334C1483.34 55.9624 1483.33 55.8855 1483.3 55.8088C1483.57 55.3416 1484.35 54.6923 1484.57 54.4242C1484.93 53.9939 1485.28 53.5561 1485.62 53.1122C1485.65 53.1251 1485.68 53.1377 1485.7 53.1506C1485.28 54.8708 1485.09 56.6346 1485.13 58.4404C1485.15 59.0425 1486.71 59.8375 1486.7 59.2053C1486.65 57.3533 1486.85 55.5429 1487.3 53.7839L1487.3 53.7842ZM1489.28 51.895C1488.85 52.7933 1487.98 52.894 1487.1 52.7127C1486.84 52.4942 1486.49 52.3224 1486.23 52.3151C1487.02 51.2027 1487.65 49.9672 1488.61 49.019C1489.13 49.9609 1489.66 51.0715 1489.28 51.895Z" fill="#A19FC1"/>
<path d="M1497.13 54.869C1497.34 54.1666 1495.78 53.3415 1495.53 54.1681C1494.92 56.2492 1493.84 58.0766 1492.37 59.5636C1492.46 58.9555 1492.5 58.3407 1492.5 57.7116C1492.5 56.2749 1492.38 54.869 1492.84 53.5147C1492.87 53.4287 1492.87 53.3405 1492.85 53.2557C1492.93 53.1876 1493.01 53.1268 1493.09 53.0682C1493.8 52.564 1492.45 51.3802 1491.82 51.8305C1490.35 52.8787 1489.89 54.8203 1489.02 56.3457C1488.54 57.1971 1488.01 58.014 1487.42 58.7895C1487.06 59.2637 1486.36 59.7726 1486.44 60.4488C1486.49 60.8609 1486.96 61.2576 1487.35 61.316C1487.69 61.3685 1487.92 61.3322 1488.13 61.0575C1488.22 60.9292 1488.21 60.7695 1488.16 60.6167C1488.43 60.2553 1489.17 59.446 1489.31 59.2405C1489.79 58.5691 1490.23 57.8699 1490.63 57.1444C1490.73 56.977 1490.81 56.8039 1490.9 56.6269C1490.9 56.7543 1490.9 56.8781 1490.9 57.0054C1490.9 58.5835 1490.64 60.0867 1490.12 61.5434C1489.91 62.1654 1491.11 62.8042 1491.57 62.5036C1494.29 60.6968 1496.2 58.0498 1497.14 54.8658L1497.13 54.869Z" fill="#A19FC1"/>
</g>
<path d="M1310.17 365.512C1310.17 365.512 1321.56 350.43 1328.18 333.885L1334.91 318.108C1334.91 318.108 1338.72 306.79 1349.87 307.782L1371.2 309.142C1373.17 309.267 1375.13 309.117 1377.1 308.941C1379.8 308.692 1384.94 309.759 1389.26 319.813C1389.26 319.813 1409.7 359.495 1414.73 363.282L1310.17 365.512Z" fill="#9593B2"/>
<path d="M1370.98 323.199C1370.02 323.839 1369.53 325.072 1369.89 326.227L1377.37 351.441C1377.8 352.873 1379.31 353.7 1380.75 353.262C1382.18 352.834 1383.01 351.33 1382.57 349.884L1375.08 324.67C1374.66 323.238 1373.15 322.411 1371.71 322.849C1371.44 322.939 1371.2 323.034 1370.97 323.184L1370.98 323.199Z" fill="#B0AED1"/>
<path d="M1361.2 322.978C1360.52 323.428 1360.04 324.179 1359.99 325.057L1358.38 349.184C1358.29 350.679 1359.41 351.977 1360.9 352.071C1362.4 352.165 1363.7 351.044 1363.79 349.549L1365.4 325.423C1365.5 323.927 1364.38 322.63 1362.88 322.535C1362.26 322.489 1361.68 322.658 1361.2 322.978Z" fill="#B0AED1"/>
<path d="M1346.85 322.851C1346.32 323.2 1345.92 323.731 1345.73 324.398L1338.88 349.475C1338.5 350.924 1339.33 352.412 1340.79 352.812C1342.24 353.198 1343.73 352.363 1344.13 350.904L1350.97 325.827C1351.36 324.378 1350.52 322.89 1349.07 322.49C1348.27 322.277 1347.48 322.431 1346.85 322.851Z" fill="#B0AED1"/>
<g clip-path="url(#clip4_4769_61430)">
<path d="M1266.37 294.766C1266.26 294.766 1266.16 294.766 1266.07 294.746C1265.21 294.628 1264.49 294.042 1264.2 293.215C1262.59 288.664 1261.42 270.315 1261.3 268.239C1261.21 266.95 1262.18 265.84 1263.46 265.757C1264.73 265.681 1265.83 266.653 1265.91 267.95C1266.25 273.418 1266.88 281.258 1267.59 286.547L1278.34 270.818C1279.07 269.756 1280.5 269.494 1281.55 270.225C1282.6 270.963 1282.87 272.418 1282.14 273.48L1268.28 293.759C1267.84 294.394 1267.13 294.766 1266.38 294.766H1266.37Z" fill="#9593B2"/>
<path d="M1267.6 384C1266.34 384 1265.3 382.973 1265.29 381.69C1265.24 377.96 1264.06 290.243 1264.06 289.305C1264.06 288.016 1265.09 286.967 1266.37 286.967C1267.64 286.967 1268.67 288.016 1268.67 289.305C1268.67 290.498 1269.89 380.718 1269.91 381.628C1269.93 382.918 1268.91 383.98 1267.63 384H1267.59H1267.6Z" fill="#9593B2"/>
<path d="M1265.75 308.805C1265.24 308.805 1264.74 308.64 1264.32 308.302C1261.63 306.151 1258.56 301.682 1255.18 295.014C1252.74 290.181 1251.05 285.995 1250.98 285.823C1250.5 284.623 1251.07 283.258 1252.25 282.775C1253.43 282.285 1254.78 282.865 1255.26 284.058C1257.08 288.588 1262.77 301.11 1267.18 304.634C1268.18 305.433 1268.35 306.909 1267.56 307.923C1267.1 308.509 1266.43 308.812 1265.74 308.812L1265.75 308.805Z" fill="#9593B2"/>
<path d="M1266.72 309.178C1266.05 309.178 1265.39 308.881 1264.92 308.316C1264.12 307.316 1264.27 305.84 1265.26 305.027C1265.4 304.909 1279.41 293.339 1288.29 282.72C1289.11 281.734 1290.57 281.61 1291.54 282.444C1292.52 283.278 1292.64 284.754 1291.82 285.74C1282.65 296.704 1268.76 308.178 1268.17 308.661C1267.74 309.012 1267.22 309.185 1266.71 309.185L1266.72 309.178Z" fill="#9593B2"/>
<path d="M1266.37 326.12C1265.43 326.12 1264.54 325.534 1264.2 324.589C1262.07 318.728 1246.31 302.399 1240.42 296.6C1239.51 295.697 1239.48 294.221 1240.37 293.291C1241.26 292.367 1242.72 292.339 1243.64 293.242C1245.89 295.449 1265.66 315.06 1268.53 322.975C1268.97 324.189 1268.35 325.534 1267.16 325.982C1266.89 326.078 1266.63 326.127 1266.36 326.127L1266.37 326.12Z" fill="#9593B2"/>
<path d="M1267.29 343.283C1267.17 343.283 1267.05 343.276 1266.93 343.255C1265.67 343.055 1264.81 341.855 1265.01 340.58C1266.92 328.34 1287.61 297.848 1288.5 296.559C1289.22 295.497 1290.66 295.228 1291.71 295.959C1292.76 296.69 1293.02 298.152 1292.3 299.214C1292.25 299.29 1286.95 307.081 1281.5 316.197C1272.54 331.202 1270.08 338.132 1269.58 341.304C1269.4 342.455 1268.42 343.276 1267.3 343.276L1267.29 343.283Z" fill="#9593B2"/>
<path d="M1266.21 339.228C1265.09 339.228 1264.11 338.401 1263.94 337.263C1263.24 335.18 1254.35 324.934 1240.58 311.253C1239.66 310.35 1239.65 308.867 1240.54 307.943C1241.43 307.019 1242.9 307.006 1243.81 307.909C1243.87 307.971 1249.8 313.86 1255.71 320.155C1268.13 333.395 1268.38 335.477 1268.51 336.601C1268.66 337.883 1267.76 339.049 1266.49 339.2C1266.39 339.214 1266.31 339.214 1266.21 339.214V339.228ZM1263.92 337.166C1263.92 337.166 1263.92 337.201 1263.92 337.215C1263.92 337.201 1263.92 337.18 1263.92 337.166Z" fill="#9593B2"/>
<path d="M1250.07 277.548C1250.07 277.548 1242.44 277.617 1242.32 282.203C1242.32 282.203 1242.03 286.657 1247.68 287.85C1247.68 287.85 1255.46 289.229 1256.46 284.533C1256.46 284.533 1259.1 278.169 1250.07 277.548H1250.07Z" fill="#908EB3"/>
<path d="M1250.13 289.098C1248.68 289.098 1247.56 288.905 1247.5 288.891C1242.32 287.795 1241.17 284.023 1241.28 282.161C1241.33 280.506 1242.18 278.307 1245.93 277.155C1247.98 276.528 1249.97 276.507 1250.06 276.5H1250.14C1253.61 276.741 1255.95 277.824 1257.1 279.72C1258.42 281.892 1257.65 284.319 1257.45 284.843C1257.07 286.505 1255.77 288.539 1251.81 289.001C1251.23 289.07 1250.66 289.098 1250.13 289.098ZM1250.04 278.603C1249.77 278.603 1248.12 278.672 1246.5 279.175C1244.44 279.817 1243.39 280.844 1243.35 282.237V282.278C1243.33 282.637 1243.32 285.864 1247.89 286.829C1247.92 286.829 1254.66 287.974 1255.44 284.319L1255.46 284.223L1255.5 284.133C1255.5 284.133 1256.23 282.285 1255.32 280.81C1254.55 279.555 1252.72 278.796 1250.04 278.603Z" fill="#908EB3"/>
<path d="M1280.24 264.978C1280.24 264.978 1271.08 265.095 1271.23 272.797C1271.23 272.797 1270.5 281.354 1278.25 282.423C1278.25 282.423 1286.33 283.678 1288.6 276.038C1288.6 276.038 1292.83 265.474 1280.24 264.978Z" fill="#908EB3"/>
<path d="M1279.61 283.575C1279.06 283.575 1278.54 283.533 1278.09 283.464C1271.24 282.52 1269.93 276.086 1270.19 272.763C1270.16 270.466 1270.87 268.55 1272.29 267.06C1275.18 264.033 1280.02 263.936 1280.22 263.93H1280.27C1284.6 264.102 1287.58 265.433 1289.14 267.881C1291.37 271.39 1289.78 275.831 1289.57 276.383C1287.85 282.113 1282.94 283.568 1279.61 283.568L1279.61 283.575ZM1280.23 266.026C1279.9 266.04 1275.98 266.212 1273.78 268.522C1272.73 269.625 1272.24 271.011 1272.28 272.776V272.887C1272.25 273.19 1271.74 280.465 1278.4 281.382C1278.7 281.43 1285.64 282.389 1287.61 275.735L1287.65 275.638C1287.66 275.604 1289.16 271.742 1287.4 269.005C1286.23 267.17 1283.82 266.171 1280.23 266.019V266.026Z" fill="#908EB3"/>
<path d="M1240.67 289.788C1240.67 289.788 1233.24 289.946 1233.09 296.069C1233.09 296.069 1232.77 302.013 1238.26 303.551C1238.26 303.551 1245.81 305.316 1246.83 299.048C1246.83 299.048 1249.47 290.539 1240.67 289.788Z" fill="#908EB3"/>
<path d="M1240.53 304.826C1239.15 304.826 1238.11 304.592 1238.02 304.571L1237.98 304.558C1233 303.165 1231.93 298.359 1232.05 296.007C1232.18 290.401 1237.73 288.795 1240.65 288.733H1240.75C1243.68 288.981 1245.79 290.056 1247.04 291.932C1248.98 294.863 1248.01 298.669 1247.84 299.269C1247.52 301.158 1246.64 302.599 1245.23 303.558C1243.75 304.564 1241.96 304.813 1240.53 304.813V304.826ZM1238.5 302.53C1238.77 302.585 1242.01 303.241 1244.08 301.82C1245.02 301.179 1245.59 300.213 1245.8 298.869L1245.84 298.724C1245.84 298.724 1246.83 295.38 1245.31 293.097C1244.44 291.794 1242.87 291.036 1240.64 290.829C1239.98 290.856 1234.24 291.236 1234.12 296.083C1234.1 296.318 1233.93 301.22 1238.5 302.517V302.53Z" fill="#908EB3"/>
<path d="M1293.48 276.969C1293.48 276.969 1286.05 277.127 1285.9 283.251C1285.9 283.251 1285.58 289.195 1291.06 290.732C1291.06 290.732 1298.62 292.497 1299.64 286.229C1299.64 286.229 1302.27 277.72 1293.48 276.969Z" fill="#908EB3"/>
<path d="M1293.34 292.008C1291.95 292.008 1290.91 291.773 1290.82 291.753L1290.78 291.739C1285.81 290.339 1284.73 285.533 1284.85 283.189C1284.99 277.583 1290.54 275.976 1293.45 275.914H1293.56C1296.49 276.162 1298.6 277.238 1299.84 279.113C1301.79 282.044 1300.82 285.85 1300.65 286.45C1300.33 288.339 1299.45 289.781 1298.04 290.739C1296.56 291.746 1294.77 291.994 1293.34 291.994V292.008ZM1291.31 289.712C1291.58 289.767 1294.82 290.422 1296.9 289.001C1297.84 288.36 1298.4 287.395 1298.62 286.05L1298.65 285.905C1298.65 285.905 1299.65 282.561 1298.12 280.279C1297.25 278.975 1295.68 278.217 1293.45 278.01C1292.8 278.038 1287.05 278.417 1286.93 283.264C1286.92 283.499 1286.74 288.402 1291.31 289.698V289.712Z" fill="#908EB3"/>
<path d="M1241.77 306.647C1241.77 306.647 1234.14 306.716 1234.03 311.301C1234.03 311.301 1233.74 315.756 1239.39 316.949C1239.39 316.949 1247.17 318.328 1248.17 313.632C1248.17 313.632 1250.81 307.267 1241.78 306.647H1241.77Z" fill="#908EB3"/>
<path d="M1241.84 318.19C1240.39 318.19 1239.27 317.997 1239.21 317.983C1234.03 316.887 1232.88 313.115 1232.99 311.253C1233.04 309.598 1233.89 307.398 1237.64 306.247C1239.69 305.619 1241.68 305.599 1241.77 305.592H1241.85C1245.31 305.833 1247.66 306.916 1248.81 308.812C1250.13 310.984 1249.36 313.411 1249.16 313.935C1248.78 315.597 1247.48 317.631 1243.52 318.093C1242.94 318.162 1242.37 318.19 1241.84 318.19ZM1241.75 307.695C1241.48 307.695 1239.83 307.764 1238.21 308.267C1236.15 308.909 1235.1 309.936 1235.06 311.329V311.37C1235.04 311.729 1235.03 314.956 1239.6 315.921C1239.63 315.921 1246.37 317.066 1247.15 313.411L1247.17 313.315L1247.21 313.225C1247.21 313.225 1247.94 311.377 1247.03 309.902C1246.26 308.647 1244.43 307.888 1241.75 307.695Z" fill="#908EB3"/>
<path d="M1262.34 256.048C1262.34 256.048 1253.19 256.165 1253.34 263.868C1253.34 263.868 1252.6 272.425 1260.35 273.494C1260.35 273.494 1268.44 274.749 1270.7 267.108C1270.7 267.108 1274.94 256.545 1262.34 256.048Z" fill="#908EB3"/>
<path d="M1261.72 274.645C1261.16 274.645 1260.64 274.604 1260.19 274.535C1253.35 273.59 1252.04 267.157 1252.3 263.833C1252.26 261.537 1252.97 259.62 1254.39 258.131C1257.29 255.097 1262.13 255 1262.33 255H1262.39C1266.71 255.172 1269.69 256.503 1271.25 258.951C1273.48 262.461 1271.89 266.902 1271.68 267.453C1269.96 273.183 1265.05 274.638 1261.72 274.638V274.645ZM1262.34 257.103C1262 257.117 1258.08 257.289 1255.89 259.599C1254.84 260.703 1254.35 262.089 1254.38 263.854V263.964C1254.35 264.267 1253.84 271.542 1260.5 272.459C1260.81 272.508 1267.75 273.466 1269.72 266.812L1269.75 266.715C1269.76 266.681 1271.26 262.819 1269.51 260.082C1268.33 258.248 1265.93 257.248 1262.34 257.096V257.103Z" fill="#908EB3"/>
<path d="M1291.83 292.766C1291.83 292.766 1284.4 292.925 1284.25 299.048C1284.25 299.048 1283.93 304.992 1289.42 306.53C1289.42 306.53 1296.97 308.295 1297.99 302.027C1297.99 302.027 1300.63 293.518 1291.83 292.766Z" fill="#908EB3"/>
<path d="M1291.7 307.812C1290.31 307.812 1289.27 307.578 1289.18 307.557L1289.14 307.543C1284.17 306.144 1283.09 301.337 1283.21 298.993C1283.35 293.387 1288.9 291.78 1291.81 291.718H1291.92C1294.85 291.966 1296.96 293.042 1298.2 294.918C1300.15 297.848 1299.18 301.655 1299.01 302.254C1298.69 304.144 1297.81 305.585 1296.4 306.543C1294.92 307.55 1293.13 307.798 1291.7 307.798V307.812ZM1289.67 305.509C1289.93 305.564 1293.17 306.219 1295.25 304.799C1296.19 304.158 1296.75 303.192 1296.97 301.848L1297 301.703C1297 301.703 1298 298.359 1296.47 296.076C1295.6 294.773 1294.04 294.014 1291.8 293.808C1291.15 293.835 1285.41 294.214 1285.28 299.062C1285.27 299.296 1285.09 304.199 1289.67 305.495V305.509Z" fill="#908EB3"/>
</g>
</g>
<defs>
<clipPath id="clip0_4769_61430">
<rect width="1718" height="526" fill="white"/>
</clipPath>
<clipPath id="clip1_4769_61430">
<rect width="208" height="235" fill="white" transform="translate(57.0391 133)"/>
</clipPath>
<clipPath id="clip2_4769_61430">
<rect width="66.921" height="144.611" fill="white" transform="translate(1475.95 381.342) rotate(-94.2038)"/>
</clipPath>
<clipPath id="clip3_4769_61430">
<rect width="79.0923" height="119.385" fill="white" transform="translate(1469.42) rotate(47.7583)"/>
</clipPath>
<clipPath id="clip4_4769_61430">
<rect width="69" height="129" fill="white" transform="translate(1232.04 255)"/>
</clipPath>
</defs>
</svg>
