<svg width="1757" height="525" viewBox="0 0 1757 525" fill="none" xmlns="http://www.w3.org/2000/svg">
<g clip-path="url(#clip0_4763_36216)">
<rect x="-11" y="348" width="1768" height="177" fill="#847B92"/>
<path d="M494.217 310.334C494.217 307.756 496.311 305.667 498.893 305.667H569.025C571.607 305.667 573.7 307.756 573.7 310.334V338.334C573.7 340.911 571.607 343 569.025 343H498.893C496.311 343 494.217 340.911 494.217 338.334V310.334Z" fill="#847B92"/>
<path d="M411.618 310.334C411.618 307.756 413.711 305.667 416.293 305.667H486.425C489.007 305.667 491.1 307.756 491.1 310.334V338.334C491.1 340.911 489.007 343 486.425 343H416.293C413.711 343 411.618 340.911 411.618 338.334V310.334Z" fill="#847B92"/>
<path d="M343.044 310.334C343.044 307.756 345.138 305.667 347.72 305.667H403.825C406.408 305.667 408.501 307.756 408.501 310.334V338.334C408.501 340.911 406.408 343 403.825 343H347.72C345.138 343 343.044 340.911 343.044 338.334V310.334Z" fill="#847B92"/>
<path d="M264.341 310.334C264.341 307.756 266.434 305.667 269.016 305.667H335.252C337.834 305.667 339.928 307.756 339.928 310.334V338.334C339.928 340.911 337.834 343 335.252 343H269.016C266.434 343 264.341 340.911 264.341 338.334V310.334Z" fill="#847B92"/>
<path d="M185.638 310.334C185.638 307.756 187.731 305.667 190.313 305.667H256.549C259.131 305.667 261.224 307.756 261.224 310.334V338.334C261.224 340.911 259.131 343 256.549 343H190.313C187.731 343 185.638 340.911 185.638 338.334V310.334Z" fill="#847B92"/>
<path d="M494.217 227.889C494.217 225.312 496.311 223.222 498.893 223.222H569.025C571.607 223.222 573.7 225.312 573.7 227.889V255.889C573.7 258.466 571.607 260.556 569.025 260.556H498.893C496.311 260.556 494.217 258.466 494.217 255.889V227.889Z" fill="#847B92"/>
<path d="M411.618 227.889C411.618 225.312 413.711 223.222 416.293 223.222H486.425C489.007 223.222 491.1 225.312 491.1 227.889V255.889C491.1 258.466 489.007 260.556 486.425 260.556H416.293C413.711 260.556 411.618 258.466 411.618 255.889V227.889Z" fill="#847B92"/>
<path d="M343.044 227.889C343.044 225.312 345.138 223.222 347.72 223.222H403.825C406.408 223.222 408.501 225.312 408.501 227.889V255.889C408.501 258.466 406.408 260.556 403.825 260.556H347.72C345.138 260.556 343.044 258.466 343.044 255.889V227.889Z" fill="#847B92"/>
<path d="M264.341 227.889C264.341 225.312 266.434 223.222 269.016 223.222H335.252C337.834 223.222 339.928 225.312 339.928 227.889V255.889C339.928 258.466 337.834 260.556 335.252 260.556H269.016C266.434 260.556 264.341 258.466 264.341 255.889V227.889Z" fill="#847B92"/>
<path d="M185.638 227.889C185.638 225.312 187.731 223.222 190.313 223.222H256.549C259.131 223.222 261.224 225.312 261.224 227.889V255.889C261.224 258.466 259.131 260.556 256.549 260.556H190.313C187.731 260.556 185.638 258.466 185.638 255.889V227.889Z" fill="#847B92"/>
<path d="M450.58 269.111C450.58 266.534 452.673 264.445 455.255 264.445H525.387C527.969 264.445 530.063 266.534 530.063 269.111V297.111C530.063 299.689 527.969 301.778 525.387 301.778H455.255C452.673 301.778 450.58 299.689 450.58 297.111V269.111Z" fill="#847B92"/>
<path d="M367.98 269.111C367.98 266.534 370.074 264.445 372.656 264.445H442.787C445.37 264.445 447.463 266.534 447.463 269.111V297.111C447.463 299.689 445.37 301.778 442.787 301.778H372.656C370.074 301.778 367.98 299.689 367.98 297.111V269.111Z" fill="#847B92"/>
<path d="M299.407 269.111C299.407 266.534 301.5 264.445 304.082 264.445H360.188C362.77 264.445 364.863 266.534 364.863 269.111V297.111C364.863 299.689 362.77 301.778 360.188 301.778H304.082C301.5 301.778 299.407 299.689 299.407 297.111V269.111Z" fill="#847B92"/>
<path d="M220.703 269.111C220.703 266.534 222.797 264.445 225.379 264.445H291.615C294.197 264.445 296.29 266.534 296.29 269.111V297.111C296.29 299.689 294.197 301.778 291.615 301.778H225.379C222.797 301.778 220.703 299.689 220.703 297.111V269.111Z" fill="#847B92"/>
<path d="M142 269.111C142 266.534 144.093 264.445 146.675 264.445H212.911C215.493 264.445 217.586 266.534 217.586 269.111V297.111C217.586 299.689 215.493 301.778 212.911 301.778H146.675C144.093 301.778 142 299.689 142 297.111V269.111Z" fill="#847B92"/>
<path d="M535.517 269.111C535.517 266.534 537.611 264.445 540.193 264.445H610.325C612.907 264.445 615 266.534 615 269.111V297.111C615 299.689 612.907 301.778 610.325 301.778H540.193C537.611 301.778 535.517 299.689 535.517 297.111V269.111Z" fill="#847B92"/>
<path d="M450.58 186.667C450.58 184.089 452.673 182 455.255 182H525.387C527.969 182 530.063 184.089 530.063 186.667V214.667C530.063 217.244 527.969 219.333 525.387 219.333H455.255C452.673 219.333 450.58 217.244 450.58 214.667V186.667Z" fill="#847B92"/>
<path d="M367.98 186.667C367.98 184.089 370.074 182 372.656 182H442.787C445.37 182 447.463 184.089 447.463 186.667V214.667C447.463 217.244 445.37 219.333 442.787 219.333H372.656C370.074 219.333 367.98 217.244 367.98 214.667V186.667Z" fill="#847B92"/>
<path d="M299.407 186.667C299.407 184.089 301.5 182 304.082 182H360.188C362.77 182 364.863 184.089 364.863 186.667V214.667C364.863 217.244 362.77 219.333 360.188 219.333H304.082C301.5 219.333 299.407 217.244 299.407 214.667V186.667Z" fill="#847B92"/>
<path d="M220.703 186.667C220.703 184.089 222.797 182 225.379 182H291.615C294.197 182 296.29 184.089 296.29 186.667V214.667C296.29 217.244 294.197 219.333 291.615 219.333H225.379C222.797 219.333 220.703 217.244 220.703 214.667V186.667Z" fill="#847B92"/>
<path d="M142 186.667C142 184.089 144.093 182 146.675 182H212.911C215.493 182 217.586 184.089 217.586 186.667V214.667C217.586 217.244 215.493 219.333 212.911 219.333H146.675C144.093 219.333 142 217.244 142 214.667V186.667Z" fill="#847B92"/>
<path d="M535.517 186.667C535.517 184.089 537.611 182 540.193 182H610.325C612.907 182 615 184.089 615 186.667V214.667C615 217.244 612.907 219.333 610.325 219.333H540.193C537.611 219.333 535.517 217.244 535.517 214.667V186.667Z" fill="#847B92"/>
<path d="M418.631 146.334C418.631 143.756 420.724 141.667 423.306 141.667H479.412C481.994 141.667 484.087 143.756 484.087 146.334V174.334C484.087 176.911 481.994 179 479.412 179H423.306C420.724 179 418.631 176.911 418.631 174.334V146.334Z" fill="#847B92"/>
<path d="M339.928 146.334C339.928 143.756 342.021 141.667 344.603 141.667H410.839C413.421 141.667 415.514 143.756 415.514 146.334V174.334C415.514 176.911 413.421 179 410.839 179H344.603C342.021 179 339.928 176.911 339.928 174.334V146.334Z" fill="#847B92"/>
<path d="M206.378 300.808C206.378 300.808 160.629 287.19 156.431 329.796C152.233 372.403 173.688 383.171 203.539 385.511C233.389 387.852 259.978 365.375 260.443 344.306C260.908 323.236 259.549 286.754 206.378 300.802V300.808Z" fill="#8E849D"/>
<path d="M195.613 274.706C195.613 274.706 204.166 285.941 201.364 297.649L200.584 299.832L206.377 300.808L217.068 298.116L205.561 275.488C205.561 275.488 200.119 270.807 195.613 274.706Z" fill="#A4979E"/>
<path d="M281.656 288.916C281.656 288.916 250.561 303.274 249.939 331.68C249.316 360.086 240.298 403.159 294.092 407.84C347.886 412.521 350.689 366.634 350.689 366.634L350.381 335.421C350.381 335.421 348.829 300.776 309.646 287.352L281.662 288.91L281.656 288.916Z" fill="#8E849D"/>
<path d="M297.51 258.327L295.021 278.93L278.852 288.916L287.555 290.165L287.247 305.462L295.951 295.161L299.37 304.522L306.214 295.161L309.946 302.03L313.987 294.852L321.139 295.161C321.139 295.161 321.139 287.357 311.191 279.863L313.057 260.825C313.057 260.825 307.458 249.59 297.51 258.327Z" fill="#A4979E"/>
<path d="M401.471 309.786C401.471 309.786 447.806 307.912 450.602 337.567C453.399 367.222 437.229 392.191 405.204 395.629C373.179 399.066 343.015 377.839 343.015 360.359C343.015 342.879 340.84 317.595 389.657 309.482L401.471 309.792V309.786Z" fill="#8E849D"/>
<path d="M401.779 287.625L411.105 287L403.64 307.288L405.192 312.593C405.192 312.593 389.953 313.217 389.645 309.47C389.645 309.47 392.755 315.4 401.773 287.618L401.779 287.625Z" fill="#A4979E"/>
<path d="M199.112 326.983C203.879 326.983 207.743 322.477 207.743 316.918C207.743 311.36 203.879 306.854 199.112 306.854C194.345 306.854 190.48 311.36 190.48 316.918C190.48 322.477 194.345 326.983 199.112 326.983Z" fill="#A4979E"/>
<path d="M227.333 328.39C231.456 328.39 234.799 323.675 234.799 317.858C234.799 312.041 231.456 307.326 227.333 307.326C223.21 307.326 219.867 312.041 219.867 317.858C219.867 323.675 223.21 328.39 227.333 328.39Z" fill="#A4979E"/>
<path d="M175.555 335.417L190.946 331.203L191.411 337.291L186.283 339.631C186.283 339.631 184.881 354.613 210.54 355.08C236.199 355.547 238.059 341.032 238.059 341.032L232.46 339.625L234.791 333.537L249.251 337.285L248.321 342.432L242.722 342.899C242.722 342.899 234.326 361.161 210.069 359.755C185.811 358.348 189.079 352.734 179.753 341.965L174.625 342.432L175.555 335.411V335.417Z" fill="#A4979E"/>
<path d="M312.438 310.452L303.734 325.75L309.956 326.999L310.264 322.318L315.863 322.009L316.171 326.689H323.945C323.945 326.689 325.811 321.069 312.438 310.458V310.452Z" fill="#A4979E"/>
<path d="M288.187 309.519C288.187 309.519 298.135 316.388 296.582 326.999L289.431 327.308V320.129H281.965V325.75H274.191C274.191 325.75 282.279 309.519 288.187 309.519Z" fill="#A4979E"/>
<path d="M333.9 331.679C333.9 331.679 340.744 347.911 329.859 381.622L321.156 369.447L311.83 382.247L305.608 369.763L294.724 380.998L290.683 364.142L278.868 377.566L275.45 362.268L262.391 377.566L264.257 326.689L270.164 339.798L276.072 335.742L281.979 351.664L290.997 342.927L297.526 355.411L303.126 346.983L309.347 356.969L317.121 344.794L323.65 351.664L333.912 331.686L333.9 331.679Z" fill="#A4979E"/>
<path d="M375.196 318.292L372.629 329.764L388.255 325.55L375.196 318.292Z" fill="#A4979E"/>
<path d="M401.078 322.743C401.078 322.743 413.436 330 413.672 329.297C413.907 328.594 413.672 317.589 413.672 317.589L401.078 322.737V322.743Z" fill="#A4979E"/>
<path d="M433.969 333.977L418.579 340.295V348.256L406.915 348.723L406.68 340.998L392.685 342.169L394.086 350.36L381.257 349.426L382.658 339.592L371.465 339.125L369.37 345.916L361.209 344.746L363.076 335.147L354.215 331.4L349.781 362.068C349.781 362.068 359.343 368.386 359.808 367.452C360.273 366.519 360.738 357.618 360.738 357.618L372.631 359.255L374.033 370.023L392.691 371.43L392.926 359.255L407.151 358.788L407.852 370.496L419.28 367.689L418.579 357.624L427.44 355.283L429.771 362.541L438.403 358.091C438.403 358.091 442.365 351.069 433.969 333.977Z" fill="#A4979E"/>
<path d="M1318 173L1406.16 209.776L1524 227.865" stroke="#847B92" stroke-width="3" stroke-linecap="round" stroke-linejoin="round"/>
<path d="M1293.5 267L1406.16 209.429L1488.84 161.946" stroke="#847B92" stroke-width="3" stroke-linecap="round" stroke-linejoin="round"/>
<path d="M1424.46 118L1406.22 209.71L1450.17 269.175" stroke="#847B92" stroke-width="3" stroke-linecap="round" stroke-linejoin="round"/>
<path d="M1383.99 275.327L1406.22 209.408L1362.5 128.5" stroke="#847B92" stroke-width="3" stroke-linecap="round" stroke-linejoin="round"/>
<path d="M1456.53 180.277C1456.53 180.277 1449 205.805 1460.72 217.951C1460.72 217.951 1440.6 240.553 1439.35 247.252L1394.53 248.081L1367.3 232.179C1367.3 232.179 1358.09 192.423 1353.49 188.651C1353.49 188.651 1373.18 171.497 1378.21 157.253C1378.21 157.253 1411.31 156.424 1418.42 151.399L1456.53 180.277Z" stroke="#847B92" stroke-width="3" stroke-linecap="round" stroke-linejoin="round"/>
<path d="M1451.46 183.531C1451.46 183.531 1446.86 207.228 1455.44 217.088L1434.31 244.141L1395.38 244.565L1370.06 229.246C1370.06 229.246 1367.14 203.235 1358.76 190.653C1358.76 190.653 1377.59 174.29 1380.94 165.49C1380.94 165.49 1403.12 167.168 1416.94 156.673C1416.94 156.673 1443.72 182.26 1451.48 183.515L1451.46 183.531Z" stroke="#847B92" stroke-width="3" stroke-linecap="round" stroke-linejoin="round"/>
<path d="M1445.34 187.382C1445.34 187.382 1443.24 204.303 1450.17 216.011L1430.43 241.928L1395.99 241.295C1395.99 241.295 1385.91 233.776 1373.53 226.875C1373.53 226.875 1373.95 209.954 1364.91 194.056C1364.91 194.056 1382.55 177.542 1384.23 171.062C1384.23 171.062 1405.65 171.484 1415.31 164.583C1415.31 164.583 1431.26 181.715 1445.32 187.366L1445.34 187.382Z" stroke="#847B92" stroke-width="3" stroke-linecap="round" stroke-linejoin="round"/>
<path d="M1414.33 168.978C1414.33 168.978 1421.7 182.721 1441.52 188.986C1441.52 188.986 1441.73 204.607 1444.9 214.401C1444.9 214.401 1433.08 230.654 1428.02 237.534L1397.45 236.077C1397.45 236.077 1388.39 229.197 1378.69 223.79C1378.69 223.79 1376.17 203.782 1371.95 195.672C1371.95 195.672 1384.38 185.246 1387.75 177.331C1387.75 177.331 1407.36 174.627 1414.33 168.994V168.978Z" stroke="#847B92" stroke-width="3" stroke-linecap="round" stroke-linejoin="round"/>
<path d="M1377.22 197.777C1377.22 197.777 1381.39 208.261 1382.44 222.296C1382.44 222.296 1388.91 224.803 1397.88 231.511L1423.97 234.018L1439.62 214.741C1439.62 214.741 1434.82 201.749 1435.24 193.153C1435.24 193.153 1416.25 184.149 1412.7 175.13C1412.7 175.13 1400.8 182.456 1391.2 181.838C1391.2 181.838 1382.02 197.142 1377.22 197.76V197.777Z" stroke="#847B92" stroke-width="3" stroke-linecap="round" stroke-linejoin="round"/>
<path d="M1393.43 187.204C1393.43 187.204 1387.1 196.338 1381.61 200.292C1381.61 200.292 1386.47 210.056 1387.1 218.771L1399.97 226.662L1420.43 228.744L1434.35 214.203L1430.55 196.128C1430.55 196.128 1414.94 189.479 1411.78 183.04C1411.78 183.04 1401.65 186.784 1393.42 187.188L1393.43 187.204Z" stroke="#847B92" stroke-width="3" stroke-linecap="round" stroke-linejoin="round"/>
<path d="M1410.96 189.192C1410.96 189.192 1417.02 197.356 1425.39 198.608L1430.83 212.836L1417.66 224.349L1401.77 222.886L1392.79 216.398L1387.77 201.958L1395.92 191.697L1410.98 189.192H1410.96Z" stroke="#847B92" stroke-width="3" stroke-linecap="round" stroke-linejoin="round"/>
<path d="M1420.71 201.267L1425.56 212.731L1414.38 219.956L1403.83 218.685L1397.72 213.803L1393.92 204.682L1399.41 197.259L1409.32 195.346C1409.32 195.346 1411.43 200.443 1420.71 201.284V201.267Z" stroke="#847B92" stroke-width="3" stroke-linecap="round" stroke-linejoin="round"/>
<path d="M1536.22 226.333C1536.22 223.756 1538.31 221.667 1540.89 221.667H1611.02C1613.61 221.667 1615.7 223.756 1615.7 226.333V254.333C1615.7 256.911 1613.61 259 1611.02 259H1540.89C1538.31 259 1536.22 256.911 1536.22 254.333V226.333Z" fill="#847B92"/>
<path d="M1473.62 226.333C1473.62 223.756 1475.71 221.667 1478.29 221.667H1528.42C1531.01 221.667 1533.1 223.756 1533.1 226.333V254.333C1533.1 256.911 1531.01 259 1528.42 259H1478.29C1475.71 259 1473.62 256.911 1473.62 254.333V226.333Z" fill="#847B92"/>
<path d="M1227.64 226.333C1227.64 223.756 1229.73 221.667 1232.31 221.667H1298.55C1301.13 221.667 1303.22 223.756 1303.22 226.333V254.333C1303.22 256.911 1301.13 259 1298.55 259H1232.31C1229.73 259 1227.64 256.911 1227.64 254.333V226.333Z" fill="#847B92"/>
<path d="M1536.22 143.889C1536.22 141.312 1538.31 139.222 1540.89 139.222H1611.02C1613.61 139.222 1615.7 141.312 1615.7 143.889V171.889C1615.7 174.466 1613.61 176.556 1611.02 176.556H1540.89C1538.31 176.556 1536.22 174.466 1536.22 171.889V143.889Z" fill="#847B92"/>
<path d="M1453.62 143.889C1453.62 141.312 1455.71 139.222 1458.29 139.222H1528.42C1531.01 139.222 1533.1 141.312 1533.1 143.889V171.889C1533.1 174.466 1531.01 176.556 1528.42 176.556H1458.29C1455.71 176.556 1453.62 174.466 1453.62 171.889V143.889Z" fill="#847B92"/>
<path d="M1306.34 143.889C1306.34 141.312 1308.43 139.222 1311.02 139.222H1356.25C1358.83 139.222 1360.93 141.312 1360.93 143.889V171.889C1360.93 174.466 1358.83 176.556 1356.25 176.556H1311.02C1308.43 176.556 1306.34 174.466 1306.34 171.889V143.889Z" fill="#847B92"/>
<path d="M1227.64 143.889C1227.64 141.312 1229.73 139.222 1232.31 139.222H1298.55C1301.13 139.222 1303.22 141.312 1303.22 143.889V171.889C1303.22 174.466 1301.13 176.556 1298.55 176.556H1232.31C1229.73 176.556 1227.64 174.466 1227.64 171.889V143.889Z" fill="#847B92"/>
<path d="M1492.58 185.111C1492.58 182.534 1494.67 180.444 1497.26 180.444H1567.39C1569.97 180.444 1572.06 182.534 1572.06 185.111V213.111C1572.06 215.688 1569.97 217.778 1567.39 217.778H1497.26C1494.67 217.778 1492.58 215.688 1492.58 213.111V185.111Z" fill="#847B92"/>
<path d="M1262.7 185.111C1262.7 182.534 1264.8 180.444 1267.38 180.444H1333.61C1336.2 180.444 1338.29 182.534 1338.29 185.111V213.111C1338.29 215.688 1336.2 217.778 1333.61 217.778H1267.38C1264.8 217.778 1262.7 215.688 1262.7 213.111V185.111Z" fill="#847B92"/>
<path d="M1184 185.111C1184 182.534 1186.09 180.444 1188.68 180.444H1254.91C1257.49 180.444 1259.59 182.534 1259.59 185.111V213.111C1259.59 215.688 1257.49 217.778 1254.91 217.778H1188.68C1186.09 217.778 1184 215.688 1184 213.111V185.111Z" fill="#847B92"/>
<path d="M1577.52 185.111C1577.52 182.534 1579.61 180.444 1582.19 180.444H1652.32C1654.91 180.444 1657 182.534 1657 185.111V213.111C1657 215.688 1654.91 217.778 1652.32 217.778H1582.19C1579.61 217.778 1577.52 215.688 1577.52 213.111V185.111Z" fill="#847B92"/>
<path d="M1492.58 102.667C1492.58 100.089 1494.67 98 1497.26 98H1567.39C1569.97 98 1572.06 100.089 1572.06 102.667V130.667C1572.06 133.244 1569.97 135.333 1567.39 135.333H1497.26C1494.67 135.333 1492.58 133.244 1492.58 130.667V102.667Z" fill="#847B92"/>
<path d="M1409.98 102.667C1409.98 100.089 1412.07 98 1414.66 98H1484.79C1487.37 98 1489.46 100.089 1489.46 102.667V130.667C1489.46 133.244 1487.37 135.333 1484.79 135.333H1414.66C1412.07 135.333 1409.98 133.244 1409.98 130.667V102.667Z" fill="#847B92"/>
<path d="M1341.41 102.667C1341.41 100.089 1343.5 98 1346.08 98H1402.19C1404.77 98 1406.86 100.089 1406.86 102.667V130.667C1406.86 133.244 1404.77 135.333 1402.19 135.333H1346.08C1343.5 135.333 1341.41 133.244 1341.41 130.667V102.667Z" fill="#847B92"/>
<path d="M1262.7 102.667C1262.7 100.089 1264.8 98 1267.38 98H1333.61C1336.2 98 1338.29 100.089 1338.29 102.667V130.667C1338.29 133.244 1336.2 135.333 1333.61 135.333H1267.38C1264.8 135.333 1262.7 133.244 1262.7 130.667V102.667Z" fill="#847B92"/>
<path d="M1184 102.667C1184 100.089 1186.09 98 1188.68 98H1254.91C1257.49 98 1259.59 100.089 1259.59 102.667V130.667C1259.59 133.244 1257.49 135.333 1254.91 135.333H1188.68C1186.09 135.333 1184 133.244 1184 130.667V102.667Z" fill="#847B92"/>
<path d="M1577.52 102.667C1577.52 100.089 1579.61 98 1582.19 98H1652.32C1654.91 98 1657 100.089 1657 102.667V130.667C1657 133.244 1654.91 135.333 1652.32 135.333H1582.19C1579.61 135.333 1577.52 133.244 1577.52 130.667V102.667Z" fill="#847B92"/>
<path d="M1492.58 267.167C1492.58 264.589 1494.67 262.5 1497.26 262.5H1567.39C1569.97 262.5 1572.06 264.589 1572.06 267.167V295.167C1572.06 297.744 1569.97 299.833 1567.39 299.833H1497.26C1494.67 299.833 1492.58 297.744 1492.58 295.167V267.167Z" fill="#847B92"/>
<path d="M1409.98 267.167C1409.98 264.589 1412.07 262.5 1414.66 262.5H1484.79C1487.37 262.5 1489.46 264.589 1489.46 267.167V295.167C1489.46 297.744 1487.37 299.833 1484.79 299.833H1414.66C1412.07 299.833 1409.98 297.744 1409.98 295.167V267.167Z" fill="#847B92"/>
<path d="M1341.41 267.167C1341.41 264.589 1343.5 262.5 1346.08 262.5H1402.19C1404.77 262.5 1406.86 264.589 1406.86 267.167V295.167C1406.86 297.744 1404.77 299.833 1402.19 299.833H1346.08C1343.5 299.833 1341.41 297.744 1341.41 295.167V267.167Z" fill="#847B92"/>
<path d="M1262.7 267.167C1262.7 264.589 1264.8 262.5 1267.38 262.5H1333.61C1336.2 262.5 1338.29 264.589 1338.29 267.167V295.167C1338.29 297.744 1336.2 299.833 1333.61 299.833H1267.38C1264.8 299.833 1262.7 297.744 1262.7 295.167V267.167Z" fill="#847B92"/>
<path d="M1184 267.167C1184 264.589 1186.09 262.5 1188.68 262.5H1254.91C1257.49 262.5 1259.59 264.589 1259.59 267.167V295.167C1259.59 297.744 1257.49 299.833 1254.91 299.833H1188.68C1186.09 299.833 1184 297.744 1184 295.167V267.167Z" fill="#847B92"/>
<path d="M1577.52 267.167C1577.52 264.589 1579.61 262.5 1582.19 262.5H1652.32C1654.91 262.5 1657 264.589 1657 267.167V295.167C1657 297.744 1654.91 299.833 1652.32 299.833H1582.19C1579.61 299.833 1577.52 297.744 1577.52 295.167V267.167Z" fill="#847B92"/>
<path d="M1449.58 308.833C1449.58 306.256 1451.67 304.167 1454.26 304.167H1524.39C1526.97 304.167 1529.06 306.256 1529.06 308.833V336.833C1529.06 339.411 1526.97 341.5 1524.39 341.5H1454.26C1451.67 341.5 1449.58 339.411 1449.58 336.833V308.833Z" fill="#847B92"/>
<path d="M1366.98 308.833C1366.98 306.256 1369.07 304.167 1371.66 304.167H1441.79C1444.37 304.167 1446.46 306.256 1446.46 308.833V336.833C1446.46 339.411 1444.37 341.5 1441.79 341.5H1371.66C1369.07 341.5 1366.98 339.411 1366.98 336.833V308.833Z" fill="#847B92"/>
<path d="M1298.41 308.833C1298.41 306.256 1300.5 304.167 1303.08 304.167H1359.19C1361.77 304.167 1363.86 306.256 1363.86 308.833V336.833C1363.86 339.411 1361.77 341.5 1359.19 341.5H1303.08C1300.5 341.5 1298.41 339.411 1298.41 336.833V308.833Z" fill="#847B92"/>
<path d="M1219.7 308.833C1219.7 306.256 1221.8 304.167 1224.38 304.167H1290.61C1293.2 304.167 1295.29 306.256 1295.29 308.833V336.833C1295.29 339.411 1293.2 341.5 1290.61 341.5H1224.38C1221.8 341.5 1219.7 339.411 1219.7 336.833V308.833Z" fill="#847B92"/>
<path d="M1141 308.833C1141 306.256 1143.09 304.167 1145.68 304.167H1211.91C1214.49 304.167 1216.59 306.256 1216.59 308.833V336.833C1216.59 339.411 1214.49 341.5 1211.91 341.5H1145.68C1143.09 341.5 1141 339.411 1141 336.833V308.833Z" fill="#847B92"/>
<path d="M1534.52 308.833C1534.52 306.256 1536.61 304.167 1539.19 304.167H1609.32C1611.91 304.167 1614 306.256 1614 308.833V336.833C1614 339.411 1611.91 341.5 1609.32 341.5H1539.19C1536.61 341.5 1534.52 339.411 1534.52 336.833V308.833Z" fill="#847B92"/>
<path d="M1366.98 61.6667C1366.98 59.0893 1369.07 57 1371.66 57H1441.79C1444.37 57 1446.46 59.0893 1446.46 61.6667V89.6667C1446.46 92.244 1444.37 94.3333 1441.79 94.3333H1371.66C1369.07 94.3333 1366.98 92.244 1366.98 89.6667V61.6667Z" fill="#847B92"/>
<path d="M1451.92 61.6667C1451.92 59.0893 1454.01 57 1456.59 57H1526.72C1529.31 57 1531.4 59.0893 1531.4 61.6667V89.6667C1531.4 92.244 1529.31 94.3333 1526.72 94.3333H1456.59C1454.01 94.3333 1451.92 92.244 1451.92 89.6667V61.6667Z" fill="#847B92"/>
<g clip-path="url(#clip1_4763_36216)">
<path d="M1570.62 338.34C1560.37 332.349 1556.68 323.808 1555.59 316.791C1555.05 313.307 1555.15 310.207 1555.39 307.978C1555.51 306.86 1555.66 305.954 1555.78 305.319C1555.84 305.001 1555.9 304.75 1555.94 304.574C1555.96 304.486 1555.98 304.417 1555.99 304.367L1556.01 304.306L1556.01 304.301C1558.48 294.4 1562.79 287.444 1567.95 282.632C1573.11 277.826 1579.02 275.254 1584.56 273.954C1590.08 272.657 1595.27 272.618 1599.07 272.897C1600.97 273.037 1602.53 273.258 1603.63 273.445C1604.17 273.539 1604.61 273.625 1604.91 273.688C1605.06 273.72 1605.17 273.746 1605.25 273.765C1605.27 273.768 1605.28 273.771 1605.29 273.774C1605.31 273.777 1605.33 273.779 1605.35 273.783C1605.44 273.797 1605.57 273.818 1605.74 273.848C1606.08 273.906 1606.57 273.995 1607.18 274.121C1608.41 274.372 1610.14 274.772 1612.19 275.367C1616.27 276.554 1621.67 278.535 1626.82 281.714C1631.98 284.891 1636.98 289.321 1640.12 295.435C1643.29 301.588 1644.48 309.276 1642.29 318.766C1639.54 330.682 1634.74 337.434 1629.7 341.152C1624.67 344.86 1619.64 345.365 1616.74 345.266M1570.62 338.34C1570.62 338.34 1570.62 338.34 1570.62 338.339L1571.63 336.614L1570.62 338.34ZM1570.62 338.34C1570.94 338.527 1571.15 338.874 1571.17 339.26L1571.17 339.261L1572.3 364.166L1572.3 364.17C1572.43 366.996 1574.61 369.329 1577.45 369.586M1577.45 369.586L1601.32 371.784L1601.5 369.792L1601.32 371.784L1601.32 371.784C1603.87 372.023 1606.23 370.508 1607.14 368.141L1607.14 368.139L1615.62 345.999L1613.76 345.279L1615.63 345.994L1615.62 345.997C1615.8 345.547 1616.24 345.251 1616.74 345.266M1577.45 369.586L1577.45 369.585L1577.63 367.594L1577.45 369.586ZM1616.74 345.266C1616.74 345.266 1616.74 345.266 1616.75 345.266L1616.81 343.267L1616.74 345.266C1616.74 345.266 1616.74 345.266 1616.74 345.266Z" fill="#847B92" stroke="#0C0541" stroke-width="4" stroke-linecap="round" stroke-linejoin="round"/>
<path d="M1610.59 327.643C1615.97 328.282 1621.16 321.932 1622.17 313.458C1623.18 304.985 1619.63 297.597 1614.25 296.958C1608.87 296.318 1603.69 302.669 1602.68 311.142C1601.67 319.616 1605.21 327.003 1610.59 327.643Z" fill="#A4979E"/>
<path d="M1612.11 317.253C1613.86 317.46 1615.56 315.164 1615.93 312.124C1616.29 309.084 1615.17 306.452 1613.43 306.245C1611.69 306.038 1609.98 308.334 1609.62 311.374C1609.25 314.414 1610.37 317.046 1612.11 317.253Z" fill="#C0ABB7"/>
<path d="M1592.39 312.641C1596.29 305.922 1595.34 298.038 1590.25 295.033C1585.16 292.028 1577.88 295.038 1573.97 301.758C1570.07 308.477 1571.03 316.36 1576.11 319.365C1581.2 322.371 1588.48 319.36 1592.39 312.641Z" fill="#A4979E"/>
<path d="M1586.37 309.195C1587.5 307.247 1587.04 304.856 1585.35 303.855C1583.66 302.854 1581.37 303.621 1580.23 305.569C1579.1 307.517 1579.56 309.908 1581.25 310.909C1582.95 311.91 1585.24 311.143 1586.37 309.195Z" fill="#C0ABB7"/>
<path d="M1593.3 324.097C1590.7 325.403 1585.62 328.633 1585.09 334.125C1585 335.119 1585.4 336.121 1586.21 336.685C1587.02 337.249 1588.22 337.447 1589.9 336.074C1593.28 333.337 1596.31 336.928 1596.31 336.928C1596.31 336.928 1597.92 339.907 1599.9 336.12C1601.65 332.789 1599.74 327.129 1596.31 324.375C1595.46 323.692 1594.27 323.601 1593.3 324.09L1593.3 324.097Z" fill="#A4979E"/>
<path d="M1578.09 343.759C1578.09 343.759 1596.63 357.868 1606.15 348.391" stroke="#A4979E" stroke-width="3" stroke-linecap="round" stroke-linejoin="round"/>
<path d="M1586.27 342.725L1581.78 354.275" stroke="#A4979E" stroke-width="3" stroke-linecap="round" stroke-linejoin="round"/>
<path d="M1594.02 345.497L1592.97 358.407" stroke="#A4979E" stroke-width="3" stroke-linecap="round" stroke-linejoin="round"/>
<path d="M1599.89 345.361L1600.9 355.883" stroke="#A4979E" stroke-width="3" stroke-linecap="round" stroke-linejoin="round"/>
</g>
</g>
<defs>
<clipPath id="clip0_4763_36216">
<rect width="1757" height="525" fill="white"/>
</clipPath>
<clipPath id="clip1_4763_36216">
<rect width="107.038" height="110.856" fill="white" transform="translate(1551.5 259.729) rotate(7.98885)"/>
</clipPath>
</defs>
</svg>
