<svg width="1307" height="612" viewBox="0 0 1307 612" fill="none" xmlns="http://www.w3.org/2000/svg">
<g clip-path="url(#clip0_4769_39608)">
<path d="M1273.64 552.757C1273.13 549.261 1270.99 546.664 1268.57 546.823C1266.15 546.982 1264.36 549.89 1264.33 553.437C1262.91 550.118 1260.09 548.13 1257.76 548.942C1255.96 549.583 1254.98 551.763 1255.1 554.347C1253.35 552.83 1251.29 552.272 1249.73 553.129C1248.21 553.973 1247.58 555.941 1247.88 558.193C1245.89 557.594 1244.01 557.852 1242.93 559.088C1241.43 560.815 1242 563.844 1244.15 566.306L1243.08 594.089L1286.56 601.163C1287.33 602.61 1288.69 603.758 1290.44 604.194C1293.65 604.994 1296.87 603.125 1297.64 600.024C1298.06 598.318 1297.62 596.606 1296.63 595.268C1298.48 594.835 1299.87 593.789 1300.24 592.313C1300.57 590.984 1300 589.595 1298.86 588.407C1300.65 587.427 1301.75 585.921 1301.65 584.302C1301.54 582.937 1300.59 581.788 1299.15 581.019C1300.9 579.408 1301.72 577.379 1301 575.701C1300.36 574.202 1298.66 573.35 1296.58 573.315C1297.54 571.979 1297.88 570.498 1297.34 569.232C1296.71 567.768 1295.07 566.941 1293.07 566.864C1294.8 564.523 1295.18 561.831 1293.8 560.258C1292.9 559.234 1291.44 558.902 1289.84 559.162C1290.5 557.079 1290.24 555.085 1288.92 553.993C1287.37 552.704 1284.87 553.055 1282.64 554.658C1282.92 551.581 1281.76 548.936 1279.64 548.371C1277.4 547.757 1274.88 549.68 1273.63 552.771L1273.64 552.757Z" fill="#E8EAFF"/>
<path d="M1225.38 560.311C1224.65 557.99 1222.83 556.345 1220.69 556.335C1218.96 556.326 1217.45 557.375 1216.51 558.967C1214.93 557.149 1212.61 556.373 1210.66 557.198C1209.66 557.616 1208.9 558.403 1208.43 559.376C1206.92 558.734 1205.17 558.687 1203.55 559.367C1202.18 559.943 1201.16 560.967 1200.51 562.188C1198.16 561.629 1195.61 562.465 1194.06 564.506C1193.43 565.342 1193.06 566.294 1192.91 567.256C1191.16 567.379 1189.47 568.202 1188.32 569.701C1186.61 571.976 1186.71 575.014 1188.31 577.19C1186.94 577.512 1185.65 578.266 1184.72 579.488C1182.68 582.279 1183.22 586.201 1185.99 588.283C1188.26 589.999 1191.31 589.901 1193.48 588.275L1242.98 593.215C1243.92 594.142 1245.19 594.857 1246.71 595.128C1250.11 595.75 1253.27 594.007 1253.77 591.246C1254.18 589.047 1252.76 586.877 1250.46 585.766C1252.08 584.308 1252.84 582.254 1252.21 580.401C1251.56 578.529 1249.66 577.382 1247.46 577.264C1249.59 575.024 1250.01 571.864 1248.33 569.898C1247.18 568.556 1245.33 568.092 1243.47 568.506C1243.95 566.299 1243.29 564.104 1241.6 563C1239.35 561.523 1236.11 562.494 1234.19 565.131C1235.2 561.959 1234.03 558.721 1231.46 557.779C1229.31 556.991 1226.86 558.11 1225.39 560.313L1225.38 560.311Z" fill="#F1F2FE"/>
<path opacity="0.5" d="M1201.67 579.408C1201.67 579.408 1195.12 565.549 1206.82 574.597C1206.82 574.597 1203.65 563.318 1212.33 572.231C1212.33 572.231 1214.04 558.29 1218.55 571.035C1218.55 571.035 1224.83 557.014 1227.16 571.656" stroke="white" stroke-width="3" stroke-miterlimit="10" stroke-linecap="round" stroke-linejoin="round"/>
<path opacity="0.5" d="M1208.59 585.108C1208.59 585.108 1215.58 574.218 1215.17 586.357C1215.17 586.357 1224.54 579.023 1221.79 590.874" stroke="white" stroke-width="3" stroke-miterlimit="10" stroke-linecap="round" stroke-linejoin="round"/>
<path opacity="0.5" d="M1265.85 577.349C1265.85 577.349 1274.75 566.694 1271.73 578.935C1271.73 578.935 1280.93 578.326 1273.71 585.705C1273.71 585.705 1282.67 585.286 1274.82 590.846" stroke="white" stroke-width="3" stroke-miterlimit="10" stroke-linecap="round" stroke-linejoin="round"/>
<path opacity="0.5" d="M1256.24 567.819C1256.24 567.819 1255.74 556.006 1262.98 566.043C1262.98 566.043 1262 559.836 1266.13 559.904C1270.25 559.973 1268.33 566.702 1268.33 566.702C1268.33 566.702 1269.74 560.569 1273.69 561.917C1277.65 563.266 1275.08 570.136 1275.08 570.136C1275.08 570.136 1278.31 561.606 1282.41 568.857C1282.41 568.857 1283.78 570.107 1279.93 574.859" stroke="white" stroke-width="3" stroke-miterlimit="10" stroke-linecap="round" stroke-linejoin="round"/>
<path opacity="0.5" d="M1279.62 581.932C1279.62 581.932 1281.03 577.539 1285.53 581.576C1285.53 581.576 1288.8 585.022 1281.47 586.301C1281.47 586.301 1291.74 587.565 1282.3 591.848C1282.3 591.848 1288.83 591.788 1284.58 596.271" stroke="white" stroke-width="3" stroke-miterlimit="10" stroke-linecap="round" stroke-linejoin="round"/>
</g>
<path d="M1101.7 567.912C997.239 552.985 947.007 540.521 882.506 537.848C546.87 507.785 335.66 563.131 231.784 573.423C-91.8643 605.49 14.3049 610 28.0049 610H1276.36C1276.36 610 1396.23 610 1101.7 567.912Z" fill="#F1F2FE"/>
<g clip-path="url(#clip1_4769_39608)">
<path d="M679.821 291.26C679.821 291.26 673.341 288.86 668.751 274.27C664.371 260.37 657.681 270.67 657.681 270.67C657.681 270.67 652.531 281.48 666.951 290.75C666.951 290.75 658.971 292.04 654.341 281.23C654.341 281.23 652.281 268.87 645.331 271.19C638.381 273.51 646.621 290.5 651.251 293.07C655.881 295.64 640.441 291.27 634.261 283.55C634.261 283.54 626.031 279.16 625.511 288.17C625.511 288.17 624.481 295.38 642.241 296.41C642.241 296.41 624.741 298.47 628.341 312.11C628.341 312.11 630.911 315.46 636.831 313.4C636.831 313.4 640.431 309.54 643.271 303.36C643.271 303.36 646.101 296.92 651.511 297.18C651.511 297.18 641.211 309.02 649.711 318.29C649.711 318.29 658.201 322.92 658.201 312.11C658.201 312.11 654.851 297.7 668.751 295.38C668.751 295.38 659.481 301.3 662.831 313.91C662.831 313.91 664.631 319.32 672.611 314.68C672.611 314.68 674.671 311.85 675.181 303.87C675.691 295.89 679.811 295.38 679.811 295.38V291.26H679.821Z" fill="white"/>
</g>
<g clip-path="url(#clip2_4769_39608)">
<path d="M123.526 506.614C123.411 506.63 123.297 506.645 123.187 506.637C122.209 506.638 121.311 506.097 120.857 505.22C118.362 500.399 114.245 480.146 113.791 477.854C113.502 476.431 114.415 475.046 115.835 474.757C117.249 474.477 118.625 475.391 118.915 476.822C120.132 482.859 122.04 491.492 123.641 497.273L133.273 478.105C133.927 476.811 135.495 476.298 136.781 476.951C138.067 477.611 138.587 479.19 137.934 480.485L125.514 505.199C125.123 505.972 124.38 506.497 123.541 506.612L123.526 506.614Z" fill="#F1F2FE"/>
<path d="M138.549 605.794C137.139 605.988 135.823 605.003 135.611 603.577C134.988 599.43 120.25 501.932 120.107 500.887C119.909 499.451 120.908 498.125 122.333 497.929C123.759 497.734 125.078 498.742 125.275 500.178C125.457 501.506 140.616 601.786 140.77 602.798C140.99 604.231 140.009 605.57 138.579 605.79L138.541 605.795L138.549 605.794Z" fill="#F1F2FE"/>
<path d="M124.979 522.343C124.414 522.421 123.825 522.314 123.301 522.002C119.961 520.02 115.84 515.516 111.039 508.61C107.563 503.603 105.033 499.202 104.93 499.02C104.206 497.758 104.637 496.15 105.882 495.432C107.134 494.704 108.732 495.142 109.448 496.397C112.183 501.162 120.471 514.231 125.942 517.478C127.184 518.215 127.601 519.832 126.871 521.082C126.45 521.805 125.742 522.246 124.972 522.352L124.979 522.343Z" fill="#F1F2FE"/>
<path d="M126.126 522.608C125.371 522.712 124.586 522.483 123.981 521.925C122.929 520.935 122.871 519.268 123.852 518.211C123.994 518.058 137.913 503.019 146.238 489.828C147.009 488.604 148.622 488.241 149.839 489.021C151.057 489.8 151.42 491.425 150.648 492.649C142.056 506.268 128.26 521.181 127.67 521.809C127.244 522.267 126.691 522.538 126.119 522.617L126.126 522.608Z" fill="#F1F2FE"/>
<path d="M128.32 541.529C127.268 541.673 126.187 541.157 125.654 540.158C122.379 533.958 102.235 518.198 94.747 512.646C93.5874 511.781 93.3313 510.142 94.1876 508.968C95.045 507.802 96.6721 507.547 97.8393 508.412C100.692 510.524 125.836 529.321 130.263 537.695C130.944 538.978 130.456 540.571 129.183 541.254C128.9 541.402 128.61 541.497 128.313 541.538L128.32 541.529Z" fill="#F1F2FE"/>
<path d="M131.98 560.499C131.843 560.518 131.712 560.528 131.572 560.524C130.131 560.494 128.98 559.291 129.013 557.839C129.276 543.917 147.789 506.78 148.582 505.208C149.228 503.914 150.803 503.393 152.089 504.046C153.375 504.699 153.895 506.286 153.25 507.579C153.2 507.672 148.461 517.163 143.756 528.152C136.011 546.239 134.311 554.335 134.239 557.943C134.217 559.253 133.237 560.318 131.987 560.49L131.98 560.499Z" fill="#F1F2FE"/>
<path d="M130.148 556.15C128.891 556.323 127.674 555.551 127.302 554.311C126.198 552.1 114.676 542.057 97.1627 528.939C96.0031 528.074 95.7612 526.425 96.6185 525.259C97.4759 524.093 99.1127 523.852 100.272 524.718C100.35 524.778 107.89 530.424 115.47 536.526C131.406 549.359 132.007 551.639 132.323 552.871C132.687 554.276 131.859 555.712 130.457 556.076C130.352 556.106 130.253 556.12 130.146 556.135L130.148 556.15ZM127.272 554.206C127.272 554.206 127.277 554.244 127.279 554.26C127.277 554.244 127.274 554.221 127.272 554.206Z" fill="#F1F2FE"/>
<path d="M102.636 489.947C102.636 489.947 94.101 491.197 94.6725 496.321C94.6725 496.321 95.0334 501.326 101.543 501.785C101.543 501.785 110.459 502.126 110.87 496.742C110.87 496.742 112.854 489.248 102.644 489.946L102.636 489.947Z" fill="#E5E7FC"/>
<path d="M104.478 502.799C102.847 503.022 101.567 502.979 101.496 502.973C95.5275 502.549 93.6625 498.525 93.5074 496.434C93.3078 494.584 93.9243 492.004 97.9486 490.145C100.14 489.132 102.37 488.802 102.468 488.781L102.559 488.769C106.477 488.505 109.264 489.35 110.843 491.285C112.654 493.501 112.163 496.322 112.022 496.936C111.85 498.845 110.705 501.31 106.339 502.434C105.701 502.599 105.065 502.718 104.478 502.799ZM102.767 491.126C102.469 491.167 100.628 491.498 98.8902 492.308C96.6861 493.338 95.6616 494.644 95.8364 496.201L95.8428 496.247C95.8747 496.649 96.3529 500.245 101.616 500.618C101.654 500.612 109.376 500.851 109.693 496.661L109.702 496.55L109.726 496.445C109.726 496.445 110.259 494.275 109.02 492.771C107.966 491.492 105.8 490.929 102.767 491.126Z" fill="#E5E7FC"/>
<path d="M134.507 471.309C134.507 471.309 124.272 472.848 125.617 481.402C125.617 481.402 126.102 491.044 134.941 491.043C134.941 491.043 144.189 491.197 145.559 482.341C145.559 482.341 148.686 469.926 134.507 471.309Z" fill="#E5E7FC"/>
<path d="M136.649 492.115C136.024 492.201 135.438 492.234 134.925 492.226C127.111 492.227 124.664 485.264 124.446 481.523C124.056 478.972 124.556 476.728 125.922 474.851C128.699 471.035 134.096 470.184 134.324 470.145L134.385 470.137C139.252 469.664 142.794 470.688 144.914 473.174C147.951 476.739 146.854 481.928 146.702 482.575C145.649 489.221 140.368 491.596 136.64 492.108L136.649 492.115ZM134.66 472.477C134.288 472.544 129.924 473.339 127.815 476.249C126.809 477.639 126.472 479.258 126.78 481.218L126.797 481.341C126.813 481.683 127.354 489.863 134.949 489.86C135.3 489.867 143.222 489.867 144.407 482.154L144.431 482.042C144.441 482.001 145.527 477.471 143.142 474.693C141.551 472.83 138.699 472.087 134.659 472.47L134.66 472.477Z" fill="#E5E7FC"/>
<path d="M93.9874 505.021C93.9874 505.021 85.6872 506.341 86.4557 513.182C86.4557 513.182 87.0062 519.851 93.3855 520.719C93.3855 520.719 102.117 521.523 102.302 514.386C102.302 514.386 103.951 504.506 93.9874 505.021Z" fill="#E5E7FC"/>
<path d="M96.1267 521.79C94.5792 522.003 93.377 521.902 93.2747 521.892L93.2269 521.883C87.4415 521.097 85.5022 515.911 85.2799 513.273C84.5752 507.01 90.5424 504.368 93.7956 503.851L93.9176 503.834C97.2334 503.66 99.761 504.534 101.443 506.431C104.071 509.395 103.563 513.783 103.464 514.477C103.395 516.63 102.632 518.37 101.2 519.654C99.6923 521.003 97.7254 521.555 96.1246 521.775L96.1267 521.79ZM93.5039 519.545C93.8097 519.566 97.5384 519.797 99.6462 517.896C100.6 517.038 101.085 515.876 101.124 514.345L101.14 514.178C101.14 514.178 101.741 510.301 99.6847 507.994C98.5097 506.677 96.6405 506.073 94.1085 506.186C93.3809 506.317 87.005 507.623 87.6089 513.04C87.6295 513.303 88.1809 518.79 93.5018 519.53L93.5039 519.545Z" fill="#E5E7FC"/>
<path d="M151.167 482.627C151.167 482.627 142.867 483.946 143.636 490.788C143.636 490.788 144.186 497.456 150.565 498.325C150.565 498.325 159.297 499.129 159.482 491.992C159.482 491.992 161.131 482.111 151.167 482.627Z" fill="#E5E7FC"/>
<path d="M153.307 499.396C151.759 499.608 150.557 499.507 150.455 499.498L150.407 499.489C144.62 498.695 142.681 493.509 142.46 490.879C141.755 484.615 147.722 481.973 150.975 481.456L151.097 481.439C154.413 481.266 156.941 482.139 158.623 484.036C161.251 487 160.743 491.389 160.644 492.083C160.575 494.236 159.812 495.976 158.38 497.26C156.872 498.609 154.905 499.161 153.304 499.381L153.307 499.396ZM150.691 497.15C150.997 497.17 154.726 497.402 156.834 495.501C157.788 494.642 158.273 493.48 158.311 491.949L158.327 491.783C158.327 491.783 158.929 487.906 156.872 485.599C155.697 484.281 153.828 483.677 151.296 483.79C150.568 483.922 144.192 485.227 144.796 490.644C144.817 490.907 145.368 496.394 150.689 497.134L150.691 497.15Z" fill="#E5E7FC"/>
<path d="M97.8 523.626C97.8 523.626 89.2651 524.876 89.8366 530C89.8366 530 90.1975 535.004 96.707 535.464C96.707 535.464 105.623 535.805 106.034 530.421C106.034 530.421 108.018 522.927 97.8076 523.625L97.8 523.626Z" fill="#E5E7FC"/>
<path d="M99.6411 536.47C98.0098 536.694 96.7301 536.65 96.6593 536.644C90.6906 536.22 88.8256 532.197 88.6705 530.105C88.4709 528.255 89.0874 525.675 93.1117 523.816C95.3027 522.803 97.533 522.473 97.6311 522.452L97.7226 522.44C101.64 522.176 104.427 523.021 106.006 524.956C107.817 527.172 107.326 529.993 107.185 530.607C107.013 532.516 105.868 534.981 101.502 536.105C100.864 536.27 100.228 536.389 99.6411 536.47ZM97.9298 524.797C97.6325 524.838 95.7906 525.169 94.0533 525.979C91.8492 527.009 90.8247 528.315 90.9995 529.872L91.0059 529.918C91.0378 530.32 91.516 533.916 96.7786 534.289C96.8167 534.283 104.539 534.522 104.856 530.332L104.865 530.221L104.889 530.116C104.889 530.116 105.422 527.946 104.183 526.442C103.129 525.163 100.963 524.6 97.9298 524.797Z" fill="#E5E7FC"/>
<path d="M113.101 464.117C113.101 464.117 102.866 465.655 104.211 474.209C104.211 474.209 104.696 483.852 113.534 483.851C113.534 483.851 122.783 484.005 124.153 475.148C124.153 475.148 127.279 462.734 113.101 464.117Z" fill="#E5E7FC"/>
<path d="M115.243 484.923C114.618 485.008 114.032 485.042 113.518 485.034C105.705 485.035 103.258 478.072 103.039 474.331C102.65 471.779 103.15 469.536 104.515 467.658C107.299 463.834 112.696 462.983 112.925 462.952L112.986 462.944C117.853 462.471 121.396 463.494 123.515 465.981C126.552 469.546 125.455 474.735 125.303 475.382C124.251 482.027 118.969 484.403 115.242 484.915L115.243 484.923ZM113.254 465.293C112.883 465.36 108.518 466.154 106.409 469.065C105.404 470.455 105.067 472.073 105.375 474.034L105.392 474.157C105.408 474.499 105.948 482.678 113.544 482.676C113.894 482.683 121.816 482.682 123.002 474.97L123.026 474.857C123.036 474.817 124.122 470.286 121.737 467.508C120.145 465.645 117.294 464.903 113.253 465.285L113.254 465.293Z" fill="#E5E7FC"/>
<path d="M151.738 500.472C151.738 500.472 143.438 501.791 144.206 508.633C144.206 508.633 144.757 515.301 151.136 516.17C151.136 516.17 159.867 516.974 160.053 509.837C160.053 509.837 161.702 499.957 151.738 500.472Z" fill="#E5E7FC"/>
<path d="M153.886 517.248C152.338 517.46 151.136 517.359 151.034 517.35L150.986 517.341C145.2 516.547 143.26 511.36 143.039 508.731C142.334 502.467 148.301 499.825 151.555 499.308L151.677 499.291C154.993 499.117 157.52 499.991 159.202 501.888C161.83 504.852 161.322 509.24 161.223 509.935C161.154 512.088 160.391 513.828 158.959 515.111C157.451 516.461 155.484 517.012 153.884 517.232L153.886 517.248ZM151.262 514.995C151.568 515.015 155.296 515.247 157.404 513.346C158.358 512.487 158.843 511.325 158.882 509.794L158.898 509.628C158.898 509.628 159.499 505.751 157.443 503.444C156.268 502.126 154.399 501.523 151.867 501.635C151.139 501.767 144.763 503.072 145.367 508.489C145.388 508.752 145.939 514.239 151.26 514.979L151.262 514.995Z" fill="#E5E7FC"/>
</g>
<path d="M153.258 227.091C154.023 225.734 155.977 225.734 156.742 227.091L160.423 233.621C160.708 234.127 161.199 234.484 161.769 234.599L169.116 236.081C170.644 236.39 171.248 238.248 170.193 239.395L165.121 244.913C164.727 245.341 164.539 245.919 164.606 246.496L165.467 253.942C165.646 255.49 164.064 256.639 162.648 255.99L155.832 252.871C155.304 252.629 154.696 252.629 154.168 252.871L147.352 255.99C145.936 256.639 144.354 255.49 144.533 253.942L145.394 246.496C145.461 245.919 145.273 245.341 144.879 244.913L139.807 239.395C138.752 238.248 139.356 236.39 140.884 236.081L148.231 234.599C148.801 234.484 149.292 234.127 149.577 233.621L153.258 227.091Z" fill="#F1F2FE"/>
<path d="M99.2577 285.091C100.023 283.734 101.977 283.734 102.742 285.091L106.423 291.621C106.708 292.127 107.199 292.484 107.769 292.599L115.116 294.081C116.644 294.39 117.248 296.248 116.193 297.395L111.121 302.913C110.727 303.341 110.539 303.919 110.606 304.496L111.467 311.942C111.646 313.49 110.064 314.639 108.648 313.99L101.832 310.871C101.304 310.629 100.696 310.629 100.168 310.871L93.3525 313.99C91.9357 314.639 90.3545 313.49 90.5334 311.942L91.3939 304.496C91.4606 303.919 91.2728 303.341 90.8794 302.913L85.8069 297.395C84.7525 296.248 85.3564 294.39 86.8837 294.081L94.2307 292.599C94.8005 292.484 95.2921 292.127 95.5775 291.621L99.2577 285.091Z" fill="#F1F2FE"/>
<path d="M50.2577 193.091C51.0227 191.734 52.9773 191.734 53.7423 193.091L57.4225 199.621C57.7079 200.127 58.1995 200.484 58.7693 200.599L66.1163 202.081C67.6435 202.39 68.2475 204.248 67.1931 205.395L62.1206 210.913C61.7272 211.341 61.5394 211.919 61.6061 212.496L62.4666 219.942C62.6455 221.49 61.0643 222.639 59.6475 221.99L52.8323 218.871C52.3038 218.629 51.6962 218.629 51.1677 218.871L44.3525 221.99C42.9357 222.639 41.3545 221.49 41.5334 219.942L42.3939 212.496C42.4606 211.919 42.2728 211.341 41.8794 210.913L36.8069 205.395C35.7525 204.248 36.3564 202.39 37.8837 202.081L45.2307 200.599C45.8005 200.484 46.2921 200.127 46.5775 199.621L50.2577 193.091Z" fill="#F1F2FE"/>
<path d="M1083.76 75.0912C1084.52 73.7339 1086.48 73.7339 1087.24 75.0911L1091.08 81.9021C1091.37 82.4084 1091.86 82.7656 1092.43 82.8805L1100.09 84.4269C1101.62 84.735 1102.22 86.5939 1101.17 87.7409L1095.88 93.4966C1095.48 93.9245 1095.3 94.5024 1095.36 95.0798L1096.26 102.846C1096.44 104.394 1094.86 105.543 1093.44 104.895L1086.33 101.641C1085.8 101.399 1085.2 101.399 1084.67 101.641L1077.56 104.895C1076.14 105.543 1074.56 104.394 1074.74 102.846L1075.64 95.0798C1075.7 94.5024 1075.52 93.9245 1075.12 93.4966L1069.83 87.7409C1068.78 86.5939 1069.38 84.735 1070.91 84.4269L1078.57 82.8805C1079.14 82.7656 1079.63 82.4084 1079.92 81.9021L1083.76 75.0912Z" fill="#F1F2FE"/>
<path d="M1244.25 82.1948C1245.01 80.8111 1246.99 80.8111 1247.75 82.1948L1251.43 88.8906C1251.71 89.4038 1252.2 89.7679 1252.78 89.8867L1260.19 91.424C1261.7 91.7368 1262.31 93.5677 1261.28 94.7163L1256.1 100.503C1255.72 100.928 1255.54 101.494 1255.6 102.061L1256.47 109.815C1256.65 111.37 1255.05 112.515 1253.64 111.849L1246.85 108.66C1246.31 108.407 1245.69 108.407 1245.15 108.66L1238.36 111.849C1236.95 112.515 1235.35 111.37 1235.53 109.815L1236.4 102.061C1236.46 101.494 1236.28 100.928 1235.9 100.503L1230.72 94.7163C1229.69 93.5677 1230.3 91.7368 1231.81 91.424L1239.22 89.8867C1239.8 89.7679 1240.29 89.4038 1240.57 88.8906L1244.25 82.1948Z" fill="#F1F2FE"/>
<path d="M1168.76 113.091C1169.52 111.734 1171.48 111.734 1172.24 113.091L1176.08 119.902C1176.37 120.408 1176.86 120.766 1177.43 120.881L1185.09 122.427C1186.62 122.735 1187.22 124.594 1186.17 125.741L1180.88 131.497C1180.48 131.925 1180.3 132.502 1180.36 133.08L1181.26 140.846C1181.44 142.394 1179.86 143.543 1178.44 142.895L1171.33 139.641C1170.8 139.399 1170.2 139.399 1169.67 139.641L1162.56 142.895C1161.14 143.543 1159.56 142.394 1159.74 140.846L1160.64 133.08C1160.7 132.502 1160.52 131.925 1160.12 131.497L1154.83 125.741C1153.78 124.594 1154.38 122.735 1155.91 122.427L1163.57 120.881C1164.14 120.766 1164.63 120.408 1164.92 119.902L1168.76 113.091Z" fill="#F1F2FE"/>
<path d="M1159.54 578.474C1159.54 578.474 1164.55 572.487 1181.79 573.12C1198.23 573.716 1189.81 562.703 1189.81 562.703C1189.81 562.703 1180.27 553.136 1164.96 564.973C1164.96 564.973 1166.61 555.994 1179.85 555.156C1179.85 555.156 1193.77 557.638 1193.93 549.366C1194.1 541.094 1172.92 543.436 1168.43 547.391C1163.95 551.345 1174.44 536.57 1184.98 532.914C1184.99 532.917 1192.77 525.817 1183.38 521.857C1183.38 521.857 1176.11 518.034 1168.29 536.541C1168.29 536.541 1172.73 517.143 1156.87 515.815C1156.87 515.815 1152.33 517.283 1152.28 524.36C1152.28 524.36 1155.02 529.65 1160.52 535.009C1160.52 535.009 1166.29 540.456 1163.97 546.113C1163.97 546.113 1155.28 530.677 1142.21 536.216C1142.21 536.216 1134.07 543.498 1145.56 547.586C1145.56 547.586 1162.15 549.47 1159.35 565.137C1159.35 565.137 1156.57 553.035 1141.9 551.831C1141.9 551.831 1135.47 551.701 1137.38 561.946C1137.38 561.946 1139.61 565.208 1147.9 568.768C1156.18 572.329 1155.17 576.905 1155.17 576.905L1159.55 578.463L1159.54 578.474Z" fill="#F1F2FE"/>
<path d="M55.7651 594.127C55.7651 594.127 58.2663 584.753 78.042 576.422C96.8815 568.475 81.6165 560.473 81.6165 560.473C81.6165 560.473 65.8414 554.691 54.7873 576.067C54.7873 576.067 51.9376 565.08 66.4283 557.189C66.4283 557.189 83.4215 552.687 79.2683 543.275C75.1152 533.863 52.4667 547.612 49.4851 554.422C46.5035 561.232 50.5796 539.073 60.5509 529.42C60.5648 529.419 65.6017 517.338 52.9488 517.793C52.9488 517.793 42.743 517.299 43.6367 542.264C43.6367 542.264 38.4612 518.068 19.8825 524.891C19.8825 524.891 15.5409 528.923 19.1956 536.93C19.1956 536.93 25.0598 541.456 34.0646 544.616C34.0646 544.616 43.4313 547.727 43.7786 555.325C43.7786 555.325 25.8885 542.478 14.057 555.578C14.057 555.578 8.70504 568.055 23.8038 566.637C23.8038 566.637 43.4909 560.063 48.5568 579.191C48.5568 579.191 39.0707 567.008 21.8977 573.346C21.8977 573.346 14.5777 576.572 22.1066 587.12C22.1066 587.12 26.3299 589.629 37.5429 589.295C48.7559 588.961 50.0093 594.654 50.0093 594.654L55.7638 594.113L55.7651 594.127Z" fill="#F1F2FE"/>
<path d="M1065.75 310.126C1062.07 306.02 1058.98 301.405 1056.6 296.419L1033.2 247.728C1029.54 241.393 1020.42 241.393 1016.76 247.728L993.36 296.419C990.975 301.386 987.886 306 984.211 310.126L974.476 320.999C970.82 327.334 975.395 335.234 982.706 335.234H992.422V433.476H316.237V335.234H323.489C330.8 335.234 335.375 327.315 331.719 320.999L321.984 310.126C318.309 306.02 315.22 301.405 312.835 296.419L289.436 247.728C285.78 241.393 276.651 241.393 272.995 247.728L249.596 296.419C247.211 301.386 244.122 306 240.447 310.126L230.712 320.999C227.056 327.334 231.63 335.234 238.942 335.234H248.657V575.969C248.657 581.502 253.153 586 258.686 586H1050.01C1055.54 586 1060.04 581.502 1060.04 575.969V335.234H1067.29C1074.6 335.234 1079.18 327.315 1075.52 320.999L1065.79 310.126H1065.75ZM298.35 386.936C298.35 386.936 298.35 387.014 298.35 387.034V400.429C298.35 402.13 296.981 403.499 295.281 403.499H269.574C267.873 403.499 266.505 402.13 266.505 400.429V378.645C266.505 369.846 273.64 362.728 282.418 362.728C291.195 362.728 298.33 369.865 298.33 378.645V386.936H298.35ZM1042.13 386.936C1042.13 386.936 1042.13 387.014 1042.13 387.034V400.429C1042.13 402.13 1040.77 403.499 1039.06 403.499H1013.36C1011.66 403.499 1010.29 402.13 1010.29 400.429V378.645C1010.29 369.846 1017.42 362.728 1026.2 362.728C1034.98 362.728 1042.11 369.865 1042.11 378.645V386.936H1042.13Z" fill="#F1F2FE"/>
<path d="M623.099 6.73121L349.143 121.704C321.783 133.181 303.984 159.965 303.984 189.65V512.319C303.984 553.008 336.952 586 377.628 586H926.341C967.009 586 999.984 553.016 999.984 512.319V189.693C999.984 159.987 982.156 133.188 954.768 121.726L680.005 6.7094C661.799 -0.915233 641.298 -0.900696 623.092 6.73848L623.099 6.73121Z" fill="#F1F2FE"/>
<mask id="mask0_4769_39608" style="mask-type:alpha" maskUnits="userSpaceOnUse" x="229" y="1" width="848" height="585">
<path d="M1065.75 310.126C1062.07 306.02 1058.98 301.405 1056.6 296.419L1033.2 247.728C1029.54 241.393 1020.42 241.393 1016.76 247.728L993.36 296.419C990.975 301.386 987.886 306 984.211 310.126L974.476 320.999C970.82 327.334 975.395 335.234 982.706 335.234H992.422V433.476H316.237V335.234H323.489C330.8 335.234 335.375 327.315 331.719 320.999L321.984 310.126C318.309 306.02 315.22 301.405 312.835 296.419L289.436 247.728C285.78 241.393 276.651 241.393 272.995 247.728L249.596 296.419C247.211 301.386 244.122 306 240.447 310.126L230.712 320.999C227.056 327.334 231.63 335.234 238.942 335.234H248.657V575.969C248.657 581.502 253.153 586 258.686 586H1050.01C1055.54 586 1060.04 581.502 1060.04 575.969V335.234H1067.29C1074.6 335.234 1079.18 327.315 1075.52 320.999L1065.79 310.126H1065.75ZM298.35 386.936C298.35 386.936 298.35 387.014 298.35 387.034V400.429C298.35 402.13 296.981 403.499 295.281 403.499H269.574C267.873 403.499 266.505 402.13 266.505 400.429V378.645C266.505 369.846 273.64 362.728 282.418 362.728C291.195 362.728 298.33 369.865 298.33 378.645V386.936H298.35ZM1042.13 386.936C1042.13 386.936 1042.13 387.014 1042.13 387.034V400.429C1042.13 402.13 1040.77 403.499 1039.06 403.499H1013.36C1011.66 403.499 1010.29 402.13 1010.29 400.429V378.645C1010.29 369.846 1017.42 362.728 1026.2 362.728C1034.98 362.728 1042.11 369.865 1042.11 378.645V386.936H1042.13Z" fill="#F1F2FE"/>
<path d="M623.099 6.73121L349.143 121.704C321.783 133.181 303.984 159.965 303.984 189.65V512.319C303.984 553.008 336.952 586 377.628 586H926.341C967.009 586 999.984 553.016 999.984 512.319V189.693C999.984 159.987 982.156 133.188 954.768 121.726L680.005 6.7094C661.799 -0.915233 641.298 -0.900696 623.092 6.73848L623.099 6.73121Z" fill="#F1F2FE"/>
</mask>
<g mask="url(#mask0_4769_39608)">
<path opacity="0.5" d="M1101.5 69.8372V66.1524H1060.99V65.4523H987.813V34.6847H1060.99V31H228.5V69.1371H269.009V101.25H228.5V139.387H269.009V171.499H228.5V209.636H269.009V241.749H228.5V279.886H269.009V311.998H228.5V350.136H269.009V382.248H228.5V420.385H269.009V452.498H228.5V490.635H269.009V522.747H228.5V560.884H269.009V596.037H1101.5V592.352H1028.32V561.584H1101.5V557.9H1060.99V557.2H987.813V526.432H1060.99V525.787H1101.5V522.102H1028.32V491.335H1101.5V487.65H1060.99V486.95H987.813V456.182H1060.99V455.538H1101.5V451.853H1028.32V421.085H1101.5V417.4H1060.99V416.7H987.813V385.933H1060.99V385.288H1101.5V381.603H1028.32V350.836H1101.5V347.151H1060.99V346.451H987.813V315.683H1060.99V315.038H1101.5V311.354H1028.32V280.586H1101.5V276.901H1060.99V276.201H987.813V245.434H1060.99V244.789H1101.5V241.104H1028.32V210.336H1101.5V206.652H1060.99V205.952H987.813V175.184H1060.99V174.539H1101.5V170.854H1028.32V140.087H1101.5V136.402H1060.99V135.702H987.813V104.934H1060.99V104.29H1101.5V100.605H1028.32V69.8372H1101.5ZM1024.64 100.605H952.752V69.8372H1024.64V100.605ZM984.132 135.702H912.242V104.934H984.132V135.702ZM1024.64 170.854H952.752V140.087H1024.64V170.854ZM984.132 205.952H912.242V175.184H984.132V205.952ZM1024.64 241.104H952.752V210.336H1024.64V241.104ZM984.132 276.201H912.242V245.434H984.132V276.201ZM1024.64 311.354H952.752V280.586H1024.64V311.354ZM984.132 346.451H912.242V315.683H984.132V346.451ZM1024.64 381.603H952.752V350.836H1024.64V381.603ZM984.132 416.7H912.242V385.933H984.132V416.7ZM1024.64 451.853H952.752V421.085H1024.64V451.853ZM984.132 486.95H912.242V456.182H984.132V486.95ZM1024.64 522.102H952.752V491.335H1024.64V522.102ZM984.132 557.2H912.242V526.432H984.132V557.2ZM908.561 557.2H836.672V526.432H908.561V557.2ZM832.991 557.2H761.101V526.432H832.991V557.2ZM757.42 557.2H685.531V526.432H757.42V557.2ZM681.85 557.2H609.96V526.432H681.85V557.2ZM606.279 557.2H534.39V526.432H606.279V557.2ZM530.709 557.2H458.819V526.432H530.709V557.2ZM455.138 557.2H383.248V526.432H455.138V557.2ZM949.089 100.605H877.199V69.8372H949.089V100.605ZM908.58 135.702H836.69V104.934H908.58V135.702ZM949.089 170.854H877.199V140.087H949.089V170.854ZM908.58 205.952H836.69V175.184H908.58V205.952ZM949.089 241.104H877.199V210.336H949.089V241.104ZM908.58 276.201H836.69V245.434H908.58V276.201ZM949.089 311.354H877.199V280.586H949.089V311.354ZM908.58 346.451H836.69V315.683H908.58V346.451ZM949.089 381.603H877.199V350.836H949.089V381.603ZM908.58 416.7H836.69V385.933H908.58V416.7ZM949.089 451.853H877.199V421.085H949.089V451.853ZM908.58 486.95H836.69V456.182H908.58V486.95ZM949.089 522.102H877.199V491.335H949.089V522.102ZM458.874 104.934H530.764V135.702H458.874V104.934ZM534.445 104.934H606.334V135.702H534.445V104.934ZM610.015 104.934H681.905V135.702H610.015V104.934ZM685.586 104.934H757.475V135.702H685.586V104.934ZM761.156 104.934H833.046V135.702H761.156V104.934ZM873.537 170.854H801.647V140.087H873.537V170.854ZM833.028 205.952H761.138V175.184H833.028V205.952ZM873.537 241.104H801.647V210.336H873.537V241.104ZM833.028 276.201H761.138V245.434H833.028V276.201ZM873.537 311.354H801.647V280.586H873.537V311.354ZM833.028 346.451H761.138V315.683H833.028V346.451ZM873.537 381.603H801.647V350.836H873.537V381.603ZM833.028 416.7H761.138V385.933H833.028V416.7ZM873.537 451.853H801.647V421.085H873.537V451.853ZM833.028 486.95H761.138V456.182H833.028V486.95ZM499.383 140.087H571.273V170.854H499.383V140.087ZM574.954 140.087H646.844V170.854H574.954V140.087ZM650.525 140.087H722.414V170.854H650.525V140.087ZM726.095 140.087H797.985V170.854H726.095V140.087ZM757.475 205.952H685.586V175.184H757.475V205.952ZM797.985 241.104H726.095V210.336H797.985V241.104ZM757.475 276.201H685.586V245.434H757.475V276.201ZM797.985 311.354H726.095V280.586H797.985V311.354ZM757.475 346.451H685.586V315.683H757.475V346.451ZM797.985 381.603H726.095V350.836H797.985V381.603ZM757.475 416.7H685.586V385.933H757.475V416.7ZM797.985 451.853H726.095V421.085H797.985V451.853ZM757.475 486.95H685.586V456.182H757.475V486.95ZM681.905 486.95H610.015V456.182H681.905V486.95ZM606.334 486.95H534.445V456.182H606.334V486.95ZM610.015 175.202H681.905V205.97H610.015V175.202ZM722.414 241.122H650.525V210.355H722.414V241.122ZM681.905 276.22H610.015V245.452H681.905V276.22ZM722.414 311.372H650.525V280.604H722.414V311.372ZM681.905 346.469H610.015V315.702H681.905V346.469ZM722.414 381.622H650.525V350.854H722.414V381.622ZM681.905 416.719H610.015V385.951H681.905V416.719ZM722.414 451.871H650.525V421.104H722.414V451.871ZM574.972 210.373H646.862V241.141H574.972V210.373ZM574.972 280.623H646.862V311.39H574.972V280.623ZM574.972 350.872H646.862V381.64H574.972V350.872ZM574.972 421.122H646.862V451.89H574.972V421.122ZM534.463 175.239H606.353V206.007H534.463V175.239ZM534.463 245.489H606.353V276.256H534.463V245.489ZM534.463 315.738H606.353V346.506H534.463V315.738ZM534.463 385.988H606.353V416.756H534.463V385.988ZM499.402 210.41H571.291V241.178H499.402V210.41ZM499.402 280.66H571.291V311.427H499.402V280.66ZM499.402 350.909H571.291V381.677H499.402V350.909ZM499.402 421.159H571.291V451.927H499.402V421.159ZM458.893 175.276H530.782V206.044H458.893V175.276ZM458.893 245.526H530.782V276.293H458.893V245.526ZM458.893 315.775H530.782V346.543H458.893V315.775ZM458.893 386.025H530.782V416.793H458.893V386.025ZM458.893 456.275H530.782V487.042H458.893V456.275ZM423.831 140.197H495.721V170.965H423.831V140.197ZM423.831 210.447H495.721V241.215H423.831V210.447ZM423.831 280.697H495.721V311.464H423.831V280.697ZM423.831 350.946H495.721V381.714H423.831V350.946ZM423.831 421.196H495.721V451.963H423.831V421.196ZM423.831 491.445H495.721V522.213H423.831V491.445ZM499.402 491.445H571.291V522.213H499.402V491.445ZM574.972 491.445H646.862V522.213H574.972V491.445ZM650.543 491.445H722.433V522.213H650.543V491.445ZM726.113 491.445H798.003V522.213H726.113V491.445ZM801.684 491.445H873.574V522.213H801.684V491.445ZM383.304 104.934H455.193V135.702H383.304V104.934ZM383.304 175.184H455.193V205.952H383.304V175.184ZM383.304 245.434H455.193V276.201H383.304V245.434ZM383.304 315.683H455.193V346.451H383.304V315.683ZM383.304 385.933H455.193V416.7H383.304V385.933ZM383.304 456.182H455.193V486.95H383.304V456.182ZM873.518 100.605H801.629V69.8372H873.518V100.605ZM797.948 100.605H726.058V69.8372H797.948V100.605ZM722.377 100.605H650.488V69.8372H722.377V100.605ZM646.807 100.605H574.917V69.8372H646.807V100.605ZM571.236 100.605H499.347V69.8372H571.236V100.605ZM495.666 100.605H423.776V69.8372H495.666V100.605ZM420.095 100.605H348.206V69.8372H420.095V100.605ZM348.206 140.087H420.095V170.854H348.206V140.087ZM348.206 210.336H420.095V241.104H348.206V210.336ZM348.206 280.586H420.095V311.354H348.206V280.586ZM348.206 350.836H420.095V381.603H348.206V350.836ZM348.206 421.085H420.095V451.853H348.206V421.085ZM348.206 491.335H420.095V522.102H348.206V491.335ZM307.752 104.934H379.641V135.702H307.752V104.934ZM307.752 175.184H379.641V205.952H307.752V175.184ZM307.752 245.434H379.641V276.201H307.752V245.434ZM307.752 315.683H379.641V346.451H307.752V315.683ZM307.752 385.933H379.641V416.7H307.752V385.933ZM307.752 456.182H379.641V486.95H307.752V456.182ZM307.752 526.432H379.641V557.2H307.752V526.432ZM344.561 69.8372V100.605H272.69V69.8372H344.58H344.561ZM344.561 140.087V170.854H272.69V140.087H344.58H344.561ZM344.561 210.336V241.104H272.69V210.336H344.58H344.561ZM344.561 280.586V311.354H272.69V280.586H344.58H344.561ZM344.561 350.836V381.603H272.69V350.836H344.58H344.561ZM344.561 421.085V451.853H272.69V421.085H344.58H344.561ZM344.561 491.335V522.102H272.69V491.335H344.58H344.561ZM912.261 34.6847H984.15V65.4523H912.261V34.6847ZM836.69 34.6847H908.58V65.4523H836.69V34.6847ZM761.12 34.6847H833.009V65.4523H761.12V34.6847ZM685.549 34.6847H757.439V65.4523H685.549V34.6847ZM609.979 34.6847H681.868V65.4523H609.979V34.6847ZM534.408 34.6847H606.298V65.4523H534.408V34.6847ZM458.837 34.6847H530.727V65.4523H458.837V34.6847ZM383.267 34.6847H455.156V65.4523H383.267V34.6847ZM307.696 34.6847H379.586V65.4523H307.696V34.6847ZM232.181 34.6847H304.071V65.4523H232.181V34.6847ZM232.181 104.934H304.071V135.702H232.181V104.934ZM232.181 175.184H304.071V205.952H232.181V175.184ZM232.181 245.434H304.071V276.201H232.181V245.434ZM232.181 315.683H304.071V346.451H232.181V315.683ZM232.181 385.933H304.071V416.7H232.181V385.933ZM232.181 456.182H304.071V486.95H232.181V456.182ZM232.181 526.432H304.071V557.2H232.181V526.432ZM272.69 592.352V561.584H344.58V592.352H272.69ZM348.261 592.352V561.584H420.15V592.352H348.261ZM423.831 592.352V561.584H495.721V592.352H423.831ZM499.402 592.352V561.584H571.291V592.352H499.402ZM574.972 592.352V561.584H646.862V592.352H574.972ZM650.543 592.352V561.584H722.433V592.352H650.543ZM726.113 592.352V561.584H798.003V592.352H726.113ZM801.684 592.352V561.584H873.574V592.352H801.684ZM877.255 592.352V561.584H949.144V592.352H877.255ZM952.825 592.352V561.584H1024.71V592.352H952.825Z" fill="white"/>
</g>
<path d="M1067.5 205.993L1045.49 198.503L1023.5 191V205.993V221L1045.49 213.497L1067.5 205.993Z" fill="#F1F2FE"/>
<path d="M321.5 211.494L300.506 204.253L279.5 197V211.494V226L300.506 218.747L321.5 211.494Z" fill="#F1F2FE"/>
<line x1="281" y1="198" x2="281" y2="250" stroke="#F1F2FE" stroke-width="5"/>
<line x1="1025" y1="192" x2="1025" y2="247" stroke="#F1F2FE" stroke-width="5"/>
<path d="M212.112 502.623C212.112 502.623 214.383 485.523 206.09 479.674C202.208 476.921 196.504 478.138 194.18 482.321C193.863 482.903 193.599 483.538 193.414 484.226" fill="#F1F2FE"/>
<path d="M223.678 499.552C223.678 499.552 229.461 478.774 218.237 477.424C218.237 477.424 210.077 475.73 208.387 484.915" fill="#F1F2FE"/>
<path d="M221.645 480.494C221.645 480.494 226.056 472.659 237.966 480.494C249.877 488.329 216.205 536.026 216.205 536.026L201.918 534.332C201.918 534.332 200.571 511.516 180.843 502.993C161.115 494.47 185.94 466.545 198.511 491.399C198.511 491.399 201.574 498.546 202.578 503.31" fill="#F1F2FE"/>
<path d="M222.989 482.876H193.754V505.692H222.989V482.876Z" fill="#F1F2FE"/>
<path d="M216.5 492H204.5V591H216.5V492Z" fill="#F1F2FE"/>
<rect x="594.484" y="79" width="123" height="32" rx="16" fill="#9730E8"/>
<path d="M615.496 101V89.3636H623.337V91.392H617.956V94.1648H622.933V96.1932H617.956V98.9716H623.359V101H615.496ZM624.813 101V89.3636H629.404C630.286 89.3636 631.038 89.5322 631.659 89.8693C632.28 90.2027 632.754 90.6667 633.08 91.2614C633.409 91.8523 633.574 92.5341 633.574 93.3068C633.574 94.0795 633.407 94.7614 633.074 95.3523C632.741 95.9432 632.258 96.4034 631.625 96.733C630.996 97.0625 630.235 97.2273 629.341 97.2273H626.415V95.2557H628.943C629.417 95.2557 629.807 95.1742 630.114 95.0114C630.424 94.8447 630.655 94.6155 630.807 94.3239C630.962 94.0284 631.04 93.6894 631.04 93.3068C631.04 92.9205 630.962 92.5833 630.807 92.2955C630.655 92.0038 630.424 91.7784 630.114 91.6193C629.803 91.4564 629.409 91.375 628.932 91.375H627.273V101H624.813ZM637.152 89.3636V101H634.692V89.3636H637.152ZM645.009 92.7102C644.963 92.2519 644.768 91.8958 644.424 91.642C644.079 91.3883 643.611 91.2614 643.02 91.2614C642.619 91.2614 642.28 91.3182 642.003 91.4318C641.727 91.5417 641.515 91.6951 641.367 91.892C641.223 92.089 641.151 92.3125 641.151 92.5625C641.143 92.7708 641.187 92.9527 641.282 93.108C641.38 93.2633 641.515 93.3977 641.685 93.5114C641.855 93.6212 642.052 93.7178 642.276 93.8011C642.499 93.8807 642.738 93.9489 642.992 94.0057L644.037 94.2557C644.545 94.3693 645.011 94.5208 645.435 94.7102C645.859 94.8996 646.227 95.1326 646.537 95.4091C646.848 95.6856 647.088 96.0114 647.259 96.3864C647.433 96.7614 647.522 97.1913 647.526 97.6761C647.522 98.3883 647.34 99.0057 646.98 99.5284C646.624 100.047 646.109 100.451 645.435 100.739C644.765 101.023 643.956 101.165 643.009 101.165C642.069 101.165 641.251 101.021 640.554 100.733C639.861 100.445 639.319 100.019 638.929 99.4545C638.543 98.8864 638.34 98.1837 638.321 97.3466H640.702C640.729 97.7367 640.84 98.0625 641.037 98.3239C641.238 98.5814 641.505 98.7765 641.838 98.9091C642.176 99.0379 642.556 99.1023 642.98 99.1023C643.397 99.1023 643.759 99.0417 644.066 98.9205C644.376 98.7992 644.617 98.6307 644.787 98.4148C644.958 98.1989 645.043 97.9508 645.043 97.6705C645.043 97.4091 644.965 97.1894 644.81 97.0114C644.658 96.8333 644.435 96.6818 644.14 96.5568C643.848 96.4318 643.49 96.3182 643.066 96.2159L641.799 95.8977C640.818 95.6591 640.043 95.286 639.475 94.7784C638.907 94.2708 638.624 93.5871 638.628 92.7273C638.624 92.0227 638.812 91.4072 639.191 90.8807C639.573 90.3542 640.098 89.9432 640.765 89.6477C641.431 89.3523 642.189 89.2045 643.037 89.2045C643.901 89.2045 644.655 89.3523 645.299 89.6477C645.946 89.9432 646.45 90.3542 646.81 90.8807C647.17 91.4072 647.355 92.017 647.367 92.7102H645.009ZM659.394 95.1818C659.394 96.4508 659.153 97.5303 658.672 98.4205C658.195 99.3106 657.544 99.9905 656.718 100.46C655.896 100.926 654.972 101.159 653.945 101.159C652.911 101.159 651.983 100.924 651.161 100.455C650.339 99.9848 649.689 99.3049 649.212 98.4148C648.735 97.5246 648.496 96.447 648.496 95.1818C648.496 93.9129 648.735 92.8333 649.212 91.9432C649.689 91.053 650.339 90.375 651.161 89.9091C651.983 89.4394 652.911 89.2045 653.945 89.2045C654.972 89.2045 655.896 89.4394 656.718 89.9091C657.544 90.375 658.195 91.053 658.672 91.9432C659.153 92.8333 659.394 93.9129 659.394 95.1818ZM656.9 95.1818C656.9 94.3598 656.776 93.6667 656.53 93.1023C656.288 92.5379 655.945 92.1098 655.502 91.8182C655.059 91.5265 654.54 91.3807 653.945 91.3807C653.35 91.3807 652.831 91.5265 652.388 91.8182C651.945 92.1098 651.6 92.5379 651.354 93.1023C651.112 93.6667 650.991 94.3598 650.991 95.1818C650.991 96.0038 651.112 96.697 651.354 97.2614C651.6 97.8258 651.945 98.2538 652.388 98.5455C652.831 98.8371 653.35 98.983 653.945 98.983C654.54 98.983 655.059 98.8371 655.502 98.5455C655.945 98.2538 656.288 97.8258 656.53 97.2614C656.776 96.697 656.9 96.0038 656.9 95.1818ZM664.861 101H660.736V89.3636H664.895C666.066 89.3636 667.073 89.5966 667.918 90.0625C668.763 90.5246 669.412 91.1894 669.867 92.0568C670.325 92.9242 670.555 93.9621 670.555 95.1705C670.555 96.3826 670.325 97.4242 669.867 98.2955C669.412 99.1667 668.759 99.8352 667.907 100.301C667.058 100.767 666.043 101 664.861 101ZM663.197 98.892H664.759C665.486 98.892 666.098 98.7633 666.594 98.5057C667.094 98.2443 667.469 97.8409 667.719 97.2955C667.973 96.7462 668.1 96.0379 668.1 95.1705C668.1 94.3106 667.973 93.608 667.719 93.0625C667.469 92.517 667.096 92.1155 666.6 91.858C666.104 91.6004 665.492 91.4716 664.765 91.4716H663.197V98.892ZM671.897 101V89.3636H679.738V91.392H674.357V94.1648H679.334V96.1932H674.357V98.9716H679.761V101H671.897ZM691.893 101.159C691.045 101.159 690.289 101.013 689.626 100.722C688.967 100.426 688.446 100.021 688.064 99.5057C687.685 98.9867 687.49 98.3883 687.478 97.7102H689.956C689.971 97.9943 690.064 98.2443 690.234 98.4602C690.408 98.6723 690.639 98.8371 690.927 98.9545C691.215 99.072 691.539 99.1307 691.899 99.1307C692.274 99.1307 692.605 99.0644 692.893 98.9318C693.181 98.7992 693.406 98.6155 693.569 98.3807C693.732 98.1458 693.814 97.875 693.814 97.5682C693.814 97.2576 693.726 96.983 693.552 96.7443C693.382 96.5019 693.135 96.3125 692.814 96.1761C692.495 96.0398 692.117 95.9716 691.677 95.9716H690.592V94.1648H691.677C692.048 94.1648 692.376 94.1004 692.66 93.9716C692.948 93.8428 693.171 93.6648 693.331 93.4375C693.49 93.2064 693.569 92.9375 693.569 92.6307C693.569 92.339 693.499 92.0833 693.359 91.8636C693.223 91.6402 693.029 91.4659 692.779 91.3409C692.533 91.2159 692.245 91.1534 691.916 91.1534C691.582 91.1534 691.278 91.214 691.001 91.3352C690.725 91.4527 690.503 91.6212 690.336 91.8409C690.17 92.0606 690.081 92.3182 690.069 92.6136H687.711C687.723 91.9432 687.914 91.3523 688.285 90.8409C688.656 90.3295 689.156 89.9299 689.785 89.642C690.418 89.3504 691.132 89.2045 691.927 89.2045C692.73 89.2045 693.433 89.3504 694.035 89.642C694.637 89.9337 695.105 90.3277 695.439 90.8239C695.776 91.3163 695.942 91.8693 695.939 92.483C695.942 93.1345 695.74 93.678 695.331 94.1136C694.925 94.5492 694.397 94.8258 693.745 94.9432V95.0341C694.601 95.1439 695.253 95.4413 695.7 95.9261C696.151 96.4072 696.374 97.0095 696.37 97.733C696.374 98.3958 696.183 98.9848 695.796 99.5C695.414 100.015 694.885 100.42 694.211 100.716C693.537 101.011 692.764 101.159 691.893 101.159Z" fill="white"/>
<path d="M536.044 159.8C531.604 159.8 527.604 158.4 524.364 156.28L525.564 149.44C527.924 151.12 531.964 152.88 535.644 152.88C538.164 152.88 540.164 151.8 540.204 149.44C540.244 147.24 538.484 146 534.844 144.64L533.044 143.96C527.284 141.8 524.484 138.6 524.484 133.32C524.484 127.2 529.084 123.44 536.164 123.44C539.724 123.44 543.244 124.44 546.004 126.04L545.004 132.52C542.084 130.96 539.284 130.36 536.724 130.36C534.364 130.36 532.404 131.28 532.364 133.52C532.324 135.84 534.324 136.68 537.564 137.92L539.364 138.6C544.684 140.6 548.124 143.52 548.124 149.44C548.124 155.92 543.004 159.8 536.044 159.8ZM557.189 130.6H549.509V123.84H557.189V130.6ZM557.189 159.16H549.509V132.88H557.189V159.16ZM582.25 132.88V136.52H582.29V157.72C582.29 162.52 579.45 168 570.29 168C567.41 168 564.81 167.36 562.89 166.28L563.69 160.72C565.45 161.44 567.21 161.88 569.49 161.88C573.09 161.88 575.09 160.68 575.09 157.12V156.92C573.41 158.6 570.85 159.2 568.93 159.2C563.65 159.2 559.17 156.6 559.17 148.16V143.28C559.17 134.84 563.65 132.24 568.93 132.24C570.93 132.24 573.53 133.08 575.09 134.84V132.88H582.25ZM574.73 149.12V142.48C574.73 139.76 572.57 138.68 570.85 138.68C569.13 138.68 567.01 139.76 567.01 142.48V148.92C567.01 151.64 569.13 152.76 570.85 152.76C572.53 152.76 574.73 151.68 574.73 149.12ZM592.409 159.16H584.689V124.08H592.409V134.56C593.809 132.96 596.089 132.24 598.529 132.24C603.369 132.24 607.649 134.84 607.649 143.28V159.16H599.809V142.76C599.809 140.04 598.249 138.72 596.129 138.72C594.009 138.72 592.409 140 592.409 142.56V159.16ZM620.052 159.84C615.172 159.84 612.012 157.68 612.012 151.64V140.04H607.652V133.68H612.012V125.28H619.612V133.68H625.692V140.04H619.612V151.28C619.612 152.64 620.412 153.36 621.692 153.4C622.892 153.44 624.452 153.28 625.292 152.96L625.692 158.76C624.292 159.4 622.332 159.84 620.052 159.84ZM664.471 147.6L668.831 124.12H676.831L668.831 159.16H660.511L655.391 136.48L650.431 159.16H642.111L633.911 124.12H641.951L646.351 147.6L651.431 124.12H659.351L664.471 147.6ZM686.63 159.8C681.31 159.8 675.03 157.32 675.03 148.72V143.32C675.03 134.72 681.19 132.24 686.63 132.24C691.95 132.24 698.23 134.72 698.23 143.32V148.72C698.23 157.32 691.95 159.8 686.63 159.8ZM686.63 153.24C688.35 153.24 690.59 152.32 690.59 149.48V142.56C690.59 139.72 688.35 138.8 686.63 138.8C684.91 138.8 682.67 139.72 682.67 142.56V149.48C682.67 152.32 684.91 153.24 686.63 153.24ZM707.956 159.16H700.236V132.88H707.596V134.88C708.956 133 711.356 132.24 713.316 132.24C714.916 132.24 716.156 132.6 717.196 133.4L716.796 140.16C715.676 139.6 714.276 139.36 712.796 139.36C709.796 139.36 708.076 140.76 707.956 143.16V159.16ZM732.562 134.04V124.88H740.282V159.16H733.122V157.2C731.562 158.96 728.962 159.8 726.962 159.8C721.682 159.8 717.202 157.2 717.202 148.76V143.28C717.202 134.84 721.682 132.24 726.962 132.24C728.882 132.24 731.042 132.84 732.562 134.04ZM732.762 149.56V142.32C732.762 139.76 730.562 138.68 728.882 138.68C727.162 138.68 725.042 139.8 725.042 142.52V149.56C725.042 152.28 727.162 153.36 728.882 153.36C730.602 153.36 732.762 152.28 732.762 149.56ZM752.552 159.8C749.032 159.8 745.312 158.92 742.592 157.08L743.392 150.96C746.592 152.84 749.232 153.6 751.992 153.6C753.752 153.6 754.872 152.92 754.872 151.72C754.872 150.36 752.752 149.64 749.752 148.6L748.112 148.04C744.152 146.68 742.032 143.68 742.072 140.24C742.112 135.08 746.072 132.24 752.232 132.24C755.832 132.24 758.672 133.08 761.032 134.64L759.992 140.4C758.152 139.24 755.472 138.44 752.952 138.44C751.032 138.44 749.992 139.04 749.992 140.12C749.992 141.48 751.512 141.8 754.392 142.72L755.872 143.2C760.112 144.56 762.592 147.28 762.552 151.36C762.512 157.04 758.152 159.8 752.552 159.8ZM784.938 159.16H777.338V134.96H771.778V129C775.738 128.84 777.938 127.56 778.618 124.08H784.938V159.16Z" fill="#9730E8"/>
<path d="M1054.64 535.737C1054.64 535.737 1032.48 571.507 1042.71 577.339C1042.71 577.339 1051.4 580.583 1055.45 563.386C1055.45 563.386 1049.61 577.98 1055.78 579.438C1055.78 579.438 1062.43 583.172 1066.49 565.484C1066.49 565.484 1062.43 579.915 1069.58 579.915C1069.58 579.915 1076.39 582.191 1079.15 563.208C1079.15 563.208 1077.69 577.162 1085.15 577.803C1085.15 577.803 1091.97 579.751 1093.1 563.045C1093.1 563.045 1091.64 577.639 1098.62 577.476C1098.62 577.476 1104.46 578.13 1103.16 562.391C1103.16 562.391 1104.46 576.508 1109.65 576.181C1109.65 576.181 1115.98 577.966 1113.72 562.227C1113.72 562.227 1115.34 575.854 1122.96 574.723C1122.96 574.723 1135.78 573.429 1120.52 549.091L1111.11 533.679L1054.63 535.709L1054.64 535.737Z" fill="#CFD3FF"/>
<path d="M1081.48 505.06C1081.48 505.06 1061.52 503.997 1046.01 530.528C1046.01 530.528 1035.5 545.845 1042.28 549.579C1042.28 549.579 1050.12 555.806 1056.17 538.718C1056.17 538.718 1051.18 551.718 1056.17 552.604C1056.17 552.604 1063.48 555.806 1066.86 538.895C1066.86 538.895 1063.3 554.035 1070.07 553.858C1070.07 553.858 1077.02 555.997 1078.8 538.364C1078.8 538.364 1076.3 553.503 1082.18 553.68C1082.18 553.68 1088.41 555.465 1089.49 538.718C1089.49 538.718 1088.25 552.072 1095.01 552.072C1095.01 552.072 1100.71 554.92 1100.53 537.819C1100.53 537.819 1100.89 551.895 1110.16 550.996C1110.16 550.996 1116.76 552.781 1113.36 538.173C1113.36 538.173 1116.57 550.287 1122.81 548.325C1122.81 548.325 1131.72 545.123 1119.08 523.388C1119.08 523.388 1103.75 499.882 1081.47 505.046L1081.48 505.06Z" fill="#D6DAFF"/>
<path d="M1084.17 479.263C1084.17 479.263 1057.63 479.263 1047.4 505.781C1047.4 505.781 1041.8 519.653 1045.94 522.324C1045.94 522.324 1052.43 528.851 1060.1 509.624C1060.1 509.624 1051.19 525.649 1057.07 527.788C1057.07 527.788 1066.52 533.662 1071.33 511.409C1071.33 511.409 1067.6 525.486 1074.54 526.903C1074.54 526.903 1083.09 530.282 1085.23 509.624C1085.23 509.624 1082.56 524.586 1089.87 525.649C1089.87 525.649 1096.64 528.143 1096.47 508.902C1096.47 508.902 1095.94 524.927 1102.7 524.573C1102.7 524.573 1110.54 527.775 1106.98 508.193C1106.98 508.193 1108.59 523.155 1116.61 522.447C1116.61 522.447 1126.06 521.207 1118.75 499.826C1118.75 499.826 1107.72 477.219 1084.18 479.263H1084.17Z" fill="#DDE0FF"/>
<path d="M1084.85 455.542C1084.85 455.542 1063.92 455.051 1051.99 481.092C1051.99 481.092 1047.61 490.903 1051.17 492.525C1051.17 492.525 1054.58 496.736 1065.13 483.123C1065.13 483.123 1053.61 496.095 1057.51 498.698C1057.51 498.698 1061.57 504.694 1073.26 485.889C1073.26 485.889 1067.42 496.599 1074.23 498.862C1074.23 498.862 1081.54 502.105 1084.95 485.562C1084.95 485.562 1081.37 499.025 1087.86 500.32C1087.86 500.32 1094.19 501.778 1095.98 484.908C1095.98 484.908 1094.19 498.862 1099.39 499.338C1099.39 499.338 1105.88 500.96 1104.75 484.744C1104.75 484.744 1106.21 497.39 1113.19 496.586C1113.19 496.586 1124.71 494.31 1112.86 472.425C1112.86 472.425 1102.47 453.607 1084.86 455.555L1084.85 455.542Z" fill="#E8EAFF"/>
<path d="M1080.88 436.401C1080.88 436.401 1052.64 446.689 1056.35 459.975C1056.35 459.975 1057.43 465.235 1068.47 456.65C1068.47 456.65 1054.18 466.134 1059.03 470.181C1059.03 470.181 1063.07 473.752 1072.29 461.992C1072.29 461.992 1066.17 472.253 1072.83 473.602C1072.83 473.602 1081.9 475.837 1083.03 460.397C1083.03 460.397 1080.88 471.939 1085.87 471.953C1085.87 471.953 1092.09 472.784 1091.26 460.248C1091.26 460.248 1091.23 471.926 1097.08 471.081C1097.08 471.081 1102.3 473.179 1100.13 457.331C1100.13 457.331 1103.2 469.241 1110.43 465.358C1110.43 465.358 1117.79 457.631 1103.6 447.179C1103.6 447.179 1088.99 433.471 1080.92 436.414L1080.88 436.401Z" fill="#F1F2FE"/>
<defs>
<clipPath id="clip0_4769_39608">
<rect width="54.3715" height="117.492" fill="white" transform="translate(1182.5 590.965) rotate(-82.9862)"/>
</clipPath>
<clipPath id="clip1_4769_39608">
<rect width="54.32" height="52.28" fill="white" transform="translate(625.5 267)"/>
</clipPath>
<clipPath id="clip2_4769_39608">
<rect width="78" height="145" fill="white" transform="translate(79 467.61) rotate(-7.81778)"/>
</clipPath>
</defs>
</svg>
