<svg width="1283" height="610" viewBox="0 0 1283 610" fill="none" xmlns="http://www.w3.org/2000/svg">
<g clip-path="url(#clip0_4789_72842)">
<path d="M1086.58 567.912C983.567 552.985 934.031 540.521 870.422 537.848C539.434 507.785 331.148 563.131 228.711 573.423C-90.4565 605.49 14.2427 610 27.7529 610H1258.83C1258.83 610 1377.04 610 1086.58 567.912Z" fill="#94A09F"/>
<mask id="mask0_4789_72842" style="mask-type:luminance" maskUnits="userSpaceOnUse" x="64" y="409" width="102" height="188">
<path d="M165.559 409H64.1895V596.08H165.559V409Z" fill="white"/>
</mask>
<g mask="url(#mask0_4789_72842)">
<path d="M114.623 466.67C114.473 466.67 114.323 466.67 114.183 466.64C112.923 466.47 111.863 465.62 111.433 464.42C109.073 457.82 107.353 431.21 107.173 428.2C107.053 426.33 108.473 424.72 110.353 424.6C112.223 424.49 113.833 425.9 113.953 427.78C114.453 435.71 115.383 447.08 116.423 454.75L132.213 431.94C133.283 430.4 135.393 430.02 136.933 431.08C138.473 432.15 138.863 434.26 137.793 435.8L117.433 465.21C116.793 466.13 115.743 466.67 114.643 466.67H114.623Z" fill="#94A09F"/>
<path d="M116.434 596.08C114.584 596.08 113.064 594.59 113.044 592.73C112.974 587.32 111.234 460.11 111.234 458.75C111.234 456.88 112.754 455.36 114.624 455.36C116.494 455.36 118.014 456.88 118.014 458.75C118.014 460.48 119.804 591.32 119.824 592.64C119.854 594.51 118.354 596.05 116.474 596.08H116.424H116.434Z" fill="#94A09F"/>
<path d="M113.714 487.03C112.974 487.03 112.234 486.79 111.614 486.3C107.664 483.18 103.154 476.7 98.194 467.03C94.604 460.02 92.124 453.95 92.024 453.7C91.314 451.96 92.154 449.98 93.884 449.28C95.624 448.57 97.604 449.41 98.304 451.14C100.984 457.71 109.344 475.87 115.814 480.98C117.284 482.14 117.534 484.28 116.374 485.75C115.704 486.6 114.714 487.04 113.704 487.04L113.714 487.03Z" fill="#94A09F"/>
<path d="M115.143 487.57C114.153 487.57 113.183 487.14 112.503 486.32C111.323 484.87 111.543 482.73 112.993 481.55C113.203 481.38 133.783 464.6 146.833 449.2C148.043 447.77 150.183 447.59 151.613 448.8C153.043 450.01 153.223 452.15 152.013 453.58C138.543 469.48 118.143 486.12 117.273 486.82C116.643 487.33 115.883 487.58 115.133 487.58L115.143 487.57Z" fill="#94A09F"/>
<path d="M114.624 512.14C113.244 512.14 111.944 511.29 111.434 509.92C108.314 501.42 85.1638 477.74 76.5038 469.33C75.1638 468.02 75.1238 465.88 76.4338 464.53C77.7438 463.19 79.8838 463.15 81.2338 464.46C84.5338 467.66 113.584 496.1 117.804 507.58C118.454 509.34 117.544 511.29 115.784 511.94C115.394 512.08 115.004 512.15 114.614 512.15L114.624 512.14Z" fill="#94A09F"/>
<path d="M115.984 537.03C115.804 537.03 115.634 537.02 115.454 536.99C113.604 536.7 112.334 534.96 112.634 533.11C115.434 515.36 145.834 471.14 147.134 469.27C148.194 467.73 150.314 467.34 151.854 468.4C153.394 469.46 153.784 471.58 152.724 473.12C152.644 473.23 144.864 484.53 136.864 497.75C123.694 519.51 120.074 529.56 119.344 534.16C119.084 535.83 117.634 537.02 115.994 537.02L115.984 537.03Z" fill="#94A09F"/>
<path d="M114.394 531.15C112.744 531.15 111.314 529.95 111.054 528.3C110.024 525.28 96.9638 510.42 76.7338 490.58C75.3938 489.27 75.3738 487.12 76.6838 485.78C77.9938 484.44 80.1438 484.42 81.4838 485.73C81.5738 485.82 90.2838 494.36 98.9638 503.49C117.214 522.69 117.584 525.71 117.774 527.34C117.994 529.2 116.674 530.89 114.804 531.11C114.664 531.13 114.534 531.13 114.394 531.13V531.15ZM111.034 528.16C111.034 528.16 111.034 528.21 111.034 528.23C111.034 528.21 111.034 528.18 111.034 528.16Z" fill="#94A09F"/>
<path d="M90.6726 441.7C90.6726 441.7 79.4626 441.8 79.2926 448.45C79.2926 448.45 78.8726 454.91 87.1726 456.64C87.1726 456.64 98.5926 458.64 100.073 451.83C100.073 451.83 103.953 442.6 90.6826 441.7H90.6726Z" fill="#829593"/>
<path d="M90.773 458.45C88.633 458.45 86.993 458.17 86.903 458.15C79.293 456.56 77.603 451.09 77.773 448.39C77.843 445.99 79.093 442.8 84.603 441.13C87.603 440.22 90.533 440.19 90.663 440.18H90.783C95.873 440.53 99.313 442.1 101.003 444.85C102.943 448 101.813 451.52 101.523 452.28C100.963 454.69 99.053 457.64 93.233 458.31C92.383 458.41 91.543 458.45 90.773 458.45ZM90.633 443.23C90.243 443.23 87.813 443.33 85.433 444.06C82.413 444.99 80.863 446.48 80.813 448.5V448.56C80.783 449.08 80.763 453.76 87.473 455.16C87.523 455.16 97.423 456.82 98.573 451.52L98.603 451.38L98.653 451.25C98.653 451.25 99.723 448.57 98.393 446.43C97.263 444.61 94.573 443.51 90.633 443.23Z" fill="#829593"/>
<path d="M135.004 423.47C135.004 423.47 121.554 423.64 121.774 434.81C121.774 434.81 120.694 447.22 132.074 448.77C132.074 448.77 143.954 450.59 147.284 439.51C147.284 439.51 153.504 424.19 135.004 423.47Z" fill="#829593"/>
<path d="M134.083 450.44C133.263 450.44 132.503 450.38 131.843 450.28C121.783 448.91 119.863 439.58 120.243 434.76C120.193 431.43 121.233 428.65 123.323 426.49C127.573 422.1 134.673 421.96 134.973 421.95H135.053C141.403 422.2 145.783 424.13 148.073 427.68C151.353 432.77 149.023 439.21 148.713 440.01C146.183 448.32 138.963 450.43 134.073 450.43L134.083 450.44ZM134.993 424.99C134.503 425.01 128.743 425.26 125.513 428.61C123.973 430.21 123.253 432.22 123.303 434.78V434.94C123.263 435.38 122.513 445.93 132.293 447.26C132.743 447.33 142.943 448.72 145.833 439.07L145.883 438.93C145.903 438.88 148.103 433.28 145.523 429.31C143.803 426.65 140.263 425.2 134.993 424.98V424.99Z" fill="#829593"/>
<path d="M76.8736 459.45C76.8736 459.45 65.9536 459.68 65.7336 468.56C65.7336 468.56 65.2636 477.18 73.3236 479.41C73.3236 479.41 84.4236 481.97 85.9236 472.88C85.9236 472.88 89.7936 460.54 76.8736 459.45Z" fill="#829593"/>
<path d="M76.6628 481.26C74.6328 481.26 73.1028 480.92 72.9728 480.89L72.9128 480.87C65.6028 478.85 64.0228 471.88 64.2028 468.47C64.4028 460.34 72.5528 458.01 76.8328 457.92H76.9928C81.2928 458.28 84.3928 459.84 86.2228 462.56C89.0828 466.81 87.6528 472.33 87.4028 473.2C86.9328 475.94 85.6428 478.03 83.5728 479.42C81.3928 480.88 78.7628 481.24 76.6628 481.24V481.26ZM73.6828 477.93C74.0728 478.01 78.8328 478.96 81.8828 476.9C83.2628 475.97 84.0928 474.57 84.4128 472.62L84.4628 472.41C84.4628 472.41 85.9228 467.56 83.6828 464.25C82.4028 462.36 80.1028 461.26 76.8228 460.96C75.8628 461 67.4228 461.55 67.2428 468.58C67.2228 468.92 66.9628 476.03 73.6828 477.91V477.93Z" fill="#829593"/>
<path d="M154.454 440.86C154.454 440.86 143.534 441.09 143.314 449.97C143.314 449.97 142.844 458.59 150.904 460.82C150.904 460.82 162.004 463.38 163.504 454.29C163.504 454.29 167.374 441.95 154.454 440.86Z" fill="#829593"/>
<path d="M154.243 462.67C152.213 462.67 150.683 462.33 150.553 462.3L150.493 462.28C143.183 460.25 141.603 453.28 141.783 449.88C141.983 441.75 150.133 439.42 154.413 439.33H154.573C158.873 439.69 161.973 441.25 163.803 443.97C166.663 448.22 165.233 453.74 164.983 454.61C164.513 457.35 163.223 459.44 161.153 460.83C158.973 462.29 156.343 462.65 154.243 462.65V462.67ZM151.273 459.34C151.663 459.42 156.423 460.37 159.473 458.31C160.853 457.38 161.683 455.98 162.003 454.03L162.053 453.82C162.053 453.82 163.513 448.97 161.273 445.66C159.993 443.77 157.693 442.67 154.413 442.37C153.453 442.41 145.013 442.96 144.833 449.99C144.813 450.33 144.553 457.44 151.273 459.32V459.34Z" fill="#829593"/>
<path d="M78.4929 483.9C78.4929 483.9 67.2829 484 67.1129 490.65C67.1129 490.65 66.6929 497.11 74.9929 498.84C74.9929 498.84 86.4129 500.84 87.8929 494.03C87.8929 494.03 91.7729 484.8 78.5029 483.9H78.4929Z" fill="#829593"/>
<path d="M78.5933 500.64C76.4533 500.64 74.8133 500.36 74.7233 500.34C67.1133 498.75 65.4233 493.28 65.5933 490.58C65.6633 488.18 66.9133 484.99 72.4233 483.32C75.4233 482.41 78.3533 482.38 78.4833 482.37H78.6033C83.6933 482.72 87.1333 484.29 88.8233 487.04C90.7633 490.19 89.6333 493.71 89.3433 494.47C88.7833 496.88 86.8733 499.83 81.0533 500.5C80.2033 500.6 79.3633 500.64 78.5933 500.64ZM78.4533 485.42C78.0633 485.42 75.6333 485.52 73.2533 486.25C70.2333 487.18 68.6833 488.67 68.6333 490.69V490.75C68.6033 491.27 68.5833 495.95 75.2933 497.35C75.3433 497.35 85.2433 499.01 86.3933 493.71L86.4233 493.57L86.4733 493.44C86.4733 493.44 87.5433 490.76 86.2133 488.62C85.0833 486.8 82.3933 485.7 78.4533 485.42Z" fill="#829593"/>
<path d="M108.713 410.52C108.713 410.52 95.2626 410.69 95.4826 421.86C95.4826 421.86 94.4026 434.27 105.783 435.82C105.783 435.82 117.663 437.64 120.993 426.56C120.993 426.56 127.213 411.24 108.713 410.52Z" fill="#829593"/>
<path d="M107.793 437.49C106.973 437.49 106.213 437.43 105.553 437.33C95.4924 435.96 93.5724 426.63 93.9524 421.81C93.9024 418.48 94.9424 415.7 97.0324 413.54C101.293 409.14 108.393 409 108.693 409H108.773C115.123 409.25 119.503 411.18 121.793 414.73C125.073 419.82 122.743 426.26 122.433 427.06C119.903 435.37 112.683 437.48 107.793 437.48V437.49ZM108.703 412.05C108.213 412.07 102.453 412.32 99.2224 415.67C97.6824 417.27 96.9624 419.28 97.0124 421.84V422C96.9724 422.44 96.2224 432.99 106.003 434.32C106.453 434.39 116.653 435.78 119.543 426.13L119.593 425.99C119.613 425.94 121.813 420.34 119.233 416.37C117.513 413.71 113.973 412.26 108.703 412.04V412.05Z" fill="#829593"/>
<path d="M152.034 463.77C152.034 463.77 141.114 464 140.894 472.88C140.894 472.88 140.424 481.5 148.484 483.73C148.484 483.73 159.584 486.29 161.084 477.2C161.084 477.2 164.954 464.86 152.034 463.77Z" fill="#829593"/>
<path d="M151.833 485.59C149.803 485.59 148.273 485.25 148.143 485.22L148.083 485.2C140.773 483.17 139.193 476.2 139.373 472.8C139.573 464.67 147.723 462.34 152.003 462.25H152.163C156.463 462.61 159.563 464.17 161.393 466.89C164.253 471.14 162.823 476.66 162.573 477.53C162.103 480.27 160.813 482.36 158.743 483.75C156.563 485.21 153.933 485.57 151.833 485.57V485.59ZM148.853 482.25C149.243 482.33 154.003 483.28 157.053 481.22C158.433 480.29 159.263 478.89 159.583 476.94L159.633 476.73C159.633 476.73 161.093 471.88 158.853 468.57C157.573 466.68 155.273 465.58 151.993 465.28C151.033 465.32 142.593 465.87 142.413 472.9C142.393 473.24 142.133 480.35 148.853 482.23V482.25Z" fill="#829593"/>
</g>
<path fill-rule="evenodd" clip-rule="evenodd" d="M57.3323 570.326C55.1132 566.876 47.2343 555.737 40.4444 559.931C40.4444 559.931 36.007 562.103 36.7198 567.788C24.4709 573.134 26.2896 585.536 27.0466 587.787C27.6243 589.455 26.3398 592.607 26.3398 592.607C28.544 591.748 31.4464 593.676 31.4464 593.676C43.23 601.556 52.2717 592.757 53.3905 591.587C56.0273 593.207 58.5438 593.596 60.5778 591.895C66.7947 586.694 62.7004 578.991 58.3898 572.037L58.8626 572.647C58.8626 572.647 70.4136 569.416 69.6014 566.071C68.8486 562.971 58.7982 569.373 57.3323 570.326Z" fill="#94A09F"/>
<mask id="mask1_4789_72842" style="mask-type:luminance" maskUnits="userSpaceOnUse" x="23" y="556" width="51" height="44">
<path d="M73.3398 556H23.3398V600H73.3398V556Z" fill="white"/>
<path fill-rule="evenodd" clip-rule="evenodd" d="M57.3323 570.326C55.1132 566.876 47.2343 555.737 40.4444 559.931C40.4444 559.931 36.007 562.103 36.7198 567.788C24.4709 573.134 26.2896 585.536 27.0466 587.787C27.6243 589.455 26.3398 592.607 26.3398 592.607C28.544 591.748 31.4464 593.676 31.4464 593.676C43.23 601.556 52.2717 592.757 53.3905 591.587C56.0273 593.207 58.5438 593.596 60.5778 591.895C66.7947 586.694 62.7004 578.991 58.3898 572.037L58.8626 572.647C58.8626 572.647 70.4136 569.416 69.6014 566.071C68.8486 562.971 58.7982 569.373 57.3323 570.326Z" fill="black"/>
</mask>
<g mask="url(#mask1_4789_72842)">
<path d="M40.4445 559.931L41.7634 562.625C41.8515 562.582 41.9374 562.535 42.0209 562.483L40.4445 559.931ZM57.3324 570.326L54.8093 571.949C55.241 572.62 55.9225 573.092 56.7029 573.259C57.4833 573.427 58.2982 573.276 58.9674 572.841L57.3324 570.326ZM36.7199 567.788L37.92 570.538C39.139 570.006 39.8621 568.735 39.6966 567.415L36.7199 567.788ZM27.0467 587.787L24.2033 588.744C24.2061 588.752 24.209 588.761 24.212 588.769L27.0467 587.787ZM26.3399 592.607L23.5618 591.475C23.1094 592.585 23.3613 593.858 24.2025 594.712C25.0437 595.566 26.3126 595.837 27.4296 595.402L26.3399 592.607ZM31.4465 593.676L33.1142 591.183L33.107 591.178L31.4465 593.676ZM53.3906 591.587L54.9608 589.031C53.7567 588.291 52.1997 588.492 51.2228 589.514L53.3906 591.587ZM58.3899 572.037L60.7612 570.199C59.7836 568.937 57.9894 568.662 56.6786 569.573C55.3677 570.483 54.9992 572.26 55.84 573.617L58.3899 572.037ZM58.8627 572.647L56.4914 574.484C57.2388 575.449 58.4957 575.864 59.6707 575.536L58.8627 572.647ZM42.0209 562.483C42.8841 561.95 43.746 561.872 44.7889 562.179C45.9369 562.516 47.2485 563.321 48.6341 564.526C51.4009 566.932 53.7407 570.287 54.8093 571.949L59.8555 568.703C58.705 566.914 55.9958 562.976 52.5709 559.998C50.8607 558.511 48.7908 557.102 46.4824 556.423C44.0691 555.713 41.3998 555.815 38.868 557.378L42.0209 562.483ZM39.6966 567.415C39.4556 565.493 40.0656 564.329 40.6417 563.621C40.9526 563.239 41.279 562.964 41.5189 562.791C41.6369 562.706 41.7276 562.65 41.7753 562.621C41.7989 562.608 41.8112 562.601 41.8101 562.602C41.8095 562.602 41.8055 562.604 41.7978 562.608C41.794 562.61 41.7892 562.612 41.7835 562.615C41.7806 562.617 41.7775 562.618 41.7742 562.62C41.7725 562.621 41.7707 562.622 41.7689 562.622C41.768 562.623 41.7666 562.624 41.7662 562.624C41.7648 562.625 41.7634 562.625 40.4445 559.931C39.1256 557.236 39.1241 557.237 39.1226 557.238C39.1221 557.238 39.1206 557.239 39.1196 557.239C39.1175 557.24 39.1154 557.241 39.1132 557.242C39.1087 557.244 39.104 557.247 39.099 557.249C39.089 557.254 39.0779 557.26 39.0657 557.266C39.0413 557.279 39.0124 557.294 38.9795 557.311C38.9138 557.346 38.8314 557.392 38.7351 557.449C38.5429 557.562 38.2925 557.72 38.0056 557.927C37.4358 558.339 36.6974 558.962 35.988 559.834C34.5237 561.633 33.2714 564.398 33.7433 568.161L39.6966 567.415ZM29.8902 586.831C29.6767 586.196 29.0841 583.11 29.9216 579.655C30.7149 576.383 32.7741 572.784 37.92 570.538L35.5199 565.039C28.4168 568.139 25.2609 573.414 24.0905 578.242C22.9644 582.887 23.6597 587.128 24.2033 588.744L29.8902 586.831ZM26.3399 592.607C29.1181 593.739 29.1183 593.738 29.1185 593.738C29.1186 593.738 29.1188 593.737 29.1189 593.737C29.1192 593.736 29.1195 593.735 29.1199 593.735C29.1205 593.733 29.1213 593.731 29.1221 593.729C29.1237 593.725 29.1257 593.72 29.128 593.715C29.1325 593.703 29.1382 593.689 29.145 593.672C29.1586 593.637 29.1766 593.591 29.1983 593.534C29.2416 593.42 29.2998 593.262 29.3663 593.07C29.4981 592.69 29.669 592.156 29.8205 591.549C29.9697 590.952 30.1158 590.223 30.1718 589.465C30.225 588.745 30.2163 587.772 29.8815 586.805L24.212 588.769C24.166 588.636 24.2133 588.682 24.1882 589.023C24.1658 589.325 24.0991 589.696 23.9994 590.095C23.902 590.485 23.7879 590.843 23.6969 591.106C23.652 591.236 23.6144 591.337 23.5897 591.402C23.5774 591.435 23.5684 591.458 23.5635 591.47C23.561 591.476 23.5596 591.48 23.5593 591.481C23.5591 591.481 23.5592 591.481 23.5596 591.48C23.5598 591.479 23.5601 591.479 23.5605 591.478C23.5607 591.477 23.5609 591.477 23.5611 591.476C23.561 591.476 23.5612 591.476 23.5611 591.476C23.5613 591.475 23.5618 591.475 26.3399 592.607ZM31.4465 593.676C33.107 591.178 33.1063 591.177 33.1056 591.177C33.1054 591.177 33.1047 591.176 33.1042 591.176C33.1032 591.175 33.1021 591.175 33.101 591.174C33.0988 591.172 33.0965 591.171 33.0939 591.169C33.0888 591.166 33.0829 591.162 33.0763 591.158C33.0631 591.149 33.047 591.139 33.028 591.126C32.99 591.102 32.9405 591.071 32.8804 591.034C32.7605 590.961 32.5967 590.865 32.3965 590.756C32.001 590.54 31.438 590.259 30.7717 590.01C29.5801 589.564 27.4135 588.968 25.2503 589.812L27.4296 595.402C27.4178 595.407 27.5067 595.37 27.7601 595.396C28.0135 595.422 28.3253 595.501 28.668 595.629C29.0028 595.754 29.3031 595.903 29.5207 596.021C29.627 596.079 29.7072 596.127 29.7547 596.156C29.7782 596.17 29.7933 596.18 29.7989 596.183C29.8017 596.185 29.8021 596.186 29.8 596.184C29.7989 596.183 29.7973 596.182 29.795 596.181C29.7938 596.18 29.7925 596.179 29.791 596.178C29.7903 596.178 29.7895 596.177 29.7887 596.177C29.7882 596.176 29.7876 596.176 29.7874 596.176C29.7867 596.175 29.7861 596.175 31.4465 593.676ZM51.2228 589.514C50.8087 589.946 48.6571 592.059 45.4233 593.195C42.35 594.275 38.1443 594.546 33.1142 591.183L29.7789 596.17C36.5325 600.686 42.7393 600.498 47.4124 598.856C51.9251 597.27 54.8536 594.398 55.5584 593.661L51.2228 589.514ZM58.653 589.594C58.2562 589.926 57.8934 590.028 57.4251 589.994C56.8604 589.954 56.0417 589.695 54.9608 589.031L51.8204 594.144C53.3763 595.099 55.1342 595.845 56.9954 595.979C58.9531 596.119 60.8655 595.565 62.5027 594.196L58.653 589.594ZM55.84 573.617C58.0171 577.13 59.8475 580.398 60.5067 583.29C60.8244 584.684 60.8291 585.832 60.5692 586.792C60.32 587.712 59.7761 588.654 58.653 589.594L62.5027 594.196C64.4881 592.535 65.7638 590.564 66.3606 588.36C66.9469 586.195 66.8243 584.008 66.3567 581.957C65.4453 577.958 63.0733 573.898 60.9399 570.456L55.84 573.617ZM61.234 570.809L60.7612 570.199L56.0187 573.874L56.4914 574.484L61.234 570.809ZM66.6862 566.779C66.4278 565.715 67.2961 565.446 66.3947 566.165C65.7325 566.694 64.6477 567.287 63.3287 567.867C62.0519 568.429 60.7291 568.904 59.7101 569.242C59.2046 569.41 58.7828 569.541 58.4905 569.629C58.3445 569.673 58.2313 569.707 58.1567 569.728C58.1194 569.739 58.0917 569.747 58.0745 569.752C58.0658 569.754 58.0598 569.756 58.0565 569.757C58.0548 569.757 58.0539 569.758 58.0536 569.758C58.0534 569.758 58.0534 569.758 58.0536 569.758C58.054 569.757 58.0547 569.757 58.8627 572.647C59.6707 575.536 59.6711 575.536 59.6716 575.535C59.6719 575.535 59.6724 575.535 59.6728 575.535C59.6737 575.535 59.6748 575.535 59.676 575.534C59.6785 575.533 59.6817 575.533 59.6856 575.531C59.6934 575.529 59.7039 575.526 59.7171 575.523C59.7436 575.515 59.7807 575.504 59.8278 575.491C59.9219 575.463 60.0561 575.424 60.2244 575.373C60.5606 575.272 61.0349 575.124 61.5996 574.937C62.721 574.565 64.2352 574.023 65.7447 573.359C67.2118 572.714 68.8625 571.872 70.1377 570.855C71.1737 570.028 73.1813 568.1 72.5168 565.364L66.6862 566.779ZM58.9674 572.841C59.681 572.377 62.4236 570.629 65.0269 569.386C66.3742 568.743 67.432 568.36 68.0678 568.253C68.4094 568.196 68.2883 568.28 67.9462 568.163C67.3837 567.97 66.8476 567.444 66.6862 566.779L72.5168 565.364C72.1673 563.924 71.1524 562.919 69.8904 562.487C68.8489 562.13 67.8077 562.213 67.0782 562.335C65.5721 562.587 63.8845 563.283 62.4418 563.972C59.4652 565.393 56.4497 567.322 55.6974 567.811L58.9674 572.841Z" fill="#757E83"/>
</g>
<path d="M57.1543 570.442C57.1543 570.442 68.7891 562.727 69.6013 566.071C70.4134 569.416 58.8625 572.647 58.8625 572.647L57.1543 570.442Z" fill="#829593"/>
<path d="M57.9415 571.308C57.9415 571.308 48.4384 554.994 40.4446 559.931C40.4446 559.931 33.6312 563.266 38.2462 572.488C42.8611 581.71 54.1381 597.282 60.578 591.895C67.018 586.508 62.3935 578.435 57.9258 571.291L57.9415 571.308Z" fill="#829593"/>
<path d="M36.8015 567.753C36.8015 567.753 47.6149 574.166 53.5072 591.462C53.5072 591.462 44.0437 602.1 31.4464 593.676C31.4464 593.676 28.544 591.748 26.3398 592.607C26.3398 592.607 27.6243 589.455 27.0466 587.787C26.2879 585.531 24.4627 573.079 36.8015 567.753Z" fill="#94A09F"/>
<path d="M612.115 9.73121L338.158 124.704C310.799 136.181 293 162.965 293 192.65V515.319C293 556.008 325.968 589 366.644 589H915.356C956.025 589 989 556.016 989 515.319V192.693C989 162.987 971.172 136.188 943.784 124.726L669.02 9.7094C650.815 2.08477 630.313 2.0993 612.108 9.73848L612.115 9.73121Z" fill="#94A09F"/>
<mask id="mask2_4789_72842" style="mask-type:luminance" maskUnits="userSpaceOnUse" x="1004" y="330" width="96" height="242">
<path d="M1099.02 330H1004.02V572H1099.02V330Z" fill="white"/>
</mask>
<g mask="url(#mask2_4789_72842)">
<path d="M1042.36 356.915C1042.36 356.915 1044.8 326.309 1032.05 330.364C1032.05 330.364 1022.84 334.966 1030.7 359.348C1030.7 359.348 1023.65 340.925 1016.86 347.43C1016.86 347.43 1009.27 353.389 1024.18 369.909C1024.18 369.909 1013.61 358.256 1008.72 364.761C1008.72 364.761 1001.13 370.985 1026.62 388.878C1026.62 388.878 1010.35 375.868 1006.29 389.689C1006.29 389.689 1002.23 395.648 1022.56 409.188C1022.56 409.188 1007.65 400.25 1005.21 408.642C1005.21 408.642 1000.06 416.504 1026.9 428.422C1026.9 428.422 1007.65 415.958 1004.12 425.443C1004.12 425.443 1001.4 432.213 1024.18 442.773C1024.18 442.773 1008.18 435.739 1007.36 443.849C1007.36 443.849 1001.95 449.262 1023.64 459.012C1023.64 459.012 1008.18 450.338 1007.91 460.088C1007.91 460.088 1007.36 468.215 1024.45 475.531C1024.45 475.531 1010.35 467.95 1007.91 473.628C1007.91 473.628 1003.85 480.944 1026.9 489.071C1026.9 489.071 1016.86 485.546 1014.71 492.862C1014.71 492.862 1008.19 500.724 1043.17 512.361C1043.17 512.361 1051.04 555.431 1049.69 571.421L1062.71 571.967V508.852C1062.71 508.852 1097.14 503.704 1094.71 493.954C1094.71 493.954 1094.44 482.847 1071.66 493.954C1071.66 493.954 1097.43 486.373 1095.52 476.624C1095.52 476.624 1093.9 466.593 1069.75 478.527C1069.75 478.527 1096.6 467.42 1094.71 458.747C1094.71 458.747 1093.63 445.736 1068.94 459.558C1068.94 459.558 1097.69 448.997 1096.07 440.87C1096.07 440.87 1094.16 429.217 1073.83 441.135C1073.83 441.135 1099.6 431.385 1098.79 426.784C1098.79 426.784 1103.39 413.508 1073.02 428.952C1073.02 428.952 1101.22 415.13 1098.24 408.907C1098.24 408.907 1096.61 396.989 1073.02 409.718C1073.02 409.718 1101.22 396.443 1097.69 389.937C1097.69 389.937 1096.07 377.473 1074.91 394.539C1074.91 394.539 1097.96 375.57 1091.73 367.989C1091.73 367.989 1085.21 353.356 1067.05 377.192C1067.05 377.192 1083.32 350.376 1075.74 345.775C1075.74 345.775 1066.52 337.647 1057.84 363.387C1057.84 363.387 1065.16 333.311 1052.42 333.592C1052.42 333.592 1043.47 328.99 1042.38 356.882L1042.36 356.915Z" fill="#94A09F"/>
</g>
<mask id="mask3_4789_72842" style="mask-type:luminance" maskUnits="userSpaceOnUse" x="1077" y="421" width="120" height="165">
<path d="M1196.02 421H1077.02V586H1196.02V421Z" fill="white"/>
</mask>
<g mask="url(#mask3_4789_72842)">
<path d="M1133.91 444.346C1133.91 444.346 1134.62 469.991 1134.26 468.945C1133.91 467.898 1110.75 454.545 1110.75 454.545L1102.68 461.929L1132.17 483.006L1132.53 499.513L1100.24 483.006L1096.03 492.851L1132.19 513.235V531.157L1094.63 519.558L1092.17 529.403L1131.83 544.157L1132.54 583.863L1146.23 583.509L1147.29 546.264L1175.02 530.803L1175.37 519.204L1149.05 531.496L1148.34 517.096L1176.07 499.881L1174.31 488.99L1146.23 504.45L1146.59 487.589L1173.27 471.421L1168 462.637L1145.17 474.236L1144.47 443.668L1133.94 444.375L1133.91 444.346Z" fill="#94A09F"/>
<path d="M1139.3 423.137C1139.3 423.137 1124.56 425.009 1124.56 436.019C1124.56 436.019 1123.4 449.136 1135.56 451.008C1135.56 451.008 1149.37 453.116 1151 440.234C1151 440.234 1155.92 422.194 1139.3 423.137Z" fill="#829593"/>
<path d="M1137.66 453.248C1136.27 453.248 1135.34 453.116 1135.23 453.101C1124.13 451.391 1122.01 441.177 1122.45 435.93C1122.51 425.82 1133.32 421.781 1139.03 421.044H1139.18C1144.47 420.735 1148.43 422.164 1150.93 425.26C1155.35 430.713 1153.39 439.335 1153.07 440.632C1152.51 444.788 1150.75 448.001 1147.85 450.197C1144.44 452.777 1140.26 453.248 1137.66 453.248ZM1139.49 425.245C1139 425.319 1135.84 425.834 1132.78 427.382C1128.71 429.445 1126.65 432.349 1126.65 436.019V436.21C1126.61 436.653 1125.83 447.382 1135.87 448.93C1135.91 448.93 1141.52 449.726 1145.34 446.822C1147.31 445.319 1148.52 443.02 1148.9 439.969L1148.96 439.674C1148.96 439.674 1150.97 431.995 1147.65 427.898C1146.04 425.923 1143.3 425.024 1139.49 425.23V425.245Z" fill="#829593"/>
<path d="M1090.47 513.03C1090.47 513.03 1079.15 514.474 1079.15 522.919C1079.15 522.919 1078.25 533.001 1087.6 534.43C1087.6 534.43 1098.2 536.052 1099.47 526.147C1099.47 526.147 1103.24 512.293 1090.49 513.015L1090.47 513.03Z" fill="#829593"/>
<path d="M1089.21 536.641C1088.1 536.641 1087.37 536.538 1087.28 536.523C1081.42 535.624 1078.93 531.851 1077.88 528.844C1076.91 526.044 1077.02 523.42 1077.05 522.846C1077.1 514.739 1085.67 511.512 1090.21 510.937H1090.36C1094.58 510.671 1097.76 511.836 1099.79 514.356C1103.3 518.689 1101.81 525.44 1101.53 526.56C1101.08 529.876 1099.68 532.441 1097.35 534.194C1094.61 536.258 1091.28 536.626 1089.21 536.626V536.641ZM1090.68 515.123C1090.27 515.182 1087.93 515.579 1085.67 516.729C1082.7 518.247 1081.26 520.266 1081.26 522.919V523.111C1081.18 523.936 1080.8 531.261 1087.93 532.352C1087.96 532.352 1092.08 532.927 1094.83 530.819C1096.26 529.729 1097.08 528.122 1097.38 525.897L1097.44 525.602C1097.85 524.039 1098.51 519.441 1096.53 516.994C1095.41 515.609 1093.43 514.99 1090.69 515.123H1090.68Z" fill="#829593"/>
<path d="M1181.88 455.474C1181.88 455.474 1169.94 452.659 1165.73 461.561C1165.73 461.561 1160.81 471.863 1169.94 475.843C1169.94 475.843 1180.23 479.586 1185.62 471.863C1185.62 471.863 1193.57 460.382 1181.88 455.459V455.474Z" fill="#829593"/>
<path d="M1175.46 478.864C1173 478.864 1170.76 478.393 1169.23 477.833L1169.12 477.788C1166.1 476.477 1164.04 474.413 1163.02 471.687C1161.09 466.528 1163.73 460.898 1163.84 460.662C1167.75 452.408 1177.67 452.32 1182.37 453.425L1182.71 453.528C1186.58 455.164 1189.02 457.626 1189.96 460.868C1191.67 466.749 1187.53 472.821 1187.36 473.072C1184.24 477.553 1179.54 478.864 1175.46 478.864ZM1170.72 473.883C1171.53 474.163 1179.66 476.742 1183.9 470.655C1183.93 470.611 1187.06 465.968 1185.92 462.018C1185.36 460.117 1183.78 458.584 1181.25 457.478C1180.61 457.361 1178.21 456.933 1175.52 457.272C1171.69 457.744 1169.04 459.483 1167.63 462.445C1167.61 462.49 1165.65 466.734 1166.95 470.198C1167.55 471.819 1168.79 473.013 1170.71 473.868L1170.72 473.883Z" fill="#829593"/>
<path d="M1169.23 524.702C1169.23 524.702 1171.65 536.729 1181.48 536.861C1181.48 536.861 1192.89 537.038 1192.7 527.075C1192.7 527.075 1191.82 516.139 1182.56 514.458C1182.56 514.458 1168.82 511.997 1169.22 524.687L1169.23 524.702Z" fill="#829593"/>
<path d="M1181.54 538.969H1181.47C1172.34 538.851 1168.13 529.86 1167.19 525.114L1167.14 524.761C1167.01 520.56 1168.23 517.303 1170.78 515.092C1175.42 511.083 1182.65 512.321 1182.94 512.38C1191.53 513.942 1194.47 522.55 1194.81 526.898V527.03C1194.88 530.332 1193.87 533.059 1191.8 535.122C1188.09 538.836 1182.29 538.969 1181.53 538.969H1181.54ZM1171.34 524.451C1171.66 525.822 1173.99 534.665 1181.53 534.754C1181.57 534.754 1186.24 534.768 1188.85 532.145C1190.07 530.921 1190.64 529.3 1190.61 527.193C1190.52 526.338 1189.49 517.863 1182.19 516.536C1182.15 516.536 1176.61 515.608 1173.52 518.305C1172.02 519.617 1171.28 521.68 1171.34 524.451Z" fill="#829593"/>
<path d="M1099.99 477.494C1099.99 477.494 1088.04 474.679 1083.83 483.581C1083.83 483.581 1078.92 493.883 1088.04 497.863C1088.04 497.863 1098.34 501.606 1103.73 493.883C1103.73 493.883 1111.68 482.402 1099.99 477.479V477.494Z" fill="#829593"/>
<path d="M1093.55 500.884C1091.09 500.884 1088.85 500.398 1087.32 499.852L1087.21 499.808C1084.19 498.496 1082.13 496.433 1081.11 493.706C1079.18 488.548 1081.82 482.917 1081.93 482.682C1085.84 474.428 1095.76 474.34 1100.46 475.445L1100.8 475.548C1104.67 477.184 1107.11 479.645 1108.05 482.888C1109.76 488.769 1105.62 494.841 1105.45 495.092C1102.33 499.572 1097.63 500.884 1093.55 500.884ZM1088.82 495.902C1089.63 496.182 1097.76 498.776 1102 492.674C1102.03 492.63 1105.17 487.988 1104.02 484.038C1103.46 482.136 1101.88 480.603 1099.35 479.498C1098.72 479.38 1096.32 478.953 1093.62 479.292C1089.8 479.763 1087.15 481.503 1085.73 484.465C1085.72 484.509 1083.76 488.754 1085.06 492.218C1085.66 493.839 1086.9 495.033 1088.81 495.888L1088.82 495.902Z" fill="#829593"/>
<path d="M1114.25 451.524C1114.25 451.524 1105.99 442.46 1097.5 447.412C1097.5 447.412 1087.63 453.13 1092.9 461.591C1092.9 461.591 1099.28 470.507 1108.08 467.176C1108.08 467.176 1121.13 462.21 1114.25 451.524Z" fill="#829593"/>
<path d="M1104.18 470.021C1098.1 470.021 1093.23 465.673 1091.2 462.829L1091.12 462.725C1089.37 459.925 1088.84 457.066 1089.55 454.236C1090.87 448.886 1096.22 445.746 1096.44 445.614C1104.31 441.015 1112.56 446.557 1115.81 450.124L1116.03 450.404C1118.32 453.941 1118.94 457.361 1117.89 460.559C1115.98 466.381 1109.14 469.048 1108.85 469.151C1107.24 469.756 1105.68 470.021 1104.2 470.021H1104.18ZM1094.66 460.411C1095.17 461.104 1100.41 467.825 1107.35 465.202C1107.39 465.187 1112.6 463.123 1113.89 459.218C1114.5 457.331 1114.06 455.179 1112.6 452.836C1112.16 452.379 1110.41 450.669 1108 449.431C1104.56 447.662 1101.4 447.589 1098.57 449.239C1098.53 449.269 1094.52 451.657 1093.64 455.253C1093.23 456.933 1093.57 458.613 1094.67 460.411H1094.66Z" fill="#829593"/>
<path d="M1181.41 483.817C1181.41 483.817 1169.7 484.524 1168.54 495.77C1168.54 495.77 1165.73 506.072 1179.3 507.251C1179.3 507.251 1191.01 507.959 1193.12 496.949C1193.12 496.949 1198.5 482.431 1181.41 483.831V483.817Z" fill="#829593"/>
<path d="M1180 509.373C1179.72 509.373 1179.45 509.373 1179.19 509.344C1173.9 508.887 1170.18 507.118 1168.04 504.068C1165.52 500.457 1166.24 496.344 1166.46 495.401C1167.6 485.231 1176.61 482.004 1181.26 481.709C1187.36 481.208 1191.66 482.564 1194.06 485.733C1197.4 490.139 1195.54 496.33 1195.15 497.494C1193.25 506.956 1184.84 509.373 1179.98 509.373H1180ZM1181.54 485.924C1181.12 485.954 1171.6 486.72 1170.63 495.991L1170.57 496.33C1170.57 496.33 1169.84 499.322 1171.52 501.695C1172.9 503.655 1175.58 504.804 1179.48 505.143C1179.82 505.158 1189.32 505.556 1191.04 496.536L1191.13 496.197C1191.13 496.197 1192.91 491.186 1190.69 488.268C1188.85 485.85 1184.72 485.659 1181.59 485.924H1181.54Z" fill="#829593"/>
</g>
<mask id="mask4_4789_72842" style="mask-type:luminance" maskUnits="userSpaceOnUse" x="1161" y="519" width="84" height="84">
<path d="M1244.72 555.973L1209.59 519L1161.02 565.149L1196.15 602.122L1244.72 555.973Z" fill="white"/>
</mask>
<g mask="url(#mask4_4789_72842)">
<path d="M1204.53 559.442C1204.53 559.442 1216.16 551.727 1216.97 555.071C1217.79 558.416 1206.24 561.647 1206.24 561.647L1204.53 559.442Z" fill="#829593"/>
<path d="M1205.31 560.308C1205.31 560.308 1195.81 543.994 1187.82 548.931C1187.82 548.931 1181 552.266 1185.62 561.488C1190.23 570.71 1201.51 586.282 1207.95 580.895C1214.39 575.508 1209.77 567.435 1205.3 560.291L1205.31 560.308Z" fill="#829593"/>
<path d="M1184.17 556.753C1184.17 556.753 1194.99 563.166 1200.88 580.462C1200.88 580.462 1191.42 591.1 1178.82 582.676C1178.82 582.676 1175.92 580.748 1173.71 581.607C1173.71 581.607 1175 578.455 1174.42 576.787C1173.66 574.531 1171.84 562.079 1184.17 556.753Z" fill="#94A09F"/>
</g>
<path d="M1256.1 542.88C1256.1 542.88 1256.98 560.55 1256.37 563.3C1256.37 563.3 1247.06 552.72 1239.73 559.21C1239.73 559.21 1234.4 565.13 1241.15 569.85C1241.15 569.85 1249.99 575.16 1256.9 570.26C1256.9 570.26 1256.6 581.57 1256.55 583.89C1256.55 583.89 1249.42 574.08 1241.98 578.88C1241.98 578.88 1237.69 582.82 1242.95 589.89C1242.95 589.89 1248.22 595.53 1256.35 591.56L1256.04 603.58C1256.04 603.58 1255.83 605.22 1258.66 605.88C1258.66 605.88 1261.41 606.04 1261.76 603.02L1262.09 590.39C1262.09 590.39 1268.85 597.59 1275.57 592.86C1275.57 592.86 1282.59 589.15 1280.91 583.02C1280.88 582.93 1280.86 582.84 1280.83 582.74C1278.86 576.45 1271.89 576.8 1268.55 578.41C1268.55 578.41 1263.24 580.59 1261.92 583.14L1262.32 570.94C1262.32 570.94 1267.46 575.44 1275.1 573.05C1275.1 573.05 1283.28 570.05 1281.72 563.51C1281.72 563.51 1279.38 555.96 1270.23 557.95C1270.23 557.95 1263.76 560.01 1262.15 563.8C1262.15 563.8 1261.95 547.58 1261.25 543.72L1256.1 542.87V542.88Z" fill="#94A09F"/>
<path d="M1255.28 564.015L1255.19 567.484L1263.84 567.709L1263.93 564.241L1255.28 564.015Z" fill="#94A09F"/>
<path d="M1254.97 585.134L1254.88 588.603L1263.54 588.828L1263.63 585.359L1254.97 585.134Z" fill="#94A09F"/>
<path d="M1258.59 505.01C1258.59 505.01 1249.21 502.95 1246.4 511.71C1246.4 511.71 1246.05 514.73 1246.79 517.33C1246.79 517.33 1236.87 515.12 1234.58 524.41C1234.58 524.41 1233.14 535.33 1242.46 536.82C1242.46 536.82 1237.08 544.97 1243.81 549.96C1243.81 549.96 1254.28 554.97 1258.59 546.74C1258.59 546.74 1264.98 554.88 1274.6 548.09C1274.6 548.09 1281.35 542.29 1275.67 534.57C1275.67 534.57 1284.5 530.88 1280.65 521.33C1280.65 521.33 1276.13 513.55 1268.29 516.73C1268.29 516.73 1269.12 505.22 1258.6 505.01H1258.59Z" fill="#829593"/>
<path d="M1265.92 529.002C1265.81 533.302 1262.31 536.702 1258.11 536.592C1253.91 536.482 1250.59 532.902 1250.7 528.602C1250.81 524.302 1254.31 520.902 1258.52 521.002C1262.72 521.112 1266.04 524.692 1265.93 528.992L1265.92 529.002Z" fill="#94A09F"/>
<path d="M1262.37 529.36C1262.31 531.85 1260.28 533.81 1257.85 533.75C1255.42 533.69 1253.5 531.62 1253.56 529.13C1253.62 526.64 1255.65 524.67 1258.08 524.73C1260.51 524.79 1262.43 526.86 1262.37 529.36Z" fill="#829593"/>
<mask id="mask5_4789_72842" style="mask-type:luminance" maskUnits="userSpaceOnUse" x="1051" y="102" width="141" height="62">
<path d="M1191.18 102H1051.02V163.86H1191.18V102Z" fill="white"/>
</mask>
<g mask="url(#mask5_4789_72842)">
<path d="M1091.27 117.22C1091.27 117.22 1099.02 100.52 1124.5 102.11C1149.97 103.69 1153.51 115.85 1153.51 115.85C1153.51 115.85 1170.87 111.65 1185.09 123.98C1185.09 123.98 1198.89 137.47 1184.93 150.81C1172.46 162.73 1150.33 159.54 1147.22 153.72C1147.22 153.72 1139.33 164.22 1121.34 163.81C1103.34 163.4 1097.12 151.25 1097.12 151.25C1097.12 151.25 1081.01 166.64 1060.56 153.16C1037.71 138.11 1059.02 105.73 1091.27 117.22Z" fill="#94A09F"/>
<path d="M1146.82 141.52C1117.25 162.27 1097.78 139.5 1097.78 139.5C1079.35 148.22 1062.9 145.82 1051.66 141.76C1052.83 145.97 1055.69 149.99 1060.58 153.21C1081.03 166.68 1097.14 151.3 1097.14 151.3C1097.14 151.3 1103.36 163.45 1121.36 163.86C1139.36 164.27 1147.24 153.77 1147.24 153.77C1150.36 159.59 1172.48 162.78 1184.95 150.86C1187.42 148.5 1189.02 146.13 1189.98 143.83C1165.4 154.75 1146.81 141.52 1146.81 141.52H1146.82Z" fill="#829593"/>
</g>
<mask id="mask6_4789_72842" style="mask-type:alpha" maskUnits="userSpaceOnUse" x="293" y="4" width="696" height="585">
<path d="M612.115 9.73121L338.158 124.704C310.799 136.181 293 162.965 293 192.65V515.319C293 556.008 325.968 589 366.644 589H915.356C956.025 589 989 556.016 989 515.319V192.693C989 162.987 971.172 136.188 943.784 124.726L669.02 9.7094C650.815 2.08477 630.313 2.0993 612.108 9.73848L612.115 9.73121Z" fill="#E7FCE3"/>
</mask>
<g mask="url(#mask6_4789_72842)">
<path d="M641.156 0V585V0ZM691.156 0V585V0ZM341.156 0V585V0ZM741.156 0V585V0ZM391.156 0V585V0ZM791.156 0V585V0ZM441.156 0V585V0ZM841.156 0V585V0ZM491.156 0V585V0ZM891.156 0V585V0ZM541.156 0V585V0ZM941.156 0V585V0ZM591.156 0V585V0Z" fill="#757E83"/>
<path d="M641.156 0V585M691.156 0V585M341.156 0V585M741.156 0V585M391.156 0V585M791.156 0V585M441.156 0V585M841.156 0V585M491.156 0V585M891.156 0V585M541.156 0V585M941.156 0V585M591.156 0V585" stroke="#0C0541" stroke-opacity="0.1" stroke-width="4"/>
</g>
<mask id="mask7_4789_72842" style="mask-type:luminance" maskUnits="userSpaceOnUse" x="103" y="165" width="141" height="62">
<path d="M243.176 165H103.016V226.86H243.176V165Z" fill="white"/>
</mask>
<g mask="url(#mask7_4789_72842)">
<path d="M143.276 180.22C143.276 180.22 151.026 163.52 176.506 165.11C201.976 166.69 205.516 178.85 205.516 178.85C205.516 178.85 222.876 174.65 237.096 186.98C237.096 186.98 250.896 200.47 236.936 213.81C224.466 225.73 202.336 222.54 199.226 216.72C199.226 216.72 191.336 227.22 173.346 226.81C155.346 226.4 149.126 214.25 149.126 214.25C149.126 214.25 133.016 229.64 112.566 216.16C89.7156 201.11 111.026 168.73 143.276 180.22Z" fill="#94A09F"/>
<path d="M198.816 204.52C169.246 225.27 149.776 202.5 149.776 202.5C131.346 211.22 114.896 208.82 103.656 204.76C104.826 208.97 107.686 212.99 112.576 216.21C133.026 229.68 149.136 214.3 149.136 214.3C149.136 214.3 155.356 226.45 173.356 226.86C191.356 227.27 199.236 216.77 199.236 216.77C202.356 222.59 224.476 225.78 236.946 213.86C239.416 211.5 241.016 209.13 241.976 206.83C217.396 217.75 198.806 204.52 198.806 204.52H198.816Z" fill="#829593"/>
</g>
<path d="M231.578 365.261C231.062 363.722 222.556 382.274 197.283 396.386C197.283 396.386 180.679 406.888 183.207 421.721C183.207 421.721 184.294 436.554 201.985 443.079C201.985 443.079 179.606 451.402 178.886 468.414C178.886 468.414 177.799 487.961 194.403 492.66C194.403 492.66 170.57 506.772 175.992 533.197C175.992 533.197 179.239 570.832 236.28 572.644C236.28 572.644 291.513 577.343 299.095 538.986C299.095 538.986 305.236 512.928 283.931 503.516C283.931 503.516 300.182 491.216 297.288 473.114C297.288 473.114 294.76 449.59 275.629 445.245C275.629 445.245 290.793 431.133 287.178 416.286C287.178 416.286 288.619 398.197 254.324 385.53C254.324 385.53 234.826 375.028 231.578 365.261Z" fill="#94A09F"/>
<path d="M246.374 440.178C245.681 440.178 245.002 439.851 244.581 439.224C243.901 438.23 244.16 436.881 245.151 436.2C252.19 431.392 253.956 419.351 253.97 419.242C255.519 409.026 249.866 406.343 249.812 406.329C248.725 405.839 248.236 404.558 248.725 403.455C249.214 402.365 250.491 401.875 251.592 402.365C251.945 402.529 260.288 406.451 258.263 419.868C258.182 420.413 256.225 433.898 247.597 439.796C247.23 440.055 246.795 440.178 246.374 440.178Z" fill="#829593"/>
<path d="M231.21 435.11C230.68 435.11 230.164 434.92 229.743 434.538C228.86 433.721 228.805 432.359 229.62 431.473C233.33 427.442 233.262 420.331 232.555 415.087C231.754 409.094 229.919 404.068 229.906 404.027C229.498 402.896 230.069 401.657 231.197 401.234C232.311 400.826 233.561 401.398 233.982 402.515C234.308 403.414 241.917 424.499 232.827 434.416C232.406 434.879 231.822 435.11 231.237 435.11H231.21Z" fill="#829593"/>
<path d="M214.96 435.111C214.226 435.111 213.519 434.743 213.112 434.075C203.437 418.179 214.892 402.284 215.381 401.616C216.087 400.649 217.446 400.445 218.411 401.153C219.376 401.861 219.579 403.223 218.873 404.19C218.452 404.763 208.669 418.425 216.808 431.814C217.433 432.836 217.106 434.171 216.087 434.797C215.734 435.015 215.34 435.111 214.96 435.111Z" fill="#829593"/>
<path d="M209.185 485.414C208.424 485.414 207.704 485.019 207.296 484.31C199.157 469.94 208.397 455.188 208.804 454.562C209.456 453.554 210.788 453.254 211.793 453.908C212.799 454.548 213.098 455.897 212.446 456.905C212.364 457.041 204.239 470.117 211.06 482.172C211.644 483.221 211.291 484.542 210.245 485.128C209.905 485.318 209.538 485.414 209.171 485.414H209.185Z" fill="#829593"/>
<path d="M225.069 489.037C224.715 489.037 224.348 488.942 224.009 488.765C222.963 488.179 222.596 486.858 223.18 485.809C232.501 469.123 224.484 457.872 224.403 457.763C223.696 456.796 223.9 455.434 224.865 454.725C225.83 454.017 227.188 454.221 227.895 455.188C228.302 455.733 237.624 468.837 226.957 487.934C226.563 488.642 225.83 489.051 225.069 489.051V489.037Z" fill="#829593"/>
<path d="M242.76 489.037C242.366 489.037 241.972 488.928 241.605 488.71C240.6 488.07 240.287 486.735 240.926 485.713C252.068 467.965 243.032 458.021 242.638 457.613C241.823 456.741 241.85 455.365 242.706 454.548C243.562 453.717 244.921 453.744 245.749 454.602C246.239 455.106 257.611 467.284 244.581 488.029C244.173 488.683 243.467 489.037 242.747 489.037H242.76Z" fill="#829593"/>
<path d="M262.258 491.938C261.62 491.938 260.995 491.652 260.56 491.121C259.812 490.181 259.976 488.819 260.913 488.07C275.18 476.683 267.218 462.135 266.878 461.522C266.294 460.473 266.661 459.152 267.693 458.566C268.739 457.981 270.057 458.348 270.642 459.384C270.75 459.561 280.737 477.799 263.603 491.461C263.209 491.775 262.734 491.938 262.258 491.938Z" fill="#829593"/>
<path d="M211.712 552.007C211.25 552.007 210.788 551.858 210.394 551.558C202.704 545.619 199.049 536.67 199.81 525.664C200.367 517.546 203.125 511.226 203.234 510.953C203.723 509.85 205 509.36 206.087 509.836C207.188 510.327 207.677 511.607 207.201 512.697C207.16 512.792 204.606 518.717 204.117 526.073C203.492 535.635 206.481 543.045 213.03 548.098C213.981 548.834 214.158 550.196 213.424 551.149C213.003 551.708 212.351 551.994 211.712 551.994V552.007Z" fill="#829593"/>
<path d="M233.018 550.196C232.759 550.196 232.501 550.155 232.243 550.059C231.129 549.637 230.558 548.384 230.98 547.253C238.344 527.802 227.161 514.535 226.672 513.977C225.884 513.078 225.979 511.702 226.89 510.912C227.8 510.122 229.159 510.218 229.947 511.116C230.504 511.743 243.344 526.822 235.029 548.779C234.702 549.651 233.874 550.182 233.004 550.182L233.018 550.196Z" fill="#829593"/>
<path d="M247.095 550.196C246.755 550.196 246.416 550.114 246.089 549.951C245.03 549.392 244.622 548.085 245.179 547.022C255.574 527.19 245.899 515.162 245.791 515.04C245.03 514.113 245.152 512.751 246.062 511.975C246.986 511.212 248.345 511.335 249.119 512.247C249.595 512.819 260.737 526.645 249.011 549.025C248.617 549.76 247.869 550.182 247.095 550.182V550.196Z" fill="#829593"/>
<path d="M269.12 547.662C268.618 547.662 268.115 547.485 267.707 547.131C266.811 546.341 266.702 544.979 267.49 544.066C278.047 531.875 269.582 520.515 269.216 520.038C268.495 519.085 268.658 517.723 269.61 517.001C270.547 516.265 271.906 516.442 272.64 517.382C272.748 517.532 283.686 531.998 270.765 546.913C270.33 547.403 269.732 547.662 269.134 547.662H269.12Z" fill="#829593"/>
<path d="M165.484 529.163H165.486L165.528 529.165H165.572H165.589H165.612L165.635 529.164C175.812 528.932 182.746 530.842 187.466 533.661C192.162 536.466 194.819 540.261 196.301 544.105C197.795 547.982 198.099 551.93 198.014 554.949C197.971 556.451 197.833 557.701 197.708 558.569C197.645 559.002 197.585 559.338 197.543 559.56C197.522 559.672 197.505 559.754 197.494 559.806C197.488 559.832 197.484 559.85 197.482 559.86L197.48 559.867V559.869L197.449 560.003L197.436 560.142C196.051 575.708 188.788 584.129 181.983 588.711C178.548 591.024 175.193 592.381 172.7 593.158C171.455 593.545 170.431 593.786 169.729 593.929C169.378 594.001 169.108 594.048 168.931 594.076C168.843 594.09 168.778 594.099 168.738 594.105L168.698 594.11L168.696 594.111H168.694H168.692L168.657 594.115L168.619 594.122C156.423 596.079 148.739 593.691 144.169 590.999C141.866 589.642 140.308 588.181 139.337 587.085C138.852 586.536 138.514 586.078 138.304 585.771C138.2 585.618 138.127 585.502 138.085 585.432C138.063 585.396 138.05 585.373 138.043 585.361C138.042 585.359 138.041 585.357 138.04 585.356C138.039 585.354 138.039 585.353 138.039 585.353L137.95 585.188L137.822 585.034C132.127 578.178 131.69 568.878 132.863 560.933C133.444 557.003 134.403 553.515 135.219 551.008C135.627 549.756 135.997 548.755 136.262 548.071C136.395 547.73 136.502 547.468 136.574 547.294C136.61 547.208 136.638 547.143 136.656 547.102L136.675 547.057C140.953 537.673 148.122 533.217 154.285 531.083C157.378 530.011 160.207 529.53 162.259 529.318C163.283 529.213 164.108 529.174 164.669 529.162C164.949 529.156 165.162 529.157 165.301 529.159C165.37 529.159 165.421 529.161 165.452 529.162L165.483 529.163H165.484Z" fill="#94A09F" stroke="#757E83" stroke-width="4"/>
<path d="M151.899 575.119C151.173 575.119 150.482 574.767 150.075 574.116C140.141 558.436 149.845 540.715 150.252 539.958C150.837 538.92 152.147 538.551 153.192 539.131C154.236 539.712 154.608 541.014 154.024 542.053C153.935 542.229 145.17 558.331 153.723 571.829C154.36 572.832 154.059 574.151 153.05 574.785C152.696 575.014 152.289 575.119 151.899 575.119Z" fill="#829593"/>
<path d="M161.249 575.823C160.912 575.823 160.576 575.753 160.239 575.577C159.177 575.031 158.77 573.729 159.336 572.673C166.632 558.823 159.177 544.78 159.106 544.639C158.539 543.601 158.929 542.299 159.974 541.736C161.018 541.173 162.329 541.56 162.895 542.598C163.25 543.249 171.501 558.806 163.143 574.679C162.754 575.418 162.01 575.823 161.231 575.823H161.249Z" fill="#829593"/>
<path d="M171.573 579.642C171.236 579.642 170.882 579.554 170.563 579.396C169.519 578.833 169.111 577.53 169.678 576.492C180.108 557.064 170.333 546.153 170.227 546.03C169.413 545.15 169.483 543.795 170.351 543.003C171.236 542.193 172.6 542.264 173.397 543.126C173.893 543.654 185.332 556.43 173.468 578.516C173.078 579.237 172.334 579.66 171.555 579.66L171.573 579.642Z" fill="#829593"/>
<path d="M182.852 578.692C182.391 578.692 181.931 578.551 181.541 578.252C180.603 577.53 180.408 576.175 181.134 575.243C193.476 559.264 183.1 544.059 182.993 543.9C182.321 542.932 182.551 541.595 183.525 540.909C184.499 540.24 185.844 540.469 186.535 541.437C186.659 541.613 198.789 559.404 184.552 577.847C184.127 578.393 183.489 578.692 182.834 578.692H182.852Z" fill="#829593"/>
<mask id="mask8_4789_72842" style="mask-type:luminance" maskUnits="userSpaceOnUse" x="261" y="517" width="49" height="69">
<path d="M309.016 517H261.016V586H309.016V517Z" fill="white"/>
</mask>
<g mask="url(#mask8_4789_72842)">
<path d="M280.406 546.25C280.406 546.25 279.056 568.51 277.256 574.59C277.256 574.59 273.886 584.94 286.026 584.71C286.026 584.71 294.796 584.93 295.026 580.21C295.026 580.21 293.456 556.37 290.976 547.15L280.406 546.25Z" fill="#94A09F"/>
<path d="M304.995 540.9C303.945 549.34 294.465 554.41 283.685 553.78C270.285 553 265.115 544.52 266.155 536.08C267.205 527.64 276.755 521.87 287.475 523.2C298.195 524.53 306.045 532.46 304.995 540.9Z" fill="#829593"/>
<path d="M297.021 580.079L297.029 580.193L297.023 580.307C296.931 582.204 295.946 583.583 294.725 584.502C293.56 585.379 292.143 585.877 290.908 586.174C289.648 586.478 288.422 586.609 287.528 586.666C287.076 586.695 286.699 586.706 286.43 586.71C286.295 586.712 286.187 586.712 286.11 586.711C286.075 586.711 286.047 586.711 286.025 586.71C282.742 586.767 280.243 586.116 278.416 584.884C276.551 583.627 275.592 581.904 275.154 580.246C274.727 578.627 274.79 577.057 274.936 575.945C275.01 575.378 275.109 574.903 275.191 574.563C275.232 574.393 275.27 574.255 275.298 574.155C275.313 574.105 275.325 574.064 275.334 574.033L275.342 574.007C276.171 571.193 276.945 564.352 277.514 557.963C277.607 556.91 277.694 555.879 277.775 554.89C273.559 553.786 270.297 551.769 267.994 549.113C264.734 545.353 263.591 540.534 264.17 535.835V535.833C265.408 525.882 276.373 519.807 287.721 521.215C299.069 522.623 308.218 531.194 306.98 541.147C306.361 546.117 303.258 549.984 298.996 552.469C297.595 553.286 296.06 553.96 294.426 554.485C295.022 558.463 295.524 562.919 295.921 566.941C296.274 570.514 296.549 573.797 296.736 576.185C296.829 577.38 296.9 578.351 296.948 579.025C296.972 579.362 296.991 579.625 297.003 579.803L297.017 580.007L297.02 580.06L297.021 580.074V580.077V580.079ZM297.021 580.079L295.026 580.21C297.021 580.079 297.021 580.079 297.021 580.079Z" stroke="#757E83" stroke-width="4"/>
<path d="M280.406 546.25C280.406 546.25 279.056 568.51 277.256 574.59C277.256 574.59 273.886 584.94 286.026 584.71C286.026 584.71 294.796 584.93 295.026 580.21C295.026 580.21 293.456 556.37 290.976 547.15L280.406 546.25Z" fill="#94A09F"/>
<path d="M304.995 540.9C303.945 549.34 294.465 554.41 283.685 553.78C270.285 553 265.115 544.52 266.155 536.08C267.205 527.64 276.755 521.87 287.475 523.2C298.195 524.53 306.045 532.46 304.995 540.9Z" fill="#829593"/>
</g>
<path d="M690.156 79H599.156C590.32 79 583.156 86.1634 583.156 95C583.156 103.837 590.32 111 599.156 111H690.156C698.993 111 706.156 103.837 706.156 95C706.156 86.1634 698.993 79 690.156 79Z" fill="#0C0541"/>
<path d="M604.168 101V89.3632H612.009V91.3916H606.628V94.1644H611.605V96.1928H606.628V98.9712H612.031V101H604.168ZM613.484 101V89.3632H618.075C618.958 89.3632 619.71 89.5318 620.331 89.8689C620.952 90.2023 621.426 90.6663 621.752 91.261C622.081 91.8519 622.246 92.5337 622.246 93.3064C622.246 94.0791 622.079 94.761 621.746 95.3519C621.413 95.9428 620.93 96.403 620.297 96.7326C619.668 97.0621 618.907 97.2269 618.013 97.2269H615.087V95.2553H617.615C618.089 95.2553 618.479 95.1738 618.786 95.011C619.096 94.8443 619.327 94.6151 619.479 94.3235C619.634 94.028 619.712 93.689 619.712 93.3064C619.712 92.9201 619.634 92.5829 619.479 92.2951C619.327 92.0034 619.096 91.778 618.786 91.6189C618.475 91.456 618.081 91.3746 617.604 91.3746H615.945V101H613.484ZM625.824 89.3632V101H623.364V89.3632H625.824ZM633.681 92.7098C633.635 92.2515 633.44 91.8954 633.096 91.6416C632.751 91.3879 632.283 91.261 631.692 91.261C631.291 91.261 630.952 91.3178 630.675 91.4314C630.399 91.5413 630.186 91.6947 630.039 91.8916C629.895 92.0886 629.823 92.3121 629.823 92.5621C629.815 92.7704 629.859 92.9523 629.953 93.1076C630.052 93.2629 630.186 93.3973 630.357 93.511C630.527 93.6208 630.724 93.7174 630.948 93.8007C631.171 93.8803 631.41 93.9485 631.664 94.0053L632.709 94.2553C633.217 94.3689 633.683 94.5204 634.107 94.7098C634.531 94.8992 634.899 95.1322 635.209 95.4087C635.52 95.6852 635.76 96.011 635.931 96.386C636.105 96.761 636.194 97.1909 636.198 97.6757C636.194 98.3879 636.012 99.0053 635.652 99.528C635.296 100.047 634.781 100.451 634.107 100.739C633.436 101.023 632.628 101.165 631.681 101.165C630.741 101.165 629.923 101.021 629.226 100.733C628.533 100.445 627.991 100.019 627.601 99.4541C627.215 98.886 627.012 98.1833 626.993 97.3462H629.374C629.4 97.7363 629.512 98.0621 629.709 98.3235C629.91 98.581 630.177 98.7761 630.51 98.9087C630.847 99.0375 631.228 99.1019 631.652 99.1019C632.069 99.1019 632.431 99.0413 632.738 98.9201C633.048 98.7988 633.289 98.6303 633.459 98.4144C633.63 98.1985 633.715 97.9504 633.715 97.6701C633.715 97.4087 633.637 97.189 633.482 97.011C633.33 96.8329 633.107 96.6814 632.811 96.5564C632.52 96.4314 632.162 96.3178 631.738 96.2155L630.471 95.8973C629.489 95.6587 628.715 95.2856 628.147 94.778C627.578 94.2704 627.296 93.5867 627.3 92.7269C627.296 92.0223 627.484 91.4068 627.863 90.8803C628.245 90.3538 628.77 89.9428 629.436 89.6473C630.103 89.3519 630.861 89.2041 631.709 89.2041C632.573 89.2041 633.327 89.3519 633.971 89.6473C634.618 89.9428 635.122 90.3538 635.482 90.8803C635.842 91.4068 636.027 92.0166 636.039 92.7098H633.681ZM648.066 95.1814C648.066 96.4504 647.825 97.5299 647.344 98.4201C646.867 99.3102 646.215 99.9901 645.39 100.46C644.568 100.926 643.643 101.159 642.617 101.159C641.583 101.159 640.655 100.924 639.833 100.455C639.011 99.9844 638.361 99.3045 637.884 98.4144C637.407 97.5242 637.168 96.4466 637.168 95.1814C637.168 93.9125 637.407 92.8329 637.884 91.9428C638.361 91.0526 639.011 90.3746 639.833 89.9087C640.655 89.439 641.583 89.2041 642.617 89.2041C643.643 89.2041 644.568 89.439 645.39 89.9087C646.215 90.3746 646.867 91.0526 647.344 91.9428C647.825 92.8329 648.066 93.9125 648.066 95.1814ZM645.571 95.1814C645.571 94.3594 645.448 93.6663 645.202 93.1019C644.96 92.5375 644.617 92.1094 644.174 91.8178C643.731 91.5261 643.212 91.3803 642.617 91.3803C642.022 91.3803 641.503 91.5261 641.06 91.8178C640.617 92.1094 640.272 92.5375 640.026 93.1019C639.784 93.6663 639.662 94.3594 639.662 95.1814C639.662 96.0034 639.784 96.6966 640.026 97.261C640.272 97.8254 640.617 98.2534 641.06 98.5451C641.503 98.8367 642.022 98.9826 642.617 98.9826C643.212 98.9826 643.731 98.8367 644.174 98.5451C644.617 98.2534 644.96 97.8254 645.202 97.261C645.448 96.6966 645.571 96.0034 645.571 95.1814ZM653.533 101H649.408V89.3632H653.567C654.738 89.3632 655.745 89.5962 656.59 90.0621C657.435 90.5242 658.084 91.189 658.539 92.0564C658.997 92.9238 659.226 93.9617 659.226 95.1701C659.226 96.3822 658.997 97.4238 658.539 98.2951C658.084 99.1663 657.431 99.8348 656.579 100.301C655.73 100.767 654.715 101 653.533 101ZM651.868 98.8916H653.431C654.158 98.8916 654.77 98.7629 655.266 98.5053C655.766 98.2439 656.141 97.8405 656.391 97.2951C656.645 96.7458 656.772 96.0375 656.772 95.1701C656.772 94.3102 656.645 93.6076 656.391 93.0621C656.141 92.5166 655.768 92.1151 655.272 91.8576C654.776 91.6 654.164 91.4712 653.437 91.4712H651.868V98.8916ZM660.569 101V89.3632H668.41V91.3916H663.029V94.1644H668.006V96.1928H663.029V98.9712H668.432V101H660.569ZM680.565 101.159C679.716 101.159 678.961 101.013 678.298 100.722C677.639 100.426 677.118 100.021 676.735 99.5053C676.357 98.9863 676.162 98.3879 676.15 97.7098H678.627C678.643 97.9939 678.735 98.2439 678.906 98.4598C679.08 98.6719 679.311 98.8367 679.599 98.9541C679.887 99.0716 680.211 99.1303 680.571 99.1303C680.946 99.1303 681.277 99.064 681.565 98.9314C681.853 98.7988 682.078 98.6151 682.241 98.3803C682.404 98.1454 682.485 97.8746 682.485 97.5678C682.485 97.2572 682.398 96.9826 682.224 96.7439C682.054 96.5015 681.807 96.3121 681.485 96.1757C681.167 96.0394 680.788 95.9712 680.349 95.9712H679.264V94.1644H680.349C680.72 94.1644 681.048 94.1 681.332 93.9712C681.62 93.8424 681.843 93.6644 682.002 93.4371C682.162 93.206 682.241 92.9371 682.241 92.6303C682.241 92.3386 682.171 92.0829 682.031 91.8632C681.894 91.6398 681.701 91.4655 681.451 91.3405C681.205 91.2155 680.917 91.153 680.588 91.153C680.254 91.153 679.949 91.2136 679.673 91.3348C679.396 91.4523 679.175 91.6208 679.008 91.8405C678.841 92.0602 678.752 92.3178 678.741 92.6132H676.383C676.394 91.9428 676.586 91.3519 676.957 90.8405C677.328 90.3291 677.828 89.9295 678.457 89.6416C679.09 89.35 679.804 89.2041 680.599 89.2041C681.402 89.2041 682.105 89.35 682.707 89.6416C683.309 89.9333 683.777 90.3273 684.11 90.8235C684.448 91.3159 684.614 91.8689 684.61 92.4826C684.614 93.1341 684.412 93.6776 684.002 94.1132C683.597 94.5488 683.069 94.8254 682.417 94.9428V95.0337C683.273 95.1435 683.925 95.4409 684.372 95.9257C684.823 96.4068 685.046 97.0091 685.042 97.7326C685.046 98.3954 684.855 98.9844 684.468 99.4996C684.086 100.015 683.557 100.42 682.883 100.716C682.209 101.011 681.436 101.159 680.565 101.159Z" fill="#757E83"/>
<path d="M560.395 159.16H552.555V124.08H565.755C572.675 124.08 577.755 127.52 577.755 135.08V137.92C577.755 145.48 572.675 148.92 565.755 148.92H560.395V159.16ZM560.395 130.88V142.12H565.355C568.035 142.12 569.955 140.52 569.955 137.48V135.52C569.955 132.48 568.035 130.88 565.355 130.88H560.395ZM587.26 159.16H579.54V124.08H587.26V134.56C588.66 132.96 590.94 132.24 593.38 132.24C598.22 132.24 602.5 134.84 602.5 143.28V159.16H594.66V142.76C594.66 140.04 593.1 138.72 590.98 138.72C588.86 138.72 587.26 140 587.26 142.56V159.16ZM615.683 159.8C610.363 159.8 604.083 157.32 604.083 148.72V143.32C604.083 134.72 610.243 132.24 615.683 132.24C621.003 132.24 627.283 134.72 627.283 143.32V148.72C627.283 157.32 621.003 159.8 615.683 159.8ZM615.683 153.24C617.403 153.24 619.643 152.32 619.643 149.48V142.56C619.643 139.72 617.403 138.8 615.683 138.8C613.963 138.8 611.723 139.72 611.723 142.56V149.48C611.723 152.32 613.963 153.24 615.683 153.24ZM636.85 159.16H629.29V132.88H636.49V134.84C638.09 133.04 640.57 132.24 643.01 132.24C647.85 132.24 652.01 134.84 652.01 143.28V159.16H644.33V142.84C644.33 140.12 642.85 138.72 640.61 138.72C638.37 138.72 636.85 140.08 636.85 142.64V159.16ZM662.079 130.6H654.399V123.84H662.079V130.6ZM662.079 159.16H654.399V132.88H662.079V159.16ZM675.58 159.8C670.66 159.8 664.06 157.28 664.06 148.12V143.92C664.06 134.76 670.66 132.24 675.58 132.24C679.26 132.24 681.78 133 683.54 134.08L682.74 139.92C681.46 139.16 679.5 138.72 676.74 138.72C673.82 138.72 671.7 140.32 671.7 143.84V148.2C671.7 151.72 673.82 153.32 676.74 153.32C679.3 153.32 681.74 152.72 683.22 151.8L684.02 157.84C682.06 159.04 679.26 159.8 675.58 159.8ZM695.113 159.8C691.593 159.8 687.873 158.92 685.153 157.08L685.953 150.96C689.153 152.84 691.793 153.6 694.553 153.6C696.313 153.6 697.433 152.92 697.433 151.72C697.433 150.36 695.313 149.64 692.313 148.6L690.673 148.04C686.713 146.68 684.593 143.68 684.633 140.24C684.673 135.08 688.633 132.24 694.793 132.24C698.393 132.24 701.233 133.08 703.593 134.64L702.553 140.4C700.713 139.24 698.033 138.44 695.513 138.44C693.593 138.44 692.553 139.04 692.553 140.12C692.553 141.48 694.073 141.8 696.953 142.72L698.433 143.2C702.673 144.56 705.153 147.28 705.113 151.36C705.073 157.04 700.713 159.8 695.113 159.8ZM731.06 145.44L724.54 152.44H737.34V159.16H714.74V153.4L726.42 140.32C728.78 137.64 729.82 135.92 729.82 133.76C729.82 131.6 728.26 130.16 725.86 130.16C723.46 130.16 721.7 131.44 721.54 135.04H714.74C714.7 127.4 719.82 123.44 725.98 123.44C732.42 123.44 737.3 127.4 737.3 133.52C737.3 138.24 735.06 141.12 731.06 145.44Z" fill="#0C0541"/>
</g>
<defs>
<clipPath id="clip0_4789_72842">
<rect width="1283" height="610" fill="white"/>
</clipPath>
</defs>
</svg>
