<svg width="1280" height="463" viewBox="0 0 1280 463" fill="none" xmlns="http://www.w3.org/2000/svg">
<g clip-path="url(#clip0_4784_64055)">
<path d="M752.724 337.564C745.191 337.977 739.743 338.421 738.297 338.548V347.307C740.752 347.116 746.2 346.704 753.262 346.323L752.724 337.564Z" fill="#9593B2"/>
<path d="M751.278 361.715C745.326 362.064 740.685 362.381 738.297 362.572V371.331C741.155 371.109 745.931 370.791 751.816 370.474L751.278 361.715Z" fill="#9593B2"/>
<path d="M778.788 325.441C773.877 325.504 769.035 325.631 764.461 325.822L764.965 333.756C769.27 333.597 773.844 333.47 778.451 333.438L778.788 325.441Z" fill="#9593B2"/>
<path d="M765.943 336.961C762.479 337.088 759.183 337.215 756.156 337.374L756.694 346.133C759.654 345.974 762.849 345.847 766.145 345.752L765.976 336.961H765.943Z" fill="#9593B2"/>
<path d="M759.619 349.274C749.395 349.719 741.189 350.353 738.297 350.576V359.335C742.03 359.049 750.236 358.446 760.157 358.033L759.619 349.274Z" fill="#9593B2"/>
<path d="M777.007 357.589L777.377 348.767C772.467 348.83 767.625 348.957 763.051 349.147L763.589 357.938C767.894 357.78 772.4 357.653 776.974 357.621L777.007 357.589Z" fill="#9593B2"/>
<path d="M809.425 311.985C811.544 310.367 813.124 308.113 813.73 305.511C792.61 303.258 734.025 306.146 726.055 306.558C727.03 309.383 729.115 311.731 731.839 313.128C739.507 312.334 777.812 308.685 809.425 311.985Z" fill="#9593B2"/>
<path d="M767.388 314.365L757.602 314.492L758.106 322.839C766.783 322.426 777.275 322.077 787.365 322.204L787.869 314.08L770.818 314.333L770.987 322.363L767.556 322.426L767.388 314.397V314.365Z" fill="#9593B2"/>
<path d="M814.002 302.274C813.665 296.847 809.428 292.468 803.879 291.516L803.812 291.357C782.322 289.77 754.913 290.373 735.71 291.103L735.542 291.484C729.757 292.436 725.352 297.196 725.352 302.909C725.352 303.036 725.385 303.163 725.385 303.29C731.809 302.972 791.772 299.894 813.934 302.211L814.002 302.274Z" fill="#9593B2"/>
<path d="M791.266 314.048L790.762 322.267C794.36 322.363 797.858 322.521 801.154 322.743V314.587H801.692C801.692 314.587 801.793 314.587 801.86 314.587C798.362 314.333 794.797 314.143 791.266 314.048Z" fill="#9593B2"/>
<path d="M764.733 385.199C761.302 385.294 757.973 385.453 754.879 385.612L755.518 413.031H765.338L764.699 385.231L764.733 385.199Z" fill="#9593B2"/>
<path d="M754.675 323.029L754.17 314.619C747.781 314.968 742.333 315.413 738.297 315.762V324.108C738.6 324.108 745.225 323.505 754.675 322.997V323.029Z" fill="#9593B2"/>
<path d="M775.932 372.886C771.022 372.95 766.179 373.077 761.605 373.267L762.144 382.058C766.448 381.899 770.955 381.772 775.529 381.741L775.898 372.918L775.932 372.886Z" fill="#9593B2"/>
<path d="M782.219 325.441L781.883 333.438C788.575 333.438 795.201 333.597 801.187 334.041V326.012C795.301 325.6 788.777 325.441 782.219 325.441Z" fill="#9593B2"/>
<path d="M789.921 336.739L789.383 345.561C793.486 345.656 797.454 345.847 801.187 346.133V337.247C797.622 336.993 793.822 336.802 789.921 336.707V336.739Z" fill="#9593B2"/>
<path d="M789.045 385.072L788.17 412.302L784.034 412.175L784.908 384.977C779.359 384.882 773.642 384.977 768.16 385.104L768.799 413H801.185V385.802C797.419 385.453 793.349 385.199 789.045 385.072Z" fill="#9593B2"/>
<path d="M780.807 348.735L780.438 357.557C787.668 357.557 794.831 357.748 801.188 358.287V349.401C794.932 348.894 787.903 348.703 780.807 348.703V348.735Z" fill="#9593B2"/>
<path d="M751.446 385.771C745.796 386.088 741.189 386.405 738.297 386.596V413H752.085L751.446 385.771Z" fill="#9593B2"/>
<path d="M788.476 360.89L787.938 369.713C792.579 369.808 797.051 370.062 801.188 370.411V361.525C797.22 361.176 792.915 360.985 788.476 360.858V360.89Z" fill="#9593B2"/>
<path d="M738.297 324.457V335.311C740.819 335.089 750.034 334.39 761.536 333.914L761.031 325.98C748.352 326.552 738.768 327.345 738.566 327.377L738.297 324.489V324.457Z" fill="#9593B2"/>
<path d="M758.173 373.394C749.328 373.774 741.963 374.314 738.297 374.568V383.327C742.467 383.009 749.933 382.502 758.711 382.153L758.173 373.394Z" fill="#9593B2"/>
<path d="M784.505 369.649L785.043 360.827C779.36 360.763 773.508 360.827 767.959 361.017L768.127 369.808L764.697 369.871L764.529 361.144C761.065 361.271 757.769 361.398 754.742 361.556L755.28 370.316C763.957 369.903 774.45 369.554 784.539 369.681L784.505 369.649Z" fill="#9593B2"/>
<path d="M785.952 345.53L786.491 336.707C780.807 336.644 774.955 336.707 769.406 336.898L769.574 345.689C774.922 345.53 780.504 345.466 785.952 345.53Z" fill="#9593B2"/>
<path d="M801.188 373.679C794.597 373.076 787.03 372.854 779.362 372.886L778.992 381.708C786.794 381.708 794.496 381.93 801.188 382.565V373.679Z" fill="#9593B2"/>
<path d="M787.837 253.084L773.443 217.413C773.039 216.397 772.299 215.667 771.459 215.191V181.139H767.12V181.615L742.435 192.976L767.12 203.068V215.001C766.078 215.445 765.17 216.207 764.699 217.413L750.305 253.084L735.07 290.849C754.24 290.088 781.649 289.485 803.172 291.103L787.837 253.115V253.084Z" fill="#B0AED1"/>
<path d="M494.306 337.564C486.773 337.977 481.325 338.421 479.879 338.548V347.307C482.334 347.116 487.782 346.704 494.844 346.323L494.306 337.564Z" fill="#9593B2"/>
<path d="M492.86 361.715C486.908 362.064 482.267 362.381 479.879 362.572V371.331C482.738 371.109 487.513 370.791 493.398 370.474L492.86 361.715Z" fill="#9593B2"/>
<path d="M520.373 325.441C515.463 325.504 510.621 325.631 506.047 325.822L506.551 333.756C510.856 333.597 515.43 333.47 520.037 333.438L520.373 325.441Z" fill="#9593B2"/>
<path d="M554.439 306.622L588.069 295.514L594.796 325.663L546.031 333.597V314.556L554.439 306.622Z" fill="#B0AED1"/>
<path d="M507.56 336.961C504.096 337.088 500.8 337.215 497.773 337.374L498.312 346.133C501.271 345.974 504.466 345.847 507.762 345.752L507.594 336.961H507.56Z" fill="#9593B2"/>
<path d="M501.201 349.274C490.977 349.719 482.771 350.353 479.879 350.576V359.335C483.612 359.049 491.818 358.446 501.739 358.033L501.201 349.274Z" fill="#9593B2"/>
<path d="M518.589 357.59L518.959 348.767C514.049 348.831 509.207 348.958 504.633 349.148L505.171 357.939C509.476 357.78 513.982 357.653 518.556 357.621L518.589 357.59Z" fill="#9593B2"/>
<path d="M551.042 311.985C553.161 310.367 554.741 308.113 555.347 305.511C534.227 303.258 475.642 306.146 467.672 306.558C468.647 309.383 470.732 311.731 473.456 313.128C481.124 312.334 519.429 308.685 551.042 311.985Z" fill="#9593B2"/>
<path d="M508.97 314.365L499.184 314.492L499.688 322.839C508.365 322.426 518.857 322.077 528.947 322.204L529.451 314.08L512.4 314.333L512.569 322.363L509.138 322.426L508.97 314.397V314.365Z" fill="#9593B2"/>
<path d="M555.584 302.274C555.247 296.847 551.01 292.468 545.461 291.516L545.394 291.357C523.904 289.77 496.495 290.373 477.292 291.103L477.124 291.484C471.339 292.436 466.934 297.196 466.934 302.909C466.934 303.036 466.967 303.163 466.967 303.29C473.391 302.972 533.354 299.894 555.516 302.211L555.584 302.274Z" fill="#9593B2"/>
<path d="M532.883 314.048L532.379 322.267C535.977 322.363 539.475 322.521 542.771 322.743V314.587H543.309C543.309 314.587 543.41 314.587 543.477 314.587C539.979 314.333 536.415 314.143 532.883 314.048Z" fill="#9593B2"/>
<path d="M506.315 385.199C502.884 385.294 499.555 385.453 496.461 385.612L497.1 413.031H506.92L506.281 385.231L506.315 385.199Z" fill="#9593B2"/>
<path d="M496.257 323.029L495.753 314.619C489.363 314.968 483.915 315.413 479.879 315.762V324.108C480.182 324.108 486.807 323.505 496.257 322.997V323.029Z" fill="#9593B2"/>
<path d="M517.514 372.886C512.604 372.95 507.761 373.077 503.188 373.267L503.726 382.058C508.03 381.899 512.537 381.772 517.111 381.741L517.48 372.918L517.514 372.886Z" fill="#9593B2"/>
<path d="M523.801 325.441L523.465 333.438C530.157 333.438 536.783 333.597 542.769 334.041V326.012C536.883 325.6 530.359 325.441 523.801 325.441Z" fill="#9593B2"/>
<path d="M531.503 336.739L530.965 345.561C535.068 345.656 539.036 345.847 542.769 346.133V337.247C539.204 336.993 535.404 336.802 531.503 336.707V336.739Z" fill="#9593B2"/>
<path d="M530.631 385.072L529.756 412.302L525.62 412.175L526.494 384.977C520.945 384.882 515.228 384.977 509.746 385.104L510.385 413H542.771V385.802C539.005 385.453 534.935 385.199 530.631 385.072Z" fill="#9593B2"/>
<path d="M522.389 348.735L522.02 357.558C529.25 357.558 536.413 357.748 542.77 358.288V349.402C536.514 348.894 529.486 348.704 522.389 348.704V348.735Z" fill="#9593B2"/>
<path d="M493.028 385.771C487.379 386.088 482.771 386.405 479.879 386.596V413H493.667L493.028 385.771Z" fill="#9593B2"/>
<path d="M530.058 360.89L529.52 369.713C534.161 369.808 538.633 370.062 542.77 370.411V361.525C538.802 361.176 534.497 360.985 530.058 360.858V360.89Z" fill="#9593B2"/>
<path d="M479.879 324.457V335.311C482.401 335.089 491.616 334.39 503.118 333.914L502.613 325.98C489.934 326.552 480.35 327.345 480.148 327.377L479.879 324.489V324.457Z" fill="#9593B2"/>
<path d="M499.755 373.394C490.91 373.774 483.545 374.314 479.879 374.568V383.327C484.049 383.009 491.515 382.502 500.293 382.153L499.755 373.394Z" fill="#9593B2"/>
<path d="M526.087 369.649L526.625 360.827C520.942 360.763 515.09 360.827 509.541 361.017L509.709 369.808L506.279 369.871L506.111 361.144C502.647 361.271 499.351 361.398 496.324 361.556L496.862 370.316C505.539 369.903 516.032 369.554 526.121 369.681L526.087 369.649Z" fill="#9593B2"/>
<path d="M527.535 345.53L528.073 336.707C522.389 336.644 516.537 336.707 510.988 336.898L511.156 345.689C516.504 345.53 522.086 345.466 527.535 345.53Z" fill="#9593B2"/>
<path d="M542.77 373.679C536.179 373.076 528.612 372.854 520.944 372.886L520.574 381.708C528.377 381.708 536.078 381.93 542.77 382.565V373.679Z" fill="#9593B2"/>
<path d="M529.454 253.084L515.06 217.413C514.656 216.397 513.917 215.667 513.076 215.191V181.139H508.737V181.615L484.053 192.976L508.737 203.068V215.001C507.695 215.445 506.787 216.207 506.316 217.413L491.922 253.084L476.688 290.849C495.857 290.088 523.266 289.485 544.789 291.103L529.454 253.115V253.084Z" fill="#B0AED1"/>
<path d="M546.168 328.393L610.133 322.268L614.976 344.324L591.939 347.688L585.785 388.437L546.168 394.244V328.393Z" fill="#9593B2"/>
<path d="M725.956 306.622L692.325 295.514L685.599 325.663L734.363 333.597V314.556L725.956 306.622Z" fill="#B0AED1"/>
<path d="M736.078 327.155L672.112 321.03L667.27 343.086L690.306 346.45L696.461 387.199L736.078 393.038V327.155Z" fill="#9593B2"/>
<path d="M597.553 282.249L594.728 244.483C594.728 244.483 578.316 237.787 581.376 229.631C584.437 221.475 688.696 226.074 688.696 226.074C688.696 226.074 702.547 236.803 681.73 246.419L680.688 284.153L636.646 271.444L597.586 282.217L597.553 282.249Z" fill="#9593B2"/>
<path d="M604.226 322.959L580.844 325.062V293.914C580.896 293.88 580.95 293.846 581.006 293.81C581.692 293.372 582.677 292.749 583.871 292.012C586.262 290.536 589.478 288.611 592.796 286.801C596.131 284.982 599.499 283.318 602.212 282.331C603.579 281.834 604.676 281.547 605.468 281.464C605.797 281.43 606.002 281.437 606.119 281.45C606.139 281.501 606.164 281.568 606.191 281.652C606.302 282.001 606.412 282.504 606.505 283.178C606.692 284.522 606.786 286.328 606.799 288.479C606.826 292.769 606.531 298.2 606.121 303.566C605.712 308.923 605.19 314.173 604.771 318.087C604.561 320.043 604.377 321.664 604.246 322.794C604.239 322.851 604.233 322.906 604.226 322.959Z" fill="#9593B2" stroke="#B0AED1" stroke-width="4"/>
<path d="M661.387 285.006C661.6 284.861 661.855 284.7 662.153 284.531C663.332 283.863 665.199 283.063 667.835 282.668C672.953 281.901 681.194 282.632 693.164 289.242L695.707 324.806L671.126 324.806L661.387 285.006Z" fill="#9593B2" stroke="#B0AED1" stroke-width="4"/>
<path d="M639.222 57.6866C639.222 57.6866 650.892 56.0681 652.203 82.5992C653.515 109.13 668.548 133.027 679.915 138.549C694.208 145.499 693.771 157.337 693.771 157.337C693.771 157.337 643.123 144.262 581.243 156.924C581.243 156.924 579.393 145.785 599.74 134.709C603.473 132.678 606.701 129.885 608.955 126.426C618.976 111.098 625.803 83.4243 625.803 83.4243C625.803 83.4243 627.519 57.6866 639.222 57.6866Z" fill="#B0AED1"/>
<path d="M602.278 340.283L602.179 345.056L605.041 342.355L620.403 343.525L622.433 343.68L622.551 341.647L625.135 297.32C627.206 284.581 630.723 279.267 633.31 277.079C634.59 275.997 635.688 275.637 636.387 275.518C636.745 275.456 637.016 275.455 637.176 275.464C637.256 275.468 637.307 275.475 637.326 275.478C637.327 275.478 637.327 275.478 637.328 275.478C641.213 276.325 644.462 280.268 647.024 286.827C649.535 293.256 651.124 301.542 652.111 309.829C653.095 318.091 653.467 326.236 653.593 332.325C653.656 335.367 653.657 337.889 653.643 339.649C653.636 340.528 653.624 341.217 653.615 341.684C653.61 341.918 653.606 342.096 653.603 342.215L653.6 342.349L653.599 342.382L653.599 342.389L653.598 342.391C653.598 342.391 653.598 342.391 653.796 342.397L653.598 342.391L653.535 344.484L655.629 344.451L676.076 344.134L678.18 344.101L678.041 342.002L674.139 283.195L674.069 282.129L673.143 281.595L661.716 275.007L638.202 250.709L636.62 249.074L635.201 250.852L615.972 274.944L605.533 275.235L603.629 275.288L603.589 277.193L602.278 340.283Z" fill="#9593B2" stroke="#B0AED1" stroke-width="4"/>
<path d="M606.434 360.328C606.441 360.376 606.445 360.411 606.447 360.43L607.421 389.488L607.483 391.342L609.337 391.419L623.933 392.022L625.984 392.107L626.015 390.054L626.352 367.998L626.353 367.92L626.348 367.847L626.348 367.846L626.348 367.845L626.348 367.844L626.348 367.843L626.347 367.827C626.346 367.808 626.345 367.774 626.343 367.728C626.34 367.635 626.337 367.491 626.338 367.302C626.339 366.923 626.355 366.37 626.415 365.701C626.536 364.353 626.832 362.591 627.513 360.849C628.193 359.112 629.229 357.463 630.795 356.231C632.339 355.017 634.529 354.106 637.714 354.035C644.323 353.889 647.52 356.128 649.113 358.084C649.944 359.103 650.409 360.131 650.665 360.898C650.792 361.28 650.866 361.592 650.906 361.796C650.926 361.897 650.938 361.971 650.944 362.013C650.945 362.023 650.946 362.031 650.947 362.037C650.947 362.038 650.947 362.039 650.948 362.04L653.232 388.955L653.387 390.786H655.225H670.796H672.889L672.794 388.695L671.818 367.242L671.814 367.153L671.803 367.068L671.803 367.067L671.803 367.066L671.803 367.066L671.802 367.064L671.8 367.048C671.798 367.03 671.794 366.999 671.79 366.955C671.78 366.869 671.767 366.734 671.754 366.559C671.726 366.208 671.699 365.697 671.699 365.081C671.699 363.836 671.813 362.224 672.239 360.651C672.666 359.073 673.373 357.657 674.469 356.645C675.523 355.672 677.095 354.924 679.573 354.924C684.779 354.924 687.241 356.983 688.483 358.798C689.138 359.757 689.504 360.725 689.704 361.457C689.803 361.821 689.859 362.117 689.889 362.313C689.904 362.41 689.913 362.482 689.917 362.523C689.919 362.541 689.92 362.553 689.921 362.558C689.921 362.559 689.921 362.56 689.921 362.56C689.921 362.562 689.921 362.562 689.921 362.56L689.925 362.615L689.934 362.682L693.499 389.022L693.721 390.664L695.375 390.751L706.742 391.354L708.811 391.464L708.847 389.392L706.848 389.357C708.847 389.392 708.847 389.392 708.847 389.391L708.847 389.39L708.847 389.387L708.848 389.375L708.848 389.331L708.851 389.161C708.852 389.012 708.855 388.793 708.856 388.509C708.86 387.943 708.862 387.118 708.854 386.08C708.84 384.003 708.79 381.07 708.648 377.635C708.365 370.781 707.713 361.868 706.225 353.769C704.558 344.692 697.058 340.427 690.6 338.438C687.329 337.43 684.175 336.953 681.852 336.725C680.686 336.611 679.719 336.559 679.039 336.535C678.698 336.523 678.428 336.519 678.24 336.517C678.146 336.516 678.073 336.516 678.021 336.516L677.96 336.516L677.947 336.516L677.945 336.517L677.941 336.517L677.938 336.517L677.936 336.517L677.933 336.517L677.907 336.517L677.786 336.517L677.312 336.52C676.896 336.522 676.282 336.525 675.492 336.529C673.913 336.536 671.631 336.546 668.821 336.556C663.202 336.576 655.474 336.596 647.036 336.596C630.149 336.596 610.452 336.516 599.118 336.2C587.331 335.871 581.411 339.451 578.632 343.764C577.285 345.854 576.788 347.956 576.623 349.522C576.541 350.307 576.541 350.97 576.563 351.447C576.574 351.686 576.59 351.88 576.605 352.022C576.607 352.04 576.609 352.056 576.611 352.072L575.648 387.433L575.038 389.161L576.983 389.798L591.915 394.685L594.57 395.554L594.537 392.761L594.201 363.66L594.2 363.583L594.194 363.51L594.194 363.51L594.194 363.51L594.194 363.509L594.193 363.508L594.193 363.499C594.192 363.493 594.192 363.486 594.191 363.476C594.19 363.464 594.189 363.45 594.188 363.433C594.184 363.371 594.179 363.272 594.175 363.143C594.166 362.884 594.161 362.506 594.179 362.051C594.216 361.127 594.343 359.952 594.683 358.832C595.025 357.702 595.539 356.771 596.248 356.158C596.903 355.592 597.887 355.152 599.525 355.268C603.161 355.528 604.784 356.988 605.564 358.142C605.982 358.761 606.208 359.369 606.328 359.818C606.387 360.04 606.418 360.218 606.434 360.328Z" fill="#9593B2" stroke="#B0AED1" stroke-width="4"/>
<path d="M598.965 216.587L597.654 174.093C597.654 174.093 582.923 170.824 580.771 157.337C578.619 143.849 643.526 144.262 643.526 144.262C643.526 144.262 687.683 144.262 693.299 157.749C698.915 171.237 675.105 175.712 675.105 175.712L673.793 216.556H598.898L598.965 216.587Z" fill="#9593B2"/>
<path d="M645.382 191.593H626.104C623.534 184.333 624.208 169.815 636.642 169.815C648.21 169.815 646.668 185.543 645.382 191.593Z" fill="white"/>
<path d="M637.273 21.603L607.645 35.2176L637.273 47.3407V60.1302H642.486V21H637.273V21.603Z" fill="#9593B2"/>
<path d="M601.997 211.256C601.997 211.256 584.24 219.824 581.214 230.043C579.773 234.931 638.569 233.333 638.569 233.333C638.569 233.333 686.763 235.148 692.546 230.043C689.519 223.506 667.375 209.193 667.375 209.193L602.031 211.224L601.997 211.256Z" fill="#B0AED1"/>
</g>
<g clip-path="url(#clip1_4784_64055)">
<path d="M346.919 357.513C344.882 353.305 341.145 350.877 338.158 352.036C335.172 353.195 334.063 357.576 335.43 362.065C332.328 358.437 327.971 357.049 325.355 358.998C323.337 360.521 322.968 363.659 324.146 366.874C321.329 365.654 318.511 365.766 316.885 367.465C315.299 369.134 315.284 371.869 316.552 374.593C313.808 374.624 311.527 375.698 310.654 377.688C309.452 380.46 311.376 384.057 315.059 386.314L324.724 421.808L382.416 413.492C383.958 415.015 386.131 415.924 388.516 415.779C392.885 415.516 396.204 411.88 395.946 407.661C395.811 405.338 394.567 403.354 392.796 402.055C394.95 400.778 396.295 398.905 396.173 396.895C396.065 395.087 394.793 393.56 392.887 392.511C394.76 390.563 395.547 388.229 394.773 386.226C394.102 384.544 392.44 383.472 390.316 383.073C391.888 380.346 392.122 377.458 390.546 375.626C389.14 373.988 386.655 373.588 384.026 374.365C384.705 372.299 384.539 370.297 383.36 368.911C381.985 367.313 379.591 366.919 377.037 367.614C378.283 363.976 377.697 360.427 375.337 358.987C373.79 358.053 371.814 358.213 369.895 359.176C369.904 356.285 368.784 353.872 366.688 353.016C364.226 352.002 361.2 353.439 359.03 356.344C358.16 352.351 355.647 349.472 352.741 349.6C349.675 349.713 347.263 353.137 346.901 357.538L346.919 357.513Z" fill="#B0AED1"/>
<path d="M288.986 386.191C287.148 383.549 284.195 382.196 281.487 383.033C279.312 383.705 277.818 385.628 277.265 388.01C274.547 386.343 271.313 386.283 269.169 388.1C268.077 389.023 267.435 390.315 267.223 391.732C265.065 391.519 262.839 392.155 261.064 393.655C259.563 394.925 258.681 396.622 258.336 398.424C255.155 398.649 252.268 400.715 251.12 403.906C250.661 405.21 250.571 406.558 250.761 407.833C248.596 408.683 246.792 410.392 245.94 412.739C244.678 416.29 246.008 420.086 248.897 422.196C247.292 423.146 245.961 424.61 245.276 426.519C243.798 430.855 246.044 435.589 250.36 437.12C253.905 438.387 257.716 437.053 259.816 434.138L324.259 420.742C325.803 421.542 327.701 421.937 329.726 421.677C334.265 421.113 337.551 417.664 337.098 413.977C336.738 411.04 334.084 408.865 330.748 408.373C332.207 405.892 332.351 402.998 330.817 400.91C329.257 398.804 326.403 398.11 323.584 398.832C325.387 395.159 324.667 391.002 321.764 389.189C319.778 387.951 317.259 388.099 315.079 389.358C314.802 386.384 313.101 383.875 310.534 383.151C307.11 382.178 303.403 384.689 302.016 388.782C302.038 384.376 299.276 380.753 295.661 380.583C292.638 380.439 289.989 382.823 289.008 386.187L288.986 386.191Z" fill="#9593B2"/>
<path opacity="0.5" d="M266.637 419.697C266.637 419.697 252.875 404.802 271.228 411.583C271.228 411.583 262.754 398.604 277.24 406.413C277.24 406.413 273.876 388.136 284.62 402.436C284.62 402.436 286.989 382.246 295.741 399.802" stroke="white" stroke-width="3" stroke-miterlimit="10" stroke-linecap="round" stroke-linejoin="round"/>
<path opacity="0.5" d="M277.625 424.15C277.625 424.15 282.134 407.63 286.426 423.117C286.426 423.117 295.351 410.141 296.57 426.194" stroke="white" stroke-width="3" stroke-miterlimit="10" stroke-linecap="round" stroke-linejoin="round"/>
<path opacity="0.5" d="M346.824 391.648C346.824 391.648 353.839 374.666 354.876 391.317C354.876 391.317 366.254 386.898 360.067 399.076C360.067 399.076 371.214 394.993 363.502 405.126" stroke="white" stroke-width="3" stroke-miterlimit="10" stroke-linecap="round" stroke-linejoin="round"/>
<path opacity="0.5" d="M330.924 383.427C330.924 383.427 325.603 368.716 338.719 378.515C338.719 378.515 335.027 371.068 340.263 369.517C345.499 367.966 345.738 377.224 345.738 377.224C345.738 377.224 345.089 368.922 350.612 369.057C356.136 369.192 355.62 378.881 355.62 378.881C355.62 378.881 356.31 366.834 364.366 374.36C364.366 374.36 366.585 375.396 363.62 382.918" stroke="white" stroke-width="3" stroke-miterlimit="10" stroke-linecap="round" stroke-linejoin="round"/>
<path opacity="0.5" d="M366.037 391.967C366.037 391.967 366.064 385.867 373.344 389.178C373.344 389.178 378.841 392.23 370.095 396.751C370.095 396.751 383.566 394.272 373.351 403.422C373.351 403.422 381.56 400.759 377.976 408.102" stroke="white" stroke-width="3" stroke-miterlimit="10" stroke-linecap="round" stroke-linejoin="round"/>
</g>
<path d="M439.661 395.357C439.661 395.357 442.493 385.934 462.816 378.11C482.177 370.645 466.943 362.058 466.943 362.058C466.943 362.058 451.123 355.704 439.237 377.023C439.237 377.023 436.692 365.798 451.639 358.254C451.639 358.254 469.019 354.223 465.102 344.555C461.185 334.886 437.778 348.111 434.539 354.92C431.3 361.729 436.132 339.398 446.55 329.927C446.564 329.926 452.054 317.84 439.204 317.906C439.204 317.906 428.867 317.086 428.988 342.415C428.988 342.415 424.499 317.731 405.438 324.064C405.438 324.064 400.907 328.015 404.362 336.244C404.362 336.244 410.169 341.015 419.204 344.499C419.204 344.499 428.608 347.946 428.722 355.656C428.722 355.656 410.977 342.077 398.563 354.983C398.563 354.983 392.742 367.461 408.103 366.496C408.103 366.496 428.281 360.449 432.818 379.994C432.818 379.994 423.579 367.35 405.959 373.236C405.959 373.236 398.432 376.277 405.738 387.202C405.738 387.202 409.943 389.877 421.328 389.889C432.713 389.901 433.806 395.71 433.806 395.71L439.66 395.343L439.661 395.357Z" fill="#9593B2"/>
<g clip-path="url(#clip2_4784_64055)">
<path d="M1183.6 386.847C1182.91 382.222 1180.08 378.786 1176.88 378.997C1173.68 379.208 1171.31 383.054 1171.27 387.747C1169.4 383.356 1165.66 380.726 1162.58 381.801C1160.2 382.649 1158.9 385.532 1159.06 388.952C1156.74 386.944 1154.02 386.206 1151.96 387.34C1149.95 388.457 1149.11 391.061 1149.51 394.04C1146.88 393.247 1144.38 393.588 1142.95 395.225C1140.97 397.509 1141.73 401.517 1144.57 404.774L1143.15 441.533L1200.68 450.893C1201.7 452.808 1203.5 454.327 1205.82 454.903C1210.06 455.962 1214.32 453.488 1215.34 449.386C1215.91 447.129 1215.31 444.864 1214.01 443.093C1216.45 442.52 1218.29 441.137 1218.78 439.183C1219.22 437.425 1218.46 435.587 1216.96 434.015C1219.33 432.719 1220.78 430.727 1220.64 428.585C1220.51 426.779 1219.24 425.259 1217.34 424.241C1219.65 422.11 1220.74 419.425 1219.79 417.205C1218.94 415.221 1216.69 414.094 1213.95 414.048C1215.21 412.28 1215.65 410.321 1214.95 408.645C1214.11 406.708 1211.95 405.614 1209.3 405.513C1211.58 402.415 1212.09 398.853 1210.27 396.773C1209.07 395.417 1207.14 394.978 1205.02 395.322C1205.89 392.566 1205.55 389.928 1203.8 388.484C1201.76 386.778 1198.44 387.242 1195.5 389.363C1195.87 385.292 1194.33 381.793 1191.52 381.044C1188.56 380.233 1185.24 382.776 1183.57 386.867L1183.6 386.847Z" fill="#B0AED1"/>
<path d="M1119.73 396.842C1118.77 393.771 1116.36 391.595 1113.52 391.582C1111.25 391.57 1109.24 392.957 1108 395.064C1105.91 392.659 1102.84 391.632 1100.25 392.723C1098.93 393.277 1097.93 394.317 1097.31 395.605C1095.31 394.755 1093 394.694 1090.85 395.594C1089.04 396.355 1087.69 397.71 1086.82 399.326C1083.72 398.586 1080.35 399.692 1078.29 402.393C1077.47 403.499 1076.98 404.758 1076.78 406.031C1074.46 406.193 1072.22 407.283 1070.71 409.266C1068.44 412.276 1068.57 416.296 1070.69 419.175C1068.88 419.6 1067.17 420.598 1065.94 422.214C1063.23 425.908 1063.96 431.097 1067.61 433.851C1070.62 436.122 1074.65 435.992 1077.53 433.841L1143.02 440.377C1144.26 441.603 1145.95 442.549 1147.96 442.909C1152.46 443.731 1156.63 441.425 1157.3 437.772C1157.84 434.862 1155.96 431.991 1152.92 430.522C1155.06 428.592 1156.06 425.875 1155.23 423.423C1154.37 420.946 1151.85 419.429 1148.95 419.273C1151.77 416.309 1152.33 412.127 1150.1 409.527C1148.58 407.751 1146.13 407.137 1143.67 407.685C1144.3 404.764 1143.43 401.861 1141.2 400.4C1138.22 398.446 1133.93 399.73 1131.38 403.22C1132.73 399.023 1131.18 394.738 1127.78 393.492C1124.94 392.449 1121.7 393.93 1119.75 396.845L1119.73 396.842Z" fill="#9593B2"/>
<path opacity="0.5" d="M1088.36 422.108C1088.36 422.108 1079.7 403.773 1095.18 415.743C1095.18 415.743 1090.98 400.821 1102.46 412.613C1102.46 412.613 1104.73 394.168 1110.69 411.031C1110.69 411.031 1119.01 392.479 1122.09 411.852" stroke="white" stroke-width="3" stroke-miterlimit="10" stroke-linecap="round" stroke-linejoin="round"/>
<path opacity="0.5" d="M1097.51 429.651C1097.51 429.651 1106.77 415.242 1106.22 431.304C1106.22 431.304 1118.62 421.6 1114.97 437.28" stroke="white" stroke-width="3" stroke-miterlimit="10" stroke-linecap="round" stroke-linejoin="round"/>
<path opacity="0.5" d="M1173.27 419.385C1173.27 419.385 1185.06 405.287 1181.05 421.483C1181.05 421.483 1193.23 420.677 1183.68 430.441C1183.68 430.441 1195.54 429.887 1185.14 437.243" stroke="white" stroke-width="3" stroke-miterlimit="10" stroke-linecap="round" stroke-linejoin="round"/>
<path opacity="0.5" d="M1160.56 406.775C1160.56 406.775 1159.9 391.146 1169.47 404.426C1169.47 404.426 1168.18 396.214 1173.64 396.304C1179.1 396.395 1176.56 405.298 1176.56 405.298C1176.56 405.298 1178.43 397.184 1183.65 398.968C1188.88 400.752 1185.49 409.842 1185.49 409.842C1185.49 409.842 1189.76 398.555 1195.19 408.149C1195.19 408.149 1196.99 409.803 1191.91 416.09" stroke="white" stroke-width="3" stroke-miterlimit="10" stroke-linecap="round" stroke-linejoin="round"/>
<path opacity="0.5" d="M1191.51 425.448C1191.51 425.448 1193.36 419.636 1199.31 424.977C1199.31 424.977 1203.64 429.536 1193.94 431.229C1193.94 431.229 1207.54 432.901 1195.05 438.568C1195.05 438.568 1203.68 438.489 1198.06 444.419" stroke="white" stroke-width="3" stroke-miterlimit="10" stroke-linecap="round" stroke-linejoin="round"/>
</g>
<path d="M1086.55 419.912C984.904 404.985 936.024 392.521 873.259 389.848C546.66 359.785 341.137 415.131 240.057 425.423C-74.8775 457.49 28.4332 462 41.7643 462H1256.51C1256.51 462 1373.16 462 1086.55 419.912Z" fill="#9593B2"/>
<path d="M951.096 363.348C951.096 363.348 958.789 339.365 986.217 336.209C1013.65 333.053 1021.46 337.584 1047.25 312.623C1073.04 287.662 1070.51 284.461 1094.32 284.148C1118.14 283.835 1143.9 296.645 1172.71 250.42C1172.71 250.42 1176.43 224.706 1148.63 229.455C1148.63 229.455 1135.86 233.057 1121.01 246.763C1106.17 260.469 1087.21 257.896 1087.21 257.896C1087.21 257.896 1070.3 253.387 1042.14 284.789C1013.98 316.19 1012.73 317.502 993.127 319.029C973.526 320.557 941.53 336.443 932.53 365.353L951.106 363.34L951.096 363.348Z" fill="#B0AED1"/>
<path d="M891.135 416.29C891.135 416.29 902.521 401.208 909.138 384.663L915.874 368.886C915.874 368.886 919.682 357.568 930.827 358.561L952.158 359.92C954.13 360.046 956.093 359.895 958.061 359.72C960.762 359.471 965.898 360.538 970.219 370.592C970.219 370.592 990.664 410.273 995.693 414.06L891.135 416.29Z" fill="#9593B2"/>
<path d="M951.944 373.977C950.978 374.617 950.493 375.851 950.847 377.006L958.335 402.22C958.763 403.651 960.267 404.478 961.713 404.04C963.145 403.612 963.972 402.109 963.534 400.662L956.045 375.448C955.617 374.017 954.114 373.19 952.667 373.628C952.401 373.717 952.16 373.812 951.934 373.962L951.944 373.977Z" fill="#B0AED1"/>
<path d="M942.16 373.756C941.481 374.206 941.002 374.958 940.955 375.836L939.342 399.962C939.248 401.458 940.369 402.756 941.864 402.85C943.359 402.944 944.657 401.823 944.751 400.328L946.364 376.201C946.458 374.706 945.337 373.408 943.842 373.314C943.225 373.267 942.642 373.436 942.16 373.756Z" fill="#B0AED1"/>
<path d="M927.812 373.629C927.284 373.979 926.876 374.51 926.689 375.177L919.844 400.254C919.459 401.703 920.293 403.191 921.752 403.591C923.202 403.976 924.69 403.142 925.09 401.682L931.935 376.606C932.32 375.156 931.486 373.669 930.026 373.268C929.234 373.056 928.445 373.209 927.812 373.629Z" fill="#B0AED1"/>
<g clip-path="url(#clip3_4784_64055)">
<path d="M146.174 361.652C146.059 361.652 145.943 361.652 145.835 361.629C144.864 361.501 144.047 360.862 143.716 359.959C141.897 354.994 140.571 334.977 140.432 332.713C140.34 331.306 141.434 330.095 142.883 330.005C144.325 329.922 145.565 330.982 145.658 332.397C146.043 338.362 146.76 346.915 147.562 352.685L159.732 335.526C160.557 334.368 162.183 334.082 163.37 334.879C164.557 335.684 164.857 337.271 164.033 338.43L148.34 360.553C147.847 361.245 147.038 361.652 146.19 361.652H146.174Z" fill="#9593B2"/>
<path d="M147.569 459C146.144 459 144.972 457.879 144.957 456.48C144.903 452.41 143.562 356.717 143.562 355.694C143.562 354.287 144.733 353.144 146.174 353.144C147.616 353.144 148.787 354.287 148.787 355.694C148.787 356.995 150.167 455.419 150.182 456.412C150.205 457.819 149.049 458.977 147.6 459H147.562H147.569Z" fill="#9593B2"/>
<path d="M145.473 376.967C144.903 376.967 144.332 376.787 143.854 376.418C140.81 374.071 137.334 369.197 133.511 361.922C130.744 356.649 128.832 352.083 128.755 351.895C128.208 350.586 128.856 349.097 130.189 348.57C131.53 348.036 133.056 348.668 133.596 349.969C135.661 354.911 142.105 368.572 147.092 372.416C148.225 373.289 148.417 374.899 147.523 376.004C147.007 376.644 146.244 376.975 145.465 376.975L145.473 376.967Z" fill="#9593B2"/>
<path d="M146.575 377.374C145.812 377.374 145.064 377.05 144.54 376.433C143.631 375.343 143.8 373.733 144.918 372.845C145.08 372.717 160.942 360.094 171 348.51C171.933 347.434 173.582 347.299 174.685 348.209C175.787 349.119 175.925 350.729 174.993 351.805C164.611 363.765 148.887 376.283 148.217 376.809C147.731 377.193 147.146 377.381 146.567 377.381L146.575 377.374Z" fill="#9593B2"/>
<path d="M146.174 395.856C145.111 395.856 144.109 395.217 143.716 394.186C141.311 387.792 123.468 369.979 116.793 363.653C115.76 362.667 115.73 361.057 116.739 360.042C117.749 359.034 119.398 359.004 120.439 359.989C122.982 362.396 145.373 383.79 148.625 392.426C149.126 393.75 148.425 395.217 147.068 395.706C146.768 395.811 146.467 395.864 146.167 395.864L146.174 395.856Z" fill="#9593B2"/>
<path d="M147.223 414.58C147.084 414.58 146.953 414.572 146.814 414.55C145.388 414.332 144.409 413.023 144.641 411.631C146.799 398.279 170.23 365.014 171.232 363.607C172.049 362.449 173.683 362.156 174.87 362.953C176.056 363.75 176.357 365.345 175.54 366.504C175.478 366.586 169.482 375.087 163.316 385.031C153.165 401.4 150.375 408.96 149.812 412.421C149.612 413.677 148.494 414.572 147.23 414.572L147.223 414.58Z" fill="#9593B2"/>
<path d="M145.997 410.157C144.725 410.157 143.623 409.254 143.423 408.013C142.629 405.741 132.563 394.562 116.971 379.638C115.938 378.652 115.922 377.035 116.932 376.027C117.942 375.019 119.599 375.004 120.632 375.989C120.701 376.057 127.414 382.481 134.104 389.349C148.171 403.793 148.456 406.064 148.602 407.29C148.772 408.69 147.754 409.961 146.313 410.126C146.205 410.141 146.105 410.141 145.997 410.141V410.157ZM143.407 407.907C143.407 407.907 143.407 407.945 143.407 407.96C143.407 407.945 143.407 407.922 143.407 407.907Z" fill="#9593B2"/>
<path d="M127.378 343.345C127.378 343.345 118.752 343.422 118.621 348.576C118.621 348.576 118.298 353.583 124.685 354.924C124.685 354.924 133.472 356.474 134.611 351.196C134.611 351.196 137.596 344.042 127.386 343.345H127.378Z" fill="#B0AED1"/>
<path d="M127.455 356.327C125.808 356.327 124.546 356.11 124.477 356.095C118.621 354.862 117.321 350.623 117.452 348.53C117.506 346.67 118.467 344.197 122.707 342.903C125.016 342.198 127.27 342.174 127.37 342.167H127.462C131.379 342.438 134.026 343.655 135.326 345.786C136.819 348.228 135.95 350.956 135.726 351.545C135.296 353.413 133.826 355.699 129.348 356.219C128.694 356.296 128.047 356.327 127.455 356.327ZM127.347 344.531C127.047 344.531 125.177 344.608 123.346 345.174C121.022 345.895 119.829 347.05 119.791 348.615V348.662C119.768 349.065 119.752 352.692 124.916 353.777C124.954 353.777 132.572 355.064 133.457 350.956L133.48 350.847L133.518 350.747C133.518 350.747 134.341 348.67 133.318 347.011C132.449 345.6 130.379 344.748 127.347 344.531Z" fill="#B0AED1"/>
<path d="M161.488 329.215C161.488 329.215 151.139 329.347 151.308 338.005C151.308 338.005 150.477 347.623 159.233 348.825C159.233 348.825 168.375 350.235 170.937 341.647C170.937 341.647 175.723 329.773 161.488 329.215Z" fill="#B0AED1"/>
<path d="M160.78 350.119C160.149 350.119 159.564 350.072 159.056 349.995C151.316 348.933 149.838 341.702 150.131 337.966C150.092 335.385 150.892 333.23 152.501 331.556C155.771 328.153 161.234 328.045 161.465 328.037H161.526C166.412 328.231 169.783 329.727 171.545 332.478C174.069 336.423 172.276 341.415 172.037 342.035C170.09 348.476 164.535 350.111 160.772 350.111L160.78 350.119ZM161.48 330.393C161.103 330.409 156.671 330.603 154.186 333.199C153.001 334.439 152.447 335.997 152.485 337.981V338.105C152.454 338.446 151.877 346.623 159.403 347.654C159.749 347.708 167.597 348.786 169.821 341.306L169.86 341.198C169.875 341.159 171.568 336.819 169.583 333.742C168.259 331.68 165.535 330.556 161.48 330.386V330.393Z" fill="#B0AED1"/>
<path d="M116.759 357.102C116.759 357.102 108.357 357.281 108.188 364.163C108.188 364.163 107.826 370.844 114.028 372.573C114.028 372.573 122.569 374.557 123.723 367.511C123.723 367.511 126.701 357.947 116.759 357.102Z" fill="#B0AED1"/>
<path d="M116.598 374.007C115.036 374.007 113.858 373.743 113.758 373.72L113.712 373.704C108.087 372.139 106.872 366.736 107.01 364.093C107.164 357.792 113.435 355.986 116.729 355.916H116.852C120.16 356.195 122.546 357.405 123.954 359.513C126.154 362.807 125.054 367.085 124.862 367.759C124.5 369.883 123.507 371.503 121.915 372.58C120.237 373.712 118.214 373.991 116.598 373.991V374.007ZM114.305 371.426C114.605 371.488 118.267 372.224 120.614 370.627C121.676 369.906 122.315 368.821 122.561 367.31L122.599 367.147C122.599 367.147 123.723 363.388 121.999 360.823C121.014 359.358 119.245 358.505 116.721 358.273C115.982 358.304 109.488 358.73 109.349 364.179C109.334 364.442 109.134 369.953 114.305 371.41V371.426Z" fill="#B0AED1"/>
<path d="M176.454 342.694C176.454 342.694 168.051 342.872 167.882 349.755C167.882 349.755 167.52 356.436 173.722 358.164C173.722 358.164 182.263 360.148 183.417 353.103C183.417 353.103 186.395 343.539 176.454 342.694Z" fill="#B0AED1"/>
<path d="M176.292 359.598C174.73 359.598 173.553 359.334 173.453 359.311L173.407 359.296C167.782 357.722 166.566 352.32 166.705 349.685C166.859 343.384 173.13 341.578 176.423 341.508H176.546C179.855 341.787 182.24 342.996 183.648 345.104C185.849 348.398 184.749 352.677 184.556 353.351C184.195 355.475 183.202 357.095 181.609 358.172C179.932 359.303 177.908 359.582 176.292 359.582V359.598ZM174.007 357.017C174.307 357.079 177.97 357.815 180.317 356.219C181.378 355.498 182.017 354.413 182.263 352.901L182.302 352.739C182.302 352.739 183.425 348.98 181.702 346.414C180.717 344.949 178.947 344.097 176.423 343.864C175.684 343.895 169.19 344.321 169.052 349.77C169.036 350.034 168.836 355.544 174.007 357.001V357.017Z" fill="#B0AED1"/>
<path d="M118.006 376.053C118.006 376.053 109.38 376.13 109.249 381.284C109.249 381.284 108.926 386.291 115.313 387.632C115.313 387.632 124.1 389.182 125.239 383.904C125.239 383.904 128.224 376.75 118.014 376.053H118.006Z" fill="#B0AED1"/>
<path d="M118.083 389.027C116.436 389.027 115.174 388.81 115.105 388.795C109.249 387.562 107.949 383.323 108.08 381.23C108.134 379.37 109.095 376.898 113.335 375.603C115.644 374.898 117.898 374.875 117.998 374.867H118.09C122.007 375.138 124.654 376.355 125.954 378.486C127.447 380.928 126.578 383.656 126.354 384.245C125.924 386.113 124.454 388.4 119.976 388.919C119.322 388.996 118.675 389.027 118.083 389.027ZM117.975 377.231C117.675 377.231 115.805 377.308 113.974 377.874C111.65 378.595 110.457 379.75 110.419 381.315V381.362C110.396 381.765 110.38 385.392 115.544 386.477C115.582 386.477 123.2 387.764 124.085 383.656L124.108 383.548L124.146 383.447C124.146 383.447 124.969 381.37 123.946 379.711C123.077 378.3 121.007 377.448 117.975 377.231Z" fill="#B0AED1"/>
<path d="M141.259 319.178C141.259 319.178 130.91 319.31 131.079 327.967C131.079 327.967 130.248 337.586 139.004 338.787C139.004 338.787 148.145 340.198 150.708 331.61C150.708 331.61 155.494 319.736 141.259 319.178Z" fill="#B0AED1"/>
<path d="M140.551 340.082C139.92 340.082 139.335 340.035 138.827 339.958C131.087 338.896 129.609 331.664 129.902 327.929C129.863 325.348 130.663 323.193 132.272 321.519C135.549 318.109 141.013 318 141.243 318H141.305C146.191 318.194 149.561 319.69 151.323 322.441C153.847 326.386 152.054 331.378 151.816 331.998C149.869 338.439 144.314 340.074 140.551 340.074V340.082ZM141.251 320.364C140.874 320.379 136.442 320.573 133.957 323.17C132.772 324.41 132.218 325.968 132.256 327.952V328.076C132.225 328.417 131.648 336.594 139.174 337.625C139.52 337.679 147.368 338.756 149.592 331.277L149.631 331.168C149.646 331.13 151.339 326.789 149.354 323.712C148.03 321.651 145.306 320.527 141.251 320.356V320.364Z" fill="#B0AED1"/>
<path d="M174.592 360.451C174.592 360.451 166.189 360.629 166.02 367.511C166.02 367.511 165.658 374.193 171.86 375.921C171.86 375.921 180.401 377.905 181.555 370.86C181.555 370.86 184.533 361.295 174.592 360.451Z" fill="#B0AED1"/>
<path d="M174.438 377.363C172.876 377.363 171.699 377.099 171.599 377.076L171.552 377.06C165.928 375.487 164.712 370.085 164.85 367.449C165.004 361.148 171.275 359.342 174.569 359.272H174.692C178 359.551 180.386 360.761 181.794 362.869C183.995 366.163 182.894 370.441 182.702 371.116C182.34 373.239 181.348 374.859 179.755 375.936C178.077 377.068 176.054 377.347 174.438 377.347V377.363ZM172.145 374.774C172.445 374.836 176.108 375.572 178.454 373.976C179.516 373.255 180.155 372.17 180.401 370.658L180.44 370.495C180.44 370.495 181.563 366.736 179.839 364.171C178.855 362.706 177.085 361.853 174.561 361.621C173.822 361.652 167.328 362.078 167.19 367.527C167.174 367.79 166.974 373.301 172.145 374.758V374.774Z" fill="#B0AED1"/>
</g>
<path d="M192.758 92.0912C193.523 90.7339 195.477 90.7339 196.242 92.0911L199.923 98.6205C200.208 99.1269 200.699 99.484 201.269 99.599L208.616 101.081C210.144 101.39 210.748 103.248 209.693 104.395L204.621 109.913C204.227 110.341 204.039 110.919 204.106 111.496L204.967 118.942C205.146 120.49 203.564 121.639 202.148 120.99L195.332 117.871C194.804 117.629 194.196 117.629 193.668 117.871L186.852 120.99C185.436 121.639 183.854 120.49 184.033 118.942L184.894 111.496C184.961 110.919 184.773 110.341 184.379 109.913L179.307 104.395C178.252 103.248 178.856 101.39 180.384 101.081L187.731 99.599C188.301 99.484 188.792 99.1269 189.077 98.6205L192.758 92.0912Z" fill="#9593B2"/>
<path d="M479.258 103.091C480.023 101.734 481.977 101.734 482.742 103.091L486.423 109.621C486.708 110.127 487.199 110.484 487.769 110.599L495.116 112.081C496.644 112.39 497.248 114.248 496.193 115.395L491.121 120.913C490.727 121.341 490.539 121.919 490.606 122.496L491.467 129.942C491.646 131.49 490.064 132.639 488.648 131.99L481.832 128.871C481.304 128.629 480.696 128.629 480.168 128.871L473.352 131.99C471.936 132.639 470.354 131.49 470.533 129.942L471.394 122.496C471.461 121.919 471.273 121.341 470.879 120.913L465.807 115.395C464.752 114.248 465.356 112.39 466.884 112.081L474.231 110.599C474.801 110.484 475.292 110.127 475.577 109.621L479.258 103.091Z" fill="#9593B2"/>
<path d="M356.5 180C339.928 180 326.5 193.88 326.5 211C326.5 228.12 339.928 242 356.5 242C373.072 242 386.5 228.12 386.5 211C386.5 193.88 373.061 180 356.5 180ZM330.905 205.578C330.905 202.348 333.31 199.734 336.272 199.734C339.233 199.734 341.639 202.348 341.639 205.578C341.639 208.807 339.233 211.421 336.272 211.421C333.31 211.421 330.905 208.807 330.905 205.578ZM343.424 232.83C339.854 232.83 336.956 229.838 336.956 226.154C336.956 222.471 339.854 219.479 343.424 219.479C346.995 219.479 349.893 222.471 349.893 226.154C349.893 229.838 346.995 232.83 343.424 232.83ZM349.893 193.07C349.893 189.235 352.726 186.114 356.222 186.114C359.718 186.114 362.551 189.224 362.551 193.07C362.551 196.915 359.718 200.026 356.222 200.026C352.726 200.026 349.893 196.915 349.893 193.07ZM361.172 234.774C359.344 234.774 357.868 233.337 357.868 231.577C357.868 229.816 359.344 228.379 361.172 228.379C363 228.379 364.476 229.816 364.476 231.577C364.476 233.337 363 234.774 361.172 234.774ZM361.45 224.21C357.045 224.21 353.474 220.538 353.474 216.012C353.474 211.486 357.045 207.814 361.45 207.814C365.855 207.814 369.426 211.486 369.426 216.012C369.426 220.538 365.855 224.21 361.45 224.21ZM374.665 205.308C372.537 205.308 370.816 203.623 370.816 201.549C370.816 199.475 372.537 197.801 374.665 197.801C376.792 197.801 378.514 199.486 378.514 201.549C378.514 203.612 376.792 205.308 374.665 205.308Z" fill="#9593B2"/>
<path d="M87.7577 149.091C88.5227 147.734 90.4773 147.734 91.2423 149.091L94.9225 155.621C95.2079 156.127 95.6995 156.484 96.2693 156.599L103.616 158.081C105.144 158.39 105.748 160.248 104.693 161.395L99.6206 166.913C99.2272 167.341 99.0394 167.919 99.1061 168.496L99.9666 175.942C100.146 177.49 98.5643 178.639 97.1475 177.99L90.3323 174.871C89.8038 174.629 89.1962 174.629 88.6677 174.871L81.8525 177.99C80.4357 178.639 78.8545 177.49 79.0334 175.942L79.8939 168.496C79.9606 167.919 79.7728 167.341 79.3794 166.913L74.3069 161.395C73.2525 160.248 73.8564 158.39 75.3837 158.081L82.7307 156.599C83.3005 156.484 83.7921 156.127 84.0775 155.621L87.7577 149.091Z" fill="#9593B2"/>
<path d="M50.7577 95.0912C51.5227 93.7339 53.4773 93.7339 54.2423 95.0911L57.9225 101.621C58.2079 102.127 58.6995 102.484 59.2693 102.599L66.6163 104.081C68.1435 104.39 68.7475 106.248 67.6931 107.395L62.6206 112.913C62.2272 113.341 62.0394 113.919 62.1061 114.496L62.9666 121.942C63.1455 123.49 61.5643 124.639 60.1475 123.99L53.3323 120.871C52.8038 120.629 52.1962 120.629 51.6677 120.871L44.8525 123.99C43.4357 124.639 41.8545 123.49 42.0334 121.942L42.8939 114.496C42.9606 113.919 42.7728 113.341 42.3794 112.913L37.3069 107.395C36.2525 106.248 36.8564 104.39 38.3837 104.081L45.7307 102.599C46.3005 102.484 46.7921 102.127 47.0775 101.621L50.7577 95.0912Z" fill="#9593B2"/>
<path d="M1070.26 57.0912C1071.02 55.7339 1072.98 55.7339 1073.74 57.0911L1077.58 63.9021C1077.87 64.4084 1078.36 64.7656 1078.93 64.8805L1086.59 66.4269C1088.12 66.735 1088.72 68.5939 1087.67 69.7409L1082.38 75.4966C1081.98 75.9245 1081.8 76.5024 1081.86 77.0798L1082.76 84.8464C1082.94 86.3942 1081.36 87.543 1079.94 86.8946L1072.83 83.6409C1072.3 83.399 1071.7 83.399 1071.17 83.6409L1064.06 86.8946C1062.64 87.543 1061.06 86.3942 1061.24 84.8464L1062.14 77.0798C1062.2 76.5024 1062.02 75.9245 1061.62 75.4966L1056.33 69.7409C1055.28 68.5939 1055.88 66.735 1057.41 66.4269L1065.07 64.8805C1065.64 64.7656 1066.13 64.4084 1066.42 63.9021L1070.26 57.0912Z" fill="#9593B2"/>
<path d="M1230.75 64.1948C1231.51 62.8111 1233.49 62.8111 1234.25 64.1948L1237.93 70.8906C1238.21 71.4038 1238.7 71.7679 1239.28 71.8867L1246.69 73.424C1248.2 73.7368 1248.81 75.5677 1247.78 76.7163L1242.6 82.5031C1242.22 82.9277 1242.04 83.4943 1242.1 84.0606L1242.97 91.8155C1243.15 93.3701 1241.55 94.5146 1240.14 93.8491L1233.35 90.6599C1232.81 90.4066 1232.19 90.4066 1231.65 90.6599L1224.86 93.8491C1223.45 94.5146 1221.85 93.3701 1222.03 91.8155L1222.9 84.0606C1222.96 83.4943 1222.78 82.9277 1222.4 82.5031L1217.22 76.7163C1216.19 75.5677 1216.8 73.7368 1218.31 73.424L1225.72 71.8867C1226.3 71.7679 1226.79 71.4038 1227.07 70.8906L1230.75 64.1948Z" fill="#9593B2"/>
<path d="M1155.26 95.0912C1156.02 93.7339 1157.98 93.7339 1158.74 95.0911L1162.58 101.902C1162.87 102.408 1163.36 102.766 1163.93 102.881L1171.59 104.427C1173.12 104.735 1173.72 106.594 1172.67 107.741L1167.38 113.497C1166.98 113.925 1166.8 114.502 1166.86 115.08L1167.76 122.846C1167.94 124.394 1166.36 125.543 1164.94 124.895L1157.83 121.641C1157.3 121.399 1156.7 121.399 1156.17 121.641L1149.06 124.895C1147.64 125.543 1146.06 124.394 1146.24 122.846L1147.14 115.08C1147.2 114.502 1147.02 113.925 1146.62 113.497L1141.33 107.741C1140.28 106.594 1140.88 104.735 1142.41 104.427L1150.07 102.881C1150.64 102.766 1151.13 102.408 1151.42 101.902L1155.26 95.0912Z" fill="#9593B2"/>
<path d="M821.644 358.737C821.644 358.737 799.485 394.507 809.712 400.339C809.712 400.339 818.399 403.583 822.449 386.386C822.449 386.386 816.612 400.98 822.776 402.438C822.776 402.438 829.43 406.172 833.494 388.484C833.494 388.484 829.43 402.915 836.576 402.915C836.576 402.915 843.394 405.191 846.149 386.208C846.149 386.208 844.69 400.162 852.149 400.803C852.149 400.803 858.967 402.751 860.099 386.045C860.099 386.045 858.64 400.639 865.622 400.476C865.622 400.476 871.458 401.13 870.163 385.391C870.163 385.391 871.458 399.508 876.654 399.181C876.654 399.181 882.981 400.966 880.717 385.227C880.717 385.227 882.34 398.854 889.963 397.723C889.963 397.723 902.781 396.429 887.522 372.091L878.113 356.679L821.63 358.709L821.644 358.737Z" fill="#D0CEE8"/>
<path d="M848.481 328.06C848.481 328.06 828.518 326.997 813.013 353.528C813.013 353.528 802.499 368.845 809.277 372.579C809.277 372.579 817.118 378.806 823.172 361.718C823.172 361.718 818.181 374.718 823.172 375.604C823.172 375.604 830.481 378.806 833.863 361.895C833.863 361.895 830.304 377.035 837.068 376.858C837.068 376.858 844.022 378.997 845.795 361.364C845.795 361.364 843.3 376.503 849.177 376.68C849.177 376.68 855.409 378.465 856.486 361.718C856.486 361.718 855.245 375.072 862.009 375.072C862.009 375.072 867.709 377.92 867.532 360.819C867.532 360.819 867.886 374.895 877.159 373.996C877.159 373.996 883.759 375.781 880.364 361.173C880.364 361.173 883.568 373.287 889.814 371.325C889.814 371.325 898.718 368.123 886.077 346.388C886.077 346.388 870.75 322.882 848.468 328.046L848.481 328.06Z" fill="#C6C4E0"/>
<path d="M851.167 302.263C851.167 302.263 824.63 302.263 814.403 328.781C814.403 328.781 808.798 342.653 812.944 345.324C812.944 345.324 819.435 351.851 827.098 332.624C827.098 332.624 818.194 348.649 824.071 350.788C824.071 350.788 833.521 356.662 838.335 334.409C838.335 334.409 834.598 348.486 841.539 349.903C841.539 349.903 850.09 353.282 852.23 332.624C852.23 332.624 849.558 347.586 856.867 348.649C856.867 348.649 863.644 351.143 863.467 331.902C863.467 331.902 862.935 347.927 869.699 347.573C869.699 347.573 877.54 350.775 873.981 331.193C873.981 331.193 875.59 346.155 883.608 345.447C883.608 345.447 893.058 344.207 885.749 322.826C885.749 322.826 874.717 300.219 851.18 302.263H851.167Z" fill="#BAB8D5"/>
<path d="M851.85 278.542C851.85 278.542 830.918 278.051 818.987 304.092C818.987 304.092 814.609 313.903 818.168 315.525C818.168 315.525 821.577 319.736 832.132 306.123C832.132 306.123 820.609 319.095 824.509 321.698C824.509 321.698 828.573 327.694 840.259 308.889C840.259 308.889 834.423 319.599 841.228 321.862C841.228 321.862 848.537 325.105 851.946 308.562C851.946 308.562 848.373 322.025 854.864 323.32C854.864 323.32 861.191 324.778 862.978 307.908C862.978 307.908 861.191 321.862 866.387 322.338C866.387 322.338 872.878 323.96 871.746 307.744C871.746 307.744 873.205 320.39 880.187 319.586C880.187 319.586 891.71 317.31 879.86 295.425C879.86 295.425 869.469 276.607 851.864 278.555L851.85 278.542Z" fill="#B0AED1"/>
<path d="M847.88 259.401C847.88 259.401 819.639 269.689 823.348 282.975C823.348 282.975 824.425 288.235 835.471 279.65C835.471 279.65 821.18 289.134 826.034 293.181C826.034 293.181 830.071 296.752 839.289 284.992C839.289 284.992 833.166 295.253 839.834 296.602C839.834 296.602 848.902 298.837 850.034 283.397C850.034 283.397 847.88 294.939 852.871 294.953C852.871 294.953 859.089 295.784 858.257 283.248C858.257 283.248 858.23 294.926 864.08 294.081C864.08 294.081 869.303 296.179 867.134 280.331C867.134 280.331 870.203 292.241 877.43 288.358C877.43 288.358 884.794 280.631 870.598 270.179C870.598 270.179 855.993 256.471 847.921 259.414L847.88 259.401Z" fill="#9593B2"/>
<path d="M1019.61 419.678C1019.61 419.678 1026.1 411.915 1048.46 412.736C1069.77 413.509 1058.86 399.229 1058.86 399.229C1058.86 399.229 1046.49 386.824 1026.63 402.173C1026.63 402.173 1028.77 390.531 1045.94 389.444C1045.94 389.444 1063.99 392.662 1064.2 381.936C1064.42 371.211 1036.96 374.248 1031.14 379.375C1025.33 384.503 1038.93 365.345 1052.6 360.604C1052.61 360.609 1062.69 351.402 1050.53 346.267C1050.53 346.267 1041.1 341.311 1030.96 365.308C1030.96 365.308 1036.71 340.155 1016.14 338.433C1016.14 338.433 1010.26 340.336 1010.2 349.514C1010.2 349.514 1013.75 356.373 1020.87 363.321C1020.87 363.321 1028.36 370.383 1025.35 377.719C1025.35 377.719 1014.08 357.704 997.136 364.885C997.136 364.885 986.588 374.328 1001.49 379.628C1001.49 379.628 1022.99 382.072 1019.37 402.386C1019.37 402.386 1015.76 386.694 996.734 385.133C996.734 385.133 988.394 384.964 990.873 398.248C990.873 398.248 993.763 402.478 1004.51 407.094C1015.26 411.71 1013.94 417.644 1013.94 417.644L1019.62 419.664L1019.61 419.678Z" fill="#9593B2"/>
<path d="M72.2651 449.127C72.2651 449.127 74.7663 439.753 94.542 431.422C113.382 423.475 98.1165 415.473 98.1165 415.473C98.1165 415.473 82.3414 409.691 71.2873 431.067C71.2873 431.067 68.4376 420.08 82.9283 412.189C82.9283 412.189 99.9215 407.687 95.7683 398.275C91.6152 388.863 68.9667 402.612 65.9851 409.422C63.0035 416.232 67.0796 394.073 77.0509 384.42C77.0648 384.419 82.1017 372.338 69.4488 372.793C69.4488 372.793 59.243 372.299 60.1367 397.264C60.1367 397.264 54.9612 373.068 36.3825 379.891C36.3825 379.891 32.0409 383.923 35.6956 391.93C35.6956 391.93 41.5598 396.456 50.5646 399.616C50.5646 399.616 59.9313 402.727 60.2786 410.325C60.2786 410.325 42.3885 397.478 30.557 410.578C30.557 410.578 25.205 423.055 40.3038 421.637C40.3038 421.637 59.9909 415.063 65.0568 434.191C65.0568 434.191 55.5707 422.008 38.3977 428.346C38.3977 428.346 31.0777 431.572 38.6066 442.12C38.6066 442.12 42.8299 444.629 54.0429 444.295C65.2559 443.961 66.5093 449.654 66.5093 449.654L72.2638 449.113L72.2651 449.127Z" fill="#9593B2"/>
<path d="M218.612 354.623C218.612 354.623 220.883 337.523 212.59 331.674C208.708 328.921 203.004 330.138 200.68 334.321C200.363 334.903 200.099 335.538 199.914 336.226" fill="#9593B2"/>
<path d="M230.178 351.552C230.178 351.552 235.961 330.774 224.737 329.424C224.737 329.424 216.577 327.73 214.887 336.915" fill="#9593B2"/>
<path d="M228.145 332.494C228.145 332.494 232.556 324.659 244.466 332.494C256.377 340.329 222.705 388.026 222.705 388.026L208.418 386.332C208.418 386.332 207.071 363.516 187.343 354.993C167.615 346.47 192.44 318.545 205.011 343.399C205.011 343.399 208.074 350.546 209.078 355.31" fill="#9593B2"/>
<path d="M229.489 334.876H200.254V357.692H229.489V334.876Z" fill="#9593B2"/>
<path d="M223 344H211V443H223V344Z" fill="#9593B2"/>
<path d="M1042.15 189.15L1047.3 198.93L1037 200.99L1045.75 204.59L1040.09 214.37L1051.41 207.17L1052.96 216.95L1057.59 208.71L1064.8 215.4L1061.2 204.08L1072.01 203.05L1061.2 198.93L1067.89 189.15L1056.05 195.33L1052.96 184L1050.9 194.3L1042.15 189.15Z" fill="#9593B2"/>
<path d="M225.473 127.909L234.446 144.827L216.5 148.391L231.746 154.619L221.884 171.537L241.607 159.082L244.308 176L252.375 161.746L264.938 173.319L258.665 153.736L277.5 151.954L258.665 144.827L270.321 127.909L249.692 138.6L244.308 119L240.719 136.818L225.473 127.909Z" fill="#9593B2"/>
<g clip-path="url(#clip4_4784_64055)">
<path d="M904.5 170C921.345 170 935 156.345 935 139.5C935 122.655 921.345 109 904.5 109C887.655 109 874 122.655 874 139.5C874 156.345 887.655 170 904.5 170Z" fill="#9593B2"/>
<path d="M955.542 111.941C955.542 111.941 949.693 103.473 924.099 115.275C925.878 116.689 927.503 118.289 928.929 120.05C934.211 117.583 941.259 115.435 945.769 118.636C949.573 121.337 943.131 128.085 935.35 134.4C926.83 141.321 916.704 147.73 916.704 147.73C916.704 147.73 897.106 157.539 882.577 160.406C875.535 161.793 869.686 161.553 867.834 157.772C867.834 157.772 867.521 152.611 875.056 147.163C874.376 144.636 874.003 141.975 874.003 139.234C874.003 139.234 854.458 152.624 858.568 164.207C861.199 171.609 874.649 171.442 890.591 166.394C899.597 163.54 909.397 159.132 918.496 153.651C918.496 153.651 926.644 149.483 935.444 143.355C947.854 134.72 961.558 122.184 955.535 111.941H955.542Z" fill="#B0AED1"/>
</g>
<defs>
<clipPath id="clip0_4784_64055">
<rect width="347" height="392" fill="white" transform="translate(467 21)"/>
</clipPath>
<clipPath id="clip1_4784_64055">
<rect width="71.938" height="155.452" fill="white" transform="translate(247.023 441.888) rotate(-100.429)"/>
</clipPath>
<clipPath id="clip2_4784_64055">
<rect width="71.938" height="155.452" fill="white" transform="translate(1063 437.4) rotate(-82.9862)"/>
</clipPath>
<clipPath id="clip3_4784_64055">
<rect width="78" height="145" fill="white" transform="translate(107 318)"/>
</clipPath>
<clipPath id="clip4_4784_64055">
<rect width="99" height="62" fill="white" transform="translate(858 108)"/>
</clipPath>
</defs>
</svg>
