<svg width="1283" height="610" viewBox="0 0 1283 610" fill="none" xmlns="http://www.w3.org/2000/svg">
<path d="M1086.58 567.912C983.567 552.985 934.031 540.521 870.422 537.848C539.434 507.785 331.148 563.131 228.711 573.423C-90.4565 605.49 14.2427 610 27.7529 610H1258.83C1258.83 610 1377.04 610 1086.58 567.912Z" fill="#E7FCE3"/>
<g clip-path="url(#clip0_4763_36980)">
<path d="M114.624 466.67C114.474 466.67 114.324 466.67 114.184 466.64C112.924 466.47 111.864 465.62 111.434 464.42C109.074 457.82 107.354 431.21 107.174 428.2C107.054 426.33 108.474 424.72 110.354 424.6C112.224 424.49 113.834 425.9 113.954 427.78C114.454 435.71 115.384 447.08 116.424 454.75L132.214 431.94C133.284 430.4 135.394 430.02 136.934 431.08C138.474 432.15 138.864 434.26 137.794 435.8L117.434 465.21C116.794 466.13 115.744 466.67 114.644 466.67H114.624Z" fill="#E7FCE3"/>
<path d="M116.434 596.08C114.584 596.08 113.064 594.59 113.044 592.73C112.974 587.32 111.234 460.11 111.234 458.75C111.234 456.88 112.754 455.36 114.624 455.36C116.494 455.36 118.014 456.88 118.014 458.75C118.014 460.48 119.804 591.32 119.824 592.64C119.854 594.51 118.354 596.05 116.474 596.08H116.424H116.434Z" fill="#E7FCE3"/>
<path d="M113.714 487.03C112.974 487.03 112.234 486.79 111.614 486.3C107.664 483.18 103.154 476.7 98.1938 467.03C94.6038 460.02 92.1238 453.95 92.0238 453.7C91.3138 451.96 92.1538 449.98 93.8838 449.28C95.6238 448.57 97.6038 449.41 98.3038 451.14C100.984 457.71 109.344 475.87 115.814 480.98C117.284 482.14 117.534 484.28 116.374 485.75C115.704 486.6 114.714 487.04 113.704 487.04L113.714 487.03Z" fill="#E7FCE3"/>
<path d="M115.144 487.57C114.154 487.57 113.184 487.14 112.504 486.32C111.324 484.87 111.544 482.73 112.994 481.55C113.204 481.38 133.784 464.6 146.834 449.2C148.044 447.77 150.184 447.59 151.614 448.8C153.044 450.01 153.224 452.15 152.014 453.58C138.544 469.48 118.144 486.12 117.274 486.82C116.644 487.33 115.884 487.58 115.134 487.58L115.144 487.57Z" fill="#E7FCE3"/>
<path d="M114.624 512.14C113.244 512.14 111.944 511.29 111.434 509.92C108.314 501.42 85.1638 477.74 76.5038 469.33C75.1638 468.02 75.1238 465.88 76.4338 464.53C77.7438 463.19 79.8838 463.15 81.2338 464.46C84.5338 467.66 113.584 496.1 117.804 507.58C118.454 509.34 117.544 511.29 115.784 511.94C115.394 512.08 115.004 512.15 114.614 512.15L114.624 512.14Z" fill="#E7FCE3"/>
<path d="M115.984 537.03C115.804 537.03 115.634 537.02 115.454 536.99C113.604 536.7 112.334 534.96 112.634 533.11C115.434 515.36 145.834 471.14 147.134 469.27C148.194 467.73 150.314 467.34 151.854 468.4C153.394 469.46 153.784 471.58 152.724 473.12C152.644 473.23 144.864 484.53 136.864 497.75C123.694 519.51 120.074 529.56 119.344 534.16C119.084 535.83 117.634 537.02 115.994 537.02L115.984 537.03Z" fill="#E7FCE3"/>
<path d="M114.394 531.15C112.744 531.15 111.314 529.95 111.054 528.3C110.024 525.28 96.9638 510.42 76.7338 490.58C75.3938 489.27 75.3738 487.12 76.6838 485.78C77.9938 484.44 80.1438 484.42 81.4838 485.73C81.5738 485.82 90.2838 494.36 98.9638 503.49C117.214 522.69 117.584 525.71 117.774 527.34C117.994 529.2 116.674 530.89 114.804 531.11C114.664 531.13 114.534 531.13 114.394 531.13V531.15ZM111.034 528.16C111.034 528.16 111.034 528.21 111.034 528.23C111.034 528.21 111.034 528.18 111.034 528.16Z" fill="#E7FCE3"/>
<path d="M90.6728 441.7C90.6728 441.7 79.4628 441.8 79.2928 448.45C79.2928 448.45 78.8728 454.91 87.1728 456.64C87.1728 456.64 98.5928 458.64 100.073 451.83C100.073 451.83 103.953 442.6 90.6828 441.7H90.6728Z" fill="#D1F5CA"/>
<path d="M90.7728 458.45C88.6328 458.45 86.9928 458.17 86.9028 458.15C79.2928 456.56 77.6028 451.09 77.7728 448.39C77.8428 445.99 79.0928 442.8 84.6028 441.13C87.6028 440.22 90.5328 440.19 90.6628 440.18H90.7828C95.8728 440.53 99.3128 442.1 101.003 444.85C102.943 448 101.813 451.52 101.523 452.28C100.963 454.69 99.0528 457.64 93.2328 458.31C92.3828 458.41 91.5428 458.45 90.7728 458.45ZM90.6328 443.23C90.2428 443.23 87.8128 443.33 85.4328 444.06C82.4128 444.99 80.8628 446.48 80.8128 448.5V448.56C80.7828 449.08 80.7628 453.76 87.4728 455.16C87.5228 455.16 97.4228 456.82 98.5728 451.52L98.6028 451.38L98.6528 451.25C98.6528 451.25 99.7228 448.57 98.3928 446.43C97.2628 444.61 94.5728 443.51 90.6328 443.23Z" fill="#D1F5CA"/>
<path d="M135.003 423.47C135.003 423.47 121.553 423.64 121.773 434.81C121.773 434.81 120.693 447.22 132.073 448.77C132.073 448.77 143.953 450.59 147.283 439.51C147.283 439.51 153.503 424.19 135.003 423.47Z" fill="#D1F5CA"/>
<path d="M134.083 450.44C133.263 450.44 132.503 450.38 131.843 450.28C121.783 448.91 119.863 439.58 120.243 434.76C120.193 431.43 121.233 428.65 123.323 426.49C127.573 422.1 134.673 421.96 134.973 421.95H135.053C141.403 422.2 145.783 424.13 148.073 427.68C151.353 432.77 149.023 439.21 148.713 440.01C146.183 448.32 138.963 450.43 134.073 450.43L134.083 450.44ZM134.993 424.99C134.503 425.01 128.743 425.26 125.513 428.61C123.973 430.21 123.253 432.22 123.303 434.78V434.94C123.263 435.38 122.513 445.93 132.293 447.26C132.743 447.33 142.943 448.72 145.833 439.07L145.883 438.93C145.903 438.88 148.103 433.28 145.523 429.31C143.803 426.65 140.263 425.2 134.993 424.98V424.99Z" fill="#D1F5CA"/>
<path d="M76.8728 459.45C76.8728 459.45 65.9528 459.68 65.7328 468.56C65.7328 468.56 65.2628 477.18 73.3228 479.41C73.3228 479.41 84.4228 481.97 85.9228 472.88C85.9228 472.88 89.7928 460.54 76.8728 459.45Z" fill="#D1F5CA"/>
<path d="M76.6628 481.26C74.6328 481.26 73.1028 480.92 72.9728 480.89L72.9128 480.87C65.6028 478.85 64.0228 471.88 64.2028 468.47C64.4028 460.34 72.5528 458.01 76.8328 457.92H76.9928C81.2928 458.28 84.3928 459.84 86.2228 462.56C89.0828 466.81 87.6528 472.33 87.4028 473.2C86.9328 475.94 85.6428 478.03 83.5728 479.42C81.3928 480.88 78.7628 481.24 76.6628 481.24V481.26ZM73.6828 477.93C74.0728 478.01 78.8328 478.96 81.8828 476.9C83.2628 475.97 84.0928 474.57 84.4128 472.62L84.4628 472.41C84.4628 472.41 85.9228 467.56 83.6828 464.25C82.4028 462.36 80.1028 461.26 76.8228 460.96C75.8628 461 67.4228 461.55 67.2428 468.58C67.2228 468.92 66.9628 476.03 73.6828 477.91V477.93Z" fill="#D1F5CA"/>
<path d="M154.453 440.86C154.453 440.86 143.533 441.09 143.313 449.97C143.313 449.97 142.843 458.59 150.903 460.82C150.903 460.82 162.003 463.38 163.503 454.29C163.503 454.29 167.373 441.95 154.453 440.86Z" fill="#D1F5CA"/>
<path d="M154.243 462.67C152.213 462.67 150.683 462.33 150.553 462.3L150.493 462.28C143.183 460.25 141.603 453.28 141.783 449.88C141.983 441.75 150.133 439.42 154.413 439.33H154.573C158.873 439.69 161.973 441.25 163.803 443.97C166.663 448.22 165.233 453.74 164.983 454.61C164.513 457.35 163.223 459.44 161.153 460.83C158.973 462.29 156.343 462.65 154.243 462.65V462.67ZM151.273 459.34C151.663 459.42 156.423 460.37 159.473 458.31C160.853 457.38 161.683 455.98 162.003 454.03L162.053 453.82C162.053 453.82 163.513 448.97 161.273 445.66C159.993 443.77 157.693 442.67 154.413 442.37C153.453 442.41 145.013 442.96 144.833 449.99C144.813 450.33 144.553 457.44 151.273 459.32V459.34Z" fill="#D1F5CA"/>
<path d="M78.4928 483.9C78.4928 483.9 67.2828 484 67.1128 490.65C67.1128 490.65 66.6928 497.11 74.9928 498.84C74.9928 498.84 86.4128 500.84 87.8928 494.03C87.8928 494.03 91.7728 484.8 78.5028 483.9H78.4928Z" fill="#D1F5CA"/>
<path d="M78.5928 500.64C76.4528 500.64 74.8128 500.36 74.7228 500.34C67.1128 498.75 65.4228 493.28 65.5928 490.58C65.6628 488.18 66.9128 484.99 72.4228 483.32C75.4228 482.41 78.3528 482.38 78.4828 482.37H78.6028C83.6928 482.72 87.1328 484.29 88.8228 487.04C90.7628 490.19 89.6328 493.71 89.3428 494.47C88.7828 496.88 86.8728 499.83 81.0528 500.5C80.2028 500.6 79.3628 500.64 78.5928 500.64ZM78.4528 485.42C78.0628 485.42 75.6328 485.52 73.2528 486.25C70.2328 487.18 68.6828 488.67 68.6328 490.69V490.75C68.6028 491.27 68.5828 495.95 75.2928 497.35C75.3428 497.35 85.2428 499.01 86.3928 493.71L86.4228 493.57L86.4728 493.44C86.4728 493.44 87.5428 490.76 86.2128 488.62C85.0828 486.8 82.3928 485.7 78.4528 485.42Z" fill="#D1F5CA"/>
<path d="M108.713 410.52C108.713 410.52 95.2628 410.69 95.4828 421.86C95.4828 421.86 94.4028 434.27 105.783 435.82C105.783 435.82 117.663 437.64 120.993 426.56C120.993 426.56 127.213 411.24 108.713 410.52Z" fill="#D1F5CA"/>
<path d="M107.793 437.49C106.973 437.49 106.213 437.43 105.553 437.33C95.4928 435.96 93.5728 426.63 93.9528 421.81C93.9028 418.48 94.9428 415.7 97.0328 413.54C101.293 409.14 108.393 409 108.693 409H108.773C115.123 409.25 119.503 411.18 121.793 414.73C125.073 419.82 122.743 426.26 122.433 427.06C119.903 435.37 112.683 437.48 107.793 437.48V437.49ZM108.703 412.05C108.213 412.07 102.453 412.32 99.2228 415.67C97.6828 417.27 96.9628 419.28 97.0128 421.84V422C96.9728 422.44 96.2228 432.99 106.003 434.32C106.453 434.39 116.653 435.78 119.543 426.13L119.593 425.99C119.613 425.94 121.813 420.34 119.233 416.37C117.513 413.71 113.973 412.26 108.703 412.04V412.05Z" fill="#D1F5CA"/>
<path d="M152.033 463.77C152.033 463.77 141.113 464 140.893 472.88C140.893 472.88 140.423 481.5 148.483 483.73C148.483 483.73 159.583 486.29 161.083 477.2C161.083 477.2 164.953 464.86 152.033 463.77Z" fill="#D1F5CA"/>
<path d="M151.833 485.59C149.803 485.59 148.273 485.25 148.143 485.22L148.083 485.2C140.773 483.17 139.193 476.2 139.373 472.8C139.573 464.67 147.723 462.34 152.003 462.25H152.163C156.463 462.61 159.563 464.17 161.393 466.89C164.253 471.14 162.823 476.66 162.573 477.53C162.103 480.27 160.813 482.36 158.743 483.75C156.563 485.21 153.933 485.57 151.833 485.57V485.59ZM148.853 482.25C149.243 482.33 154.003 483.28 157.053 481.22C158.433 480.29 159.263 478.89 159.583 476.94L159.633 476.73C159.633 476.73 161.093 471.88 158.853 468.57C157.573 466.68 155.273 465.58 151.993 465.28C151.033 465.32 142.593 465.87 142.413 472.9C142.393 473.24 142.133 480.35 148.853 482.23V482.25Z" fill="#D1F5CA"/>
</g>
<mask id="path-4-outside-1_4763_36980" maskUnits="userSpaceOnUse" x="23.3398" y="556" width="50" height="44" fill="black">
<rect fill="white" x="23.3398" y="556" width="50" height="44"/>
<path fill-rule="evenodd" clip-rule="evenodd" d="M57.3323 570.326C55.1132 566.876 47.2343 555.737 40.4444 559.931C40.4444 559.931 36.007 562.103 36.7198 567.788C24.4709 573.134 26.2896 585.536 27.0466 587.787C27.6243 589.455 26.3398 592.607 26.3398 592.607C28.544 591.748 31.4464 593.676 31.4464 593.676C43.23 601.556 52.2717 592.757 53.3905 591.587C56.0273 593.207 58.5438 593.596 60.5778 591.895C66.7947 586.694 62.7004 578.991 58.3898 572.037L58.8626 572.647C58.8626 572.647 70.4136 569.416 69.6014 566.071C68.8486 562.971 58.7982 569.373 57.3323 570.326Z"/>
</mask>
<path fill-rule="evenodd" clip-rule="evenodd" d="M57.3323 570.326C55.1132 566.876 47.2343 555.737 40.4444 559.931C40.4444 559.931 36.007 562.103 36.7198 567.788C24.4709 573.134 26.2896 585.536 27.0466 587.787C27.6243 589.455 26.3398 592.607 26.3398 592.607C28.544 591.748 31.4464 593.676 31.4464 593.676C43.23 601.556 52.2717 592.757 53.3905 591.587C56.0273 593.207 58.5438 593.596 60.5778 591.895C66.7947 586.694 62.7004 578.991 58.3898 572.037L58.8626 572.647C58.8626 572.647 70.4136 569.416 69.6014 566.071C68.8486 562.971 58.7982 569.373 57.3323 570.326Z" fill="#E7FCE3"/>
<path d="M40.4444 559.931L41.7633 562.625C41.8514 562.582 41.9373 562.535 42.0208 562.483L40.4444 559.931ZM57.3323 570.326L54.8092 571.949C55.2409 572.62 55.9224 573.092 56.7028 573.259C57.4832 573.427 58.2981 573.276 58.9673 572.841L57.3323 570.326ZM36.7198 567.788L37.9199 570.538C39.1389 570.006 39.862 568.735 39.6965 567.415L36.7198 567.788ZM27.0466 587.787L24.2032 588.744C24.206 588.752 24.2089 588.761 24.2119 588.769L27.0466 587.787ZM26.3398 592.607L23.5617 591.475C23.1093 592.585 23.3612 593.858 24.2024 594.712C25.0436 595.566 26.3125 595.837 27.4295 595.402L26.3398 592.607ZM31.4464 593.676L33.1141 591.183L33.1069 591.178L31.4464 593.676ZM53.3905 591.587L54.9607 589.031C53.7566 588.291 52.1996 588.492 51.2227 589.514L53.3905 591.587ZM60.5778 591.895L62.5026 594.196L60.5778 591.895ZM58.3898 572.037L60.7611 570.199C59.7835 568.937 57.9893 568.662 56.6785 569.573C55.3676 570.483 54.9991 572.26 55.8399 573.617L58.3898 572.037ZM58.8626 572.647L56.4913 574.484C57.2387 575.449 58.4956 575.864 59.6706 575.536L58.8626 572.647ZM69.6014 566.071L66.6861 566.779L66.6861 566.779L69.6014 566.071ZM42.0208 562.483C42.884 561.95 43.7459 561.872 44.7888 562.179C45.9368 562.516 47.2484 563.321 48.634 564.526C51.4008 566.932 53.7406 570.287 54.8092 571.949L59.8554 568.703C58.7049 566.914 55.9957 562.976 52.5708 559.998C50.8606 558.511 48.7907 557.102 46.4823 556.423C44.069 555.713 41.3997 555.815 38.8679 557.378L42.0208 562.483ZM39.6965 567.415C39.4555 565.493 40.0655 564.329 40.6416 563.621C40.9525 563.239 41.2789 562.964 41.5188 562.791C41.6368 562.706 41.7275 562.65 41.7752 562.621C41.7988 562.608 41.8111 562.601 41.81 562.602C41.8094 562.602 41.8054 562.604 41.7977 562.608C41.7939 562.61 41.7891 562.612 41.7834 562.615C41.7805 562.617 41.7774 562.618 41.7741 562.62C41.7724 562.621 41.7706 562.622 41.7688 562.622C41.7679 562.623 41.7665 562.624 41.7661 562.624C41.7647 562.625 41.7633 562.625 40.4444 559.931C39.1255 557.236 39.124 557.237 39.1225 557.238C39.122 557.238 39.1205 557.239 39.1195 557.239C39.1174 557.24 39.1153 557.241 39.1131 557.242C39.1086 557.244 39.1039 557.247 39.0989 557.249C39.0889 557.254 39.0778 557.26 39.0656 557.266C39.0412 557.279 39.0123 557.294 38.9794 557.311C38.9137 557.346 38.8313 557.392 38.735 557.449C38.5428 557.562 38.2924 557.72 38.0055 557.927C37.4357 558.339 36.6973 558.962 35.9879 559.834C34.5236 561.633 33.2713 564.398 33.7432 568.161L39.6965 567.415ZM29.8901 586.831C29.6766 586.196 29.084 583.11 29.9215 579.655C30.7148 576.383 32.774 572.784 37.9199 570.538L35.5198 565.039C28.4167 568.139 25.2608 573.414 24.0904 578.242C22.9643 582.887 23.6596 587.128 24.2032 588.744L29.8901 586.831ZM26.3398 592.607C29.118 593.739 29.1182 593.738 29.1184 593.738C29.1185 593.738 29.1187 593.737 29.1188 593.737C29.1191 593.736 29.1194 593.735 29.1198 593.735C29.1204 593.733 29.1212 593.731 29.122 593.729C29.1236 593.725 29.1256 593.72 29.1279 593.715C29.1324 593.703 29.1381 593.689 29.1449 593.672C29.1585 593.637 29.1765 593.591 29.1982 593.534C29.2415 593.42 29.2997 593.262 29.3662 593.07C29.498 592.69 29.6689 592.156 29.8204 591.549C29.9696 590.952 30.1157 590.223 30.1717 589.465C30.2249 588.745 30.2162 587.772 29.8814 586.805L24.2119 588.769C24.1659 588.636 24.2132 588.682 24.1881 589.023C24.1657 589.325 24.099 589.696 23.9993 590.095C23.9019 590.485 23.7878 590.843 23.6968 591.106C23.6519 591.236 23.6143 591.337 23.5896 591.402C23.5773 591.435 23.5683 591.458 23.5634 591.47C23.5609 591.476 23.5595 591.48 23.5592 591.481C23.559 591.481 23.5591 591.481 23.5595 591.48C23.5597 591.479 23.56 591.479 23.5604 591.478C23.5606 591.477 23.5608 591.477 23.561 591.476C23.5611 591.476 23.5612 591.476 23.5613 591.476C23.5615 591.475 23.5617 591.475 26.3398 592.607ZM31.4464 593.676C33.1069 591.178 33.1062 591.177 33.1055 591.177C33.1053 591.177 33.1046 591.176 33.1041 591.176C33.1031 591.175 33.102 591.175 33.1009 591.174C33.0987 591.172 33.0964 591.171 33.0938 591.169C33.0887 591.166 33.0828 591.162 33.0762 591.158C33.063 591.149 33.0469 591.139 33.0279 591.126C32.9899 591.102 32.9404 591.071 32.8803 591.034C32.7604 590.961 32.5966 590.865 32.3964 590.756C32.0009 590.54 31.4379 590.259 30.7716 590.01C29.58 589.564 27.4134 588.968 25.2502 589.812L27.4295 595.402C27.4177 595.407 27.5066 595.37 27.76 595.396C28.0134 595.422 28.3252 595.501 28.6679 595.629C29.0027 595.754 29.303 595.903 29.5206 596.021C29.6269 596.079 29.7071 596.127 29.7546 596.156C29.7781 596.17 29.7932 596.18 29.7988 596.183C29.8016 596.185 29.802 596.186 29.7999 596.184C29.7988 596.183 29.7972 596.182 29.7949 596.181C29.7937 596.18 29.7924 596.179 29.7909 596.178C29.7902 596.178 29.7894 596.177 29.7886 596.177C29.7881 596.176 29.7875 596.176 29.7873 596.176C29.7866 596.175 29.786 596.175 31.4464 593.676ZM51.2227 589.514C50.8086 589.946 48.657 592.059 45.4232 593.195C42.3499 594.275 38.1441 594.546 33.114 591.183L29.7788 596.17C36.5324 600.686 42.7392 600.498 47.4123 598.856C51.925 597.27 54.8535 594.398 55.5583 593.661L51.2227 589.514ZM58.6529 589.594C58.2561 589.926 57.8933 590.028 57.425 589.994C56.8603 589.954 56.0416 589.695 54.9607 589.031L51.8203 594.144C53.3762 595.099 55.1341 595.845 56.9953 595.979C58.953 596.119 60.8654 595.565 62.5026 594.196L58.6529 589.594ZM55.8399 573.617C58.017 577.13 59.8474 580.398 60.5066 583.29C60.8243 584.684 60.829 585.832 60.5691 586.792C60.3199 587.712 59.776 588.654 58.6529 589.594L62.5026 594.196C64.488 592.535 65.7637 590.564 66.3605 588.36C66.9468 586.195 66.8242 584.008 66.3566 581.957C65.4452 577.958 63.0732 573.898 60.9398 570.456L55.8399 573.617ZM61.2339 570.809L60.7611 570.199L56.0186 573.874L56.4913 574.484L61.2339 570.809ZM66.6861 566.779C66.4277 565.715 67.296 565.446 66.3946 566.165C65.7324 566.694 64.6476 567.287 63.3286 567.867C62.0518 568.429 60.729 568.904 59.71 569.242C59.2045 569.41 58.7827 569.541 58.4904 569.629C58.3444 569.673 58.2312 569.707 58.1566 569.728C58.1193 569.739 58.0916 569.747 58.0744 569.752C58.0657 569.754 58.0597 569.756 58.0564 569.757C58.0547 569.757 58.0538 569.758 58.0535 569.758C58.0533 569.758 58.0533 569.758 58.0535 569.758C58.0536 569.758 58.0539 569.758 58.0539 569.758C58.0543 569.757 58.0546 569.757 58.8626 572.647C59.6706 575.536 59.671 575.536 59.6715 575.535C59.6718 575.535 59.6723 575.535 59.6727 575.535C59.6736 575.535 59.6747 575.535 59.6759 575.534C59.6784 575.533 59.6816 575.533 59.6855 575.531C59.6933 575.529 59.7038 575.526 59.717 575.523C59.7435 575.515 59.7806 575.504 59.8277 575.491C59.9218 575.463 60.056 575.424 60.2243 575.373C60.5605 575.272 61.0348 575.124 61.5995 574.937C62.7209 574.565 64.2351 574.023 65.7446 573.359C67.2117 572.714 68.8624 571.872 70.1376 570.855C71.1736 570.028 73.1812 568.1 72.5167 565.364L66.6861 566.779ZM58.9673 572.841C59.6809 572.377 62.4235 570.629 65.0268 569.386C66.3741 568.743 67.4319 568.36 68.0677 568.253C68.4093 568.196 68.2882 568.28 67.9461 568.163C67.3836 567.97 66.8475 567.444 66.6861 566.779L72.5167 565.364C72.1672 563.924 71.1523 562.919 69.8903 562.487C68.8488 562.13 67.8076 562.213 67.0781 562.335C65.572 562.587 63.8844 563.283 62.4417 563.972C59.4651 565.393 56.4496 567.322 55.6973 567.811L58.9673 572.841Z" fill="white" mask="url(#path-4-outside-1_4763_36980)"/>
<path d="M57.1547 570.442C57.1547 570.442 68.7895 562.727 69.6017 566.071C70.4138 569.416 58.8629 572.647 58.8629 572.647L57.1547 570.442Z" fill="#D1F5CA"/>
<path d="M57.9415 571.308C57.9415 571.308 48.4384 554.994 40.4446 559.931C40.4446 559.931 33.6312 563.266 38.2462 572.488C42.8611 581.71 54.1381 597.282 60.578 591.895C67.018 586.508 62.3935 578.435 57.9258 571.291L57.9415 571.308Z" fill="#D1F5CA"/>
<path d="M36.8018 567.753C36.8018 567.753 47.6152 574.166 53.5075 591.462C53.5075 591.462 44.044 602.1 31.4467 593.676C31.4467 593.676 28.5443 591.748 26.3401 592.607C26.3401 592.607 27.6246 589.455 27.0469 587.787C26.2882 585.531 24.463 573.079 36.8018 567.753Z" fill="#E7FCE3"/>
<path d="M612.115 9.73121L338.158 124.704C310.799 136.181 293 162.965 293 192.65V515.319C293 556.008 325.968 589 366.644 589H915.356C956.025 589 989 556.016 989 515.319V192.693C989 162.987 971.172 136.188 943.784 124.726L669.02 9.7094C650.815 2.08477 630.313 2.0993 612.108 9.73848L612.115 9.73121Z" fill="#E7FCE3"/>
<mask id="mask0_4763_36980" style="mask-type:alpha" maskUnits="userSpaceOnUse" x="293" y="4" width="696" height="585">
<path d="M338.352 125.165L612.299 10.1962L612.301 10.1995C630.383 2.61218 650.745 2.59781 668.827 10.1706L669.02 9.7094L668.827 10.1706L943.591 125.187C970.793 136.572 988.5 163.189 988.5 192.693V515.319C988.5 555.74 955.749 588.5 915.356 588.5H366.644C326.244 588.5 293.5 555.732 293.5 515.319V192.65C293.5 163.167 311.178 136.564 338.352 125.165L338.352 125.165Z" fill="#E3FAC6" stroke="black"/>
</mask>
<g mask="url(#mask0_4763_36980)">
</g>
<g clip-path="url(#clip1_4763_36980)">
<path d="M1042.36 356.915C1042.36 356.915 1044.8 326.309 1032.05 330.364C1032.05 330.364 1022.84 334.966 1030.7 359.348C1030.7 359.348 1023.65 340.925 1016.86 347.43C1016.86 347.43 1009.27 353.389 1024.18 369.909C1024.18 369.909 1013.61 358.256 1008.72 364.761C1008.72 364.761 1001.13 370.985 1026.62 388.878C1026.62 388.878 1010.35 375.868 1006.29 389.689C1006.29 389.689 1002.23 395.648 1022.56 409.188C1022.56 409.188 1007.65 400.25 1005.21 408.642C1005.21 408.642 1000.06 416.504 1026.9 428.422C1026.9 428.422 1007.65 415.958 1004.12 425.443C1004.12 425.443 1001.4 432.213 1024.18 442.773C1024.18 442.773 1008.18 435.739 1007.36 443.849C1007.36 443.849 1001.95 449.262 1023.64 459.012C1023.64 459.012 1008.18 450.338 1007.91 460.088C1007.91 460.088 1007.36 468.215 1024.45 475.531C1024.45 475.531 1010.35 467.95 1007.91 473.628C1007.91 473.628 1003.85 480.944 1026.9 489.071C1026.9 489.071 1016.86 485.546 1014.71 492.862C1014.71 492.862 1008.19 500.724 1043.17 512.361C1043.17 512.361 1051.04 555.431 1049.69 571.421L1062.71 571.967V508.852C1062.71 508.852 1097.14 503.704 1094.71 493.954C1094.71 493.954 1094.44 482.847 1071.66 493.954C1071.66 493.954 1097.43 486.373 1095.52 476.624C1095.52 476.624 1093.9 466.593 1069.75 478.527C1069.75 478.527 1096.6 467.42 1094.71 458.747C1094.71 458.747 1093.63 445.736 1068.94 459.558C1068.94 459.558 1097.69 448.997 1096.07 440.87C1096.07 440.87 1094.16 429.217 1073.83 441.135C1073.83 441.135 1099.6 431.385 1098.79 426.784C1098.79 426.784 1103.39 413.508 1073.02 428.952C1073.02 428.952 1101.22 415.13 1098.24 408.907C1098.24 408.907 1096.61 396.989 1073.02 409.718C1073.02 409.718 1101.22 396.443 1097.69 389.937C1097.69 389.937 1096.07 377.473 1074.91 394.539C1074.91 394.539 1097.96 375.57 1091.73 367.989C1091.73 367.989 1085.21 353.356 1067.05 377.192C1067.05 377.192 1083.32 350.376 1075.74 345.775C1075.74 345.775 1066.52 337.647 1057.84 363.387C1057.84 363.387 1065.16 333.311 1052.42 333.592C1052.42 333.592 1043.47 328.99 1042.38 356.882L1042.36 356.915Z" fill="#E7FCE3"/>
</g>
<g clip-path="url(#clip2_4763_36980)">
<path d="M1133.91 444.346C1133.91 444.346 1134.62 469.991 1134.26 468.945C1133.91 467.898 1110.75 454.545 1110.75 454.545L1102.68 461.929L1132.17 483.006L1132.53 499.513L1100.24 483.006L1096.03 492.851L1132.19 513.235V531.157L1094.63 519.558L1092.17 529.403L1131.83 544.157L1132.54 583.863L1146.23 583.509L1147.29 546.264L1175.02 530.803L1175.37 519.204L1149.05 531.496L1148.34 517.096L1176.07 499.881L1174.31 488.99L1146.23 504.45L1146.59 487.589L1173.27 471.421L1168 462.637L1145.17 474.236L1144.47 443.668L1133.94 444.375L1133.91 444.346Z" fill="#E7FCE3"/>
<path d="M1139.3 423.137C1139.3 423.137 1124.56 425.009 1124.56 436.019C1124.56 436.019 1123.4 449.136 1135.56 451.008C1135.56 451.008 1149.37 453.116 1151 440.234C1151 440.234 1155.92 422.194 1139.3 423.137Z" fill="#D1F5CA"/>
<path d="M1137.66 453.248C1136.27 453.248 1135.34 453.116 1135.23 453.101C1124.13 451.391 1122.01 441.177 1122.45 435.93C1122.51 425.82 1133.32 421.781 1139.03 421.044H1139.18C1144.47 420.735 1148.43 422.164 1150.93 425.26C1155.35 430.713 1153.39 439.335 1153.07 440.632C1152.51 444.788 1150.75 448.001 1147.85 450.197C1144.44 452.777 1140.26 453.248 1137.66 453.248ZM1139.49 425.245C1139 425.319 1135.84 425.834 1132.78 427.382C1128.71 429.445 1126.65 432.349 1126.65 436.019V436.21C1126.61 436.653 1125.83 447.382 1135.87 448.93C1135.91 448.93 1141.52 449.726 1145.34 446.822C1147.31 445.319 1148.52 443.02 1148.9 439.969L1148.96 439.674C1148.96 439.674 1150.97 431.995 1147.65 427.898C1146.04 425.923 1143.3 425.024 1139.49 425.23V425.245Z" fill="#D1F5CA"/>
<path d="M1090.47 513.029C1090.47 513.029 1079.15 514.473 1079.15 522.918C1079.15 522.918 1078.25 533 1087.6 534.429C1087.6 534.429 1098.2 536.051 1099.47 526.146C1099.47 526.146 1103.24 512.292 1090.49 513.014L1090.47 513.029Z" fill="#D1F5CA"/>
<path d="M1089.21 536.64C1088.1 536.64 1087.37 536.537 1087.28 536.522C1081.42 535.623 1078.93 531.85 1077.88 528.843C1076.91 526.043 1077.02 523.419 1077.05 522.845C1077.1 514.738 1085.67 511.511 1090.21 510.936H1090.36C1094.58 510.67 1097.76 511.835 1099.79 514.355C1103.3 518.688 1101.81 525.439 1101.53 526.559C1101.08 529.875 1099.68 532.44 1097.35 534.193C1094.61 536.257 1091.28 536.625 1089.21 536.625V536.64ZM1090.68 515.122C1090.27 515.181 1087.93 515.578 1085.67 516.728C1082.7 518.246 1081.26 520.265 1081.26 522.918V523.11C1081.18 523.935 1080.8 531.26 1087.93 532.351C1087.96 532.351 1092.08 532.926 1094.83 530.818C1096.26 529.728 1097.08 528.121 1097.38 525.896L1097.44 525.601C1097.85 524.038 1098.51 519.44 1096.53 516.993C1095.41 515.608 1093.43 514.989 1090.69 515.122H1090.68Z" fill="#D1F5CA"/>
<path d="M1181.88 455.474C1181.88 455.474 1169.94 452.659 1165.73 461.561C1165.73 461.561 1160.81 471.863 1169.94 475.843C1169.94 475.843 1180.23 479.586 1185.62 471.863C1185.62 471.863 1193.57 460.382 1181.88 455.459V455.474Z" fill="#D1F5CA"/>
<path d="M1175.46 478.864C1173 478.864 1170.76 478.393 1169.23 477.833L1169.12 477.788C1166.1 476.477 1164.04 474.413 1163.02 471.687C1161.09 466.528 1163.73 460.898 1163.84 460.662C1167.75 452.408 1177.67 452.32 1182.37 453.425L1182.71 453.528C1186.58 455.164 1189.02 457.626 1189.96 460.868C1191.67 466.749 1187.53 472.821 1187.36 473.072C1184.24 477.553 1179.54 478.864 1175.46 478.864ZM1170.72 473.883C1171.53 474.163 1179.66 476.742 1183.9 470.655C1183.93 470.611 1187.06 465.968 1185.92 462.018C1185.36 460.117 1183.78 458.584 1181.25 457.478C1180.61 457.361 1178.21 456.933 1175.52 457.272C1171.69 457.744 1169.04 459.483 1167.63 462.445C1167.61 462.49 1165.65 466.734 1166.95 470.198C1167.55 471.819 1168.79 473.013 1170.71 473.868L1170.72 473.883Z" fill="#D1F5CA"/>
<path d="M1169.23 524.702C1169.23 524.702 1171.65 536.729 1181.48 536.861C1181.48 536.861 1192.89 537.038 1192.7 527.075C1192.7 527.075 1191.82 516.139 1182.56 514.458C1182.56 514.458 1168.82 511.997 1169.22 524.687L1169.23 524.702Z" fill="#D1F5CA"/>
<path d="M1181.54 538.969H1181.47C1172.34 538.851 1168.13 529.86 1167.19 525.114L1167.14 524.761C1167.01 520.56 1168.23 517.303 1170.78 515.092C1175.42 511.083 1182.65 512.321 1182.94 512.38C1191.53 513.942 1194.47 522.55 1194.81 526.898V527.03C1194.88 530.332 1193.87 533.059 1191.8 535.122C1188.09 538.836 1182.29 538.969 1181.53 538.969H1181.54ZM1171.34 524.451C1171.66 525.822 1173.99 534.665 1181.53 534.754C1181.57 534.754 1186.24 534.768 1188.85 532.145C1190.07 530.921 1190.64 529.3 1190.61 527.193C1190.52 526.338 1189.49 517.863 1182.19 516.536C1182.15 516.536 1176.61 515.608 1173.52 518.305C1172.02 519.617 1171.28 521.68 1171.34 524.451Z" fill="#D1F5CA"/>
<path d="M1099.99 477.494C1099.99 477.494 1088.04 474.679 1083.83 483.581C1083.83 483.581 1078.92 493.883 1088.04 497.863C1088.04 497.863 1098.34 501.606 1103.73 493.883C1103.73 493.883 1111.68 482.402 1099.99 477.479V477.494Z" fill="#D1F5CA"/>
<path d="M1093.55 500.884C1091.09 500.884 1088.85 500.398 1087.32 499.852L1087.21 499.808C1084.19 498.496 1082.13 496.433 1081.11 493.706C1079.18 488.548 1081.82 482.917 1081.93 482.682C1085.84 474.428 1095.76 474.34 1100.46 475.445L1100.8 475.548C1104.67 477.184 1107.11 479.645 1108.05 482.888C1109.76 488.769 1105.62 494.841 1105.45 495.092C1102.33 499.572 1097.63 500.884 1093.55 500.884ZM1088.82 495.902C1089.63 496.182 1097.76 498.776 1102 492.674C1102.03 492.63 1105.17 487.988 1104.02 484.038C1103.46 482.136 1101.88 480.603 1099.35 479.498C1098.72 479.38 1096.32 478.953 1093.62 479.292C1089.8 479.763 1087.15 481.503 1085.73 484.465C1085.72 484.509 1083.76 488.754 1085.06 492.218C1085.66 493.839 1086.9 495.033 1088.81 495.888L1088.82 495.902Z" fill="#D1F5CA"/>
<path d="M1114.25 451.524C1114.25 451.524 1105.99 442.46 1097.5 447.412C1097.5 447.412 1087.63 453.13 1092.9 461.591C1092.9 461.591 1099.28 470.507 1108.08 467.176C1108.08 467.176 1121.13 462.21 1114.25 451.524Z" fill="#D1F5CA"/>
<path d="M1104.18 470.021C1098.1 470.021 1093.23 465.673 1091.2 462.829L1091.12 462.725C1089.37 459.925 1088.84 457.066 1089.55 454.236C1090.87 448.886 1096.22 445.746 1096.44 445.614C1104.31 441.015 1112.56 446.557 1115.81 450.124L1116.03 450.404C1118.32 453.941 1118.94 457.361 1117.89 460.559C1115.98 466.381 1109.14 469.048 1108.85 469.151C1107.24 469.756 1105.68 470.021 1104.2 470.021H1104.18ZM1094.66 460.411C1095.17 461.104 1100.41 467.825 1107.35 465.202C1107.39 465.187 1112.6 463.123 1113.89 459.218C1114.5 457.331 1114.06 455.179 1112.6 452.836C1112.16 452.379 1110.41 450.669 1108 449.431C1104.56 447.662 1101.4 447.589 1098.57 449.239C1098.53 449.269 1094.52 451.657 1093.64 455.253C1093.23 456.933 1093.57 458.613 1094.67 460.411H1094.66Z" fill="#D1F5CA"/>
<path d="M1181.41 483.817C1181.41 483.817 1169.7 484.524 1168.54 495.77C1168.54 495.77 1165.73 506.072 1179.3 507.251C1179.3 507.251 1191.01 507.959 1193.12 496.949C1193.12 496.949 1198.5 482.431 1181.41 483.831V483.817Z" fill="#D1F5CA"/>
<path d="M1180 509.373C1179.72 509.373 1179.45 509.373 1179.19 509.344C1173.9 508.887 1170.18 507.118 1168.04 504.068C1165.52 500.457 1166.24 496.344 1166.46 495.401C1167.6 485.231 1176.61 482.004 1181.26 481.709C1187.36 481.208 1191.66 482.564 1194.06 485.733C1197.4 490.139 1195.54 496.33 1195.15 497.494C1193.25 506.956 1184.84 509.373 1179.98 509.373H1180ZM1181.54 485.924C1181.12 485.954 1171.6 486.72 1170.63 495.991L1170.57 496.33C1170.57 496.33 1169.84 499.322 1171.52 501.695C1172.9 503.655 1175.58 504.804 1179.48 505.143C1179.82 505.158 1189.32 505.556 1191.04 496.536L1191.13 496.197C1191.13 496.197 1192.91 491.186 1190.69 488.268C1188.85 485.85 1184.72 485.659 1181.59 485.924H1181.54Z" fill="#D1F5CA"/>
</g>
<g clip-path="url(#clip3_4763_36980)">
<path d="M1204.53 559.442C1204.53 559.442 1216.16 551.727 1216.97 555.071C1217.79 558.416 1206.24 561.647 1206.24 561.647L1204.53 559.442Z" fill="#D1F5CA"/>
<path d="M1205.31 560.308C1205.31 560.308 1195.81 543.994 1187.82 548.931C1187.82 548.931 1181 552.266 1185.62 561.488C1190.23 570.71 1201.51 586.282 1207.95 580.895C1214.39 575.508 1209.77 567.435 1205.3 560.291L1205.31 560.308Z" fill="#D1F5CA"/>
<path d="M1184.17 556.753C1184.17 556.753 1194.99 563.166 1200.88 580.462C1200.88 580.462 1191.42 591.1 1178.82 582.676C1178.82 582.676 1175.92 580.748 1173.71 581.607C1173.71 581.607 1175 578.455 1174.42 576.787C1173.66 574.531 1171.84 562.079 1184.17 556.753Z" fill="#E7FCE3"/>
</g>
<path d="M1256.1 542.88C1256.1 542.88 1256.98 560.55 1256.37 563.3C1256.37 563.3 1247.06 552.72 1239.73 559.21C1239.73 559.21 1234.4 565.13 1241.15 569.85C1241.15 569.85 1249.99 575.16 1256.9 570.26C1256.9 570.26 1256.6 581.57 1256.55 583.89C1256.55 583.89 1249.42 574.08 1241.98 578.88C1241.98 578.88 1237.69 582.82 1242.95 589.89C1242.95 589.89 1248.22 595.53 1256.35 591.56L1256.04 603.58C1256.04 603.58 1255.83 605.22 1258.66 605.88C1258.66 605.88 1261.41 606.04 1261.76 603.02L1262.09 590.39C1262.09 590.39 1268.85 597.59 1275.57 592.86C1275.57 592.86 1282.59 589.15 1280.91 583.02C1280.88 582.93 1280.86 582.84 1280.83 582.74C1278.86 576.45 1271.89 576.8 1268.55 578.41C1268.55 578.41 1263.24 580.59 1261.92 583.14L1262.32 570.94C1262.32 570.94 1267.46 575.44 1275.1 573.05C1275.1 573.05 1283.28 570.05 1281.72 563.51C1281.72 563.51 1279.38 555.96 1270.23 557.95C1270.23 557.95 1263.76 560.01 1262.15 563.8C1262.15 563.8 1261.95 547.58 1261.25 543.72L1256.1 542.87V542.88Z" fill="#E7FCE3"/>
<path d="M1255.28 564.015L1255.19 567.484L1263.84 567.709L1263.93 564.241L1255.28 564.015Z" fill="#E7FCE3"/>
<path d="M1254.97 585.134L1254.88 588.603L1263.54 588.828L1263.63 585.359L1254.97 585.134Z" fill="#E7FCE3"/>
<path d="M1258.59 505.01C1258.59 505.01 1249.21 502.95 1246.4 511.71C1246.4 511.71 1246.05 514.73 1246.79 517.33C1246.79 517.33 1236.87 515.12 1234.58 524.41C1234.58 524.41 1233.14 535.33 1242.46 536.82C1242.46 536.82 1237.08 544.97 1243.81 549.96C1243.81 549.96 1254.28 554.97 1258.59 546.74C1258.59 546.74 1264.98 554.88 1274.6 548.09C1274.6 548.09 1281.35 542.29 1275.67 534.57C1275.67 534.57 1284.5 530.88 1280.65 521.33C1280.65 521.33 1276.13 513.55 1268.29 516.73C1268.29 516.73 1269.12 505.22 1258.6 505.01H1258.59Z" fill="#D1F5CA"/>
<path d="M1265.92 529.002C1265.81 533.302 1262.31 536.702 1258.11 536.592C1253.91 536.482 1250.59 532.902 1250.7 528.602C1250.81 524.302 1254.31 520.902 1258.52 521.002C1262.72 521.112 1266.04 524.692 1265.93 528.992L1265.92 529.002Z" fill="#E7FCE3"/>
<path d="M1262.37 529.36C1262.31 531.85 1260.28 533.81 1257.85 533.75C1255.42 533.69 1253.5 531.62 1253.56 529.13C1253.62 526.64 1255.65 524.67 1258.08 524.73C1260.51 524.79 1262.43 526.86 1262.37 529.36Z" fill="#D1F5CA"/>
<g clip-path="url(#clip4_4763_36980)">
<path d="M1091.27 117.22C1091.27 117.22 1099.02 100.52 1124.5 102.11C1149.97 103.69 1153.51 115.85 1153.51 115.85C1153.51 115.85 1170.87 111.65 1185.09 123.98C1185.09 123.98 1198.89 137.47 1184.93 150.81C1172.46 162.73 1150.33 159.54 1147.22 153.72C1147.22 153.72 1139.33 164.22 1121.34 163.81C1103.34 163.4 1097.12 151.25 1097.12 151.25C1097.12 151.25 1081.01 166.64 1060.56 153.16C1037.71 138.11 1059.02 105.73 1091.27 117.22Z" fill="#F3FFF0"/>
<path d="M1146.82 141.52C1117.25 162.27 1097.78 139.5 1097.78 139.5C1079.35 148.22 1062.9 145.82 1051.66 141.76C1052.83 145.97 1055.69 149.99 1060.58 153.21C1081.03 166.68 1097.14 151.3 1097.14 151.3C1097.14 151.3 1103.36 163.45 1121.36 163.86C1139.36 164.27 1147.24 153.77 1147.24 153.77C1150.36 159.59 1172.48 162.78 1184.95 150.86C1187.42 148.5 1189.02 146.13 1189.98 143.83C1165.4 154.75 1146.81 141.52 1146.81 141.52H1146.82Z" fill="#ECFFE7"/>
</g>
<mask id="mask1_4763_36980" style="mask-type:alpha" maskUnits="userSpaceOnUse" x="293" y="4" width="696" height="585">
<path d="M612.115 9.73121L338.158 124.704C310.799 136.181 293 162.965 293 192.65V515.319C293 556.008 325.968 589 366.644 589H915.356C956.025 589 989 556.016 989 515.319V192.693C989 162.987 971.172 136.188 943.784 124.726L669.02 9.7094C650.815 2.08477 630.313 2.0993 612.108 9.73848L612.115 9.73121Z" fill="#E7FCE3"/>
</mask>
<g mask="url(#mask1_4763_36980)">
<path d="M641.156 0L641.156 585M691.156 0L691.156 585M341.156 0L341.156 585M741.156 0L741.156 585M391.156 0L391.156 585M791.156 0L791.156 585M441.156 0L441.156 585M841.156 0L841.156 585M491.156 0L491.156 585M891.156 0V585M541.156 0L541.156 585M941.156 0V585M591.156 0L591.156 585" stroke="white" stroke-opacity="0.4" stroke-width="4"/>
</g>
<g clip-path="url(#clip5_4763_36980)">
<path d="M143.276 180.22C143.276 180.22 151.026 163.52 176.506 165.11C201.976 166.69 205.516 178.85 205.516 178.85C205.516 178.85 222.876 174.65 237.096 186.98C237.096 186.98 250.896 200.47 236.936 213.81C224.466 225.73 202.336 222.54 199.226 216.72C199.226 216.72 191.336 227.22 173.346 226.81C155.346 226.4 149.126 214.25 149.126 214.25C149.126 214.25 133.016 229.64 112.566 216.16C89.7157 201.11 111.026 168.73 143.276 180.22Z" fill="#F3FFF0"/>
<path d="M198.816 204.52C169.246 225.27 149.776 202.5 149.776 202.5C131.346 211.22 114.896 208.82 103.656 204.76C104.826 208.97 107.686 212.99 112.576 216.21C133.026 229.68 149.136 214.3 149.136 214.3C149.136 214.3 155.356 226.45 173.356 226.86C191.356 227.27 199.236 216.77 199.236 216.77C202.356 222.59 224.476 225.78 236.946 213.86C239.416 211.5 241.016 209.13 241.976 206.83C217.396 217.75 198.806 204.52 198.806 204.52H198.816Z" fill="#ECFFE7"/>
</g>
<path d="M231.578 365.261C231.062 363.722 222.556 382.274 197.283 396.386C197.283 396.386 180.679 406.888 183.207 421.721C183.207 421.721 184.294 436.554 201.985 443.079C201.985 443.079 179.606 451.402 178.886 468.414C178.886 468.414 177.799 487.961 194.403 492.66C194.403 492.66 170.57 506.772 175.992 533.197C175.992 533.197 179.239 570.832 236.28 572.644C236.28 572.644 291.513 577.343 299.095 538.986C299.095 538.986 305.236 512.928 283.931 503.516C283.931 503.516 300.182 491.216 297.288 473.114C297.288 473.114 294.76 449.59 275.629 445.245C275.629 445.245 290.793 431.133 287.178 416.286C287.178 416.286 288.619 398.197 254.324 385.53C254.324 385.53 234.826 375.028 231.578 365.261Z" fill="#E7FCE3"/>
<path d="M246.374 440.178C245.681 440.178 245.002 439.851 244.581 439.224C243.901 438.23 244.16 436.881 245.151 436.2C252.19 431.392 253.956 419.351 253.97 419.242C255.519 409.026 249.866 406.343 249.812 406.329C248.725 405.839 248.236 404.558 248.725 403.455C249.214 402.365 250.491 401.875 251.592 402.365C251.945 402.529 260.288 406.451 258.263 419.868C258.182 420.413 256.225 433.898 247.597 439.796C247.23 440.055 246.795 440.178 246.374 440.178Z" fill="#D1F5CA"/>
<path d="M231.21 435.11C230.68 435.11 230.164 434.92 229.743 434.538C228.86 433.721 228.805 432.359 229.62 431.473C233.33 427.442 233.262 420.331 232.555 415.087C231.754 409.094 229.919 404.068 229.906 404.027C229.498 402.896 230.069 401.657 231.197 401.234C232.311 400.826 233.561 401.398 233.982 402.515C234.308 403.414 241.917 424.499 232.827 434.416C232.406 434.879 231.822 435.11 231.237 435.11H231.21Z" fill="#D1F5CA"/>
<path d="M214.96 435.111C214.226 435.111 213.519 434.743 213.112 434.075C203.437 418.179 214.892 402.284 215.381 401.616C216.087 400.649 217.446 400.445 218.411 401.153C219.376 401.861 219.579 403.223 218.873 404.19C218.452 404.763 208.669 418.425 216.808 431.814C217.433 432.836 217.106 434.171 216.087 434.797C215.734 435.015 215.34 435.111 214.96 435.111Z" fill="#D1F5CA"/>
<path d="M209.185 485.414C208.424 485.414 207.704 485.019 207.296 484.31C199.157 469.94 208.397 455.188 208.804 454.562C209.456 453.554 210.788 453.254 211.793 453.908C212.799 454.548 213.098 455.897 212.446 456.905C212.364 457.041 204.239 470.117 211.06 482.172C211.644 483.221 211.291 484.542 210.245 485.128C209.905 485.318 209.538 485.414 209.171 485.414H209.185Z" fill="#D1F5CA"/>
<path d="M225.069 489.037C224.715 489.037 224.348 488.942 224.009 488.765C222.963 488.179 222.596 486.858 223.18 485.809C232.501 469.123 224.484 457.872 224.403 457.763C223.696 456.796 223.9 455.434 224.865 454.725C225.83 454.017 227.188 454.221 227.895 455.188C228.302 455.733 237.624 468.837 226.957 487.934C226.563 488.642 225.83 489.051 225.069 489.051V489.037Z" fill="#D1F5CA"/>
<path d="M242.76 489.037C242.366 489.037 241.972 488.928 241.605 488.71C240.6 488.07 240.287 486.735 240.926 485.713C252.068 467.965 243.032 458.021 242.638 457.613C241.823 456.741 241.85 455.365 242.706 454.548C243.562 453.717 244.921 453.744 245.749 454.602C246.239 455.106 257.611 467.284 244.581 488.029C244.173 488.683 243.467 489.037 242.747 489.037H242.76Z" fill="#D1F5CA"/>
<path d="M262.258 491.938C261.62 491.938 260.995 491.652 260.56 491.121C259.812 490.181 259.976 488.819 260.913 488.07C275.18 476.683 267.218 462.135 266.878 461.522C266.294 460.473 266.661 459.152 267.693 458.566C268.739 457.981 270.057 458.348 270.642 459.384C270.75 459.561 280.737 477.799 263.603 491.461C263.209 491.775 262.734 491.938 262.258 491.938Z" fill="#D1F5CA"/>
<path d="M211.712 552.007C211.25 552.007 210.788 551.858 210.394 551.558C202.704 545.619 199.049 536.67 199.81 525.664C200.367 517.546 203.125 511.226 203.234 510.953C203.723 509.85 205 509.36 206.087 509.836C207.188 510.327 207.677 511.607 207.201 512.697C207.16 512.792 204.606 518.717 204.117 526.073C203.492 535.635 206.481 543.045 213.03 548.098C213.981 548.834 214.158 550.196 213.424 551.149C213.003 551.708 212.351 551.994 211.712 551.994V552.007Z" fill="#D1F5CA"/>
<path d="M233.018 550.196C232.759 550.196 232.501 550.155 232.243 550.059C231.129 549.637 230.558 548.384 230.98 547.253C238.344 527.802 227.161 514.535 226.672 513.977C225.884 513.078 225.979 511.702 226.89 510.912C227.8 510.122 229.159 510.218 229.947 511.116C230.504 511.743 243.344 526.822 235.029 548.779C234.702 549.651 233.874 550.182 233.004 550.182L233.018 550.196Z" fill="#D1F5CA"/>
<path d="M247.095 550.196C246.755 550.196 246.416 550.114 246.089 549.951C245.03 549.392 244.622 548.085 245.179 547.022C255.574 527.19 245.899 515.162 245.791 515.04C245.03 514.113 245.152 512.751 246.062 511.975C246.986 511.212 248.345 511.335 249.119 512.247C249.595 512.819 260.737 526.645 249.011 549.025C248.617 549.76 247.869 550.182 247.095 550.182V550.196Z" fill="#D1F5CA"/>
<path d="M269.12 547.662C268.618 547.662 268.115 547.485 267.707 547.131C266.811 546.341 266.702 544.979 267.49 544.066C278.047 531.875 269.582 520.515 269.216 520.038C268.495 519.085 268.658 517.723 269.61 517.001C270.547 516.265 271.906 516.442 272.64 517.382C272.748 517.532 283.686 531.998 270.765 546.913C270.33 547.403 269.732 547.662 269.134 547.662H269.12Z" fill="#D1F5CA"/>
<path d="M165.483 529.163L165.484 529.163L165.485 529.163L165.486 529.163L165.527 529.165H165.571H165.588H165.611L165.634 529.164C175.811 528.932 182.745 530.842 187.465 533.661C192.161 536.466 194.818 540.261 196.3 544.105C197.794 547.982 198.098 551.93 198.013 554.949C197.97 556.451 197.832 557.701 197.707 558.569C197.644 559.002 197.584 559.338 197.542 559.56C197.521 559.672 197.504 559.754 197.493 559.806C197.487 559.832 197.483 559.85 197.481 559.86L197.479 559.867L197.479 559.869L197.479 559.87L197.479 559.87L197.448 560.003L197.435 560.142C196.05 575.708 188.787 584.129 181.982 588.711C178.547 591.024 175.192 592.381 172.699 593.158C171.454 593.545 170.43 593.786 169.728 593.929C169.377 594.001 169.107 594.048 168.93 594.076C168.842 594.09 168.777 594.099 168.737 594.105L168.697 594.11L168.695 594.111L168.693 594.111L168.691 594.111L168.691 594.111L168.656 594.115L168.618 594.122C156.422 596.079 148.738 593.691 144.168 590.999C141.865 589.642 140.307 588.181 139.336 587.085C138.851 586.536 138.513 586.078 138.303 585.771C138.199 585.618 138.126 585.502 138.084 585.432C138.062 585.396 138.049 585.373 138.042 585.361C138.041 585.359 138.04 585.357 138.039 585.356C138.038 585.354 138.038 585.353 138.038 585.353L137.949 585.188L137.821 585.034C132.126 578.178 131.689 568.878 132.862 560.933C133.443 557.003 134.402 553.515 135.218 551.008C135.626 549.756 135.996 548.755 136.261 548.071C136.394 547.73 136.501 547.468 136.573 547.294C136.609 547.208 136.637 547.143 136.655 547.102L136.674 547.057L136.674 547.056C140.952 537.672 148.121 533.217 154.284 531.083C157.377 530.011 160.206 529.53 162.258 529.318C163.282 529.213 164.107 529.174 164.668 529.162C164.948 529.156 165.161 529.157 165.3 529.159C165.369 529.159 165.42 529.161 165.451 529.162L165.482 529.163L165.483 529.163Z" fill="#E7FCE3" stroke="white" stroke-width="4"/>
<path d="M151.899 575.119C151.173 575.119 150.482 574.767 150.075 574.116C140.141 558.436 149.845 540.715 150.252 539.958C150.837 538.92 152.147 538.551 153.192 539.131C154.236 539.712 154.608 541.014 154.024 542.053C153.935 542.229 145.17 558.331 153.723 571.829C154.36 572.832 154.059 574.151 153.05 574.785C152.696 575.014 152.289 575.119 151.899 575.119Z" fill="#D1F5CA"/>
<path d="M161.249 575.823C160.912 575.823 160.576 575.753 160.239 575.577C159.177 575.031 158.77 573.729 159.336 572.673C166.632 558.823 159.177 544.78 159.106 544.639C158.539 543.601 158.929 542.299 159.974 541.736C161.018 541.173 162.329 541.56 162.895 542.598C163.25 543.249 171.501 558.806 163.143 574.679C162.754 575.418 162.01 575.823 161.231 575.823H161.249Z" fill="#D1F5CA"/>
<path d="M171.573 579.642C171.236 579.642 170.882 579.554 170.563 579.396C169.519 578.833 169.111 577.53 169.678 576.492C180.108 557.064 170.333 546.153 170.227 546.03C169.413 545.15 169.483 543.795 170.351 543.003C171.236 542.193 172.6 542.264 173.397 543.126C173.893 543.654 185.332 556.43 173.468 578.516C173.078 579.237 172.334 579.66 171.555 579.66L171.573 579.642Z" fill="#D1F5CA"/>
<path d="M182.852 578.692C182.391 578.692 181.931 578.551 181.541 578.252C180.603 577.53 180.408 576.175 181.134 575.243C193.476 559.264 183.1 544.059 182.993 543.9C182.321 542.932 182.551 541.595 183.525 540.909C184.499 540.24 185.844 540.469 186.535 541.437C186.659 541.613 198.789 559.404 184.552 577.847C184.127 578.393 183.489 578.692 182.834 578.692H182.852Z" fill="#D1F5CA"/>
<g clip-path="url(#clip6_4763_36980)">
<path d="M280.406 546.25C280.406 546.25 279.056 568.51 277.256 574.59C277.256 574.59 273.886 584.94 286.026 584.71C286.026 584.71 294.796 584.93 295.026 580.21C295.026 580.21 293.456 556.37 290.976 547.15L280.406 546.25Z" fill="#E7FCE3"/>
<path d="M304.995 540.9C303.945 549.34 294.465 554.41 283.685 553.78C270.285 553 265.115 544.52 266.155 536.08C267.205 527.64 276.755 521.87 287.475 523.2C298.195 524.53 306.045 532.46 304.995 540.9Z" fill="#D1F5CA"/>
<path d="M294.426 554.485C296.06 553.96 297.595 553.286 298.996 552.469C303.258 549.984 306.361 546.117 306.98 541.147C308.218 531.194 299.069 522.623 287.721 521.215C276.373 519.807 265.408 525.882 264.17 535.833L264.17 535.835C263.591 540.534 264.734 545.353 267.994 549.113C270.297 551.769 273.559 553.786 277.775 554.89C277.694 555.879 277.607 556.91 277.514 557.963C276.945 564.352 276.171 571.193 275.342 574.007L275.334 574.033C275.325 574.064 275.313 574.105 275.298 574.155C275.27 574.255 275.232 574.393 275.191 574.563C275.109 574.903 275.01 575.378 274.936 575.945C274.79 577.057 274.727 578.627 275.154 580.246C275.592 581.904 276.551 583.627 278.416 584.884C280.243 586.116 282.742 586.767 286.025 586.71C286.047 586.711 286.075 586.711 286.11 586.711C286.187 586.712 286.295 586.712 286.43 586.71C286.699 586.706 287.076 586.695 287.528 586.666C288.422 586.609 289.648 586.478 290.908 586.174C292.143 585.877 293.56 585.379 294.725 584.502C295.946 583.583 296.931 582.204 297.023 580.307L297.029 580.193L297.021 580.079L295.026 580.21C297.021 580.079 297.021 580.078 297.021 580.078L297.021 580.077L297.021 580.074L297.02 580.06L297.017 580.007L297.003 579.803C296.991 579.625 296.972 579.362 296.948 579.025C296.9 578.351 296.829 577.38 296.736 576.185C296.549 573.797 296.274 570.514 295.921 566.941C295.524 562.919 295.022 558.463 294.426 554.485Z" stroke="white" stroke-width="4"/>
<path d="M280.406 546.25C280.406 546.25 279.056 568.51 277.256 574.59C277.256 574.59 273.886 584.94 286.026 584.71C286.026 584.71 294.796 584.93 295.026 580.21C295.026 580.21 293.456 556.37 290.976 547.15L280.406 546.25Z" fill="#E7FCE3"/>
<path d="M304.995 540.9C303.945 549.34 294.465 554.41 283.685 553.78C270.285 553 265.115 544.52 266.155 536.08C267.205 527.64 276.755 521.87 287.475 523.2C298.195 524.53 306.045 532.46 304.995 540.9Z" fill="#D1F5CA"/>
</g>
<rect x="583.156" y="79" width="123" height="32" rx="16" fill="#94BF49"/>
<path d="M604.168 101V89.3636H612.009V91.392H606.628V94.1648H611.605V96.1932H606.628V98.9716H612.031V101H604.168ZM613.484 101V89.3636H618.075C618.958 89.3636 619.71 89.5322 620.331 89.8693C620.952 90.2027 621.426 90.6667 621.752 91.2614C622.081 91.8523 622.246 92.5341 622.246 93.3068C622.246 94.0795 622.079 94.7614 621.746 95.3523C621.413 95.9432 620.93 96.4034 620.297 96.733C619.668 97.0625 618.907 97.2273 618.013 97.2273H615.087V95.2557H617.615C618.089 95.2557 618.479 95.1742 618.786 95.0114C619.096 94.8447 619.327 94.6155 619.479 94.3239C619.634 94.0284 619.712 93.6894 619.712 93.3068C619.712 92.9205 619.634 92.5833 619.479 92.2955C619.327 92.0038 619.096 91.7784 618.786 91.6193C618.475 91.4564 618.081 91.375 617.604 91.375H615.945V101H613.484ZM625.824 89.3636V101H623.364V89.3636H625.824ZM633.681 92.7102C633.635 92.2519 633.44 91.8958 633.096 91.642C632.751 91.3883 632.283 91.2614 631.692 91.2614C631.291 91.2614 630.952 91.3182 630.675 91.4318C630.399 91.5417 630.186 91.6951 630.039 91.892C629.895 92.089 629.823 92.3125 629.823 92.5625C629.815 92.7708 629.859 92.9527 629.953 93.108C630.052 93.2633 630.186 93.3977 630.357 93.5114C630.527 93.6212 630.724 93.7178 630.948 93.8011C631.171 93.8807 631.41 93.9489 631.664 94.0057L632.709 94.2557C633.217 94.3693 633.683 94.5208 634.107 94.7102C634.531 94.8996 634.899 95.1326 635.209 95.4091C635.52 95.6856 635.76 96.0114 635.931 96.3864C636.105 96.7614 636.194 97.1913 636.198 97.6761C636.194 98.3883 636.012 99.0057 635.652 99.5284C635.296 100.047 634.781 100.451 634.107 100.739C633.436 101.023 632.628 101.165 631.681 101.165C630.741 101.165 629.923 101.021 629.226 100.733C628.533 100.445 627.991 100.019 627.601 99.4545C627.215 98.8864 627.012 98.1837 626.993 97.3466H629.374C629.4 97.7367 629.512 98.0625 629.709 98.3239C629.91 98.5814 630.177 98.7765 630.51 98.9091C630.847 99.0379 631.228 99.1023 631.652 99.1023C632.069 99.1023 632.431 99.0417 632.738 98.9205C633.048 98.7992 633.289 98.6307 633.459 98.4148C633.63 98.1989 633.715 97.9508 633.715 97.6705C633.715 97.4091 633.637 97.1894 633.482 97.0114C633.33 96.8333 633.107 96.6818 632.811 96.5568C632.52 96.4318 632.162 96.3182 631.738 96.2159L630.471 95.8977C629.489 95.6591 628.715 95.286 628.147 94.7784C627.578 94.2708 627.296 93.5871 627.3 92.7273C627.296 92.0227 627.484 91.4072 627.863 90.8807C628.245 90.3542 628.77 89.9432 629.436 89.6477C630.103 89.3523 630.861 89.2045 631.709 89.2045C632.573 89.2045 633.327 89.3523 633.971 89.6477C634.618 89.9432 635.122 90.3542 635.482 90.8807C635.842 91.4072 636.027 92.017 636.039 92.7102H633.681ZM648.066 95.1818C648.066 96.4508 647.825 97.5303 647.344 98.4205C646.867 99.3106 646.215 99.9905 645.39 100.46C644.568 100.926 643.643 101.159 642.617 101.159C641.583 101.159 640.655 100.924 639.833 100.455C639.011 99.9848 638.361 99.3049 637.884 98.4148C637.407 97.5246 637.168 96.447 637.168 95.1818C637.168 93.9129 637.407 92.8333 637.884 91.9432C638.361 91.053 639.011 90.375 639.833 89.9091C640.655 89.4394 641.583 89.2045 642.617 89.2045C643.643 89.2045 644.568 89.4394 645.39 89.9091C646.215 90.375 646.867 91.053 647.344 91.9432C647.825 92.8333 648.066 93.9129 648.066 95.1818ZM645.571 95.1818C645.571 94.3598 645.448 93.6667 645.202 93.1023C644.96 92.5379 644.617 92.1098 644.174 91.8182C643.731 91.5265 643.212 91.3807 642.617 91.3807C642.022 91.3807 641.503 91.5265 641.06 91.8182C640.617 92.1098 640.272 92.5379 640.026 93.1023C639.784 93.6667 639.662 94.3598 639.662 95.1818C639.662 96.0038 639.784 96.697 640.026 97.2614C640.272 97.8258 640.617 98.2538 641.06 98.5455C641.503 98.8371 642.022 98.983 642.617 98.983C643.212 98.983 643.731 98.8371 644.174 98.5455C644.617 98.2538 644.96 97.8258 645.202 97.2614C645.448 96.697 645.571 96.0038 645.571 95.1818ZM653.533 101H649.408V89.3636H653.567C654.738 89.3636 655.745 89.5966 656.59 90.0625C657.435 90.5246 658.084 91.1894 658.539 92.0568C658.997 92.9242 659.226 93.9621 659.226 95.1705C659.226 96.3826 658.997 97.4242 658.539 98.2955C658.084 99.1667 657.431 99.8352 656.579 100.301C655.73 100.767 654.715 101 653.533 101ZM651.868 98.892H653.431C654.158 98.892 654.77 98.7633 655.266 98.5057C655.766 98.2443 656.141 97.8409 656.391 97.2955C656.645 96.7462 656.772 96.0379 656.772 95.1705C656.772 94.3106 656.645 93.608 656.391 93.0625C656.141 92.517 655.768 92.1155 655.272 91.858C654.776 91.6004 654.164 91.4716 653.437 91.4716H651.868V98.892ZM660.569 101V89.3636H668.41V91.392H663.029V94.1648H668.006V96.1932H663.029V98.9716H668.432V101H660.569ZM680.565 101.159C679.716 101.159 678.961 101.013 678.298 100.722C677.639 100.426 677.118 100.021 676.735 99.5057C676.357 98.9867 676.162 98.3883 676.15 97.7102H678.627C678.643 97.9943 678.735 98.2443 678.906 98.4602C679.08 98.6723 679.311 98.8371 679.599 98.9545C679.887 99.072 680.211 99.1307 680.571 99.1307C680.946 99.1307 681.277 99.0644 681.565 98.9318C681.853 98.7992 682.078 98.6155 682.241 98.3807C682.404 98.1458 682.485 97.875 682.485 97.5682C682.485 97.2576 682.398 96.983 682.224 96.7443C682.054 96.5019 681.807 96.3125 681.485 96.1761C681.167 96.0398 680.788 95.9716 680.349 95.9716H679.264V94.1648H680.349C680.72 94.1648 681.048 94.1004 681.332 93.9716C681.62 93.8428 681.843 93.6648 682.002 93.4375C682.162 93.2064 682.241 92.9375 682.241 92.6307C682.241 92.339 682.171 92.0833 682.031 91.8636C681.894 91.6402 681.701 91.4659 681.451 91.3409C681.205 91.2159 680.917 91.1534 680.588 91.1534C680.254 91.1534 679.949 91.214 679.673 91.3352C679.396 91.4527 679.175 91.6212 679.008 91.8409C678.841 92.0606 678.752 92.3182 678.741 92.6136H676.383C676.394 91.9432 676.586 91.3523 676.957 90.8409C677.328 90.3295 677.828 89.9299 678.457 89.642C679.09 89.3504 679.804 89.2045 680.599 89.2045C681.402 89.2045 682.105 89.3504 682.707 89.642C683.309 89.9337 683.777 90.3277 684.11 90.8239C684.448 91.3163 684.614 91.8693 684.61 92.483C684.614 93.1345 684.412 93.678 684.002 94.1136C683.597 94.5492 683.069 94.8258 682.417 94.9432V95.0341C683.273 95.1439 683.925 95.4413 684.372 95.9261C684.823 96.4072 685.046 97.0095 685.042 97.733C685.046 98.3958 684.855 98.9848 684.468 99.5C684.086 100.015 683.557 100.42 682.883 100.716C682.209 101.011 681.436 101.159 680.565 101.159Z" fill="white"/>
<path d="M560.396 159.16H552.556V124.08H565.756C572.676 124.08 577.756 127.52 577.756 135.08V137.92C577.756 145.48 572.676 148.92 565.756 148.92H560.396V159.16ZM560.396 130.88V142.12H565.356C568.036 142.12 569.956 140.52 569.956 137.48V135.52C569.956 132.48 568.036 130.88 565.356 130.88H560.396ZM587.261 159.16H579.541V124.08H587.261V134.56C588.661 132.96 590.941 132.24 593.381 132.24C598.221 132.24 602.501 134.84 602.501 143.28V159.16H594.661V142.76C594.661 140.04 593.101 138.72 590.981 138.72C588.861 138.72 587.261 140 587.261 142.56V159.16ZM615.684 159.8C610.364 159.8 604.084 157.32 604.084 148.72V143.32C604.084 134.72 610.244 132.24 615.684 132.24C621.004 132.24 627.284 134.72 627.284 143.32V148.72C627.284 157.32 621.004 159.8 615.684 159.8ZM615.684 153.24C617.404 153.24 619.644 152.32 619.644 149.48V142.56C619.644 139.72 617.404 138.8 615.684 138.8C613.964 138.8 611.724 139.72 611.724 142.56V149.48C611.724 152.32 613.964 153.24 615.684 153.24ZM636.851 159.16H629.291V132.88H636.491V134.84C638.091 133.04 640.571 132.24 643.011 132.24C647.851 132.24 652.011 134.84 652.011 143.28V159.16H644.331V142.84C644.331 140.12 642.851 138.72 640.611 138.72C638.371 138.72 636.851 140.08 636.851 142.64V159.16ZM662.08 130.6H654.4V123.84H662.08V130.6ZM662.08 159.16H654.4V132.88H662.08V159.16ZM675.581 159.8C670.661 159.8 664.061 157.28 664.061 148.12V143.92C664.061 134.76 670.661 132.24 675.581 132.24C679.261 132.24 681.781 133 683.541 134.08L682.741 139.92C681.461 139.16 679.501 138.72 676.741 138.72C673.821 138.72 671.701 140.32 671.701 143.84V148.2C671.701 151.72 673.821 153.32 676.741 153.32C679.301 153.32 681.741 152.72 683.221 151.8L684.021 157.84C682.061 159.04 679.261 159.8 675.581 159.8ZM695.114 159.8C691.594 159.8 687.874 158.92 685.154 157.08L685.954 150.96C689.154 152.84 691.794 153.6 694.554 153.6C696.314 153.6 697.434 152.92 697.434 151.72C697.434 150.36 695.314 149.64 692.314 148.6L690.674 148.04C686.714 146.68 684.594 143.68 684.634 140.24C684.674 135.08 688.634 132.24 694.794 132.24C698.394 132.24 701.234 133.08 703.594 134.64L702.554 140.4C700.714 139.24 698.034 138.44 695.514 138.44C693.594 138.44 692.554 139.04 692.554 140.12C692.554 141.48 694.074 141.8 696.954 142.72L698.434 143.2C702.674 144.56 705.154 147.28 705.114 151.36C705.074 157.04 700.714 159.8 695.114 159.8ZM731.061 145.44L724.541 152.44H737.341V159.16H714.741V153.4L726.421 140.32C728.781 137.64 729.821 135.92 729.821 133.76C729.821 131.6 728.261 130.16 725.861 130.16C723.461 130.16 721.701 131.44 721.541 135.04H714.741C714.701 127.4 719.821 123.44 725.981 123.44C732.421 123.44 737.301 127.4 737.301 133.52C737.301 138.24 735.061 141.12 731.061 145.44Z" fill="#94BF49"/>
<defs>
<clipPath id="clip0_4763_36980">
<rect width="101.37" height="187.08" fill="white" transform="translate(64.1895 409)"/>
</clipPath>
<clipPath id="clip1_4763_36980">
<rect width="95" height="242" fill="white" transform="translate(1004.02 330)"/>
</clipPath>
<clipPath id="clip2_4763_36980">
<rect width="119" height="165" fill="white" transform="translate(1077.02 421)"/>
</clipPath>
<clipPath id="clip3_4763_36980">
<rect width="51" height="67" fill="white" transform="translate(1209.59 519) rotate(46.4655)"/>
</clipPath>
<clipPath id="clip4_4763_36980">
<rect width="140.16" height="61.86" fill="white" transform="translate(1051.02 102)"/>
</clipPath>
<clipPath id="clip5_4763_36980">
<rect width="140.16" height="61.86" fill="white" transform="translate(103.016 165)"/>
</clipPath>
<clipPath id="clip6_4763_36980">
<rect width="48" height="69" fill="white" transform="translate(261.016 517)"/>
</clipPath>
</defs>
</svg>
