<svg width="1307" height="612" viewBox="0 0 1307 612" fill="none" xmlns="http://www.w3.org/2000/svg">
<mask id="mask0_4789_72963" style="mask-type:luminance" maskUnits="userSpaceOnUse" x="1182" y="537" width="124" height="69">
<path d="M1189.14 537L1182.5 590.965L1299.11 605.312L1305.75 551.347L1189.14 537Z" fill="white"/>
</mask>
<g mask="url(#mask0_4789_72963)">
<path d="M1273.64 552.756C1273.13 549.26 1270.99 546.663 1268.57 546.822C1266.15 546.981 1264.36 549.889 1264.33 553.436C1262.91 550.117 1260.09 548.129 1257.76 548.941C1255.96 549.582 1254.98 551.762 1255.1 554.346C1253.35 552.829 1251.29 552.271 1249.73 553.128C1248.21 553.972 1247.58 555.94 1247.88 558.192C1245.89 557.593 1244.01 557.851 1242.93 559.087C1241.43 560.814 1242 563.843 1244.15 566.305L1243.08 594.088L1286.56 601.162C1287.33 602.609 1288.69 603.757 1290.44 604.193C1293.65 604.993 1296.87 603.124 1297.64 600.023C1298.06 598.317 1297.62 596.605 1296.63 595.267C1298.48 594.834 1299.87 593.788 1300.24 592.312C1300.57 590.983 1300 589.594 1298.86 588.406C1300.65 587.426 1301.75 585.92 1301.65 584.301C1301.54 582.936 1300.59 581.787 1299.15 581.018C1300.9 579.407 1301.72 577.378 1301 575.7C1300.36 574.201 1298.66 573.349 1296.58 573.314C1297.54 571.978 1297.88 570.497 1297.34 569.231C1296.71 567.767 1295.07 566.94 1293.07 566.863C1294.8 564.522 1295.18 561.83 1293.8 560.257C1292.9 559.233 1291.44 558.901 1289.84 559.161C1290.5 557.078 1290.24 555.084 1288.92 553.992C1287.37 552.703 1284.87 553.054 1282.64 554.657C1282.92 551.58 1281.76 548.935 1279.64 548.37C1277.4 547.756 1274.88 549.679 1273.63 552.77L1273.64 552.756Z" fill="#908EB3"/>
<path d="M1225.38 560.31C1224.65 557.989 1222.83 556.344 1220.69 556.334C1218.96 556.325 1217.45 557.374 1216.51 558.966C1214.93 557.148 1212.61 556.372 1210.66 557.197C1209.66 557.615 1208.9 558.402 1208.43 559.375C1206.92 558.733 1205.17 558.686 1203.55 559.366C1202.18 559.942 1201.16 560.966 1200.51 562.187C1198.16 561.628 1195.61 562.464 1194.06 564.505C1193.43 565.341 1193.06 566.293 1192.91 567.255C1191.16 567.378 1189.47 568.201 1188.32 569.7C1186.61 571.975 1186.71 575.013 1188.31 577.189C1186.94 577.511 1185.65 578.265 1184.72 579.487C1182.68 582.278 1183.22 586.2 1185.99 588.282C1188.26 589.998 1191.31 589.9 1193.48 588.274L1242.98 593.214C1243.92 594.141 1245.19 594.856 1246.71 595.127C1250.11 595.749 1253.27 594.006 1253.77 591.245C1254.18 589.046 1252.76 586.876 1250.46 585.765C1252.08 584.307 1252.84 582.253 1252.21 580.4C1251.56 578.528 1249.66 577.381 1247.46 577.263C1249.59 575.023 1250.01 571.863 1248.33 569.897C1247.18 568.555 1245.33 568.091 1243.47 568.505C1243.95 566.298 1243.29 564.103 1241.6 562.999C1239.35 561.522 1236.11 562.493 1234.19 565.13C1235.2 561.958 1234.03 558.72 1231.46 557.778C1229.31 556.99 1226.86 558.109 1225.39 560.312L1225.38 560.31Z" fill="#9593B2"/>
<path opacity="0.5" d="M1201.67 579.407C1201.67 579.407 1195.12 565.548 1206.82 574.596C1206.82 574.596 1203.65 563.317 1212.33 572.23C1212.33 572.23 1214.04 558.289 1218.55 571.034C1218.55 571.034 1224.83 557.013 1227.16 571.655" stroke="#8C89AD" stroke-width="3" stroke-miterlimit="10" stroke-linecap="round" stroke-linejoin="round"/>
<path opacity="0.5" d="M1208.59 585.107C1208.59 585.107 1215.58 574.217 1215.17 586.356C1215.17 586.356 1224.54 579.022 1221.79 590.873" stroke="#8C89AD" stroke-width="3" stroke-miterlimit="10" stroke-linecap="round" stroke-linejoin="round"/>
<path opacity="0.5" d="M1265.85 577.348C1265.85 577.348 1274.75 566.693 1271.73 578.934C1271.73 578.934 1280.93 578.325 1273.71 585.704C1273.71 585.704 1282.67 585.285 1274.82 590.845" stroke="#8C89AD" stroke-width="3" stroke-miterlimit="10" stroke-linecap="round" stroke-linejoin="round"/>
<path opacity="0.5" d="M1256.24 567.818C1256.24 567.818 1255.74 556.005 1262.98 566.042C1262.98 566.042 1262 559.835 1266.13 559.903C1270.25 559.972 1268.33 566.701 1268.33 566.701C1268.33 566.701 1269.74 560.568 1273.69 561.916C1277.65 563.265 1275.08 570.135 1275.08 570.135C1275.08 570.135 1278.31 561.605 1282.41 568.856C1282.41 568.856 1283.78 570.106 1279.93 574.858" stroke="#8C89AD" stroke-width="3" stroke-miterlimit="10" stroke-linecap="round" stroke-linejoin="round"/>
<path opacity="0.5" d="M1279.62 581.932C1279.62 581.932 1281.03 577.538 1285.53 581.575C1285.53 581.575 1288.8 585.022 1281.47 586.301C1281.47 586.301 1291.74 587.565 1282.3 591.848C1282.3 591.848 1288.83 591.788 1284.58 596.271" stroke="#8C89AD" stroke-width="3" stroke-miterlimit="10" stroke-linecap="round" stroke-linejoin="round"/>
</g>
<path d="M1101.7 567.912C997.239 552.985 947.007 540.521 882.506 537.848C546.87 507.785 335.66 563.131 231.784 573.423C-91.8643 605.49 14.3049 610 28.0049 610H1276.36C1276.36 610 1396.23 610 1101.7 567.912Z" fill="#9593B2"/>
<mask id="mask1_4789_72963" style="mask-type:luminance" maskUnits="userSpaceOnUse" x="625" y="267" width="55" height="53">
<path d="M679.82 267H625.5V319.28H679.82V267Z" fill="white"/>
</mask>
<g mask="url(#mask1_4789_72963)">
<path d="M679.821 291.26C679.821 291.26 673.341 288.86 668.751 274.27C664.371 260.37 657.681 270.67 657.681 270.67C657.681 270.67 652.531 281.48 666.951 290.75C666.951 290.75 658.971 292.04 654.341 281.23C654.341 281.23 652.281 268.87 645.331 271.19C638.381 273.51 646.621 290.5 651.251 293.07C655.881 295.64 640.441 291.27 634.261 283.55C634.261 283.54 626.031 279.16 625.511 288.17C625.511 288.17 624.481 295.38 642.241 296.41C642.241 296.41 624.741 298.47 628.341 312.11C628.341 312.11 630.911 315.46 636.831 313.4C636.831 313.4 640.431 309.54 643.271 303.36C643.271 303.36 646.101 296.92 651.511 297.18C651.511 297.18 641.211 309.02 649.711 318.29C649.711 318.29 658.201 322.92 658.201 312.11C658.201 312.11 654.851 297.7 668.751 295.38C668.751 295.38 659.481 301.3 662.831 313.91C662.831 313.91 664.631 319.32 672.611 314.68C672.611 314.68 674.671 311.85 675.181 303.87C675.691 295.89 679.811 295.38 679.811 295.38V291.26H679.821Z" fill="white"/>
</g>
<mask id="mask2_4789_72963" style="mask-type:luminance" maskUnits="userSpaceOnUse" x="79" y="457" width="97" height="155">
<path d="M156.275 457L79 467.609L98.7233 611.262L175.998 600.652L156.275 457Z" fill="white"/>
</mask>
<g mask="url(#mask2_4789_72963)">
<path d="M123.527 506.613C123.412 506.629 123.298 506.644 123.188 506.636C122.21 506.637 121.312 506.096 120.858 505.219C118.363 500.398 114.246 480.145 113.792 477.853C113.503 476.43 114.416 475.045 115.836 474.756C117.25 474.476 118.626 475.39 118.916 476.821C120.133 482.858 122.041 491.491 123.642 497.272L133.274 478.104C133.928 476.81 135.496 476.297 136.782 476.95C138.068 477.61 138.588 479.189 137.935 480.484L125.515 505.198C125.124 505.971 124.381 506.496 123.542 506.611L123.527 506.613Z" fill="#9593B2"/>
<path d="M138.549 605.793C137.139 605.987 135.823 605.002 135.611 603.576C134.988 599.429 120.25 501.931 120.107 500.886C119.909 499.45 120.908 498.124 122.333 497.928C123.759 497.733 125.078 498.741 125.275 500.177C125.457 501.505 140.616 601.785 140.77 602.797C140.99 604.23 140.009 605.569 138.579 605.789L138.541 605.794L138.549 605.793Z" fill="#9593B2"/>
<path d="M124.979 522.342C124.414 522.42 123.825 522.313 123.301 522.001C119.961 520.019 115.84 515.515 111.039 508.609C107.563 503.602 105.033 499.201 104.93 499.019C104.206 497.757 104.637 496.149 105.882 495.431C107.134 494.703 108.732 495.141 109.448 496.396C112.183 501.161 120.471 514.23 125.942 517.477C127.184 518.214 127.601 519.831 126.871 521.081C126.45 521.804 125.742 522.245 124.972 522.351L124.979 522.342Z" fill="#9593B2"/>
<path d="M126.126 522.608C125.371 522.712 124.586 522.483 123.981 521.925C122.929 520.935 122.871 519.268 123.852 518.211C123.994 518.058 137.913 503.019 146.238 489.828C147.009 488.604 148.622 488.241 149.839 489.021C151.057 489.8 151.42 491.425 150.648 492.649C142.056 506.268 128.26 521.181 127.67 521.809C127.244 522.267 126.691 522.538 126.119 522.617L126.126 522.608Z" fill="#9593B2"/>
<path d="M128.319 541.528C127.267 541.672 126.186 541.156 125.653 540.157C122.378 533.957 102.234 518.197 94.7461 512.645C93.5865 511.78 93.3304 510.141 94.1867 508.967C95.0441 507.801 96.6712 507.546 97.8384 508.411C100.691 510.523 125.835 529.32 130.262 537.694C130.943 538.977 130.455 540.57 129.182 541.253C128.899 541.401 128.609 541.496 128.312 541.537L128.319 541.528Z" fill="#9593B2"/>
<path d="M131.979 560.498C131.842 560.517 131.711 560.527 131.571 560.523C130.13 560.493 128.979 559.29 129.012 557.838C129.275 543.916 147.788 506.779 148.581 505.207C149.227 503.913 150.802 503.392 152.088 504.045C153.374 504.698 153.894 506.285 153.249 507.578C153.199 507.671 148.46 517.162 143.755 528.151C136.01 546.238 134.31 554.334 134.238 557.942C134.216 559.252 133.236 560.317 131.986 560.489L131.979 560.498Z" fill="#9593B2"/>
<path d="M130.148 556.15C128.891 556.323 127.674 555.551 127.302 554.311C126.198 552.1 114.676 542.057 97.1625 528.939C96.0029 528.074 95.761 526.425 96.6183 525.259C97.4757 524.093 99.1125 523.852 100.272 524.718C100.35 524.778 107.89 530.424 115.47 536.526C131.406 549.359 132.007 551.639 132.323 552.871C132.687 554.276 131.859 555.712 130.457 556.076C130.352 556.106 130.253 556.12 130.146 556.135L130.148 556.15ZM127.272 554.206C127.272 554.206 127.277 554.244 127.279 554.26C127.277 554.244 127.274 554.221 127.272 554.206Z" fill="#9593B2"/>
<path d="M102.636 489.946C102.636 489.946 94.1005 491.196 94.672 496.32C94.672 496.32 95.0329 501.325 101.543 501.784C101.543 501.784 110.459 502.125 110.87 496.741C110.87 496.741 112.853 489.247 102.643 489.945L102.636 489.946Z" fill="#908EB3"/>
<path d="M104.476 502.798C102.845 503.021 101.565 502.978 101.494 502.972C95.5256 502.548 93.6606 498.524 93.5055 496.433C93.3059 494.583 93.9224 492.003 97.9467 490.144C100.138 489.131 102.368 488.801 102.466 488.78L102.557 488.768C106.475 488.504 109.262 489.349 110.841 491.284C112.652 493.5 112.161 496.321 112.02 496.935C111.848 498.844 110.703 501.309 106.337 502.433C105.699 502.598 105.063 502.717 104.476 502.798ZM102.765 491.125C102.467 491.166 100.626 491.497 98.8883 492.307C96.6842 493.337 95.6597 494.643 95.8345 496.2L95.8409 496.246C95.8728 496.648 96.351 500.244 101.614 500.617C101.652 500.611 109.374 500.85 109.691 496.66L109.7 496.549L109.724 496.444C109.724 496.444 110.257 494.274 109.018 492.77C107.964 491.491 105.798 490.928 102.765 491.125Z" fill="#908EB3"/>
<path d="M134.508 471.309C134.508 471.309 124.273 472.848 125.618 481.402C125.618 481.402 126.103 491.044 134.942 491.043C134.942 491.043 144.19 491.197 145.56 482.341C145.56 482.341 148.687 469.926 134.508 471.309Z" fill="#908EB3"/>
<path d="M136.648 492.115C136.023 492.201 135.437 492.234 134.924 492.226C127.11 492.227 124.663 485.264 124.445 481.523C124.055 478.972 124.555 476.728 125.921 474.851C128.698 471.035 134.095 470.184 134.323 470.145L134.384 470.137C139.251 469.664 142.793 470.688 144.913 473.174C147.95 476.739 146.853 481.928 146.701 482.575C145.648 489.221 140.367 491.596 136.639 492.108L136.648 492.115ZM134.659 472.477C134.287 472.544 129.923 473.339 127.814 476.249C126.808 477.639 126.471 479.258 126.779 481.218L126.796 481.341C126.812 481.683 127.353 489.863 134.948 489.86C135.299 489.867 143.221 489.867 144.406 482.154L144.43 482.042C144.44 482.001 145.526 477.471 143.141 474.693C141.55 472.83 138.698 472.087 134.658 472.47L134.659 472.477Z" fill="#908EB3"/>
<path d="M93.9882 505.02C93.9882 505.02 85.688 506.34 86.4565 513.181C86.4565 513.181 87.007 519.85 93.3863 520.718C93.3863 520.718 102.118 521.522 102.303 514.385C102.303 514.385 103.952 504.505 93.9882 505.02Z" fill="#908EB3"/>
<path d="M96.1267 521.789C94.5792 522.002 93.377 521.901 93.2747 521.891L93.2269 521.882C87.4415 521.096 85.5022 515.91 85.2799 513.272C84.5752 507.009 90.5424 504.367 93.7956 503.85L93.9176 503.833C97.2334 503.659 99.761 504.533 101.443 506.43C104.071 509.394 103.563 513.782 103.464 514.476C103.395 516.629 102.632 518.369 101.2 519.653C99.6923 521.002 97.7255 521.554 96.1247 521.774L96.1267 521.789ZM93.5039 519.544C93.8097 519.565 97.5384 519.796 99.6462 517.895C100.6 517.037 101.085 515.875 101.124 514.344L101.14 514.177C101.14 514.177 101.741 510.3 99.6847 507.993C98.5097 506.676 96.6405 506.072 94.1085 506.185C93.3809 506.316 87.005 507.622 87.6089 513.039C87.6295 513.302 88.1809 518.789 93.5018 519.529L93.5039 519.544Z" fill="#908EB3"/>
<path d="M151.167 482.626C151.167 482.626 142.867 483.945 143.636 490.787C143.636 490.787 144.186 497.455 150.565 498.324C150.565 498.324 159.297 499.128 159.482 491.991C159.482 491.991 161.131 482.11 151.167 482.626Z" fill="#908EB3"/>
<path d="M153.307 499.395C151.759 499.607 150.557 499.506 150.455 499.497L150.407 499.488C144.62 498.694 142.681 493.508 142.46 490.878C141.755 484.614 147.722 481.972 150.975 481.455L151.097 481.438C154.413 481.265 156.941 482.138 158.623 484.035C161.251 486.999 160.743 491.388 160.644 492.082C160.575 494.235 159.812 495.975 158.38 497.259C156.872 498.608 154.905 499.16 153.304 499.38L153.307 499.395ZM150.691 497.149C150.997 497.169 154.726 497.401 156.834 495.5C157.788 494.641 158.273 493.479 158.311 491.948L158.327 491.782C158.327 491.782 158.929 487.905 156.872 485.598C155.697 484.28 153.828 483.676 151.296 483.789C150.568 483.921 144.192 485.226 144.796 490.643C144.817 490.906 145.368 496.393 150.689 497.133L150.691 497.149Z" fill="#908EB3"/>
<path d="M97.7995 523.625C97.7995 523.625 89.2646 524.875 89.8361 529.999C89.8361 529.999 90.197 535.003 96.7065 535.463C96.7065 535.463 105.622 535.804 106.033 530.42C106.033 530.42 108.017 522.926 97.8071 523.624L97.7995 523.625Z" fill="#908EB3"/>
<path d="M99.6402 536.47C98.0089 536.694 96.7292 536.65 96.6584 536.644C90.6897 536.22 88.8247 532.197 88.6696 530.105C88.47 528.255 89.0865 525.675 93.1108 523.816C95.3018 522.803 97.5321 522.473 97.6302 522.452L97.7217 522.44C101.639 522.176 104.426 523.021 106.005 524.956C107.816 527.172 107.325 529.993 107.184 530.607C107.012 532.516 105.867 534.981 101.501 536.105C100.863 536.27 100.227 536.389 99.6402 536.47ZM97.9289 524.797C97.6316 524.838 95.7897 525.169 94.0524 525.979C91.8483 527.009 90.8238 528.315 90.9986 529.872L91.005 529.918C91.0369 530.32 91.5151 533.916 96.7777 534.289C96.8158 534.283 104.538 534.522 104.855 530.332L104.864 530.221L104.888 530.116C104.888 530.116 105.421 527.946 104.182 526.442C103.128 525.163 100.962 524.6 97.9289 524.797Z" fill="#908EB3"/>
<path d="M113.102 464.116C113.102 464.116 102.867 465.654 104.212 474.208C104.212 474.208 104.697 483.851 113.535 483.85C113.535 483.85 122.784 484.004 124.154 475.147C124.154 475.147 127.28 462.733 113.102 464.116Z" fill="#908EB3"/>
<path d="M115.242 484.922C114.617 485.007 114.031 485.041 113.517 485.033C105.704 485.034 103.257 478.071 103.038 474.33C102.649 471.778 103.149 469.535 104.514 467.657C107.298 463.833 112.695 462.982 112.924 462.951L112.985 462.943C117.852 462.47 121.395 463.493 123.514 465.98C126.551 469.545 125.454 474.734 125.302 475.381C124.25 482.026 118.968 484.402 115.241 484.914L115.242 484.922ZM113.253 465.292C112.882 465.359 108.517 466.153 106.408 469.064C105.403 470.454 105.066 472.072 105.374 474.033L105.391 474.156C105.407 474.498 105.947 482.677 113.543 482.675C113.893 482.682 121.815 482.681 123.001 474.969L123.025 474.856C123.035 474.816 124.121 470.285 121.736 467.507C120.144 465.644 117.293 464.902 113.252 465.284L113.253 465.292Z" fill="#908EB3"/>
<path d="M151.738 500.472C151.738 500.472 143.438 501.791 144.206 508.633C144.206 508.633 144.757 515.301 151.136 516.17C151.136 516.17 159.867 516.974 160.053 509.837C160.053 509.837 161.702 499.957 151.738 500.472Z" fill="#908EB3"/>
<path d="M153.885 517.247C152.337 517.459 151.135 517.358 151.033 517.349L150.985 517.34C145.199 516.546 143.259 511.359 143.038 508.73C142.333 502.466 148.3 499.824 151.554 499.307L151.676 499.29C154.992 499.116 157.519 499.99 159.201 501.887C161.829 504.851 161.321 509.239 161.222 509.934C161.153 512.087 160.39 513.827 158.958 515.11C157.45 516.46 155.483 517.011 153.883 517.231L153.885 517.247ZM151.261 514.994C151.567 515.014 155.295 515.246 157.403 513.345C158.357 512.486 158.842 511.324 158.881 509.793L158.897 509.627C158.897 509.627 159.498 505.75 157.442 503.443C156.267 502.125 154.398 501.522 151.866 501.634C151.138 501.766 144.762 503.071 145.366 508.488C145.387 508.751 145.938 514.238 151.259 514.978L151.261 514.994Z" fill="#908EB3"/>
</g>
<path d="M153.258 227.091C154.023 225.734 155.977 225.734 156.742 227.091L160.423 233.621C160.708 234.127 161.199 234.484 161.769 234.599L169.116 236.081C170.644 236.39 171.248 238.248 170.193 239.395L165.121 244.913C164.727 245.341 164.539 245.919 164.606 246.496L165.467 253.942C165.646 255.49 164.064 256.639 162.648 255.99L155.832 252.871C155.304 252.629 154.696 252.629 154.168 252.871L147.352 255.99C145.936 256.639 144.354 255.49 144.533 253.942L145.394 246.496C145.461 245.919 145.273 245.341 144.879 244.913L139.807 239.395C138.752 238.248 139.356 236.39 140.884 236.081L148.231 234.599C148.801 234.484 149.292 234.127 149.577 233.621L153.258 227.091Z" fill="#9593B2"/>
<path d="M99.2575 285.091C100.023 283.734 101.977 283.734 102.742 285.091L106.423 291.621C106.708 292.127 107.199 292.484 107.769 292.599L115.116 294.081C116.644 294.39 117.248 296.248 116.193 297.395L111.121 302.913C110.727 303.341 110.539 303.919 110.606 304.496L111.467 311.942C111.646 313.49 110.064 314.639 108.648 313.99L101.832 310.871C101.304 310.629 100.696 310.629 100.168 310.871L93.3523 313.99C91.9355 314.639 90.3543 313.49 90.5332 311.942L91.3937 304.496C91.4604 303.919 91.2726 303.341 90.8792 302.913L85.8067 297.395C84.7523 296.248 85.3562 294.39 86.8835 294.081L94.2305 292.599C94.8003 292.484 95.2919 292.127 95.5773 291.621L99.2575 285.091Z" fill="#9593B2"/>
<path d="M50.2575 193.091C51.0225 191.734 52.9771 191.734 53.7421 193.091L57.4223 199.621C57.7077 200.127 58.1993 200.484 58.7691 200.599L66.1161 202.081C67.6433 202.39 68.2473 204.248 67.1929 205.395L62.1204 210.913C61.727 211.341 61.5392 211.919 61.6059 212.496L62.4664 219.942C62.6453 221.49 61.0641 222.639 59.6473 221.99L52.8321 218.871C52.3036 218.629 51.696 218.629 51.1675 218.871L44.3523 221.99C42.9355 222.639 41.3543 221.49 41.5332 219.942L42.3937 212.496C42.4604 211.919 42.2726 211.341 41.8792 210.913L36.8067 205.395C35.7523 204.248 36.3562 202.39 37.8835 202.081L45.2305 200.599C45.8003 200.484 46.2919 200.127 46.5773 199.621L50.2575 193.091Z" fill="#9593B2"/>
<path d="M1083.76 75.0912C1084.52 73.7339 1086.48 73.7339 1087.24 75.0911L1091.08 81.9021C1091.37 82.4084 1091.86 82.7656 1092.43 82.8805L1100.09 84.4269C1101.62 84.735 1102.22 86.5939 1101.17 87.7409L1095.88 93.4966C1095.48 93.9245 1095.3 94.5024 1095.36 95.0798L1096.26 102.846C1096.44 104.394 1094.86 105.543 1093.44 104.895L1086.33 101.641C1085.8 101.399 1085.2 101.399 1084.67 101.641L1077.56 104.895C1076.14 105.543 1074.56 104.394 1074.74 102.846L1075.64 95.0798C1075.7 94.5024 1075.52 93.9245 1075.12 93.4966L1069.83 87.7409C1068.78 86.5939 1069.38 84.735 1070.91 84.4269L1078.57 82.8805C1079.14 82.7656 1079.63 82.4084 1079.92 81.9021L1083.76 75.0912Z" fill="#9593B2"/>
<path d="M1244.25 82.195C1245.01 80.8113 1246.99 80.8113 1247.75 82.195L1251.43 88.8908C1251.71 89.404 1252.2 89.7681 1252.78 89.8869L1260.19 91.4242C1261.7 91.737 1262.31 93.5679 1261.28 94.7165L1256.1 100.503C1255.72 100.928 1255.54 101.494 1255.6 102.061L1256.47 109.815C1256.65 111.37 1255.05 112.515 1253.64 111.849L1246.85 108.66C1246.31 108.407 1245.69 108.407 1245.15 108.66L1238.36 111.849C1236.95 112.515 1235.35 111.37 1235.53 109.815L1236.4 102.061C1236.46 101.494 1236.28 100.928 1235.9 100.503L1230.72 94.7165C1229.69 93.5679 1230.3 91.737 1231.81 91.4242L1239.22 89.8869C1239.8 89.7681 1240.29 89.404 1240.57 88.8908L1244.25 82.195Z" fill="#9593B2"/>
<path d="M1168.76 113.091C1169.52 111.734 1171.48 111.734 1172.24 113.091L1176.08 119.902C1176.37 120.408 1176.86 120.766 1177.43 120.881L1185.09 122.427C1186.62 122.735 1187.22 124.594 1186.17 125.741L1180.88 131.497C1180.48 131.925 1180.3 132.502 1180.36 133.08L1181.26 140.846C1181.44 142.394 1179.86 143.543 1178.44 142.895L1171.33 139.641C1170.8 139.399 1170.2 139.399 1169.67 139.641L1162.56 142.895C1161.14 143.543 1159.56 142.394 1159.74 140.846L1160.64 133.08C1160.7 132.502 1160.52 131.925 1160.12 131.497L1154.83 125.741C1153.78 124.594 1154.38 122.735 1155.91 122.427L1163.57 120.881C1164.14 120.766 1164.63 120.408 1164.92 119.902L1168.76 113.091Z" fill="#9593B2"/>
<path d="M1159.54 578.474C1159.54 578.474 1164.55 572.487 1181.79 573.12C1198.23 573.716 1189.81 562.703 1189.81 562.703C1189.81 562.703 1180.27 553.136 1164.96 564.973C1164.96 564.973 1166.61 555.994 1179.85 555.156C1179.85 555.156 1193.77 557.638 1193.93 549.366C1194.1 541.094 1172.92 543.436 1168.43 547.391C1163.95 551.345 1174.44 536.57 1184.98 532.914C1184.99 532.917 1192.77 525.817 1183.38 521.857C1183.38 521.857 1176.11 518.034 1168.29 536.541C1168.29 536.541 1172.73 517.143 1156.87 515.815C1156.87 515.815 1152.33 517.283 1152.28 524.36C1152.28 524.36 1155.02 529.65 1160.52 535.009C1160.52 535.009 1166.29 540.456 1163.97 546.113C1163.97 546.113 1155.28 530.677 1142.21 536.216C1142.21 536.216 1134.07 543.498 1145.56 547.586C1145.56 547.586 1162.15 549.47 1159.35 565.137C1159.35 565.137 1156.57 553.035 1141.9 551.831C1141.9 551.831 1135.47 551.701 1137.38 561.946C1137.38 561.946 1139.61 565.208 1147.9 568.768C1156.18 572.329 1155.17 576.905 1155.17 576.905L1159.55 578.463L1159.54 578.474Z" fill="#9593B2"/>
<path d="M55.7658 594.127C55.7658 594.127 58.267 584.753 78.0427 576.422C96.8822 568.475 81.6172 560.473 81.6172 560.473C81.6172 560.473 65.8421 554.691 54.788 576.067C54.788 576.067 51.9383 565.08 66.429 557.189C66.429 557.189 83.4222 552.687 79.269 543.275C75.1159 533.863 52.4674 547.612 49.4858 554.422C46.5042 561.232 50.5803 539.073 60.5516 529.42C60.5655 529.419 65.6024 517.338 52.9495 517.793C52.9495 517.793 42.7437 517.299 43.6374 542.264C43.6374 542.264 38.4619 518.068 19.8832 524.891C19.8832 524.891 15.5416 528.923 19.1963 536.93C19.1963 536.93 25.0605 541.456 34.0653 544.616C34.0653 544.616 43.432 547.727 43.7793 555.325C43.7793 555.325 25.8892 542.478 14.0577 555.578C14.0577 555.578 8.70578 568.055 23.8045 566.637C23.8045 566.637 43.4916 560.063 48.5575 579.191C48.5575 579.191 39.0714 567.008 21.8984 573.346C21.8984 573.346 14.5784 576.572 22.1073 587.12C22.1073 587.12 26.3306 589.629 37.5436 589.295C48.7566 588.961 50.01 594.654 50.01 594.654L55.7645 594.113L55.7658 594.127Z" fill="#9593B2"/>
<path d="M1065.75 310.126C1062.07 306.02 1058.98 301.405 1056.6 296.419L1033.2 247.728C1029.54 241.393 1020.42 241.393 1016.76 247.728L993.36 296.419C990.975 301.386 987.886 306 984.211 310.126L974.476 320.999C970.82 327.334 975.395 335.234 982.706 335.234H992.422V433.476H316.237V335.234H323.489C330.8 335.234 335.375 327.315 331.719 320.999L321.984 310.126C318.309 306.02 315.22 301.405 312.835 296.419L289.436 247.728C285.78 241.393 276.651 241.393 272.995 247.728L249.596 296.419C247.211 301.386 244.122 306 240.447 310.126L230.712 320.999C227.056 327.334 231.63 335.234 238.942 335.234H248.657V575.969C248.657 581.502 253.153 586 258.686 586H1050.01C1055.54 586 1060.04 581.502 1060.04 575.969V335.234H1067.29C1074.6 335.234 1079.18 327.315 1075.52 320.999L1065.79 310.126H1065.75ZM298.35 386.936C298.35 386.936 298.35 387.014 298.35 387.034V400.429C298.35 402.13 296.981 403.499 295.281 403.499H269.574C267.873 403.499 266.505 402.13 266.505 400.429V378.645C266.505 369.846 273.64 362.728 282.418 362.728C291.195 362.728 298.33 369.865 298.33 378.645V386.936H298.35ZM1042.13 386.936C1042.13 386.936 1042.13 387.014 1042.13 387.034V400.429C1042.13 402.13 1040.77 403.499 1039.06 403.499H1013.36C1011.66 403.499 1010.29 402.13 1010.29 400.429V378.645C1010.29 369.846 1017.42 362.728 1026.2 362.728C1034.98 362.728 1042.11 369.865 1042.11 378.645V386.936H1042.13Z" fill="#9593B2"/>
<path d="M623.099 6.73121L349.143 121.704C321.783 133.181 303.984 159.965 303.984 189.65V512.319C303.984 553.008 336.952 586 377.628 586H926.341C967.009 586 999.984 553.016 999.984 512.319V189.693C999.984 159.987 982.156 133.188 954.768 121.726L680.005 6.7094C661.799 -0.915233 641.298 -0.900696 623.092 6.73848L623.099 6.73121Z" fill="#9593B2"/>
<mask id="mask3_4789_72963" style="mask-type:alpha" maskUnits="userSpaceOnUse" x="229" y="1" width="848" height="585">
<path d="M1065.75 310.126C1062.07 306.02 1058.98 301.405 1056.6 296.419L1033.2 247.728C1029.54 241.393 1020.42 241.393 1016.76 247.728L993.36 296.419C990.975 301.386 987.886 306 984.211 310.126L974.476 320.999C970.82 327.334 975.395 335.234 982.706 335.234H992.422V433.476H316.237V335.234H323.489C330.8 335.234 335.375 327.315 331.719 320.999L321.984 310.126C318.309 306.02 315.22 301.405 312.835 296.419L289.436 247.728C285.78 241.393 276.651 241.393 272.995 247.728L249.596 296.419C247.211 301.386 244.122 306 240.447 310.126L230.712 320.999C227.056 327.334 231.63 335.234 238.942 335.234H248.657V575.969C248.657 581.502 253.153 586 258.686 586H1050.01C1055.54 586 1060.04 581.502 1060.04 575.969V335.234H1067.29C1074.6 335.234 1079.18 327.315 1075.52 320.999L1065.79 310.126H1065.75ZM298.35 386.936C298.35 386.936 298.35 387.014 298.35 387.034V400.429C298.35 402.13 296.981 403.499 295.281 403.499H269.574C267.873 403.499 266.505 402.13 266.505 400.429V378.645C266.505 369.846 273.64 362.728 282.418 362.728C291.195 362.728 298.33 369.865 298.33 378.645V386.936H298.35ZM1042.13 386.936C1042.13 386.936 1042.13 387.014 1042.13 387.034V400.429C1042.13 402.13 1040.77 403.499 1039.06 403.499H1013.36C1011.66 403.499 1010.29 402.13 1010.29 400.429V378.645C1010.29 369.846 1017.42 362.728 1026.2 362.728C1034.98 362.728 1042.11 369.865 1042.11 378.645V386.936H1042.13Z" fill="#F1F2FE"/>
<path d="M623.099 6.73121L349.143 121.704C321.783 133.181 303.984 159.965 303.984 189.65V512.319C303.984 553.008 336.952 586 377.628 586H926.341C967.009 586 999.984 553.016 999.984 512.319V189.693C999.984 159.987 982.156 133.188 954.768 121.726L680.005 6.7094C661.799 -0.915233 641.298 -0.900696 623.092 6.73848L623.099 6.73121Z" fill="#F1F2FE"/>
</mask>
<g mask="url(#mask3_4789_72963)">
<path d="M1101.5 69.8372V66.1524H1060.99V65.4523H987.813V34.6847H1060.99V31H228.5V69.1371H269.009V101.25H228.5V139.387H269.009V171.499H228.5V209.636H269.009V241.749H228.5V279.886H269.009V311.998H228.5V350.136H269.009V382.248H228.5V420.385H269.009V452.498H228.5V490.635H269.009V522.747H228.5V560.884H269.009V596.037H1101.5V592.352H1028.32V561.584H1101.5V557.9H1060.99V557.2H987.813V526.432H1060.99V525.787H1101.5V522.102H1028.32V491.335H1101.5V487.65H1060.99V486.95H987.813V456.182H1060.99V455.538H1101.5V451.853H1028.32V421.085H1101.5V417.4H1060.99V416.7H987.813V385.933H1060.99V385.288H1101.5V381.603H1028.32V350.836H1101.5V347.151H1060.99V346.451H987.813V315.683H1060.99V315.038H1101.5V311.354H1028.32V280.586H1101.5V276.901H1060.99V276.201H987.813V245.434H1060.99V244.789H1101.5V241.104H1028.32V210.336H1101.5V206.652H1060.99V205.952H987.813V175.184H1060.99V174.539H1101.5V170.854H1028.32V140.087H1101.5V136.402H1060.99V135.702H987.813V104.934H1060.99V104.29H1101.5V100.605H1028.32V69.8372H1101.5ZM1024.64 100.605H952.752V69.8372H1024.64V100.605ZM984.132 135.702H912.242V104.934H984.132V135.702ZM1024.64 170.854H952.752V140.087H1024.64V170.854ZM984.132 205.952H912.242V175.184H984.132V205.952ZM1024.64 241.104H952.752V210.336H1024.64V241.104ZM984.132 276.201H912.242V245.434H984.132V276.201ZM1024.64 311.354H952.752V280.586H1024.64V311.354ZM984.132 346.451H912.242V315.683H984.132V346.451ZM1024.64 381.603H952.752V350.836H1024.64V381.603ZM984.132 416.7H912.242V385.933H984.132V416.7ZM1024.64 451.853H952.752V421.085H1024.64V451.853ZM984.132 486.95H912.242V456.182H984.132V486.95ZM1024.64 522.102H952.752V491.335H1024.64V522.102ZM984.132 557.2H912.242V526.432H984.132V557.2ZM908.561 557.2H836.672V526.432H908.561V557.2ZM832.991 557.2H761.101V526.432H832.991V557.2ZM757.42 557.2H685.531V526.432H757.42V557.2ZM681.85 557.2H609.96V526.432H681.85V557.2ZM606.279 557.2H534.39V526.432H606.279V557.2ZM530.709 557.2H458.819V526.432H530.709V557.2ZM455.138 557.2H383.248V526.432H455.138V557.2ZM949.089 100.605H877.199V69.8372H949.089V100.605ZM908.58 135.702H836.69V104.934H908.58V135.702ZM949.089 170.854H877.199V140.087H949.089V170.854ZM908.58 205.952H836.69V175.184H908.58V205.952ZM949.089 241.104H877.199V210.336H949.089V241.104ZM908.58 276.201H836.69V245.434H908.58V276.201ZM949.089 311.354H877.199V280.586H949.089V311.354ZM908.58 346.451H836.69V315.683H908.58V346.451ZM949.089 381.603H877.199V350.836H949.089V381.603ZM908.58 416.7H836.69V385.933H908.58V416.7ZM949.089 451.853H877.199V421.085H949.089V451.853ZM908.58 486.95H836.69V456.182H908.58V486.95ZM949.089 522.102H877.199V491.335H949.089V522.102ZM458.874 104.934H530.764V135.702H458.874V104.934ZM534.445 104.934H606.334V135.702H534.445V104.934ZM610.015 104.934H681.905V135.702H610.015V104.934ZM685.586 104.934H757.475V135.702H685.586V104.934ZM761.156 104.934H833.046V135.702H761.156V104.934ZM873.537 170.854H801.647V140.087H873.537V170.854ZM833.028 205.952H761.138V175.184H833.028V205.952ZM873.537 241.104H801.647V210.336H873.537V241.104ZM833.028 276.201H761.138V245.434H833.028V276.201ZM873.537 311.354H801.647V280.586H873.537V311.354ZM833.028 346.451H761.138V315.683H833.028V346.451ZM873.537 381.603H801.647V350.836H873.537V381.603ZM833.028 416.7H761.138V385.933H833.028V416.7ZM873.537 451.853H801.647V421.085H873.537V451.853ZM833.028 486.95H761.138V456.182H833.028V486.95ZM499.383 140.087H571.273V170.854H499.383V140.087ZM574.954 140.087H646.844V170.854H574.954V140.087ZM650.525 140.087H722.414V170.854H650.525V140.087ZM726.095 140.087H797.985V170.854H726.095V140.087ZM757.475 205.952H685.586V175.184H757.475V205.952ZM797.985 241.104H726.095V210.336H797.985V241.104ZM757.475 276.201H685.586V245.434H757.475V276.201ZM797.985 311.354H726.095V280.586H797.985V311.354ZM757.475 346.451H685.586V315.683H757.475V346.451ZM797.985 381.603H726.095V350.836H797.985V381.603ZM757.475 416.7H685.586V385.933H757.475V416.7ZM797.985 451.853H726.095V421.085H797.985V451.853ZM757.475 486.95H685.586V456.182H757.475V486.95ZM681.905 486.95H610.015V456.182H681.905V486.95ZM606.334 486.95H534.445V456.182H606.334V486.95ZM610.015 175.202H681.905V205.97H610.015V175.202ZM722.414 241.122H650.525V210.355H722.414V241.122ZM681.905 276.22H610.015V245.452H681.905V276.22ZM722.414 311.372H650.525V280.604H722.414V311.372ZM681.905 346.469H610.015V315.702H681.905V346.469ZM722.414 381.622H650.525V350.854H722.414V381.622ZM681.905 416.719H610.015V385.951H681.905V416.719ZM722.414 451.871H650.525V421.104H722.414V451.871ZM574.972 210.373H646.862V241.141H574.972V210.373ZM574.972 280.623H646.862V311.39H574.972V280.623ZM574.972 350.872H646.862V381.64H574.972V350.872ZM574.972 421.122H646.862V451.89H574.972V421.122ZM534.463 175.239H606.353V206.007H534.463V175.239ZM534.463 245.489H606.353V276.256H534.463V245.489ZM534.463 315.738H606.353V346.506H534.463V315.738ZM534.463 385.988H606.353V416.756H534.463V385.988ZM499.402 210.41H571.291V241.178H499.402V210.41ZM499.402 280.66H571.291V311.427H499.402V280.66ZM499.402 350.909H571.291V381.677H499.402V350.909ZM499.402 421.159H571.291V451.927H499.402V421.159ZM458.893 175.276H530.782V206.044H458.893V175.276ZM458.893 245.526H530.782V276.293H458.893V245.526ZM458.893 315.775H530.782V346.543H458.893V315.775ZM458.893 386.025H530.782V416.793H458.893V386.025ZM458.893 456.275H530.782V487.042H458.893V456.275ZM423.831 140.197H495.721V170.965H423.831V140.197ZM423.831 210.447H495.721V241.215H423.831V210.447ZM423.831 280.697H495.721V311.464H423.831V280.697ZM423.831 350.946H495.721V381.714H423.831V350.946ZM423.831 421.196H495.721V451.963H423.831V421.196ZM423.831 491.445H495.721V522.213H423.831V491.445ZM499.402 491.445H571.291V522.213H499.402V491.445ZM574.972 491.445H646.862V522.213H574.972V491.445ZM650.543 491.445H722.433V522.213H650.543V491.445ZM726.113 491.445H798.003V522.213H726.113V491.445ZM801.684 491.445H873.574V522.213H801.684V491.445ZM383.304 104.934H455.193V135.702H383.304V104.934ZM383.304 175.184H455.193V205.952H383.304V175.184ZM383.304 245.434H455.193V276.201H383.304V245.434ZM383.304 315.683H455.193V346.451H383.304V315.683ZM383.304 385.933H455.193V416.7H383.304V385.933ZM383.304 456.182H455.193V486.95H383.304V456.182ZM873.518 100.605H801.629V69.8372H873.518V100.605ZM797.948 100.605H726.058V69.8372H797.948V100.605ZM722.377 100.605H650.488V69.8372H722.377V100.605ZM646.807 100.605H574.917V69.8372H646.807V100.605ZM571.236 100.605H499.347V69.8372H571.236V100.605ZM495.666 100.605H423.776V69.8372H495.666V100.605ZM420.095 100.605H348.206V69.8372H420.095V100.605ZM348.206 140.087H420.095V170.854H348.206V140.087ZM348.206 210.336H420.095V241.104H348.206V210.336ZM348.206 280.586H420.095V311.354H348.206V280.586ZM348.206 350.836H420.095V381.603H348.206V350.836ZM348.206 421.085H420.095V451.853H348.206V421.085ZM348.206 491.335H420.095V522.102H348.206V491.335ZM307.752 104.934H379.641V135.702H307.752V104.934ZM307.752 175.184H379.641V205.952H307.752V175.184ZM307.752 245.434H379.641V276.201H307.752V245.434ZM307.752 315.683H379.641V346.451H307.752V315.683ZM307.752 385.933H379.641V416.7H307.752V385.933ZM307.752 456.182H379.641V486.95H307.752V456.182ZM307.752 526.432H379.641V557.2H307.752V526.432ZM344.561 69.8372V100.605H272.69V69.8372H344.58H344.561ZM344.561 140.087V170.854H272.69V140.087H344.58H344.561ZM344.561 210.336V241.104H272.69V210.336H344.58H344.561ZM344.561 280.586V311.354H272.69V280.586H344.58H344.561ZM344.561 350.836V381.603H272.69V350.836H344.58H344.561ZM344.561 421.085V451.853H272.69V421.085H344.58H344.561ZM344.561 491.335V522.102H272.69V491.335H344.58H344.561ZM912.261 34.6847H984.15V65.4523H912.261V34.6847ZM836.69 34.6847H908.58V65.4523H836.69V34.6847ZM761.12 34.6847H833.009V65.4523H761.12V34.6847ZM685.549 34.6847H757.439V65.4523H685.549V34.6847ZM609.979 34.6847H681.868V65.4523H609.979V34.6847ZM534.408 34.6847H606.298V65.4523H534.408V34.6847ZM458.837 34.6847H530.727V65.4523H458.837V34.6847ZM383.267 34.6847H455.156V65.4523H383.267V34.6847ZM307.696 34.6847H379.586V65.4523H307.696V34.6847ZM232.181 34.6847H304.071V65.4523H232.181V34.6847ZM232.181 104.934H304.071V135.702H232.181V104.934ZM232.181 175.184H304.071V205.952H232.181V175.184ZM232.181 245.434H304.071V276.201H232.181V245.434ZM232.181 315.683H304.071V346.451H232.181V315.683ZM232.181 385.933H304.071V416.7H232.181V385.933ZM232.181 456.182H304.071V486.95H232.181V456.182ZM232.181 526.432H304.071V557.2H232.181V526.432ZM272.69 592.352V561.584H344.58V592.352H272.69ZM348.261 592.352V561.584H420.15V592.352H348.261ZM423.831 592.352V561.584H495.721V592.352H423.831ZM499.402 592.352V561.584H571.291V592.352H499.402ZM574.972 592.352V561.584H646.862V592.352H574.972ZM650.543 592.352V561.584H722.433V592.352H650.543ZM726.113 592.352V561.584H798.003V592.352H726.113ZM801.684 592.352V561.584H873.574V592.352H801.684ZM877.255 592.352V561.584H949.144V592.352H877.255ZM952.825 592.352V561.584H1024.71V592.352H952.825Z" fill="#0C0541" fill-opacity="0.1"/>
</g>
<path d="M1067.5 205.993L1045.49 198.503L1023.5 191V205.993V221L1045.49 213.497L1067.5 205.993Z" fill="#9593B2"/>
<path d="M321.5 211.494L300.506 204.253L279.5 197V211.494V226L300.506 218.747L321.5 211.494Z" fill="#9593B2"/>
<path d="M281 198V250" stroke="#9593B2" stroke-width="5"/>
<path d="M1025 192V247" stroke="#9593B2" stroke-width="5"/>
<path d="M212.112 502.623C212.112 502.623 214.383 485.523 206.09 479.674C202.208 476.921 196.504 478.138 194.18 482.321C193.863 482.903 193.599 483.538 193.414 484.226" fill="#9593B2"/>
<path d="M223.678 499.552C223.678 499.552 229.461 478.774 218.237 477.424C218.237 477.424 210.077 475.73 208.387 484.915" fill="#9593B2"/>
<path d="M221.645 480.494C221.645 480.494 226.056 472.659 237.966 480.494C249.877 488.329 216.205 536.026 216.205 536.026L201.918 534.332C201.918 534.332 200.571 511.516 180.843 502.993C161.115 494.47 185.94 466.545 198.511 491.399C198.511 491.399 201.574 498.546 202.578 503.31" fill="#9593B2"/>
<path d="M222.989 482.876H193.754V505.692H222.989V482.876Z" fill="#9593B2"/>
<path d="M216.5 492H204.5V591H216.5V492Z" fill="#9593B2"/>
<path d="M701.484 79H610.484C601.648 79 594.484 86.1634 594.484 95C594.484 103.837 601.648 111 610.484 111H701.484C710.321 111 717.484 103.837 717.484 95C717.484 86.1634 710.321 79 701.484 79Z" fill="#0C0541"/>
<path d="M615.496 101V89.3632H623.337V91.3916H617.956V94.1644H622.933V96.1928H617.956V98.9712H623.359V101H615.496ZM624.813 101V89.3632H629.404C630.286 89.3632 631.038 89.5318 631.659 89.8689C632.28 90.2023 632.754 90.6663 633.08 91.261C633.409 91.8519 633.574 92.5337 633.574 93.3064C633.574 94.0791 633.407 94.761 633.074 95.3519C632.741 95.9428 632.258 96.403 631.625 96.7326C630.996 97.0621 630.235 97.2269 629.341 97.2269H626.415V95.2553H628.943C629.417 95.2553 629.807 95.1738 630.114 95.011C630.424 94.8443 630.655 94.6151 630.807 94.3235C630.962 94.028 631.04 93.689 631.04 93.3064C631.04 92.9201 630.962 92.5829 630.807 92.2951C630.655 92.0034 630.424 91.778 630.114 91.6189C629.803 91.456 629.409 91.3746 628.932 91.3746H627.273V101H624.813ZM637.152 89.3632V101H634.692V89.3632H637.152ZM645.009 92.7098C644.963 92.2515 644.768 91.8954 644.424 91.6416C644.079 91.3879 643.611 91.261 643.02 91.261C642.619 91.261 642.28 91.3178 642.003 91.4314C641.727 91.5413 641.515 91.6947 641.367 91.8916C641.223 92.0886 641.151 92.3121 641.151 92.5621C641.143 92.7704 641.187 92.9523 641.282 93.1076C641.38 93.2629 641.515 93.3973 641.685 93.511C641.855 93.6208 642.052 93.7174 642.276 93.8007C642.499 93.8803 642.738 93.9485 642.992 94.0053L644.037 94.2553C644.545 94.3689 645.011 94.5204 645.435 94.7098C645.859 94.8992 646.227 95.1322 646.537 95.4087C646.848 95.6852 647.088 96.011 647.259 96.386C647.433 96.761 647.522 97.1909 647.526 97.6757C647.522 98.3879 647.34 99.0053 646.98 99.528C646.624 100.047 646.109 100.451 645.435 100.739C644.765 101.023 643.956 101.165 643.009 101.165C642.069 101.165 641.251 101.021 640.554 100.733C639.861 100.445 639.319 100.019 638.929 99.4541C638.543 98.886 638.34 98.1833 638.321 97.3462H640.702C640.729 97.7363 640.84 98.0621 641.037 98.3235C641.238 98.581 641.505 98.7761 641.838 98.9087C642.176 99.0375 642.556 99.1019 642.98 99.1019C643.397 99.1019 643.759 99.0413 644.066 98.9201C644.376 98.7988 644.617 98.6303 644.787 98.4144C644.958 98.1985 645.043 97.9504 645.043 97.6701C645.043 97.4087 644.965 97.189 644.81 97.011C644.658 96.8329 644.435 96.6814 644.14 96.5564C643.848 96.4314 643.49 96.3178 643.066 96.2155L641.799 95.8973C640.818 95.6587 640.043 95.2856 639.475 94.778C638.907 94.2704 638.624 93.5867 638.628 92.7269C638.624 92.0223 638.812 91.4068 639.191 90.8803C639.573 90.3538 640.098 89.9428 640.765 89.6473C641.431 89.3519 642.189 89.2041 643.037 89.2041C643.901 89.2041 644.655 89.3519 645.299 89.6473C645.946 89.9428 646.45 90.3538 646.81 90.8803C647.17 91.4068 647.355 92.0166 647.367 92.7098H645.009ZM659.394 95.1814C659.394 96.4504 659.153 97.5299 658.672 98.4201C658.195 99.3102 657.544 99.9901 656.718 100.46C655.896 100.926 654.972 101.159 653.945 101.159C652.911 101.159 651.983 100.924 651.161 100.455C650.339 99.9844 649.689 99.3045 649.212 98.4144C648.735 97.5242 648.496 96.4466 648.496 95.1814C648.496 93.9125 648.735 92.8329 649.212 91.9428C649.689 91.0526 650.339 90.3746 651.161 89.9087C651.983 89.439 652.911 89.2041 653.945 89.2041C654.972 89.2041 655.896 89.439 656.718 89.9087C657.544 90.3746 658.195 91.0526 658.672 91.9428C659.153 92.8329 659.394 93.9125 659.394 95.1814ZM656.9 95.1814C656.9 94.3594 656.776 93.6663 656.53 93.1019C656.288 92.5375 655.945 92.1094 655.502 91.8178C655.059 91.5261 654.54 91.3803 653.945 91.3803C653.35 91.3803 652.831 91.5261 652.388 91.8178C651.945 92.1094 651.6 92.5375 651.354 93.1019C651.112 93.6663 650.991 94.3594 650.991 95.1814C650.991 96.0034 651.112 96.6966 651.354 97.261C651.6 97.8254 651.945 98.2534 652.388 98.5451C652.831 98.8367 653.35 98.9826 653.945 98.9826C654.54 98.9826 655.059 98.8367 655.502 98.5451C655.945 98.2534 656.288 97.8254 656.53 97.261C656.776 96.6966 656.9 96.0034 656.9 95.1814ZM664.861 101H660.736V89.3632H664.895C666.066 89.3632 667.073 89.5962 667.918 90.0621C668.763 90.5242 669.412 91.189 669.867 92.0564C670.325 92.9238 670.555 93.9617 670.555 95.1701C670.555 96.3822 670.325 97.4238 669.867 98.2951C669.412 99.1663 668.759 99.8348 667.907 100.301C667.058 100.767 666.043 101 664.861 101ZM663.197 98.8916H664.759C665.486 98.8916 666.098 98.7629 666.594 98.5053C667.094 98.2439 667.469 97.8405 667.719 97.2951C667.973 96.7458 668.1 96.0375 668.1 95.1701C668.1 94.3102 667.973 93.6076 667.719 93.0621C667.469 92.5166 667.096 92.1151 666.6 91.8576C666.104 91.6 665.492 91.4712 664.765 91.4712H663.197V98.8916ZM671.897 101V89.3632H679.738V91.3916H674.357V94.1644H679.334V96.1928H674.357V98.9712H679.761V101H671.897ZM691.893 101.159C691.045 101.159 690.289 101.013 689.626 100.722C688.967 100.426 688.446 100.021 688.064 99.5053C687.685 98.9863 687.49 98.3879 687.478 97.7098H689.956C689.971 97.9939 690.064 98.2439 690.234 98.4598C690.408 98.6719 690.639 98.8367 690.927 98.9541C691.215 99.0716 691.539 99.1303 691.899 99.1303C692.274 99.1303 692.605 99.064 692.893 98.9314C693.181 98.7988 693.406 98.6151 693.569 98.3803C693.732 98.1454 693.814 97.8746 693.814 97.5678C693.814 97.2572 693.726 96.9826 693.552 96.7439C693.382 96.5015 693.135 96.3121 692.814 96.1757C692.495 96.0394 692.117 95.9712 691.677 95.9712H690.592V94.1644H691.677C692.048 94.1644 692.376 94.1 692.66 93.9712C692.948 93.8424 693.171 93.6644 693.331 93.4371C693.49 93.206 693.569 92.9371 693.569 92.6303C693.569 92.3386 693.499 92.0829 693.359 91.8632C693.223 91.6398 693.029 91.4655 692.779 91.3405C692.533 91.2155 692.245 91.153 691.916 91.153C691.582 91.153 691.278 91.2136 691.001 91.3348C690.725 91.4523 690.503 91.6208 690.336 91.8405C690.17 92.0602 690.081 92.3178 690.069 92.6132H687.711C687.723 91.9428 687.914 91.3519 688.285 90.8405C688.656 90.3291 689.156 89.9295 689.785 89.6416C690.418 89.35 691.132 89.2041 691.927 89.2041C692.73 89.2041 693.433 89.35 694.035 89.6416C694.637 89.9333 695.105 90.3273 695.439 90.8235C695.776 91.3159 695.942 91.8689 695.939 92.4826C695.942 93.1341 695.74 93.6776 695.331 94.1132C694.925 94.5488 694.397 94.8254 693.745 94.9428V95.0337C694.601 95.1435 695.253 95.4409 695.7 95.9257C696.151 96.4068 696.374 97.0091 696.37 97.7326C696.374 98.3954 696.183 98.9844 695.796 99.4996C695.414 100.015 694.885 100.42 694.211 100.716C693.537 101.011 692.764 101.159 691.893 101.159Z" fill="#9593B2"/>
<path d="M536.043 159.8C531.603 159.8 527.603 158.4 524.363 156.28L525.563 149.44C527.923 151.12 531.963 152.88 535.643 152.88C538.163 152.88 540.163 151.8 540.203 149.44C540.243 147.24 538.483 146 534.843 144.64L533.043 143.96C527.283 141.8 524.483 138.6 524.483 133.32C524.483 127.2 529.083 123.44 536.163 123.44C539.723 123.44 543.243 124.44 546.003 126.04L545.003 132.52C542.083 130.96 539.283 130.36 536.723 130.36C534.363 130.36 532.403 131.28 532.363 133.52C532.323 135.84 534.323 136.68 537.563 137.92L539.363 138.6C544.683 140.6 548.123 143.52 548.123 149.44C548.123 155.92 543.003 159.8 536.043 159.8ZM557.188 130.6H549.508V123.84H557.188V130.6ZM557.188 159.16H549.508V132.88H557.188V159.16ZM582.249 132.88V136.52H582.289V157.72C582.289 162.52 579.449 168 570.289 168C567.409 168 564.809 167.36 562.889 166.28L563.689 160.72C565.449 161.44 567.209 161.88 569.489 161.88C573.089 161.88 575.089 160.68 575.089 157.12V156.92C573.409 158.6 570.849 159.2 568.929 159.2C563.649 159.2 559.169 156.6 559.169 148.16V143.28C559.169 134.84 563.649 132.24 568.929 132.24C570.929 132.24 573.529 133.08 575.089 134.84V132.88H582.249ZM574.729 149.12V142.48C574.729 139.76 572.569 138.68 570.849 138.68C569.129 138.68 567.009 139.76 567.009 142.48V148.92C567.009 151.64 569.129 152.76 570.849 152.76C572.529 152.76 574.729 151.68 574.729 149.12ZM592.408 159.16H584.688V124.08H592.408V134.56C593.808 132.96 596.088 132.24 598.528 132.24C603.368 132.24 607.648 134.84 607.648 143.28V159.16H599.808V142.76C599.808 140.04 598.248 138.72 596.128 138.72C594.008 138.72 592.408 140 592.408 142.56V159.16ZM620.051 159.84C615.171 159.84 612.011 157.68 612.011 151.64V140.04H607.651V133.68H612.011V125.28H619.611V133.68H625.691V140.04H619.611V151.28C619.611 152.64 620.411 153.36 621.691 153.4C622.891 153.44 624.451 153.28 625.291 152.96L625.691 158.76C624.291 159.4 622.331 159.84 620.051 159.84ZM664.47 147.6L668.83 124.12H676.83L668.83 159.16H660.51L655.39 136.48L650.43 159.16H642.11L633.91 124.12H641.95L646.35 147.6L651.43 124.12H659.35L664.47 147.6ZM686.629 159.8C681.309 159.8 675.029 157.32 675.029 148.72V143.32C675.029 134.72 681.189 132.24 686.629 132.24C691.949 132.24 698.229 134.72 698.229 143.32V148.72C698.229 157.32 691.949 159.8 686.629 159.8ZM686.629 153.24C688.349 153.24 690.589 152.32 690.589 149.48V142.56C690.589 139.72 688.349 138.8 686.629 138.8C684.909 138.8 682.669 139.72 682.669 142.56V149.48C682.669 152.32 684.909 153.24 686.629 153.24ZM707.955 159.16H700.235V132.88H707.595V134.88C708.955 133 711.355 132.24 713.315 132.24C714.915 132.24 716.155 132.6 717.195 133.4L716.795 140.16C715.675 139.6 714.275 139.36 712.795 139.36C709.795 139.36 708.075 140.76 707.955 143.16V159.16ZM732.561 134.04V124.88H740.281V159.16H733.121V157.2C731.561 158.96 728.961 159.8 726.961 159.8C721.681 159.8 717.201 157.2 717.201 148.76V143.28C717.201 134.84 721.681 132.24 726.961 132.24C728.881 132.24 731.041 132.84 732.561 134.04ZM732.761 149.56V142.32C732.761 139.76 730.561 138.68 728.881 138.68C727.161 138.68 725.041 139.8 725.041 142.52V149.56C725.041 152.28 727.161 153.36 728.881 153.36C730.601 153.36 732.761 152.28 732.761 149.56ZM752.551 159.8C749.031 159.8 745.311 158.92 742.591 157.08L743.391 150.96C746.591 152.84 749.231 153.6 751.991 153.6C753.751 153.6 754.871 152.92 754.871 151.72C754.871 150.36 752.751 149.64 749.751 148.6L748.111 148.04C744.151 146.68 742.031 143.68 742.071 140.24C742.111 135.08 746.071 132.24 752.231 132.24C755.831 132.24 758.671 133.08 761.031 134.64L759.991 140.4C758.151 139.24 755.471 138.44 752.951 138.44C751.031 138.44 749.991 139.04 749.991 140.12C749.991 141.48 751.511 141.8 754.391 142.72L755.871 143.2C760.111 144.56 762.591 147.28 762.551 151.36C762.511 157.04 758.151 159.8 752.551 159.8ZM784.937 159.16H777.337V134.96H771.777V129C775.737 128.84 777.937 127.56 778.617 124.08H784.937V159.16Z" fill="#0C0541"/>
<path d="M1054.64 535.737C1054.64 535.737 1032.48 571.507 1042.71 577.339C1042.71 577.339 1051.4 580.583 1055.45 563.386C1055.45 563.386 1049.61 577.98 1055.78 579.438C1055.78 579.438 1062.43 583.172 1066.49 565.484C1066.49 565.484 1062.43 579.915 1069.58 579.915C1069.58 579.915 1076.39 582.191 1079.15 563.208C1079.15 563.208 1077.69 577.162 1085.15 577.803C1085.15 577.803 1091.97 579.751 1093.1 563.045C1093.1 563.045 1091.64 577.639 1098.62 577.476C1098.62 577.476 1104.46 578.13 1103.16 562.391C1103.16 562.391 1104.46 576.508 1109.65 576.181C1109.65 576.181 1115.98 577.966 1113.72 562.227C1113.72 562.227 1115.34 575.854 1122.96 574.723C1122.96 574.723 1135.78 573.429 1120.52 549.091L1111.11 533.679L1054.63 535.709L1054.64 535.737Z" fill="#C3C1E3"/>
<path d="M1081.48 504.755C1081.48 504.755 1061.52 503.692 1046.01 530.223C1046.01 530.223 1035.5 545.54 1042.28 549.274C1042.28 549.274 1050.12 555.501 1056.17 538.413C1056.17 538.413 1051.18 551.413 1056.17 552.299C1056.17 552.299 1063.48 555.501 1066.86 538.59C1066.86 538.59 1063.3 553.73 1070.07 553.553C1070.07 553.553 1077.02 555.692 1078.8 538.059C1078.8 538.059 1076.3 553.198 1082.18 553.375C1082.18 553.375 1088.41 555.16 1089.49 538.413C1089.49 538.413 1088.25 551.767 1095.01 551.767C1095.01 551.767 1100.71 554.615 1100.53 537.514C1100.53 537.514 1100.89 551.59 1110.16 550.691C1110.16 550.691 1116.76 552.476 1113.36 537.868C1113.36 537.868 1116.57 549.982 1122.81 548.02C1122.81 548.02 1131.72 544.818 1119.08 523.083C1119.08 523.083 1103.75 499.577 1081.47 504.741L1081.48 504.755Z" fill="#BFBDDF"/>
<path d="M1084.17 479.263C1084.17 479.263 1057.63 479.263 1047.4 505.781C1047.4 505.781 1041.8 519.653 1045.94 522.324C1045.94 522.324 1052.43 528.851 1060.1 509.624C1060.1 509.624 1051.19 525.649 1057.07 527.788C1057.07 527.788 1066.52 533.662 1071.33 511.409C1071.33 511.409 1067.6 525.486 1074.54 526.903C1074.54 526.903 1083.09 530.282 1085.23 509.624C1085.23 509.624 1082.56 524.586 1089.87 525.649C1089.87 525.649 1096.64 528.143 1096.47 508.902C1096.47 508.902 1095.94 524.927 1102.7 524.573C1102.7 524.573 1110.54 527.775 1106.98 508.193C1106.98 508.193 1108.59 523.155 1116.61 522.447C1116.61 522.447 1126.06 521.207 1118.75 499.826C1118.75 499.826 1107.72 477.219 1084.18 479.263H1084.17Z" fill="#B0AED1"/>
<path d="M1084.85 455.542C1084.85 455.542 1063.92 455.051 1051.99 481.092C1051.99 481.092 1047.61 490.903 1051.17 492.525C1051.17 492.525 1054.58 496.736 1065.13 483.123C1065.13 483.123 1053.61 496.095 1057.51 498.698C1057.51 498.698 1061.57 504.694 1073.26 485.889C1073.26 485.889 1067.42 496.599 1074.23 498.862C1074.23 498.862 1081.54 502.105 1084.95 485.562C1084.95 485.562 1081.37 499.025 1087.86 500.32C1087.86 500.32 1094.19 501.778 1095.98 484.908C1095.98 484.908 1094.19 498.862 1099.39 499.338C1099.39 499.338 1105.88 500.96 1104.75 484.744C1104.75 484.744 1106.21 497.39 1113.19 496.586C1113.19 496.586 1124.71 494.31 1112.86 472.425C1112.86 472.425 1102.47 453.607 1084.86 455.555L1084.85 455.542Z" fill="#A19FC1"/>
<path d="M1080.88 436.401C1080.88 436.401 1052.64 446.689 1056.35 459.975C1056.35 459.975 1057.43 465.235 1068.47 456.65C1068.47 456.65 1054.18 466.134 1059.03 470.181C1059.03 470.181 1063.07 473.752 1072.29 461.992C1072.29 461.992 1066.17 472.253 1072.83 473.602C1072.83 473.602 1081.9 475.837 1083.03 460.397C1083.03 460.397 1080.88 471.939 1085.87 471.953C1085.87 471.953 1092.09 472.784 1091.26 460.248C1091.26 460.248 1091.23 471.926 1097.08 471.081C1097.08 471.081 1102.3 473.179 1100.13 457.331C1100.13 457.331 1103.2 469.241 1110.43 465.358C1110.43 465.358 1117.79 457.631 1103.6 447.179C1103.6 447.179 1088.99 433.471 1080.92 436.414L1080.88 436.401Z" fill="#9593B2"/>
</svg>
